<?xml version="1.0" encoding="UTF-8"?>
<svg width="113px" height="32px" viewBox="0 0 113 32" version="1.1" xmlns="http://www.w3.org/2000/svg" xmlns:xlink="http://www.w3.org/1999/xlink">
    <!-- Generator: Sketch 47.1 (45422) - http://www.bohemiancoding.com/sketch -->
    <title>Accenture</title>
    <desc>Created with Sketch.</desc>
    <defs>
        <polygon id="path-1" points="0.438020408 0.540724806 112.009916 0.540724806 112.009916 33.8969575 0.438020408 33.8969575"></polygon>
    </defs>
    <g id="Page-1" stroke="none" stroke-width="1" fill="none" fill-rule="evenodd">
        <g id="Desktop-HD-Copy" transform="translate(-129.000000, -2620.000000)">
            <g id="Accenture" transform="translate(129.000000, 2619.000000)">
                <g id="svg2">
                    <g id="layer1" transform="translate(-0.000001, 0.073842)">
                        <g id="g3437" transform="translate(56.619839, 17.866882) scale(1, -1) translate(-56.619839, -17.866882) translate(0.119839, 0.866882)">
                            <g id="g3439-Clipped">
                                <mask id="mask-2" fill="white">
                                    <use xlink:href="#path-1"></use>
                                </mask>
                                <g id="path3443"></g>
                                <g id="g3439" mask="url(#mask-2)">
                                    <g transform="translate(0.000000, 1.554049)">
                                        <g id="g3445" transform="translate(0.136375, 0.428943)"></g>
                                        <g id="g3449" transform="translate(13.246314, 0.158618)"></g>
                                        <g id="g3453" transform="translate(26.255765, 0.158618)"></g>
                                        <g id="g3457" transform="translate(39.055409, 0.589933)"></g>
                                        <g id="g3461" transform="translate(52.774711, 1.037373)"></g>
                                        <g id="g3465" transform="translate(65.052472, 0.332689)"></g>
                                        <g id="g3469" transform="translate(77.320111, 0.428943)"></g>
                                        <g id="g3473" transform="translate(91.137324, 0.658869)"></g>
                                        <g id="g3477" transform="translate(99.740130, 0.589933)"></g>
                                        <g id="g3481" transform="translate(65.572023, 21.391842)"></g>
                                        <g id="Group-2" transform="translate(0.000000, 0.616667)">
                                            <path d="M11.7923805,0.420706045 L11.7923805,10.6770062 C11.7923805,14.0039001 9.59123595,15.1526154 6.51036972,15.1526154 C3.49330478,15.1526154 0.98174238,13.8828225 0.98174238,10.5863502 L4.28652661,10.5863502 C4.28652661,12.0100758 5.04784779,12.7955586 6.51036972,12.7955586 C8.188221,12.7955586 8.55507843,11.5847834 8.55507843,10.1628831 L8.55507843,8.7373322 C5.25888284,8.64606774 0.437590976,8.19096229 0.437590976,3.86320153 C0.437590976,1.41366339 2.39334596,0.0824191078 4.70798322,0.0824191078 C6.29810773,0.0824191078 7.76001618,0.59836753 8.49741188,2.08111081 L8.55507843,2.08111081 L8.55507843,0.420706045 L11.7923805,0.420706045 M8.55507843,6.77027884 C8.55507843,4.92065242 7.79130335,2.4449518 5.53433265,2.4449518 C4.40185971,2.4449518 3.73255962,3.02113477 3.73255962,4.17045855 C3.73255962,6.33586 6.93857454,6.77027884 8.55507843,6.77027884" id="path3447" fill="#FFFFFF"></path>
                                            <path d="M21.8349493,9.88525659 C21.8349493,11.3692167 21.4079714,12.7953761 19.6387125,12.7953761 C17.5001423,12.7953761 16.8609024,10.5861677 16.8609024,8.85518504 C16.8609024,5.22346791 18.9914975,2.44476927 22.8465678,2.44476927 C23.6649421,2.44476927 24.4863837,2.5354253 25.2832864,2.81834513 L25.2832864,0.750292436 C23.9066508,0.321349468 22.476643,0.0828450086 21.039887,0.0828450086 C15.8541916,0.0828450086 13.2598102,3.23511951 13.2598102,8.25344802 C13.2598102,12.4364025 15.5542029,15.1524329 19.9147758,15.1524329 C23.455134,15.1524329 25.4348145,13.4330104 25.4348145,9.88525659 L21.8349493,9.88525659" id="path3451" fill="#FFFFFF"></path>
                                            <path d="M34.8444008,9.88525659 C34.8444008,11.3692167 34.416196,12.7953761 32.6500044,12.7953761 C30.5157285,12.7953761 29.8685135,10.5861677 29.8685135,8.85518504 C29.8685135,5.22346791 32.0132185,2.44476927 35.8541789,2.44476927 C36.6756206,2.44476927 37.5001296,2.5354253 38.291511,2.81834513 L38.291511,0.750292436 C36.923464,0.321349468 35.486708,0.0828450086 34.0517924,0.0828450086 C28.8636431,0.0828450086 26.2735561,3.23511951 26.2735561,8.25344802 C26.2735561,12.4364025 28.5648813,15.1524329 32.9223869,15.1524329 C36.4658125,15.1524329 38.4485603,13.4330104 38.4485603,9.88525659 L34.8444008,9.88525659" id="path3455" fill="#FFFFFF"></path>
                                            <path d="M51.324888,8.49128321 L51.324888,9.31631394 C51.324888,12.8287788 49.497349,15.152372 45.8017819,15.152372 C41.4700423,15.152372 39.5750212,12.4612873 39.5750212,8.3744647 C39.5750212,3.6244537 41.7405843,0.0827841657 46.8962194,0.0827841657 C48.2710146,0.0827841657 49.6458097,0.236716891 50.9537362,0.660792421 L50.9537362,2.97951817 C50.1040748,2.68686346 49.0930697,2.44470843 48.1832878,2.44470843 C44.8846383,2.44470843 42.7184618,5.4308816 42.7184618,8.49128321 L51.324888,8.49128321 M48.1207135,10.5252638 L42.8123233,10.5252638 C42.9626244,11.9800194 44.0969378,13.0143499 45.5539384,13.0143499 C47.1146162,13.0143499 48.1207135,12.0688501 48.1207135,10.5252638" id="path3459" fill="#FFFFFF"></path>
                                            <path d="M61.3633464,0.420706045 L61.3633464,8.64606774 C61.3633464,9.34150293 61.4234669,11.1911294 60.8461879,11.7362824 C60.5977309,11.9802627 60.206948,12.0100758 59.8676969,12.0100758 C57.426684,12.0100758 56.4488065,8.58887534 56.4488065,6.64494231 L56.4488065,0.420706045 L53.0624303,0.420706045 L53.0624303,14.8234549 L56.4488065,14.8234549 L56.4488065,12.1305449 L56.5107674,12.1305449 C57.2757694,13.9746954 58.7346105,15.1526154 60.8142872,15.1526154 C63.5920973,15.1526154 64.7527901,12.8831725 64.7527901,10.4026044 L64.7527901,0.420706045 L61.3633464,0.420706045" id="path3463" fill="#FFFFFF"></path>
                                            <path d="M71.8006857,12.4930473 L71.8006857,5.68167634 C71.8006857,3.98172364 71.9785931,2.44483011 74.0932379,2.44483011 C74.6067156,2.44483011 75.1306223,2.5592149 75.6490078,2.68698515 L75.6490078,0.321410311 C74.7281834,0.173561883 73.7883413,0.0829058516 72.8693573,0.0829058516 C69.9007568,0.0829058516 68.4210576,1.05456815 68.4210576,4.04560877 L68.4210576,12.4930473 L65.5794462,12.4930473 L65.5794462,14.8233332 L68.4210576,14.8233332 L68.4210576,18.2366241 L71.8006857,19.6031573 L71.8006857,14.8233332 L76.104819,14.8233332 L76.104819,12.4930473 L71.8006857,12.4930473" id="path3467" fill="#FFFFFF"></path>
                                            <path d="M85.9087464,0.420706045 L85.9087464,3.10753179 L85.8504663,3.10753179 C85.0781026,1.29623644 83.5910417,0.0824191078 81.5451061,0.0824191078 C78.7685229,0.0824191078 77.6053763,2.35003676 77.6053763,4.82938796 L77.6053763,14.8234549 L80.9948199,14.8234549 L80.9948199,6.58470777 C80.9948199,5.88744728 80.9359264,4.04573045 81.5101381,3.50179426 C81.759822,3.25781394 82.1518318,3.23530204 82.4923099,3.23530204 C84.928415,3.23530204 85.9087464,6.64494231 85.9087464,8.58887534 L85.9087464,14.8234549 L89.3018708,14.8234549 L89.3018708,0.420706045 L85.9087464,0.420706045" id="path3471" fill="#FFFFFF"></path>
                                            <path d="M94.8181673,6.73492907 L94.8181673,0.420645202 L91.4336315,0.420645202 L91.4336315,14.8233941 L94.8181673,14.8233941 L94.8181673,12.1633392 L94.8776743,12.1633392 C96.0119877,14.1510792 97.1389393,15.1525546 99.5811792,15.1525546 L99.5811792,11.6449571 C96.1040088,11.6449571 94.8181673,10.1324008 94.8181673,6.73492907" id="path3475" fill="#FFFFFF"></path>
                                            <path d="M112.00961,8.49128321 L112.00961,9.31631394 C112.00961,12.8287788 110.182071,15.152372 106.487117,15.152372 C102.155377,15.152372 100.257289,12.4612873 100.257289,8.3744647 C100.257289,3.6244537 102.427146,0.0827841657 107.578487,0.0827841657 C108.959417,0.0827841657 110.329918,0.236716891 111.642139,0.660792421 L111.642139,2.97951817 C110.792477,2.68686346 109.781472,2.44470843 108.86985,2.44470843 C105.571814,2.44470843 103.401956,5.4308816 103.401956,8.49128321 L112.00961,8.49128321 M108.804822,10.5252638 L103.497045,10.5252638 C103.65164,11.9800194 104.777365,13.0143499 106.241727,13.0143499 C107.799951,13.0143499 108.804822,12.0688501 108.804822,10.5252638" id="path3479" fill="#FFFFFF"></path>
                                            <path d="M65.5720232,31.7269109 L65.5720232,29.3534264 C65.5720232,29.3534264 72.3398679,26.759082 73.3140646,26.3873315 C72.3398679,26.0161893 65.5720232,23.4273208 65.5720232,23.4273208 L65.5720232,21.0629628 L76.1072115,25.3018928 L76.1072115,27.4806797 L65.5720232,31.7269109" id="path3483" fill="#FFFFFF"></path>
                                        </g>
                                    </g>
                                </g>
                            </g>
                        </g>
                    </g>
                </g>
            </g>
        </g>
    </g>
</svg>