<?xml version="1.0" encoding="UTF-8"?>
<svg width="57px" height="51px" viewBox="0 0 57 51" version="1.1" xmlns="http://www.w3.org/2000/svg" xmlns:xlink="http://www.w3.org/1999/xlink">
    <!-- Generator: Sketch 47.1 (45422) - http://www.bohemiancoding.com/sketch -->
    <title>CIBC_logo</title>
    <desc>Created with Sketch.</desc>
    <defs></defs>
    <g id="Page-1" stroke="none" stroke-width="1" fill="none" fill-rule="evenodd">
        <g id="Desktop-HD-Copy" transform="translate(-1237.000000, -2531.000000)">
            <g id="CIBC_logo" transform="translate(1239.000000, 2532.000000)">
                <g id="Layer_1">
                    <rect id="Rectangle-path" stroke="#FFFFFF" stroke-width="2.12121212" x="0" y="0.128710839" width="53" height="48.3812892"></rect>
                    <path d="M2.47474667,33.9833795 L2.47474667,39.2274168 C10.8407967,34.490433 26.7128833,27.407973 50.69609,25.4388919 L50.69609,24.3066968 C33.06829,25.2745952 16.4169267,28.5732752 2.47474667,33.9833795" id="Shape" fill="#FFFFFF"></path>
                    <path d="M2.47474667,41.1561319 L2.47474667,44.7561404 C14.4129967,35.8818201 31.8961067,29.7745174 50.69609,27.7562181 L50.69609,26.6640349 C32.1194133,28.3477214 15.79241,33.3757652 2.47474667,41.1561319" id="Shape" fill="#FFFFFF"></path>
                    <path d="M29.15106,12.3357035 C28.6500333,12.3357035 28.3408667,12.2976391 28.1868133,12.2664794 L28.1868133,8.75906474 C28.1868133,8.11214672 28.21084,7.50842737 28.2714367,7.09343672 C28.4645333,7.03058617 29.00001,6.94365766 29.3983933,6.94365766 C31.3095733,6.94365766 32.15086,7.75345599 32.15086,9.51911376 C32.15086,11.9715244 30.3025733,12.3192384 29.15106,12.3357035 L29.15106,12.3357035 Z M32.62044,17.0039943 C32.62044,19.4142685 31.2788333,20.398632 29.25759,20.398632 C28.84631,20.398632 28.4385633,20.3506532 28.1868133,20.2762948 L28.1868133,13.4942781 L29.07686,13.4942781 C31.6265133,13.4941011 32.62044,14.7920091 32.62044,17.0039943 L32.62044,17.0039943 Z M31.8107767,12.701476 C33.62797,12.1910587 35.15649,10.890495 35.15649,8.91663372 C35.15649,7.02332737 33.92742,5.75038248 31.4113333,5.75038248 C30.20947,5.75038248 28.7009133,5.87307383 27.6122933,5.87307383 C26.54293,5.87307383 25.4051967,5.86103485 24.1019267,5.79216482 L24.0194233,5.78101106 L24.0194233,6.66056464 L24.0960967,6.66658412 C25.1868367,6.74908653 25.26722,6.95976865 25.26722,8.72666573 L25.26722,19.1738431 C25.26722,20.1086343 25.1456733,20.5645221 24.2923733,20.6323299 L24.0409767,20.6525128 L24.0409767,21.5171947 C24.8688367,21.4663832 26.40142,21.4288499 27.0679833,21.4288499 C27.7371967,21.4288499 28.24953,21.4662061 29.09064,21.5003756 C34.1185733,21.7230967 35.7552133,18.8594133 35.7552133,16.558021 C35.7552133,13.8078227 33.73821,13.1162896 31.81325,12.7236065 L31.8107767,12.701476 Z" id="Shape" fill="#FFFFFF"></path>
                    <path d="M16.08762,19.3944396 C15.0908667,20.0151552 13.9298133,20.2761177 12.6173567,20.2761177 C9.06865333,20.2761177 7.30481333,17.5367191 7.30481333,13.1925955 C7.30481333,9.36597088 8.99516,6.83743139 12.23293,6.83743139 C13.33639,6.83743139 14.2285567,7.23011453 14.81774,7.78833361 C14.91526,8.14543095 15.0458167,10.0111185 15.0458167,10.0111185 L15.95088,10.0141282 L15.95088,9.94632044 C15.9591833,9.13829255 16.18408,7.2595038 16.3538567,6.31426697 L16.3607467,6.24167901 L16.2941433,6.23796109 C15.0230267,5.89909927 13.72753,5.61228832 12.0030867,5.61228832 C8.09822333,5.61228832 4.11386,7.97971796 4.11386,13.461348 C4.11386,19.209783 7.61256667,21.7030907 11.8320733,21.7030907 C12.9883567,21.7030907 14.5227067,21.526401 15.76167,20.8461988 L15.7811033,20.8378777 L16.3815933,19.6943518 L16.1376167,19.363634 L16.08762,19.3944396" id="Shape" fill="#FFFFFF"></path>
                    <path d="M48.72714,19.3944396 C47.7326833,20.0151552 46.5730433,20.2761177 45.25617,20.2761177 C41.7095867,20.2761177 39.94663,17.5367191 39.94663,13.1925955 C39.94663,9.36597088 41.6371533,6.83743139 44.87404,6.83743139 C45.9787367,6.83743139 46.87055,7.23011453 47.45938,7.78833361 C47.5546033,8.14543095 47.68569,10.0111185 47.68569,10.0111185 L48.5948167,10.0141282 L48.5900467,9.94632044 C48.59994,9.13829255 48.82307,7.2595038 48.9933767,6.31426697 L49.0025633,6.24167901 L48.9363133,6.23796109 C47.6614867,5.89909927 46.3663433,5.61228832 44.6411933,5.61228832 C40.73898,5.61228832 36.75497,7.97971796 36.75497,13.461348 C36.75497,19.209783 40.2535,21.7030907 44.4753033,21.7030907 C45.6277,21.7030907 47.1659367,21.526401 48.4041933,20.8461988 L48.4216833,20.8378777 L49.0227033,19.6943518 L48.77908,19.363634 L48.72714,19.3944396" id="Shape" fill="#FFFFFF"></path>
                    <path d="M20.1716233,5.87307383 C19.2589633,5.87307383 18.2321767,5.86103485 17.3608567,5.78791577 L17.29178,5.78101106 L17.29178,6.65259766 L17.3523767,6.65578445 C18.49382,6.72801832 18.6431033,6.91533066 18.6431033,8.89485734 L18.6431033,18.8147982 C18.6431033,20.3306472 18.5694333,20.564345 17.40732,20.6388805 L17.34478,20.6454311 L17.34478,21.5168407 L17.4143867,21.5092278 C18.2915367,21.4323908 19.2208033,21.4184043 20.1302833,21.4184043 C21.0247467,21.4184043 21.8806967,21.4323908 22.8271,21.5092278 L22.8961767,21.5168407 L22.8961767,20.6454311 L22.8373467,20.6388805 C21.6777067,20.564345 21.61234,20.3304702 21.61234,18.8147982 L21.61234,8.89485734 C21.61234,6.8827546 21.6847733,6.72784128 22.83293,6.65578445 L22.89229,6.65259766 L22.89229,5.78101106 L22.8226833,5.78791577 C21.8808733,5.86103485 21.0683833,5.87307383 20.1716233,5.87307383" id="Shape" fill="#FFFFFF"></path>
                </g>
            </g>
        </g>
    </g>
</svg>