<?xml version="1.0" encoding="UTF-8"?>
<svg width="99px" height="39px" viewBox="0 0 99 39" version="1.1" xmlns="http://www.w3.org/2000/svg" xmlns:xlink="http://www.w3.org/1999/xlink">
    <!-- Generator: Sketch 47.1 (45422) - http://www.bohemiancoding.com/sketch -->
    <title>IBM_logo</title>
    <desc>Created with Sketch.</desc>
    <defs></defs>
    <g id="Page-1" stroke="none" stroke-width="1" fill="none" fill-rule="evenodd">
        <g id="Desktop-HD-Copy" transform="translate(-495.000000, -2536.000000)" fill="#FFFFFF">
            <g id="IBM_logo" transform="translate(495.440912, 2536.000000)">
                <path d="M0,0 L0,2.6682825 L19.0755471,2.6682825 L19.0755471,0 L0,0 Z M21.7782039,0 L21.7782039,2.6682825 L48.9617183,2.6682825 C48.9617173,2.6682825 46.1850725,0 42.5075,0 L21.7782039,0 Z M54.2942971,0 L54.2942971,2.6682825 L70.7399221,2.6682825 L69.76375,0 L54.2942971,0 Z M82.5305471,0 L81.554375,2.6682825 L97.8507029,2.6682825 L97.8507029,0 L82.5305471,0 Z M0,5.18916547 L0,7.85744719 L19.0755471,7.85744719 L19.0755471,5.18916547 L0,5.18916547 Z M21.7782039,5.19294506 L21.7782039,7.85744719 L52.1160942,7.85744719 C52.1160942,7.85744836 51.7617625,5.80382263 51.14375,5.19294506 L21.7782039,5.19294506 Z M54.2942971,5.19294506 L54.2942971,7.85744719 L72.5429692,7.85744719 L71.6395308,5.19294506 L54.2942971,5.19294506 Z M80.5782029,5.19294506 L79.6747654,7.85744719 L97.8507029,7.85744719 L97.8507029,5.19294506 L80.5782029,5.19294506 Z M5.48187461,10.3783309 L5.48187461,13.0503916 L13.7429683,13.0503916 L13.7429683,10.3783309 L5.48187461,10.3783309 Z M27.2600789,10.3783309 L27.2600789,13.0503916 L35.5211711,13.0503916 L35.5211711,10.3783309 L27.2600789,10.3783309 Z M43.5564067,10.3783309 L43.5564067,13.0503916 L51.8175,13.0503916 C51.817501,13.0503916 52.3419529,11.6392721 52.3419529,10.3783309 L43.5564067,10.3783309 Z M59.7761721,10.3783309 L59.7761721,13.0503916 L74.4225789,13.0503916 L73.4464067,10.3783309 L59.7761721,10.3783309 Z M78.7789846,10.3783309 L77.7989846,13.0503916 L92.518125,13.0503916 L92.518125,10.3783309 L78.7789846,10.3783309 Z M5.48187461,15.5712765 L5.48187461,18.239557 L13.7429683,18.239557 L13.7429683,15.5712765 L5.48187461,15.5712765 Z M27.2600789,15.5712765 L27.2600789,18.239557 L48.3607039,18.239557 C48.3607048,18.2395561 50.1258054,16.8704347 50.6882029,15.5712765 L27.2600789,15.5712765 Z M59.7761721,15.5712765 L59.7761721,18.239557 L68.0372654,18.239557 L68.0372654,16.7542391 L68.5617183,18.239557 L83.6942971,18.239557 L84.2570317,16.7542391 L84.2570317,18.239557 L92.518125,18.239557 L92.518125,15.5712765 L77.0103904,15.5712765 L76.1873433,17.8313782 L75.3604692,15.5712765 L59.7761721,15.5712765 Z M5.48187461,20.760442 L5.48187461,23.4287225 L13.7429683,23.4287225 L13.7429683,20.760442 L5.48187461,20.760442 Z M27.2600789,20.760442 L27.2600789,23.4287225 L50.6882029,23.4287225 C50.1256839,22.1337977 48.3607039,20.760442 48.3607039,20.760442 L27.2600789,20.760442 Z M59.7761721,20.760442 L59.7761721,23.4287225 L68.0372654,23.4287225 L68.0372654,20.760442 L59.7761721,20.760442 Z M69.5378904,20.760442 L70.5370317,23.4287225 L81.8835942,23.4287225 L82.8329692,20.760442 L69.5378904,20.760442 Z M84.2570317,20.760442 L84.2570317,23.4287225 L92.518125,23.4287225 L92.518125,20.760442 L84.2570317,20.760442 Z M5.48187461,25.9496074 L5.48187461,28.617888 L13.7429683,28.617888 L13.7429683,25.9496074 L5.48187461,25.9496074 Z M27.2600789,25.9496074 L27.2600789,28.617888 L35.5211711,28.617888 L35.5211711,25.9496074 L27.2600789,25.9496074 Z M43.5564067,25.9496074 L43.5564067,28.617888 L52.3419529,28.617888 C52.3419548,27.3586433 51.8175,25.9496074 51.8175,25.9496074 L43.5564067,25.9496074 Z M59.7761721,25.9496074 L59.7761721,28.617888 L68.0372654,28.617888 L68.0372654,25.9496074 L59.7761721,25.9496074 Z M71.4136711,25.9496074 L72.3821875,28.617888 L79.9886711,28.617888 L80.9648433,25.9496074 L71.4136711,25.9496074 Z M84.2570317,25.9496074 L84.2570317,28.617888 L92.518125,28.617888 L92.518125,25.9496074 L84.2570317,25.9496074 Z M0.14929614,31.1387729 L0.14929614,33.8108335 L19.2248433,33.8108335 L19.2248433,31.1387729 L0.14929614,31.1387729 Z M21.7782039,31.1387729 L21.7782039,33.8108335 L51.14375,33.8108335 C51.7617625,33.1989889 52.1160942,31.1387729 52.1160942,31.1387729 L21.7782039,31.1387729 Z M54.4435933,31.1387729 L54.4435933,33.8108335 L68.0372654,33.8108335 L68.0372654,31.1387729 L54.4435933,31.1387729 Z M73.2932808,31.1387729 L74.2885933,33.8108335 L78.1588279,33.8108335 L79.0928904,31.1387729 L73.2932808,31.1387729 Z M84.2570317,31.1387729 L84.2570317,33.8108335 L98,33.8108335 L98,31.1387729 L84.2570317,31.1387729 Z M0.14929614,36.3317175 L0.14929614,39 L19.2248433,39 L19.2248433,36.3317175 L0.14929614,36.3317175 Z M21.7782039,36.3317175 L21.7782039,38.9962209 L42.5075,38.9962209 C46.1850715,38.9962189 48.9617183,36.3317175 48.9617183,36.3317175 L21.7782039,36.3317175 Z M54.4435933,36.3317175 L54.4435933,39 L68.0372654,39 L68.0372654,36.3317175 L54.4435933,36.3317175 Z M75.1805471,36.3317175 L76.1375789,38.9924398 L76.3021875,38.9962209 L77.2745317,36.3317175 L75.1805471,36.3317175 Z M84.2570317,36.3317175 L84.2570317,39 L98,39 L98,36.3317175 L84.2570317,36.3317175 Z" id="Shape"></path>
            </g>
        </g>
    </g>
</svg>