<?xml version="1.0" encoding="UTF-8"?>
<svg width="166px" height="20px" viewBox="0 0 166 20" version="1.1" xmlns="http://www.w3.org/2000/svg" xmlns:xlink="http://www.w3.org/1999/xlink">
    <!-- Generator: Sketch 47.1 (45422) - http://www.bohemiancoding.com/sketch -->
    <title>McKinsey_and_Company_Logo_1</title>
    <desc>Created with Sketch.</desc>
    <defs></defs>
    <g id="Page-1" stroke="none" stroke-width="1" fill="none" fill-rule="evenodd">
        <g id="Desktop-HD-Copy" transform="translate(-117.000000, -2547.000000)">
            <g id="McKinsey_and_Company_Logo_1" transform="translate(113.000000, 2545.000000)">
                <g id="svg3384">
                    <g id="layer1">
                        <path d="M101.783204,2.74427076 C97.8538542,2.74427076 95.2317708,5.8418404 95.2317708,10.0967015 C95.2317708,14.1659374 97.6287997,16.7234369 101.443358,16.7234374 C103.926483,16.7234374 105.865858,15.4844101 106.578775,14.2980904 L106.22005,13.8779515 C105.438413,14.9481596 103.753542,15.7303818 102.028646,15.7303818 C98.9466418,15.7303818 97.1009127,13.121702 97.1009127,9.23732627 C97.1009127,5.49427071 98.8967957,3.39357622 101.839841,3.39357622 C104.113775,3.39357622 105.426329,4.56767368 106.069008,6.86927071 L106.465496,6.86927071 L106.333333,2.89704844 L105.955729,2.89704844 C105.817525,3.17586813 105.582654,3.29809035 105.238284,3.29809035 C104.455888,3.29809035 103.737684,2.74427076 101.783204,2.74427076 Z M4.60677204,3.06892368 L4.60677204,3.46996511 C5.29627725,3.61052066 6.29919392,3.78697826 6.2304702,5.32239596 L5.81510562,13.4769096 C5.7229702,15.220104 5.23510513,15.8587147 4.04036579,15.9977429 L4.04036579,16.3987848 L8.2695327,16.3987848 L8.2695327,15.9977429 C6.98265722,15.7655207 6.61487148,15.3117707 6.6835952,13.5914929 L7.06119937,5.39878484 L11.290366,16.3032985 L11.8190119,16.3032985 L15.9537772,5.39878484 L16.3502619,14.1262152 C16.4197405,15.4760071 16.0549752,15.8816313 15.0664077,15.9977429 L15.0664077,16.3987848 L19.8242202,16.3987848 L19.8242202,15.9977429 C18.6513809,15.8816318 18.1944811,15.3278131 18.1250014,13.7251737 L17.7285168,5.37968738 C17.6832043,4.17045146 18.1861721,3.65711813 19.2200535,3.56545146 L19.2200535,3.14531257 L15.9348973,3.14531257 L12.0455744,13.4005207 L8.08073062,3.06892368 L4.60677204,3.06892368 Z M28.1503918,3.06892368 L28.1503918,3.46996511 C29.5762247,3.58607622 29.660809,3.88628528 29.6608085,7.32760404 L29.6608085,11.9300348 C29.6608085,15.6509374 29.508255,15.8816313 28.1503918,15.9977429 L28.1503918,16.3987848 L32.8704439,16.3987848 L32.8704439,15.9977429 C31.3751314,15.7899652 31.3789067,15.6799661 31.3789077,11.6817707 L31.3789077,10.9369793 L32.0019548,10.2303818 C33.5652356,12.183646 35.2455744,14.3294096 37.0618506,16.3987848 L40.1959647,16.3987848 L44.5384131,16.3987848 L44.5384131,15.9977429 C43.2507827,15.9060763 43.2168,15.9297561 43.2167981,12.9994793 L43.2167981,8.09149293 L40.1393244,8.09149293 L40.1393244,8.49253484 C41.4715119,8.53989596 41.6308625,8.61093787 41.6308606,10.9369793 L41.6308606,12.9803818 C41.6308606,15.9033356 41.6012115,15.9307402 40.1959647,15.9977429 C39.4603918,15.9282293 38.7240659,15.7196874 36.4010431,12.9994793 C35.505366,11.9292707 34.0266676,10.1287853 33.1536473,8.98906262 L35.9667981,5.81892373 C37.3458085,4.28350702 38.0957306,3.51732622 39.384116,3.46996511 L39.384116,3.06892368 L34.9661473,3.06892368 L34.9661473,3.46996511 C35.5408611,3.58607622 35.7591146,3.79690955 35.759116,4.21475702 C35.759116,4.49434035 35.7032301,4.98475756 34.852866,5.9144096 L31.3789077,9.79114596 L31.3789077,7.2894096 C31.3789077,3.8725348 31.5359905,3.65559035 32.8704439,3.46996511 L32.8704439,3.06892368 L28.1503918,3.06892368 Z M42.348309,3.60364591 C41.750184,3.60364591 41.3098992,4.06961715 41.3098973,4.67309035 C41.3098973,5.2780904 41.7501854,5.74253484 42.348309,5.74253484 C42.9464335,5.74253484 43.4056011,5.27808991 43.4056007,4.67309035 C43.4056007,4.06961813 42.9464354,3.60364591 42.348309,3.60364591 Z M85.7161458,3.75642368 C84.4760865,3.75642368 83.1862003,4.53940955 83.1862003,6.2581596 C83.1862003,6.91052071 83.3885962,7.50711818 83.7337252,8.20607627 C82.032242,8.74079849 81.128254,10.2334374 81.128254,11.9300348 C81.128254,15.0230207 83.4542957,16.7043404 86.074871,16.7043404 C87.7068702,16.7043399 88.994504,16.1810763 90.190754,15.1574652 C90.9255657,15.6937147 91.6603918,16.212396 92.0976587,16.3987848 L94.9296875,16.3987848 L94.9296875,15.9977429 C94.0090873,15.9053116 92.6232837,15.1429515 91.1536458,14.0498263 C91.6815377,13.1667707 91.8091667,11.8895485 91.946617,10.9369793 C92.0629118,10.1234374 92.6527332,10.1432985 93.0416667,10.0967015 L93.0416667,9.73385404 L89.3222668,9.73385404 L89.3222668,10.0967015 C90.1960417,10.2128126 91.040367,10.3281596 91.040367,11.7008682 C91.0403718,12.4219798 90.9285962,13.1407985 90.606121,13.6296874 C87.3421082,11.0485071 84.3378918,7.47503484 84.3378918,5.68524293 C84.337887,4.80065955 84.8657788,4.38663177 85.7161458,4.38663177 C86.7741867,4.38663177 87.7823958,5.09093738 88.2649752,6.48732627 L88.6237003,6.48732627 L88.5859375,3.98559035 L88.2083333,3.98559035 C88.1864335,4.14829844 88.034633,4.25295146 87.944008,4.25295146 C87.4840873,4.25295146 86.8444295,3.75642368 85.7161458,3.75642368 Z M58.925129,7.91961818 C57.2243998,7.91961818 56.2441418,8.9905904 56.2441418,10.2685763 C56.2441418,13.0598263 60.9641915,12.4968414 60.9641915,14.7755207 C60.9641915,15.5424652 60.2512748,15.9977434 59.0572917,15.9977429 C57.8844543,15.9977429 56.8860665,15.3667707 56.5651042,13.8779515 L56.0742163,13.8779515 C56.0742163,14.4837152 56.1671082,15.6005202 56.2818998,15.7876737 C56.604375,16.322396 57.9199455,16.608854 59.0006498,16.608854 C60.954375,16.608854 62.1536458,15.4599652 62.1536458,14.0880207 C62.1536458,11.0179515 57.4713542,11.5014929 57.4713542,9.52378484 C57.4713542,8.82635404 58.091379,8.47343836 58.8496082,8.47343738 C60.3894792,8.47343738 61.0721875,9.91336818 61.209633,10.4022571 L61.5683582,10.4022571 C61.5683582,9.19302071 61.4346875,8.43218738 61.3417957,8.33975707 C61.2496627,8.24656262 60.0745585,7.91961818 58.925129,7.91961818 Z M67.5722668,7.91961818 C65.1805208,7.91961818 63.5696627,9.8469096 63.5696627,12.5220485 C63.5696627,14.6135763 64.6277083,16.6279515 67.477867,16.6279515 C68.6491915,16.6279525 70.0576538,16.1497571 70.8385417,15.291146 L70.649742,14.890104 C69.8915128,15.3553116 69.057758,15.577604 68.2519543,15.577604 C65.975754,15.5776031 65.0302332,13.5082293 65.0989583,11.6244793 L70.8385417,11.6244793 C70.9306795,9.71781262 69.9390873,7.91961818 67.5722668,7.91961818 Z M111.959633,7.91961818 C109.383621,7.91961818 107.560546,9.81253484 107.560546,12.2546874 C107.560546,13.8825353 108.201716,15.2346182 109.373046,15.978646 C110.064058,16.4194096 110.956721,16.608854 111.921875,16.608854 C114.473725,16.608854 116.302083,14.7426737 116.302083,12.2546874 C116.302079,10.6505217 115.662421,9.31218738 114.489583,8.56892373 C113.800079,8.12663231 112.924792,7.91961818 111.959633,7.91961818 Z M24.6197931,7.9769096 C22.1593239,7.9769096 20.3151042,10.2097571 20.3151056,12.6748263 C20.3151056,14.6280904 21.395807,16.6279515 24.2233085,16.6279515 C25.3946364,16.6279515 26.8031016,16.1505202 27.5839856,15.291146 L27.3951835,14.890104 C26.6369543,15.3545485 25.8016929,15.577604 24.9973973,15.577604 C22.7211989,15.577604 21.8632841,13.6327429 21.8632827,11.5862848 C21.8632827,10.6337152 22.0905992,9.9431596 22.5052098,9.52378484 C22.8948968,9.1280904 23.4461989,8.98906262 23.996746,8.98906262 C24.8010431,8.98906262 25.7276835,9.30760404 26.3945327,10.1921874 L26.5455744,10.1730904 C26.7985689,9.84843738 27.0500526,9.19225707 27.0742202,8.70260404 C26.4995059,8.2381596 25.6310159,7.97691058 24.6197931,7.9769096 Z M51.2597668,7.9769096 C50.2017163,7.9769096 49.0893005,8.48642373 48.238934,9.58107627 L48.238934,8.09149293 L45.1614598,8.09149293 L45.1614598,8.49253484 C46.4944023,8.53913182 46.6529955,8.61093738 46.6529965,10.9369793 L46.6529965,12.9803818 C46.6529965,15.9328126 46.6469524,15.9282283 45.1992202,15.9977429 L45.1992202,16.3987848 L49.5794295,16.3987848 L49.5794295,15.9977429 C48.2902877,15.9060763 48.238934,15.9289929 48.238934,12.9994793 L48.238934,10.7460071 C48.238934,9.97753484 49.281875,9.02725756 50.5234375,9.02725707 C51.5339038,9.02725707 52.3359375,9.4718404 52.3359375,11.4717015 L52.3359375,13.1331596 C52.3359375,15.9014929 52.2437997,15.9282283 51.0709623,15.9977429 L51.0709623,16.3987848 L55.3756498,16.3987848 L55.3756498,15.9977429 C53.9279167,15.9282293 53.921875,15.9014924 53.921875,13.1331596 L53.921875,11.2807293 C53.921875,8.76906262 52.5700497,7.97690911 51.2597668,7.9769096 Z M123.023438,7.9769096 C121.896667,7.9769096 120.797083,8.69649293 120.153646,9.58107627 L120.153646,8.09149293 L117.076171,8.09149293 L117.076171,8.49253484 C118.411379,8.53913182 118.567708,8.61093738 118.567708,10.9369793 L118.567708,13.3050348 C118.567708,15.9801737 118.52995,15.9755899 117.151692,15.9977429 L117.151692,16.3987848 L121.494142,16.3987848 L121.494142,15.9977429 C120.275987,15.8816318 120.153646,15.8793399 120.153646,13.228646 L120.153646,10.822396 C120.153646,9.96225707 121.232837,9.02725756 122.381508,9.02725707 C123.623075,9.02725707 124.15625,9.72621467 124.15625,11.3762152 L124.15625,13.0567707 C124.15625,15.8014237 124.096587,15.9282283 122.947917,15.9977429 L122.947917,16.3987848 L127.026042,16.3987848 L127.026042,15.9977429 C125.669688,15.8816318 125.704425,15.7609369 125.704425,13.1331596 L125.704425,10.8032985 C125.704425,9.96607627 126.7519,9.02725756 127.97005,9.02725707 C129.005442,9.02725707 129.669271,9.65593689 129.669271,11.3762152 L129.669271,13.2859374 C129.669271,15.797604 129.656434,15.9060758 128.460938,15.9977429 L128.460938,16.3987848 L132.784504,16.3987848 L132.784504,15.9977429 C131.290704,15.9282293 131.349608,15.7235076 131.349608,13.3050348 L131.349608,11.1470485 C131.349608,8.84392373 130.117108,7.97690911 128.668621,7.9769096 C127.359846,7.9769096 126.292733,8.72246467 125.534504,9.79114596 C125.212029,8.65218738 124.403195,7.97690911 123.023438,7.9769096 Z M138.75065,7.9769096 C137.555159,7.9769096 136.584712,8.54218738 135.918621,9.33281262 L135.918621,8.09149293 L132.916667,8.09149293 L132.916667,8.49253484 C134.180878,8.53913182 134.332683,8.61704849 134.332683,11.3380207 L134.332683,17.009896 C134.332683,19.963855 134.398383,20.1869096 132.973308,20.2564237 L132.973308,20.6574652 L137.372396,20.6574652 L137.372396,20.2564237 C135.809871,20.2113555 135.918621,19.950104 135.918621,16.8571182 L135.918621,15.7303818 C136.5394,16.3582985 137.518909,16.608854 138.391925,16.608854 C140.874296,16.6088545 142.432292,14.7281596 142.432292,12.2164929 C142.432287,9.79878533 140.887138,7.9769096 138.75065,7.9769096 Z M146.774742,7.9769096 C145.877545,7.9769096 144.561225,8.30385404 143.848309,8.93177071 C143.894375,9.32670102 144.241771,10.093646 144.471354,10.3258682 L144.679038,10.2876737 C145.046066,9.38093787 145.673646,8.72170151 146.661458,8.72170151 C147.742917,8.72170151 148.190754,9.49552071 148.190754,10.4022571 L148.190754,11.3571182 C148.190754,11.9850348 145.446329,12.1026737 144.320312,13.0567707 C143.929117,13.405104 143.640625,13.8466318 143.640625,14.4508682 C143.640625,15.753299 144.551404,16.608854 145.90625,16.608854 C146.756612,16.6088545 147.489167,16.3239237 148.247396,15.4630207 C148.362188,16.0672561 148.859117,16.3987848 149.663413,16.3987848 L151.608075,16.3987848 L155.856121,16.3987848 L155.856121,15.9977429 C154.568492,15.9060763 154.51562,15.9289929 154.515625,12.9994793 L154.515625,10.7460071 C154.515625,9.97753484 155.560084,9.02725756 156.800129,9.02725707 C157.812108,9.02725707 158.612629,9.4718404 158.612629,11.4717015 L158.612629,13.1331596 C158.612629,15.9014929 158.518983,15.9282283 157.347659,15.9977429 L157.347659,16.3987848 L161.652341,16.3987848 L161.652341,15.9977429 C160.2031,15.9282293 160.198566,15.9014924 160.198566,13.1331596 L160.198566,11.2807293 C160.198566,8.76906262 158.848264,7.97690911 157.536458,7.9769096 C156.479921,7.9769096 155.365982,8.48642373 154.515625,9.58107627 L154.515625,8.09149293 L151.43815,8.09149293 L151.43815,8.49253484 C152.771091,8.53913182 152.929683,8.61093738 152.929688,10.9369793 L152.929688,12.9803818 C152.929688,15.9328126 152.904772,15.9282283 151.457034,15.9977429 L151.117188,15.9977429 C149.967768,15.9977424 149.833333,15.605104 149.833333,13.9543404 L149.833333,11.166146 C149.833333,10.6321879 149.776691,10.1478818 149.663413,9.75295151 C149.272212,8.45052071 148.222475,7.9769096 146.774742,7.9769096 Z M71.2350248,8.20607627 L71.2350248,8.60711818 C72.1767708,8.65371516 72.2553125,8.78815911 73.5195337,11.6244793 L75.671875,16.4369793 C74.9363045,18.343646 73.7846082,19.377951 71.4615873,19.9126737 C71.5778918,20.3083682 72.0076042,21.0012156 72.2356747,21.2112848 C75.2942708,19.9554515 75.8946627,17.906702 76.9746082,14.8137152 L78.5983085,10.1157985 C78.9653373,9.0455904 79.5543998,8.6071172 80.1276042,8.60711818 L80.1276042,8.20607627 L77.1634127,8.20607627 L77.1634127,8.60711818 C77.8770833,8.65371516 78.2516667,9.05399244 77.975258,9.86753484 L76.3893253,14.5845485 L74.8600248,10.9369793 C74.4476835,9.93781262 74.293621,9.54746613 74.293621,9.19913182 C74.293621,8.87295151 74.4710913,8.67815911 75.0677083,8.60711818 L75.0677083,8.20607627 L71.2350248,8.20607627 Z M161.067059,8.20607627 L161.067059,8.60711818 C162.0088,8.65371516 162.10623,8.78815911 163.370442,11.6244793 L165.503909,16.4369793 C164.767579,18.343646 163.615883,19.377951 161.293621,19.9126737 C161.409167,20.3083682 161.838874,21.0012156 162.067708,21.2112848 C165.1263,19.9554515 165.726692,17.906702 166.806642,14.8137152 L168.449216,10.1157985 C168.81625,9.0455904 169.385675,8.6071172 169.959633,8.60711818 L169.959633,8.20607627 L166.995442,8.20607627 L166.995442,8.60711818 C167.709117,8.65371516 168.102584,9.05399244 167.826171,9.86753484 L166.240233,14.5845485 L164.692059,10.9369793 C164.278204,9.93781262 164.125655,9.54746613 164.12565,9.19913182 C164.12565,8.87295151 164.303125,8.67815911 164.899742,8.60711818 L164.899742,8.20607627 L161.067059,8.20607627 Z M67.2512997,8.60711818 C68.5374207,8.60711818 69.3243502,9.45961818 69.347004,10.9942707 L65.1178373,10.9942707 C65.2552877,9.45961818 65.9410168,8.60711818 67.2512997,8.60711818 Z M111.733075,8.60711818 C113.204216,8.60711818 114.659504,10.0470485 114.659504,12.7894096 C114.659509,14.7197576 113.816691,15.9022571 112.091796,15.9022571 C110.597996,15.9022571 109.203125,14.5150348 109.203125,11.7008682 C109.203125,9.70100707 110.144871,8.60711818 111.733075,8.60711818 Z M84.0358085,8.81718738 C85.1859872,10.8865626 87.3330457,13.0827429 89.5865873,14.7564237 C88.8955753,15.2919096 87.7340625,15.4439237 86.7923165,15.4439237 C84.3779167,15.4439237 82.46875,13.7175348 82.46875,11.4144096 C82.46875,9.97295053 83.0925545,9.0730904 84.0358085,8.81718738 Z M138.014325,9.02725707 C139.713542,9.02725756 140.770833,10.3105904 140.770833,12.4265626 C140.770833,14.5891323 139.880442,15.978646 138.203125,15.978646 C137.122416,15.9786469 135.918621,15.359896 135.918621,14.546354 L135.918621,10.421354 C135.918621,9.72392373 136.910962,9.02725707 138.014325,9.02725707 Z M148.190754,12.140104 L148.190754,14.4317707 C148.190754,15.1292015 147.28375,15.6921874 146.548175,15.6921874 C145.858671,15.6921879 145.283204,15.2521874 145.283204,14.2980904 C145.283204,12.6014934 147.019429,12.7909374 148.190754,12.140104 Z" id="path157" fill="#FFFFFF"></path>
                        <rect id="rect3708" x="0" y="0" width="174" height="22"></rect>
                    </g>
                </g>
            </g>
        </g>
    </g>
</svg>