<?xml version="1.0" encoding="UTF-8"?>
<svg width="123px" height="34px" viewBox="0 0 123 34" version="1.1" xmlns="http://www.w3.org/2000/svg" xmlns:xlink="http://www.w3.org/1999/xlink">
    <!-- Generator: Sketch 47.1 (45422) - http://www.bohemiancoding.com/sketch -->
    <title>stanford business</title>
    <desc>Created with Sketch.</desc>
    <defs></defs>
    <g id="Page-1" stroke="none" stroke-width="1" fill="none" fill-rule="evenodd">
        <g id="Desktop-HD-Copy" transform="translate(-1075.000000, -2621.000000)" fill-rule="nonzero" fill="#FFFFFF">
            <g id="stanford-business" transform="translate(1075.000000, 2621.000000)">
                <g id="Group" transform="translate(110.000000, 0.000000)">
                    <g id="Shape">
                        <path d="M1.49958824,0.549288889 C0.863352941,0.725333333 0.481,1.18433333 0.481,1.73702222 C0.481,2.36526667 0.829705882,2.75702222 1.34282353,2.75702222 C1.65061765,2.75702222 1.87467647,2.64897778 2.02532353,2.42608889 C2.24402941,2.10913333 2.353,1.71057778 2.51741176,1.29237778 C2.81755882,0.536444444 3.15211765,0.171133333 3.79447059,0.171133333 C4.58747059,0.171133333 5.11320588,0.732133333 5.11320588,1.60291111 C5.11320588,2.35884444 4.68917647,2.89944444 3.90344118,3.12875556 L3.76005882,2.64217778 C4.34773529,2.48011111 4.65476471,2.09553333 4.65476471,1.54926667 C4.65476471,1.02226667 4.34123529,0.691333333 3.84991176,0.691333333 C3.61094118,0.691333333 3.419,0.799377778 3.24808824,1.00904444 C3.08444118,1.21795556 2.97470588,1.58251111 2.79767647,2.04793333 C2.4765,2.88508889 2.14117647,3.27646667 1.37570588,3.27646667 C0.563970588,3.27646667 0.0107058824,2.68864444 0.0107058824,1.7646 C0.0107058824,0.893444444 0.454235294,0.306377778 1.32867647,0.0362666667 L1.49958824,0.549288889 Z"></path>
                        <path d="M0.0107058824,5.78113333 C0.0107058824,4.5934 0.918794118,3.90508889 2.56558824,3.90508889 C4.19135294,3.90508889 5.11358824,4.6342 5.11358824,5.74071111 C5.11358824,6.64548889 4.61461765,7.21253333 3.63808824,7.42182222 L3.50885294,6.9156 C4.25252941,6.76675556 4.64902941,6.36215556 4.64902941,5.78831111 C4.64902941,4.95153333 3.91797059,4.45173333 2.54455882,4.45173333 C1.20555882,4.45173333 0.481382353,4.95833333 0.481382353,5.80153333 C0.481382353,6.4362 0.906176471,6.87442222 1.68388235,7.00966667 L1.57491176,7.50228889 C0.529558824,7.26617778 0.0107058824,6.69271111 0.0107058824,5.78113333 Z"></path>
                        <polygon points="5.03138235 8.32093333 5.03138235 8.85435556 2.92041176 8.85435556 2.92041176 11.3042444 5.03138235 11.3042444 5.03138235 11.8372889 0.0929117647 11.8372889 0.0929117647 11.3042444 2.44247059 11.3042444 2.44247059 8.85435556 0.0929117647 8.85435556 0.0929117647 8.32093333"></polygon>
                        <path d="M5.11358824,14.5958222 C5.11358824,15.7495556 4.15005882,16.5258889 2.56558824,16.5258889 C0.981117647,16.5258889 0.0107058824,15.7495556 0.0107058824,14.5958222 C0.0107058824,13.4413333 0.986852941,12.665 2.56558824,12.665 C4.14317647,12.665 5.11358824,13.4413333 5.11358824,14.5958222 Z M0.488647059,14.5958222 C0.488647059,15.4462 1.23385294,15.9796222 2.56558824,15.9796222 C3.89770588,15.9796222 4.64252941,15.4462 4.64252941,14.5958222 C4.64252941,13.7454444 3.89808824,13.2120222 2.56558824,13.2120222 C1.23385294,13.2124 0.488647059,13.7454444 0.488647059,14.5958222 Z"></path>
                        <path d="M5.11358824,19.1880889 C5.11358824,20.3429556 4.15005882,21.1189111 2.56558824,21.1189111 C0.981117647,21.1189111 0.0107058824,20.3425778 0.0107058824,19.1880889 C0.0107058824,18.0343556 0.986852941,17.2580222 2.56558824,17.2580222 C4.14317647,17.2576444 5.11358824,18.0343556 5.11358824,19.1880889 Z M0.488647059,19.1880889 C0.488647059,20.0396 1.23385294,20.5722667 2.56558824,20.5722667 C3.89770588,20.5722667 4.64252941,20.0396 4.64252941,19.1880889 C4.64252941,18.3380889 3.89808824,17.8046667 2.56558824,17.8046667 C1.23385294,17.8042889 0.488647059,18.3380889 0.488647059,19.1880889 Z"></path>
                        <polygon points="5.03138235 21.981 5.03138235 22.5344444 0.563970588 22.5344444 0.563970588 24.7146 0.0929117647 24.7146 0.0929117647 21.9813778 5.03138235 21.9813778"></polygon>
                        <path d="M5.11358824,27.9793556 C5.11358824,29.1342222 4.15005882,29.9094222 2.56558824,29.9094222 C0.981117647,29.9094222 0.0107058824,29.1338444 0.0107058824,27.9793556 C0.0107058824,26.8237333 0.986852941,26.0485333 2.56558824,26.0485333 C4.14317647,26.0485333 5.11358824,26.8237333 5.11358824,27.9793556 Z M0.488647059,27.9793556 C0.488647059,28.8293556 1.23385294,29.3620222 2.56558824,29.3620222 C3.89770588,29.3620222 4.64252941,28.8293556 4.64252941,27.9793556 C4.64252941,27.1286 3.89808824,26.5959333 2.56558824,26.5959333 C1.23385294,26.5959333 0.488647059,27.1286 0.488647059,27.9793556 Z"></path>
                        <polygon points="5.03138235 30.7722667 5.03138235 33.6335556 4.56758824 33.6335556 4.56758824 31.3117333 2.92002941 31.3117333 2.92002941 33.0332667 2.45623529 33.0332667 2.45623529 31.3117333 0.0925294118 31.3117333 0.0925294118 30.7722667"></polygon>
                    </g>
                    <g transform="translate(7.264706, 0.000000)" id="Shape">
                        <path d="M0.871,3.19902222 C0.447735294,2.89566667 0.250441176,2.47671111 0.250441176,1.90966667 C0.250441176,0.748755556 1.19217647,0 2.77664706,0 C4.42344118,0 5.35294118,0.722311111 5.35294118,1.93006667 C5.35294118,2.78762222 4.86735294,3.35466667 3.90420588,3.62402222 L3.79523529,3.07095556 C4.51214706,2.88168889 4.88111765,2.49635556 4.88111765,1.90928889 C4.88111765,1.05211111 4.15732353,0.553066667 2.81794118,0.553066667 C1.47282353,0.553066667 0.721117647,1.08611111 0.721117647,1.94366667 C0.721117647,2.652 1.15814706,3.1246 1.91061765,3.1246 L2.25779412,3.1246 L2.25779412,1.99768889 L2.72961765,1.99768889 L2.72961765,3.68446667 L0.331117647,3.68446667 L0.331117647,3.21904444 L0.871,3.19902222 Z"></path>
                        <path d="M5.27035294,4.9708 L5.27035294,6.341 C5.27035294,7.6568 4.90826471,8.29146667 3.96652941,8.29146667 C3.32341176,8.29146667 2.90014706,7.95373333 2.70208824,7.27902222 L0.331117647,8.42708889 L0.331117647,7.83284444 L2.57208824,6.7592 L2.57208824,5.50384444 L0.331117647,5.50384444 L0.331117647,4.9708 L5.27035294,4.9708 L5.27035294,4.9708 Z M4.81305882,5.50384444 L3.02976471,5.50384444 L3.02976471,6.3206 C3.02976471,7.29942222 3.27676471,7.7452 3.91835294,7.7452 C4.64214706,7.7452 4.81305882,7.31906667 4.81305882,6.34062222 L4.81305882,5.50384444 Z"></path>
                        <path d="M5.27035294,10.6276444 L5.27035294,11.4515778 L0.331117647,12.9494667 L0.331117647,12.3828 L1.86855882,11.9438222 L1.86855882,10.1282222 L0.331117647,9.69604444 L0.331117647,9.1222 L5.27035294,10.6276444 Z M2.32623529,11.7957333 L4.90176471,11.067 L4.90176471,10.9925778 L2.32623529,10.2566667 L2.32623529,11.7957333 Z"></path>
                        <path d="M5.27035294,13.8406444 L5.27035294,15.0023111 C5.27035294,15.6562444 5.18891176,16.1360222 4.88111765,16.5413778 C4.47123529,17.0755556 3.74744118,17.3853333 2.80417647,17.3853333 C1.16502941,17.3853333 0.330735294,16.5481778 0.330735294,14.8802889 L0.330735294,13.8410222 L5.27035294,13.8410222 L5.27035294,13.8406444 Z M4.81305882,14.3744444 L0.817088235,14.3744444 L0.817088235,14.8066222 C0.817088235,15.4273111 0.878264706,15.8798889 1.15776471,16.2240444 C1.47894118,16.6286444 2.04558824,16.8583333 2.79767647,16.8583333 C3.59067647,16.8583333 4.16344118,16.6354444 4.49226471,16.2176222 C4.77902941,15.8526889 4.81344118,15.4344889 4.81344118,14.8806667 L4.81344118,14.3744444 L4.81305882,14.3744444 Z"></path>
                        <path d="M5.27035294,18.8987111 L2.08764706,18.8987111 C1.78061765,18.8987111 1.51947059,18.9055111 1.28126471,19.0264 C0.933323529,19.2020667 0.721117647,19.5938222 0.721117647,20.1204444 C0.721117647,20.6531111 0.933323529,21.0441111 1.28126471,21.2197778 C1.54126471,21.3482222 1.82802941,21.3482222 2.17673529,21.3482222 L5.27073529,21.3482222 L5.27073529,21.8816444 L1.99894118,21.8816444 C0.851117647,21.8816444 0.250823529,21.267 0.250823529,20.1204444 C0.250823529,18.9655778 0.844617647,18.3645333 1.99894118,18.3645333 L5.27073529,18.3645333 L5.27073529,18.8987111 L5.27035294,18.8987111 Z"></path>
                        <path d="M5.27035294,24.0954222 L5.27035294,24.9197333 L0.331117647,26.4176222 L0.331117647,25.8502 L1.86855882,25.4112222 L1.86855882,23.596 L0.331117647,23.1634444 L0.331117647,22.5892222 L5.27035294,24.0954222 Z M2.32623529,25.2627556 L4.90176471,24.5336444 L4.90176471,24.4592222 L2.32623529,23.7244444 L2.32623529,25.2627556 Z"></path>
                        <polygon points="4.79891176 27.8864222 4.79891176 26.4618222 5.26997059 26.4618222 5.26997059 29.8640889 4.79891176 29.8640889 4.79891176 28.4398667 0.330735294 28.4398667 0.330735294 27.8864222"></polygon>
                        <polygon points="5.27035294 30.7499778 5.27035294 33.6328 4.80655882 33.6328 4.80655882 31.2902 3.15976471 31.2902 3.15976471 32.9509111 2.69520588 32.9509111 2.69520588 31.2902 0.802941176 31.2902 0.802941176 33.6328 0.331117647 33.6328 0.331117647 30.7499778"></polygon>
                    </g>
                </g>
                <path d="M25.0302318,18.7942971 C27.4214183,18.9580928 27.4214183,19.9842468 27.4214183,21.8495734 L27.4214183,27.0973939 C27.4214183,29.0569592 27.4214183,30.1291107 26.7584437,31.1328269 C25.7410225,32.6952437 23.7524782,33.2311324 22.1904843,33.2311324 C20.1317338,33.2311324 18.8771293,32.3216548 18.3329361,31.4118032 C17.7409267,30.4331425 17.7409267,29.1964474 17.7409267,26.9803436 L17.7409267,22.1292977 C17.7409267,18.7942971 17.811892,18.7942971 20.1552624,18.7942971 L20.1552624,18.2804721 L13.0071288,18.2804721 L13.0071288,18.7939231 L13.3623344,18.7939231 C15.444993,18.7939231 15.4685216,19.0512095 15.4685216,22.175669 L15.4685216,26.9100386 C15.4685216,29.5225429 15.4685216,30.5950684 16.249139,31.7378988 C16.864677,32.6245647 18.4031423,34 21.6459116,34 C24.627969,34 26.5447891,32.8351058 27.3736022,31.3422461 C27.9891401,30.2233493 27.9891401,29.219633 27.9891401,27.1905107 L27.9891401,22.0589926 C27.9891401,20.1469206 27.9891401,18.9577188 30.2850739,18.7942971 L30.2850739,18.2804721 L25.0302318,18.2804721 L25.0302318,18.7942971 Z M42.6485822,18.7942971 L42.9802593,18.7942971 C45.0397688,18.7942971 45.0860669,19.0044642 45.0860669,22.1292977 L45.0860669,29.7095244 C45.0860669,32.6952437 45.0860669,33.2079467 43.0982816,33.2079467 L42.6485822,33.2079467 L42.6485822,33.7213977 L49.7959568,33.7213977 L49.7959568,33.2079467 L49.3462574,33.2079467 C47.3588516,33.2079467 47.3588516,32.6952437 47.3588516,29.7095244 L47.3588516,22.1292977 C47.3588516,18.9805306 47.4062882,18.7942971 49.4650387,18.7942971 L49.7963363,18.7942971 L49.7963363,18.2804721 L42.6489617,18.2804721 L42.6489617,18.7942971 L42.6485822,18.7942971 Z M36.202511,24.390277 C34.3798053,23.5978497 32.4390772,22.7579292 32.4390772,20.9157882 C32.4390772,19.8888863 33.1494884,18.5601963 35.1372737,18.5601963 C36.8950861,18.5601963 38.8718661,19.8743017 39.2824777,21.9909314 L39.8001064,21.9909314 L39.8001064,18.2797242 L39.3033498,18.2797242 C39.2555337,18.5601963 39.0953876,19.2972771 38.6874324,19.6330957 C38.1193311,19.026154 37.1254385,18 35.0663085,18 C32.4629852,18 30.9245199,19.8185813 30.9245199,21.8252659 C30.9245199,24.7634919 33.5043145,25.8599509 35.256055,26.6063807 C35.397606,26.6531261 36.1782235,26.9795957 36.3209129,27.0499007 C37.9064354,27.7256515 39.5154865,28.6123174 39.5154865,30.4316466 C39.5154865,31.8538273 38.3561348,33.4394297 36.0366725,33.4394297 C32.6804348,33.4394297 31.6531468,30.2753301 31.3799117,28.918219 L30.8057385,28.918219 L30.8057385,33.7213977 L31.3241262,33.7213977 C31.4975546,32.7161856 31.7996311,32.2745355 31.9415616,32.0639944 C32.3202958,32.4839547 33.6693941,33.999626 36.2491887,33.999626 C39.2551542,33.999626 41.1719743,32.1574851 41.1719743,29.5457286 C41.1727332,26.6063807 39.2559132,25.7197149 36.202511,24.390277 Z M89.744445,24.390277 C87.9217393,23.5978497 85.9813906,22.7579292 85.9813906,20.9157882 C85.9813906,19.8888863 86.6914224,18.5601963 88.6799667,18.5601963 C90.4373996,18.5601963 92.4141796,19.8743017 92.8247912,21.9909314 L93.3427994,21.9909314 L93.3427994,18.2797242 L92.8452838,18.2797242 C92.7978472,18.5601963 92.6377011,19.2972771 92.2293664,19.6330957 C91.6616446,19.026154 90.6677519,18 88.6086219,18 C86.0056782,18 84.4668334,19.8185813 84.4668334,21.8252659 C84.4668334,24.7634919 87.0462485,25.8599509 88.7983685,26.6063807 C88.9399195,26.6531261 89.720537,26.9795957 89.8636059,27.0499007 C91.4491284,27.7256515 93.0581795,28.6123174 93.0581795,30.4316466 C93.0581795,31.8538273 91.8980688,33.4394297 89.578986,33.4394297 C86.2227483,33.4394297 85.1954603,30.2753301 84.9226047,28.918219 L84.348052,28.918219 L84.348052,33.7213977 L84.8660602,33.7213977 C85.0394886,32.7161856 85.3419446,32.2745355 85.4834956,32.0639944 C85.8629888,32.4839547 87.212087,33.999626 89.7915022,33.999626 C92.7978472,33.999626 94.7146672,32.1574851 94.7146672,29.5457286 C94.7150467,26.6063807 92.7982267,25.7197149 89.744445,24.390277 Z M102.029778,24.390277 C100.207072,23.5978497 98.2667234,22.7579292 98.2667234,20.9157882 C98.2667234,19.8888863 98.9767552,18.5601963 100.96454,18.5601963 C102.721973,18.5601963 104.699512,19.8743017 105.110124,21.9909314 L105.627373,21.9909314 L105.627373,18.2797242 L105.130617,18.2797242 C105.08318,18.5601963 104.923034,19.2972771 104.514699,19.6330957 C103.946977,19.026154 102.953085,18 100.893955,18 C98.290252,18 96.7521661,19.8185813 96.7521661,21.8252659 C96.7521661,24.7634919 99.3315813,25.8599509 101.082942,26.6063807 C101.225252,26.6531261 102.00587,26.9795957 102.14818,27.0499007 C103.733702,27.7256515 105.342753,28.6123174 105.342753,30.4316466 C105.342753,31.8538273 104.183402,33.4394297 101.86356,33.4394297 C98.5080811,33.4394297 97.480793,30.2753301 97.2071785,28.918219 L96.6333848,28.918219 L96.6333848,33.7213977 L97.151393,33.7213977 C97.3248213,32.7161856 97.6272774,32.2745355 97.7688284,32.0639944 C98.1475626,32.4839547 99.4974198,33.999626 102.076835,33.999626 C105.08318,33.999626 107,32.1574851 107,29.5457286 C107.000379,26.6063807 105.083559,25.7197149 102.029778,24.390277 Z M62.4964551,18.7942971 C65.1703641,18.8171088 65.1703641,20.0070585 65.1703641,21.1263293 L65.1703641,30.1590277 L65.1236864,30.1590277 L55.8921353,18.2804721 L51.2771187,18.2804721 L51.2771187,18.7939231 C53.264904,18.7939231 53.5962015,18.7939231 53.5962015,22.1289237 L53.5962015,30.3153442 C53.5962015,31.7622064 53.5962015,32.1346734 53.2413754,32.4854505 C52.6015499,33.0916443 51.536692,33.1612014 51.0638435,33.2079467 L51.0638435,33.7213977 L56.9095565,33.7213977 L56.9095565,33.2079467 C55.4192868,33.184761 54.8504265,32.7651747 54.7088755,32.6249386 C54.2345091,32.2281641 54.1639233,31.9252542 54.1639233,30.3153442 L54.1639233,19.6106579 L54.2117395,19.6106579 L65.171882,33.7202758 L65.7377064,33.7202758 L65.7377064,21.2890032 C65.7377064,20.0538039 65.7377064,19.0044642 68.1759501,18.7939231 L68.1759501,18.2804721 L62.4960756,18.2804721 L62.4960756,18.7942971 L62.4964551,18.7942971 Z M77.0553315,33.2079467 L75.8963593,33.2079467 C73.7419766,33.2079467 73.6000461,33.0209653 73.6000461,29.4757976 L73.6000461,25.8143275 L75.3039705,25.8143275 C77.1023887,25.8143275 77.6230533,25.9310039 77.6230533,28.264158 L78.1680055,28.264158 L78.1680055,22.9692182 L77.6230533,22.9692182 C77.6230533,24.7653617 77.4815024,25.3012504 75.2804419,25.3012504 L73.5996666,25.3012504 L73.5996666,18.7942971 L75.889149,18.7942971 C78.6317462,18.7942971 79.7721232,18.8907795 80.4267489,21.9905574 L80.9637318,21.9905574 L80.9637318,18.2804721 L69.2920395,18.2804721 L69.2920395,18.7939231 C71.3041124,18.7939231 71.3268819,19.0743952 71.3268819,22.1289237 L71.3268819,29.7091504 C71.3268819,32.6948697 71.3268819,33.2075727 69.2920395,33.2075727 L68.9835116,33.2075727 L68.9835116,33.7210237 L81.954968,33.7210237 L81.957245,28.918593 L81.4126722,28.918593 C80.6396446,33.2296366 78.6321257,33.2079467 77.0553315,33.2079467 Z M7.50865209,25.4414865 L7.50865209,25.3939932 C8.45510808,25.2776908 11.9339221,24.7649877 11.9339221,21.8020802 C11.9339221,18.1177983 6.98722846,18.2733668 5.52048731,18.2733668 C4.85751272,18.2733668 0.00569239772,18.2804721 0.00569239772,18.2804721 L0.00569239772,18.7939231 C2.34906279,18.7939231 2.42002802,18.7939231 2.42002802,22.175669 L2.42002802,29.7091504 C2.42002802,32.6948697 2.42002802,33.2075727 0.431863241,33.2075727 L0,33.2075727 L0,33.7210237 L5.9940948,33.7210237 C7.34281357,33.7210237 9.56778209,33.7210237 10.8929723,32.9042889 C12.0766115,32.1810448 12.7870228,30.8987262 12.7870228,29.5225429 C12.7866433,26.7941101 10.4671809,25.6284679 7.50865209,25.4414865 Z M4.6916742,18.795045 C4.6916742,18.795045 5.70074657,18.7823303 6.1386817,18.7916793 C8.41412282,18.8369288 9.49605788,19.5519458 9.49605788,21.9198785 C9.49605788,24.8581045 7.62667447,25.254879 4.6916742,25.184574 L4.6916742,18.795045 L4.6916742,18.795045 Z M6.58572467,33.1843871 C4.6916742,33.1843871 4.6916742,32.7408671 4.6916742,29.1964474 L4.6916742,25.7447704 C7.05857318,25.6045343 8.38414286,26.0005609 9.04673795,26.4672666 C9.92298771,27.0977679 10.2542853,28.0771766 10.2542853,29.4537338 C10.2542853,30.2693467 10.2774343,33.1843871 6.58572467,33.1843871 Z" id="Shape"></path>
                <path d="M17.8018207,10.2453866 L17.8018207,0.693787252 L19.9621478,0.693787252 C21.6765792,0.693787252 22.5853752,0.695609172 23.0720817,3.49152807 L23.4971942,3.49152807 L23.4964384,0.244866089 L10.0753544,0.244866089 L10.0761102,3.49152807 L10.5420334,3.49152807 C10.7113227,2.53246922 10.963745,1.69365711 11.3027013,1.28518258 C11.7894079,0.693422868 12.3025659,0.693422868 13.7623076,0.693422868 L15.7695942,0.693422868 L15.7695942,10.2446579 C15.7695942,12.8569272 15.7911332,13.3058484 13.9916794,13.3058484 L13.2718223,13.3058484 L13.2718223,13.7544051 L20.2780536,13.7544051 L20.2780536,13.3058484 L19.5793577,13.3058484 C17.8018207,13.3065771 17.8018207,12.857656 17.8018207,10.2453866 Z M70.3990025,0 C66.589239,0 62.8437148,2.3065511 62.8437148,6.89815466 C62.8437148,11.3877307 66.2083382,14 70.4624859,14 C75.1179398,14 78.1027961,11.1024179 78.1027961,6.9794123 C78.1027961,2.14294266 74.2087659,0 70.3990025,0 Z M70.5475084,13.5106322 C66.8654676,13.5106322 65.213764,11.18404 65.213764,6.97977668 C65.213764,4.14304677 66.1025325,0.490096562 70.4628638,0.490096562 C75.3095238,0.490096562 75.732369,5.04125348 75.732369,7.00091096 C75.732369,9.28559902 75.1402346,13.5106322 70.5475084,13.5106322 Z M103.715728,1.79604904 C102.424142,0.734598267 100.77924,0.245230473 97.7108725,0.245230473 C96.5247143,0.245230473 91.4826915,0.245230473 91.4826915,0.245230473 L91.4826915,0.693787252 L91.8847534,0.693787252 C93.7469349,0.693787252 93.7896351,0.979828739 93.7896351,3.7148955 L93.7896351,10.2453866 C93.7896351,12.1066604 93.7378659,12.9538534 93.0369026,13.2439031 C92.6503337,13.3739882 92.3378288,13.3492101 92.1356642,13.3109497 C91.2722136,13.1466125 90.5217483,12.5442857 88.8462384,10.3681841 C88.7400548,10.2453866 88.2321871,9.59204602 88.1267592,9.44957185 C87.8728253,9.12271935 86.560078,7.42869785 85.6497705,6.98014107 L85.6497705,6.93969444 C87.8728253,6.71523386 89.6499844,5.59220218 89.6499844,3.55201582 C89.6499844,2.67421462 89.3114059,1.89880534 88.4645819,1.22505921 C87.6600802,0.592488483 86.4327332,0.247052393 83.5755996,0.247052393 C82.9830873,0.247052393 78.390739,0.245594857 78.390739,0.245594857 L78.390739,0.69451602 C80.4637763,0.69451602 80.5272598,0.69451602 80.5272598,3.61323235 L80.5272598,10.2461154 C80.5272598,12.8583847 80.5272598,13.3073059 78.7285617,13.3073059 L78.2849332,13.3073059 L78.2849332,13.7558627 L84.993019,13.7558627 L84.993019,13.3073059 L84.31624,13.3073059 C82.5383251,13.3073059 82.5598642,12.8583847 82.5598642,10.2461154 L82.5598642,7.24614143 L83.1096763,7.24614143 C83.3420711,7.24614143 83.7656721,7.22537154 84.1046284,7.55258843 C84.5282294,7.96033419 85.459698,9.00137945 86.3053884,10.2053044 C86.8774953,11.0215247 88.3164538,13.0216288 89.3748894,13.7562271 L97.6402094,13.7562271 C99.7147582,13.7562271 101.999785,13.776997 103.841183,12.266625 C105.746065,10.7150777 105.999999,8.2664168 105.999999,7.12370839 C106.000755,5.6122433 105.641393,3.36800187 103.715728,1.79604904 Z M83.7244834,6.7553161 L82.5606199,6.7553161 L82.5606199,0.782696963 C82.838738,0.781968194 83.0446813,0.781968194 83.4263379,0.781968194 C85.3104363,0.781968194 87.3861188,0.755732542 87.3861188,3.69376122 C87.3857409,5.69422972 86.4546501,6.7553161 83.7244834,6.7553161 Z M101.726201,12.3679238 C100.562338,13.2449962 99.016818,13.286536 98.0218659,13.286536 C95.8003226,13.286536 95.8211059,13.2041852 95.8211059,9.65289815 L95.8211059,0.693058484 C95.8211059,0.693058484 96.816058,0.685770802 97.5355372,0.685770802 C98.6359172,0.685770802 100.9644,0.571354207 102.42452,2.57145832 C103.525655,4.08146587 103.736889,5.97990682 103.736889,7.26545379 C103.736511,8.87785326 103.419094,11.1024179 101.726201,12.3679238 Z M4.82549885,5.5918378 C3.19571212,4.89841493 1.4604975,4.16345228 1.4604975,2.55141719 C1.4604975,1.65357487 2.09533212,0.490096562 3.87286905,0.490096562 C5.44484048,0.490096562 7.21255259,1.64045704 7.57984976,3.49262122 L8.04312788,3.49262122 L8.04312788,0.244866089 L7.59874365,0.244866089 C7.55604346,0.489732178 7.4128278,1.13505635 7.04779789,1.42838552 C6.5399302,0.897842326 5.65116173,0 3.80976346,0 C1.48165865,0 0.10580577,1.59162958 0.10580577,3.34723198 C0.10580577,5.9186903 2.41274943,6.87774915 3.97905269,7.53072538 C4.10564174,7.57117202 4.80395982,7.8572135 4.93130462,7.91843003 C6.34910193,8.51018974 7.7880604,9.28523464 7.7880604,10.877593 C7.7880604,12.1219646 6.75116386,13.5102678 4.6769929,13.5102678 C1.67626569,13.5102678 0.757644886,10.7405846 0.513157983,9.55342131 L0,9.55342131 L0,13.7547695 L0.484817152,13.7547695 C0.613295586,12.9236095 0.888390587,12.4899925 1.01573539,12.3059785 C1.35431385,12.673642 2.5608775,13.9996356 4.86782116,13.9996356 C7.55566559,13.9996356 9.27009693,12.3872361 9.27009693,10.1018193 C9.27009693,7.53072538 7.55566559,6.7553161 4.82549885,5.5918378 Z M46.0629197,0.693787252 C48.4537522,0.714192759 48.4537522,1.4881445 48.4537522,2.73470238 L48.4537522,10.6804612 L48.4121857,10.6804612 L40.1578241,0.244866089 L36.0310212,0.244866089 L36.0310212,0.693787252 C37.8085582,0.693787252 38.1048143,0.693787252 38.1048143,3.61250358 L38.1048143,10.7759298 C38.1048143,12.0410713 38.0927222,12.4531897 37.7870191,12.7702038 C37.3169392,13.2581141 36.5944369,13.4162567 35.9886989,13.3011114 C35.1482988,13.0912262 34.8920977,12.601494 34.5266899,11.7553942 C34.5055287,11.6737722 34.4205063,11.4901226 34.3147005,11.2860675 L29.404557,0.0408110148 L29.0021172,0.0408110148 L24.9387978,9.42880196 C24.8333699,9.65289815 24.4947914,10.4490773 24.4309301,10.5919159 C23.7537732,12.3059785 23.4363559,13.0817522 21.9546972,13.3062127 L21.9546972,13.7547695 L26.1242003,13.7547695 L26.1242003,13.3062127 C24.9180145,13.3062127 24.6002193,12.5916556 24.6002193,12.0403425 C24.6002193,11.4697171 24.9599589,10.693579 25.3200764,9.83654772 C25.3623987,9.73452018 25.383182,9.65253377 25.4043432,9.63249265 L25.7640828,8.77509695 L31.0978272,8.77509695 L32.1558849,11.2645689 C32.1982072,11.3461909 32.3882797,11.754301 32.4094409,11.8362874 C32.5579468,12.1420057 32.6425914,12.3668306 32.6425914,12.5708857 C32.6425914,13.3058484 31.9019511,13.3058484 30.9069989,13.3058484 L30.9069989,13.7544051 L41.0677537,13.7544051 L41.0677537,13.3058484 C39.7342232,13.2858072 39.2267333,12.9181437 39.0993885,12.7957107 C38.6757876,12.4491814 38.6123041,12.1831811 38.6123041,10.7752011 L38.6123041,1.40870878 L38.6550043,1.40870878 L48.4579089,13.7551339 L48.9616199,13.7551339 L48.9616199,2.87754093 C48.9616199,1.7967778 48.9997856,0.659899534 51.1389515,0.659899534 C53.2784953,0.659899534 53.3181725,1.79568465 53.3181725,2.87608339 L53.3181725,10.2453866 C53.3181725,12.857656 53.3181725,13.3065771 51.5398798,13.3065771 L51.1174125,13.3065771 L51.1174125,13.7551339 L57.6142646,13.7551339 L57.6142646,13.3065771 L57.1490971,13.3065771 C55.3500211,13.3065771 55.3500211,12.857656 55.3500211,10.2453866 L55.3500211,6.87811353 L56.6620127,6.87811353 C57.9324377,6.87811353 58.7792617,6.87811353 58.7792617,9.12235496 L59.2871294,9.12235496 L59.2871294,4.36750735 L58.7792617,4.36750735 C58.7792617,6.26558393 58.1017269,6.42882798 56.6620127,6.42882798 L55.3500211,6.42882798 L55.3500211,0.693787252 L58.0809436,0.693787252 C59.4352575,0.693787252 60.2987081,0.693787252 60.9754872,1.63244059 C61.5438153,2.40639234 61.5717783,2.98904245 61.6227918,3.49189245 L62.1223461,3.49189245 L62.1231019,0.245230473 L46.0629197,0.245230473 L46.0629197,0.693787252 L46.0629197,0.693787252 Z M25.9760722,8.32690456 L28.4311439,2.5718227 L30.9073768,8.32690456 L25.9760722,8.32690456 Z" id="Shape"></path>
            </g>
        </g>
    </g>
</svg>