<?xml version="1.0" encoding="UTF-8"?>
<svg width="57px" height="49px" viewBox="0 0 57 49" version="1.1" xmlns="http://www.w3.org/2000/svg" xmlns:xlink="http://www.w3.org/1999/xlink">
    <!-- Generator: Sketch 47.1 (45422) - http://www.bohemiancoding.com/sketch -->
    <title>Tata_logo</title>
    <desc>Created with Sketch.</desc>
    <defs></defs>
    <g id="Page-1" stroke="none" stroke-width="1" fill="none" fill-rule="evenodd">
        <g id="Desktop-HD-Copy" transform="translate(-1128.000000, -2532.000000)" fill="#FFFFFF">
            <g id="Tata_logo" transform="translate(1128.779544, 2532.000000)">
                <g id="Layer_1">
                    <g id="Group">
                        <polygon id="Shape" points="0.0815508274 35.0591027 13.5339953 35.0591027 13.5339953 39.1541784 9.67476123 39.1541784 9.67476123 48.9958946 4.06920095 48.9958946 4.06920095 39.1541784 0.0815508274 39.1541784"></polygon>
                        <polygon id="Shape" points="20.3469314 40.6901297 17.5146288 48.9958946 12.1313475 48.9958946 17.4111017 35.0591027 23.2574752 35.0591027 28.6644539 48.9958946 23.2149787 48.9958946"></polygon>
                        <polygon id="Shape" points="27.3784397 35.0591027 40.8303546 35.0591027 40.8303546 39.1541784 36.9723121 39.1541784 36.9723121 48.9958946 31.3670165 48.9958946 31.3670165 39.1541784 27.3784397 39.1541784"></polygon>
                        <polygon id="Shape" points="47.6456738 40.6901297 44.8123121 48.9958946 39.4290307 48.9958946 44.7105059 35.0591027 50.5551584 35.0591027 55.9602837 48.9958946 50.5127943 48.9958946"></polygon>
                        <path d="M47.8441229,9.45991351 C47.341844,8.47183514 46.6803026,7.52481081 45.8573806,6.63671892 C44.0080567,4.64003514 41.3988274,2.97853784 38.3110165,1.8326 C35.1977872,0.677789189 31.6468842,0.0667459459 28.0383924,0.0667459459 C24.4299007,0.0667459459 20.8789976,0.677789189 17.767357,1.8326 C14.6779574,2.97867027 12.0685957,4.64016757 10.2192719,6.63671892 C9.39687943,7.52467838 8.73321986,8.47302703 8.23107329,9.46163514 C12.251026,8.48918378 19.1273759,7.20525135 25.5121702,7.06950811 C26.1280378,7.05626486 26.5520757,7.25358919 26.8312813,7.60758108 C27.1713853,8.03864865 27.1458345,9.57526216 27.1374941,10.2627189 L26.9559905,28.0311784 C27.3155556,28.0430973 27.6768416,28.0507784 28.0383924,28.0507784 C28.4029882,28.0507784 28.76626,28.0448189 29.1258251,28.0329 L28.9443215,10.2625865 C28.934922,9.57526216 28.9085768,8.03851622 29.2498723,7.60744865 C29.52974,7.25358919 29.9523215,7.05626486 30.5680567,7.06937568 C36.9502033,7.20405946 43.8249645,8.48825676 47.8441229,9.45991351" id="Shape"></path>
                        <path d="M48.7023924,11.7705946 C42.818818,10.4400459 38.8896832,10.1939865 35.0128416,9.97878378 C31.633513,9.79086216 31.5894279,10.9979838 31.9267518,13.3048243 C31.9488605,13.4456 31.976,13.6230595 32.0081702,13.8254162 C33.1416738,20.5413297 34.5531915,26.3206811 34.7957258,27.3016081 C43.0342128,25.4177568 48.9756407,20.1947541 48.9756407,14.0591595 C48.9756407,13.2865486 48.8823073,12.5210892 48.7023924,11.7705946" id="Shape"></path>
                        <path d="M24.1532104,13.3048243 C24.4909314,10.9981162 24.4476407,9.79086216 21.0687092,9.97878378 C17.1905437,10.1939865 13.2604823,10.4399135 7.37465721,11.7713892 C7.1948747,12.5218838 7.10034988,13.2864162 7.10034988,14.059027 C7.10034988,16.7108541 8.17878014,19.2768649 10.2194043,21.4814676 C12.0687281,23.4781514 14.6780898,25.1396486 17.7674894,26.2863811 C18.8856359,26.7004973 20.0656076,27.0399216 21.2810591,27.3114081 C21.5091631,26.3924595 22.9531158,20.4928595 24.0989314,13.6568297 C24.1201135,13.5258541 24.1397069,13.4049432 24.1532104,13.3048243" id="Shape"></path>
                    </g>
                </g>
            </g>
        </g>
    </g>
</svg>