<?xml version="1.0" encoding="UTF-8"?>
<svg width="194px" height="28px" viewBox="0 0 194 28" version="1.1" xmlns="http://www.w3.org/2000/svg" xmlns:xlink="http://www.w3.org/1999/xlink">
    <!-- Generator: Sketch 47.1 (45422) - http://www.bohemiancoding.com/sketch -->
    <title>Wealthsimple_2015_logo</title>
    <desc>Created with Sketch.</desc>
    <defs></defs>
    <g id="Page-1" stroke="none" stroke-width="1" fill="none" fill-rule="evenodd">
        <g id="Desktop-HD-Copy" transform="translate(-638.000000, -2627.000000)" fill-rule="nonzero" fill="#FFFFFF">
            <g id="Wealthsimple_2015_logo" transform="translate(638.000000, 2627.000000)">
                <g id="g10" transform="translate(97.000000, 14.000000) scale(-1, 1) rotate(-180.000000) translate(-97.000000, -14.000000) ">
                    <g id="g12">
                        <path d="M32.8194668,24.5189677 C32.5769668,24.3621677 32.3205074,24.1181161 32.0497306,23.7859097 C31.681238,23.3357419 31.3086292,22.8030194 30.9306513,22.1873806 C30.5530314,21.5710194 30.2190793,20.940929 29.9282583,20.2956645 L22.83831,4.80946065 L17.3757961,17.4800387 L11.1868919,4.80946065 L4.24206771,20.3540129 C3.97075406,20.9795871 3.64156255,21.6150968 3.25404576,22.2607226 C2.86647528,22.9059871 2.50813007,23.4237161 2.17892066,23.8148129 C1.9076786,24.1472 1.6167824,24.3968516 1.30715732,24.5628645 C0.997181476,24.7286968 0.561298911,24.8903742 1.89478058e-15,25.0468129 L1.89478058e-15,25.34 L10.6634856,25.34 L10.6634856,25.0468129 C10.2371867,24.8710452 9.93237048,24.6701677 9.74815996,24.4456258 C9.56402103,24.2205419 9.47210369,23.9221161 9.47210369,23.5512516 C9.47210369,23.2381935 9.55961845,22.8765419 9.73384262,22.4659355 L14.2667314,11.9657729 L17.2303856,17.9784206 L15.516009,22.0260645 C15.0122354,23.1989935 14.5376334,24.0104516 14.0921672,24.4606194 C13.9371103,24.6165161 13.7581435,24.7388129 13.5547836,24.8266065 C13.3514773,24.9149419 13.0653452,24.9884645 12.6974074,25.0468129 L12.6974074,25.34 L23.2162878,25.34 L23.2162878,25.0468129 C22.1704059,24.8710452 21.647107,24.3036387 21.647107,23.3458581 C21.647107,23.1112 21.7000812,22.7885677 21.8067454,22.3776 C21.9130517,21.9671742 22.0540775,21.5464516 22.2283911,21.1166968 L25.8603432,12.4057342 L26.5865904,13.9018374 C27.3230387,15.4459381 27.8894686,16.8734503 28.2865959,18.1837419 C28.6833653,19.4936 28.8823764,20.6477419 28.8823764,21.6445419 C28.8823764,22.7784516 28.6396974,23.6488 28.1559502,24.2548645 C27.9812786,24.4698323 27.7876365,24.6311484 27.5746661,24.7388129 C27.3613376,24.8459355 27.041703,24.9489032 26.615762,25.0468129 L26.615762,25.34 L33.9090166,25.34 L33.9090166,25.0468129 C33.4247325,24.8513548 33.0616089,24.6750452 32.8194668,24.5189677" id="path14"></path>
                        <path d="M43.9495904,10.3088413 C43.8137546,9.9862271 43.6782768,9.69739355 43.5429779,9.44344258 C43.4071421,9.18940129 43.25681,8.94497032 43.0921605,8.71034839 C42.92769,8.47570839 42.7387011,8.22154065 42.5257306,7.94768258 C41.8472675,7.12666839 41.0338635,6.49603613 40.0851605,6.05591226 C39.1359207,5.61609548 38.0895018,5.39621419 36.9467989,5.39621419 C35.8617232,5.39621419 34.849845,5.58701161 33.9106273,5.96813677 C32.9708727,6.34967742 32.1571107,6.87750452 31.4695203,7.55223226 C30.7819299,8.22641806 30.2446716,9.02286452 29.8570295,9.94225806 C29.4690295,10.8608748 29.2757454,11.8581626 29.2757454,12.9341213 C29.2757454,14.0285058 29.4795886,15.0552929 29.8862011,16.0134168 C30.2929926,16.9711252 30.8545904,17.8070968 31.5713524,18.5210065 C32.2881144,19.2347355 33.1258579,19.7969032 34.084762,20.207329 C35.0434871,20.6182968 36.0750517,20.8231484 37.1794557,20.8231484 C38.147845,20.8231484 39.0390996,20.6768258 39.8525037,20.3836387 C40.6659077,20.0900903 41.3826697,19.6693677 42.0027897,19.1225548 C42.6223727,18.5744774 43.1309963,17.9099742 43.5281236,17.1280516 C43.9252509,16.3457135 44.1820683,15.4754374 44.2983967,14.517729 L34.6803635,14.517729 C34.6995129,10.8608748 36.3171937,9.03296258 39.532869,9.03296258 C40.7534225,9.03296258 41.7894613,9.33576 42.642059,9.94225806 C42.971179,10.1571897 43.2324705,10.3769987 43.4266494,10.6024619 C43.6199336,10.8265703 43.8626125,11.16416 44.1528967,11.6137858 L44.4147251,11.4968723 C44.2400535,11.0274658 44.0850683,10.6314555 43.9495904,10.3088413 M39.1550701,15.7294606 C39.1550701,15.9664129 39.150238,16.1782555 39.1405738,16.3663794 C39.1305517,16.5540877 39.1210664,16.7272542 39.1114022,16.8850297 C39.101917,17.0428052 39.0870627,17.2203613 39.0679133,17.4185652 C38.9904207,18.4852387 38.7965996,19.2611097 38.4869871,19.7454194 C38.1770166,20.2288258 37.7315683,20.4716129 37.1502841,20.4716129 C36.3368801,20.4716129 35.7215923,19.992 35.3053155,19.0338581 C34.8885018,18.0751742 34.6803635,16.6867355 34.6803635,14.8697703 L39.1550701,14.8697703 L39.1550701,15.7294606" id="path16"></path>
                        <path d="M60.3148506,5.9094271 C59.579476,5.54813677 58.8448173,5.36713032 58.1103376,5.36713032 C56.5440203,5.36713032 55.5772417,6.30543742 55.2107177,8.18266581 C54.8622694,7.69351484 54.5723432,7.33186323 54.3402232,7.09702452 C54.1081033,6.86289032 53.8181771,6.62805161 53.4702657,6.39335742 C52.5034871,5.72878194 51.3436033,5.39606968 49.9906144,5.39606968 C48.7727454,5.39606968 47.7767952,5.68976258 47.0034797,6.27601032 C46.2301642,6.86289032 45.8439539,7.63458839 45.8439539,8.59327226 C45.8439539,9.82525419 46.5215221,10.8317187 47.8779114,11.6140748 C49.6400185,12.6113626 52.0811255,13.569071 55.2001587,14.4885187 L55.2001587,16.0137058 C55.2001587,17.4602039 55.1317934,18.4279742 54.9964945,18.9171613 C54.8993155,19.2686968 54.7155166,19.5474323 54.4447399,19.7526452 C54.1730683,19.9584 53.8534336,20.0608258 53.4858358,20.0608258 C53.2141642,20.0608258 52.9482196,20.0120516 52.6863911,19.9145032 C52.4250996,19.8160516 52.1970959,19.6894194 52.0036328,19.5329806 C51.7520055,19.3176516 51.5630166,19.0345806 51.437203,18.6825032 C51.3108524,18.3304258 51.199893,17.8412568 51.1032509,17.2157729 L50.9869225,16.3359045 C50.8705941,15.3974529 50.5366421,14.6590658 49.9845295,14.12152 C49.432417,13.5835948 48.7496587,13.3150297 47.9357177,13.3150297 C47.3352841,13.3150297 46.8463469,13.5057729 46.468369,13.8868077 C46.0907491,14.2683484 45.9019391,14.7619613 45.9019391,15.3684594 C45.9019391,16.7951226 47.0247768,18.0271948 49.2725996,19.0634839 C50.4734668,19.630529 51.7180018,20.0657032 53.0065627,20.3690065 C54.2945867,20.6717677 55.478452,20.823329 56.5579797,20.823329 C57.6749114,20.823329 58.5518487,20.5597677 59.1871808,20.0313806 C59.6107952,19.6796645 59.9046587,19.264 60.0684133,18.784929 C60.23181,18.3058581 60.3139557,17.6359716 60.3139557,16.7762994 L60.3139557,10.0300335 C60.3139557,9.4631329 60.3236199,9.05738581 60.3431273,8.81293677 C60.3624557,8.56816258 60.420262,8.35843355 60.517441,8.18266581 C60.5943967,7.98670194 60.7302325,7.83512258 60.9240535,7.72780129 C61.1178745,7.62011871 61.3408672,7.56648516 61.5924945,7.56648516 C61.7671661,7.56648516 61.9364686,7.59069161 62.1011181,7.63988129 C62.2652306,7.68863742 62.4833911,7.7910271 62.7547048,7.94802581 L62.9293764,7.74227097 C61.9216144,6.88165935 61.0504041,6.27127742 60.3148506,5.9094271 M55.2001587,14.1364774 C54.638024,13.9404413 54.2217472,13.7888077 53.9504336,13.6820284 C53.6792989,13.5738581 53.4079852,13.4126142 53.1372085,13.1976826 C52.6523875,12.8649703 52.3037601,12.4544181 52.0911476,11.9661161 C51.8778192,11.4768929 51.771155,10.8611458 51.771155,10.1183871 C51.771155,9.23837419 51.916655,8.56384516 52.207476,8.09431226 C52.4979391,7.62541161 52.9142159,7.39071742 53.4566642,7.39071742 C53.9989336,7.39071742 54.4252325,7.58583226 54.735203,7.9768929 C55.0448155,8.36817032 55.2001587,8.90580645 55.2001587,9.59041548 L55.2001587,14.1364774" id="path18"></path>
                        <path d="M62.8314815,5.77753806 L62.8314815,6.1294529 C63.3349151,6.16832774 63.707703,6.23155355 63.950203,6.3199071 C64.192345,6.40732129 64.4004834,6.55848516 64.574976,6.77312774 C64.7100959,6.96768258 64.8070959,7.25523355 64.8654391,7.6358529 C64.9234244,8.01591226 64.9525959,8.66460903 64.9525959,9.58104 L64.9525959,21.6029935 C64.9525959,22.4803871 64.9134022,23.1285419 64.8362675,23.5478194 C64.7587749,23.9670968 64.6037897,24.3329032 64.3716697,24.6448774 C64.1578044,24.9371613 63.9110092,25.1468903 63.6305683,25.2735226 C63.3497694,25.3999742 62.9669594,25.4734968 62.4826753,25.4931871 L62.424869,25.8149161 C62.8119742,25.8927742 63.1459262,25.9603355 63.427262,26.0194065 C63.707703,26.0777548 63.9836697,26.1409806 64.2553413,26.2096258 C64.526297,26.277729 64.8210554,26.351071 65.1397952,26.428929 C65.4576402,26.5067871 65.8383026,26.6043355 66.2814244,26.7215742 C66.7435166,26.8386323 67.129369,26.9410581 67.4371919,27.0288516 C67.7453727,27.1164645 68.029393,27.2038968 68.2897897,27.2916903 C68.5492915,27.3800258 68.8145203,27.4674581 69.0840443,27.5554323 C69.3539262,27.6428645 69.6810775,27.744929 70.066393,27.8623484 L70.066393,9.58104 C70.066393,9.13231742 70.0712251,8.75225806 70.0810683,8.44008516 C70.0907325,8.12811097 70.1102399,7.86964387 70.1390535,7.66528 C70.1682251,7.46042839 70.2070609,7.28995355 70.2553819,7.1531871 C70.303703,7.01643871 70.3668782,6.8894271 70.4443708,6.77312774 C70.5988192,6.55848516 70.7974723,6.40732129 71.0399723,6.3199071 C71.2821144,6.23155355 71.6649244,6.16832774 72.1878653,6.1294529 L72.1878653,5.77753806 L62.8314815,5.77753806" id="path20"></path>
                        <path d="M81.5583875,5.89573419 C80.7736181,5.56294968 79.9768579,5.39606968 79.1664963,5.39606968 C78.0300572,5.39606968 77.0763432,5.70979613 76.306428,6.33649032 C75.8244705,6.72811097 75.487476,7.21818323 75.2949077,7.80641806 C75.1025185,8.39351484 75.0062343,9.2268129 75.0062343,10.3046142 L75.0062343,19.092929 L71.4322675,19.092929 C71.8388801,19.2690581 72.1971716,19.4348903 72.507321,19.5916903 C72.8169336,19.7477677 73.1029225,19.9042065 73.364214,20.0606452 C73.6258635,20.2170839 73.8876919,20.3832774 74.1489834,20.5595871 C74.4106328,20.7353548 74.7150554,20.9503226 75.0636827,21.2048516 C75.9307768,21.8499355 76.7105351,22.5047742 77.4042103,23.1699097 C77.6928838,23.4432258 77.9480904,23.6925161 78.1698303,23.9174194 C78.3913911,24.1421419 78.602572,24.3768 78.8055203,24.6215742 C79.0079317,24.8659871 79.2099852,25.129729 79.4125756,25.4131613 C79.6146292,25.6967742 79.8505074,26.0338581 80.1200314,26.4254968 L80.1200314,20.4421677 L83.7813339,20.4421677 L83.0549077,19.092929 L80.1200314,19.092929 L80.1200314,10.6276439 C80.1200314,9.51132903 80.3038303,8.71267871 80.6721439,8.23219871 C81.0400996,7.75222452 81.6602196,7.51229161 82.5319668,7.51229161 C82.8027435,7.51229161 83.0549077,7.53163871 83.2873856,7.57121806 C83.5200424,7.61038194 83.8199908,7.69815742 84.1879465,7.83584516 L84.3626181,7.60064516 C83.2775424,6.79713548 82.3429779,6.22880774 81.5583875,5.89573419" id="path22"></path>
                        <path d="M94.6485554,5.77753806 L94.6485554,6.1294529 C95.1906458,6.18801806 95.5537694,6.35419355 95.7379262,6.62805161 C95.922083,6.90171097 96.014072,7.4494271 96.014072,8.27044129 L96.014072,16.0135613 C96.014072,16.5414606 95.9895535,16.9374529 95.9408745,17.2011587 C95.8921956,17.46528 95.7898266,17.7044181 95.6334096,17.9197832 C95.496321,18.1149161 95.3112694,18.2718968 95.0770018,18.3891355 C94.8427343,18.5065548 94.5988026,18.5649032 94.3453856,18.5649032 C94.0135812,18.5649032 93.6674594,18.4814452 93.3064834,18.3157935 C92.9449705,18.1496 92.5401476,17.8709548 92.0916568,17.4798219 L92.0916568,8.09474581 C92.0916568,7.86003355 92.1011421,7.66387097 92.1202915,7.50799226 C92.139441,7.35133677 92.1591273,7.22439742 92.1786347,7.12645161 C92.1974262,7.02836129 92.2265978,6.93084903 92.2657915,6.83326452 C92.3624336,6.61797161 92.4982694,6.45665548 92.6724041,6.34931613 C92.8470756,6.24165161 93.1083672,6.16832774 93.4571734,6.1294529 L93.4571734,5.77753806 L84.6529022,5.77753806 L84.6529022,6.1294529 C85.214679,6.16832774 85.6309557,6.23155355 85.9022694,6.3199071 C86.173583,6.40732129 86.3963967,6.55848516 86.5707103,6.77312774 C86.7256956,6.98751742 86.8323598,7.27978323 86.890345,7.65032258 C86.9486882,8.02086194 86.9773229,8.66460903 86.9773229,9.58104 L86.9773229,21.6029935 C86.9773229,22.4803871 86.9381292,23.1285419 86.8611734,23.5478194 C86.7835018,23.9670968 86.6381808,24.3329032 86.4252103,24.6448774 C86.2118819,24.9371613 85.9649077,25.1468903 85.6844668,25.2735226 C85.40331,25.3999742 85.0108358,25.4734968 84.5075812,25.4931871 L84.4784096,25.8149161 C84.885559,25.8927742 85.2434926,25.9657548 85.553821,26.0338581 C85.8634336,26.1023226 86.1587288,26.1706065 86.4395277,26.2387097 C86.7205055,26.3071742 87.0104317,26.3806968 87.3091273,26.4583742 C87.6078229,26.5362323 87.9496494,26.6240258 88.3355018,26.7215742 C88.7396089,26.8386323 89.0909207,26.9361806 89.3896162,27.0144 C89.6883118,27.0922581 89.97269,27.1744516 90.242214,27.2627871 C90.511738,27.3505806 90.7909262,27.4380129 91.0801365,27.5259871 C91.36881,27.6134194 91.7058044,27.7259613 92.0916568,27.8623484 L92.0916568,17.9175974 C92.3624336,18.1514065 92.5949114,18.3465032 92.7887325,18.5025806 C92.9820166,18.6581161 93.1566882,18.7948645 93.3116734,18.9122839 C93.4666587,19.0288 93.6121587,19.1359226 93.7476365,19.233471 C93.8829354,19.3306581 94.0379207,19.4379613 94.2125923,19.5552 C94.8905185,20.0035613 95.5245978,20.330529 96.1159041,20.5353806 C96.7063155,20.739329 97.3115812,20.8421161 97.9317011,20.8421161 C98.9972694,20.8421161 99.8010092,20.510271 100.343637,19.8480258 C100.61495,19.5161806 100.808592,19.121471 100.924563,18.6629935 C101.040712,18.2050581 101.099055,17.5659716 101.099055,16.7471432 L101.099055,8.99612903 L101.128227,8.26429935 C101.147018,7.83584516 101.161873,7.52817032 101.171895,7.34300903 C101.18138,7.15806452 101.234533,6.98751742 101.331533,6.83149419 C101.447862,6.61705032 101.616806,6.45609548 101.839799,6.3489729 C102.062255,6.24165161 102.396744,6.16832774 102.84255,6.1294529 L102.84255,5.77753806 L94.6485554,5.77753806" id="path24"></path>
                        <path d="M116.048688,8.58445677 C115.729054,7.92813677 115.283068,7.36474065 114.712343,6.89450323 C114.140544,6.42460903 113.457428,6.05719484 112.663531,5.79256774 C111.868919,5.52880774 111.007194,5.39606968 110.077461,5.39606968 C109.806148,5.39606968 109.540203,5.40544516 109.278375,5.42331097 C109.017262,5.44137548 108.730736,5.47784774 108.421124,5.53155355 C108.111511,5.58609032 107.77219,5.65489806 107.404234,5.73893419 C107.036279,5.82325935 106.600137,5.94344258 106.096703,6.10022452 C105.767046,6.19775484 105.500923,6.27601032 105.297616,6.33486452 C105.09431,6.39335742 104.905321,6.45192258 104.731186,6.51084903 C104.556515,6.56912516 104.387212,6.62805161 104.222563,6.68654452 C104.057913,6.74547097 103.859439,6.82331097 103.626961,6.92125677 L103.336498,12.7577032 L103.626961,12.7577032 C104.091917,11.68216 104.600004,10.7095123 105.152653,9.83972387 C105.704408,8.96939355 106.285692,8.23106065 106.89579,7.62541161 C107.506245,7.01876903 108.125828,6.55474581 108.755434,6.23204129 C109.384681,5.9094271 110.009633,5.74811097 110.629574,5.74811097 C111.268843,5.74811097 111.781762,5.94378581 112.169762,6.33576774 C112.556867,6.72740645 112.750688,7.23680774 112.750688,7.86398968 C112.750688,8.51022968 112.551677,9.03896 112.154908,9.45084903 C111.75778,9.86216 111.045851,10.2444774 110.019476,10.5970245 L108.595616,11.0967613 C106.735972,11.7428568 105.409113,12.4530813 104.614858,13.2271097 C103.820245,14.0006323 103.423476,14.9262942 103.423476,16.0044568 C103.423476,16.6897161 103.583293,17.3265445 103.902928,17.9137135 C104.222563,18.5013161 104.658347,19.0107355 105.210638,19.4419355 C105.762751,19.8731355 106.416338,20.2111226 107.171756,20.4558968 C107.927354,20.7008516 108.75078,20.823329 109.641677,20.823329 C110.416245,20.823329 111.200836,20.7644387 111.99509,20.6475613 C112.789345,20.5303226 113.728563,20.3148129 114.813817,20.0019355 L115.104638,15.1921858 L114.813817,15.1921858 C114.503668,15.9547794 114.135354,16.6589342 113.709413,17.3041084 C113.283114,17.9489394 112.828181,18.5061935 112.343897,18.9756903 C111.859792,19.4450065 111.365485,19.8115355 110.862052,20.0752774 C110.357902,20.3395613 109.874155,20.4712516 109.40902,20.4712516 C108.846886,20.4712516 108.36797,20.280129 107.970843,19.8982452 C107.573716,19.5158194 107.375063,19.0508387 107.375063,18.5027613 C107.375063,17.3269781 108.29531,16.4356026 110.135804,15.8281832 L112.111419,15.1821058 C113.661092,14.672271 114.784646,14.0648516 115.482079,13.3598477 C116.179334,12.6544103 116.52814,11.7731871 116.52814,10.7152206 C116.52814,9.95092903 116.368323,9.24070452 116.048688,8.58445677" id="path26"></path>
                        <path d="M116.963745,5.77753806 L116.963745,6.1294529 C117.486686,6.16832774 117.869138,6.23189677 118.111638,6.3199071 C118.35378,6.40817032 118.551897,6.55938839 118.70724,6.77475355 C118.861867,6.98970323 118.968531,7.28289032 119.026875,7.65462194 C119.08486,8.02572129 119.114031,8.67096774 119.114031,9.59041548 L119.114031,14.4005265 C119.114031,14.8304077 119.104009,15.2069987 119.08486,15.529631 C119.065173,15.8522452 119.03117,16.1309084 118.983386,16.3651871 C118.934528,16.5998813 118.876721,16.8055819 118.808714,16.9813497 C118.740886,17.1571897 118.648897,17.3233832 118.532747,17.4798219 C118.31924,17.7536077 118.072445,17.9535819 117.791467,18.0811355 C117.510668,18.208129 117.118373,18.2912258 116.614939,18.3302452 L116.585768,18.6237935 C116.97341,18.7016516 117.307362,18.7751742 117.588697,18.8436387 C117.869138,18.9122839 118.145105,18.9856258 118.416419,19.0638452 C118.687732,19.1417032 118.983386,19.2248 119.302483,19.3131355 C119.622476,19.400929 120.004391,19.5131097 120.450376,19.6502194 C120.895825,19.7867871 121.273803,19.899871 121.583773,19.9873032 C121.893386,20.0756387 122.183849,20.1636129 122.45552,20.2514065 C122.726297,20.3393806 122.997611,20.4320516 123.268924,20.5301419 C123.540238,20.6276903 123.859873,20.7451097 124.227828,20.8822194 L124.227828,9.59041548 C124.227828,9.14028387 124.232661,8.75932129 124.242504,8.4467871 C124.252168,8.13333161 124.271317,7.87450323 124.300489,7.66930839 C124.329661,7.46389677 124.373149,7.29248258 124.431135,7.15587871 C124.489478,7.01876903 124.556948,6.8921729 124.634441,6.77475355 C124.789426,6.55938839 124.988079,6.40817032 125.230579,6.3199071 C125.472185,6.23189677 125.854994,6.16832774 126.377935,6.1294529 L126.377935,5.77753806 L116.963745,5.77753806 Z M124.184161,23.6538581 C124.01969,23.2723355 123.796697,22.9448258 123.515899,22.6709677 C123.234921,22.3971097 122.905801,22.1770839 122.528181,22.0112516 C122.150382,21.8452387 121.747886,21.7621419 121.322124,21.7621419 C120.895825,21.7621419 120.498697,21.8452387 120.130742,22.0112516 C119.762786,22.1770839 119.437961,22.3971097 119.15752,22.6709677 C118.876721,22.9448258 118.653729,23.2723355 118.489079,23.6538581 C118.324609,24.0348387 118.242284,24.4405677 118.242284,24.8708645 C118.242284,25.3006194 118.324609,25.7020129 118.489079,26.0734194 C118.653729,26.4448258 118.871352,26.7723355 119.143203,27.0557677 C119.41398,27.3392 119.738804,27.5642839 120.116424,27.7302968 C120.494223,27.8964903 120.895825,27.9795871 121.322124,27.9795871 C121.747886,27.9795871 122.150382,27.8964903 122.528181,27.7302968 C122.905801,27.5642839 123.234921,27.3440774 123.515899,27.0705806 C123.796697,26.7963613 124.01969,26.4693935 124.184161,26.0884129 C124.348452,25.7067097 124.431135,25.3006194 124.431135,24.8708645 C124.431135,24.4405677 124.348452,24.0348387 124.184161,23.6538581 L124.184161,23.6538581 Z" id="path28"></path>
                        <path d="M144.91621,5.77753806 L144.91621,6.1294529 C145.458301,6.18801806 145.821424,6.35419355 146.006118,6.62805161 C146.189917,6.90171097 146.281727,7.4494271 146.281727,8.27044129 L146.281727,15.690929 C146.281727,16.3748516 146.257387,16.8935019 146.209066,17.2451277 C146.159851,17.597169 146.067146,17.8806194 145.930415,18.0959484 C145.813192,18.2912258 145.632435,18.4476645 145.389041,18.5649032 C145.144751,18.6823226 144.895808,18.7412129 144.641854,18.7412129 C144.31005,18.7412129 143.978245,18.6577548 143.646441,18.4915613 C143.314637,18.3255484 142.934153,18.0468129 142.504275,17.6560955 L142.504275,8.27044129 C142.504275,7.86003355 142.523424,7.52280516 142.562618,7.25868387 C142.601454,6.99456258 142.668924,6.78393032 142.766103,6.62805161 C142.862745,6.47139613 142.998581,6.35419355 143.172716,6.27601032 C143.347387,6.19775484 143.579865,6.14899871 143.870328,6.1294529 L143.870328,5.77753806 L136.054133,5.77753806 L136.054133,6.1294529 C136.32491,6.14899871 136.547902,6.19775484 136.722037,6.27601032 C136.896708,6.35419355 137.031649,6.47139613 137.128828,6.62805161 C137.226007,6.78393032 137.293478,6.99456258 137.332672,7.25868387 C137.37097,7.52280516 137.390478,7.86003355 137.390478,8.27044129 L137.390478,15.690929 C137.390478,16.3555226 137.366138,16.8495329 137.317817,17.1717316 C137.269496,17.4947794 137.167485,17.7826194 137.013037,18.0371303 C136.896708,18.2520258 136.717384,18.4185806 136.475242,18.5354581 C136.232742,18.6528774 135.966618,18.7117677 135.676155,18.7117677 C135.346498,18.7117677 135.022568,18.6335484 134.702934,18.4771097 C134.382941,18.320129 134.019817,18.0468129 133.613026,17.6560955 L133.613026,8.27044129 C133.613026,7.86003355 133.632175,7.52280516 133.671369,7.25868387 C133.709668,6.99456258 133.777675,6.78393032 133.874854,6.62805161 C133.971496,6.47139613 134.111627,6.35419355 134.295784,6.27601032 C134.48012,6.19775484 134.707408,6.14899871 134.978542,6.1294529 L134.978542,5.77753806 L126.145637,5.77753806 L126.145637,6.1294529 C126.707055,6.16776774 127.12369,6.23119226 127.395004,6.31898581 C127.666317,6.40697806 127.889131,6.55763613 128.063445,6.77222452 C128.237579,6.98666839 128.349076,7.27859097 128.397397,7.64848 C128.445718,8.01867613 128.470057,8.66086968 128.470057,9.57637935 L128.470057,14.3675768 C128.470057,14.7961032 128.460035,15.1705987 128.440886,15.4918039 C128.421736,15.8131535 128.392565,16.0908955 128.353908,16.3247406 C128.315072,16.5580981 128.261561,16.7629497 128.19409,16.9383019 C128.126083,17.1132387 128.034273,17.2794142 127.917945,17.4350039 C127.704616,17.7070374 127.457642,17.9070116 127.176843,18.0336077 C126.896044,18.1602581 126.50357,18.2428129 126.000315,18.2820129 L125.971144,18.5741161 C126.184472,18.6129548 126.372924,18.6516129 126.537574,18.6906323 C126.702223,18.7298323 126.832869,18.7684903 126.929869,18.8080516 C127.395004,18.9240258 127.840452,19.0362065 128.266751,19.143329 C128.692513,19.2506323 129.118991,19.3675097 129.545111,19.4941419 C129.971052,19.6202323 130.417037,19.7569806 130.881993,19.9033032 C131.34659,20.0489032 131.860046,20.2194323 132.421644,20.414529 L133.613026,20.823329 L133.613026,18.0371303 C133.787697,18.2133677 133.942325,18.3694452 134.078161,18.5065548 C134.213459,18.6433032 134.348937,18.7654194 134.484773,18.8730839 C134.620251,18.9803871 134.760919,19.0880516 134.906419,19.1957161 C135.051382,19.3028387 135.230349,19.4251355 135.443677,19.5622452 C136.121603,20.011871 136.745124,20.3345032 137.31567,20.5301419 C137.885679,20.7252387 138.478596,20.823329 139.095315,20.823329 C141.021177,20.823329 142.157795,19.8944516 142.504275,18.0371303 C142.717603,18.2323355 142.901402,18.4037677 143.056924,18.5504516 C143.211552,18.6967742 143.356873,18.8291871 143.492351,18.9464258 C143.627828,19.0638452 143.758295,19.1711484 143.884646,19.2690581 C144.010459,19.3666065 144.150769,19.4641548 144.306113,19.5622452 C144.925875,19.9921806 145.545458,20.3102968 146.165577,20.5155097 C146.785161,20.7209032 147.40528,20.823329 148.025221,20.823329 C150.252463,20.823329 151.366889,19.4404903 151.366889,16.6750297 L151.366889,8.9921729 L151.396061,8.26162581 C151.41521,7.83315355 151.429528,7.52676129 151.43955,7.34174452 C151.449214,7.15622194 151.502188,6.98666839 151.599367,6.8305729 C151.715696,6.61612903 151.884998,6.45573419 152.107991,6.3484129 C152.330446,6.24107355 152.664399,6.16776774 153.110384,6.1294529 L153.110384,5.77753806 L144.91621,5.77753806" id="path30"></path>
                        <path d="M169.714207,10.5141806 C169.354662,9.48746581 168.864293,8.59312774 168.242921,7.83040774 C167.620653,7.06795871 166.892079,6.47139613 166.056483,6.04165935 C165.221424,5.61170581 164.317821,5.3958529 163.346747,5.3958529 C162.783002,5.3958529 162.292633,5.47461419 161.875103,5.63069161 C161.457037,5.78713032 160.995482,6.06042839 160.490795,6.45213935 L160.490795,3.77281032 C160.490795,3.32802581 160.49509,2.95658323 160.505113,2.65604387 C160.514777,2.35705806 160.538758,2.10092129 160.577773,1.88810323 C160.616251,1.67527252 160.66493,1.50168335 160.723273,1.36641084 C160.781258,1.23106787 160.858214,1.10539303 160.955393,0.989738581 C161.130065,0.776985548 161.362542,0.627530581 161.653006,0.540100129 C161.943469,0.453589161 162.398402,0.390715613 163.018522,0.351551742 L163.018522,0 L152.674242,0 L152.674242,0.351551742 C153.332661,0.410404129 153.807638,0.492610323 154.098101,0.599938839 C154.388565,0.707056 154.640192,0.897439742 154.85352,1.17038374 C155.046983,1.38482942 155.173155,1.67710606 155.231498,2.04764903 C155.269797,2.20365419 155.298969,2.3600929 155.318655,2.5152671 C155.337268,2.67170581 155.352122,2.8568671 155.362144,3.07132903 C155.371808,3.2857729 155.376461,3.55926968 155.376461,3.8905729 L155.376461,14.3600258 C155.376461,14.7889858 155.366439,15.1643845 155.34729,15.4860955 C155.327782,15.8077884 155.298969,16.0856026 155.260312,16.3194477 C155.221118,16.5532387 155.168323,16.7580903 155.100494,16.9334426 C155.032487,17.1092103 154.940677,17.2749703 154.824349,17.4309935 C154.61102,17.7039303 154.364046,17.9039045 154.083784,18.0300852 C153.802448,18.1566452 153.410153,18.2397419 152.90672,18.2793032 L152.877548,18.5715871 C153.245504,18.6494452 153.56997,18.7222452 153.851127,18.7903484 C154.131568,18.8589935 154.407714,18.9323355 154.679386,19.0101935 C154.950162,19.0880516 155.2451,19.1709677 155.563839,19.2589419 C155.881685,19.3463742 156.27219,19.4580129 156.73464,19.5947613 C157.196732,19.7315097 157.58169,19.8431484 157.889871,19.9309419 C158.198231,20.0192774 158.482609,20.1067097 158.742469,20.1946839 C159.002507,20.2821161 159.267557,20.3749677 159.537081,20.4725161 C159.806605,20.5697032 160.124629,20.6869419 160.490795,20.8231484 L160.490795,18.9169806 C161.286839,19.6012645 162.030089,20.0900903 162.719827,20.3836387 C163.409565,20.6768258 164.123642,20.8231484 164.862238,20.8231484 C165.65864,20.8231484 166.387035,20.6518968 167.047601,20.3102968 C167.708168,19.9679742 168.276387,19.4889032 168.752797,18.8730839 C169.22867,18.2572645 169.59752,17.5237187 169.860065,16.6732594 C170.122251,15.8227458 170.253792,14.8790916 170.253792,13.8431277 C170.253792,12.6503097 170.07393,11.54048 169.714207,10.5141806 M164.117557,17.4947071 C163.64938,18.6185548 163.006352,19.1810839 162.187221,19.1810839 C161.952954,19.1810839 161.719223,19.1319484 161.485314,19.0344 C161.251046,18.9363097 160.9196,18.7509677 160.490795,18.4771097 L160.490795,6.9216 C160.9196,6.49074323 161.397441,6.27579355 161.923782,6.27579355 C162.84045,6.27579355 163.55238,6.85259355 164.059572,8.00617548 C164.566406,9.15997419 164.820002,10.7730813 164.820002,12.84584 C164.820002,14.820671 164.585734,16.3699742 164.117557,17.4947071" id="path32"></path>
                        <path d="M169.904806,5.77753806 L169.904806,6.1294529 C170.40824,6.16832774 170.781028,6.23155355 171.023528,6.3199071 C171.26567,6.40732129 171.473808,6.55848516 171.648301,6.77312774 C171.783421,6.96768258 171.880958,7.25523355 171.938764,7.6358529 C171.996749,8.01591226 172.025921,8.66460903 172.025921,9.58104 L172.025921,21.6029935 C172.025921,22.4803871 171.986727,23.1285419 171.909592,23.5478194 C171.8321,23.9670968 171.677114,24.3329032 171.444994,24.6448774 C171.231129,24.9371613 170.984334,25.1468903 170.703893,25.2735226 C170.423094,25.3999742 170.040284,25.4734968 169.556,25.4931871 L169.498194,25.8149161 C169.885299,25.8927742 170.219251,25.9603355 170.500587,26.0194065 C170.781028,26.0777548 171.056994,26.1409806 171.328666,26.2096258 C171.599622,26.277729 171.89438,26.351071 172.21312,26.428929 C172.530965,26.5067871 172.911627,26.6043355 173.354928,26.7215742 C173.816841,26.8386323 174.202694,26.9410581 174.510517,27.0288516 C174.818876,27.1164645 175.102718,27.2038968 175.363114,27.2916903 C175.622616,27.3800258 175.887845,27.4674581 176.157369,27.5554323 C176.427251,27.6428645 176.754402,27.744929 177.139718,27.8623484 L177.139718,9.58104 C177.139718,9.13231742 177.14455,8.75225806 177.154572,8.44008516 C177.164057,8.12811097 177.183744,7.86964387 177.212378,7.66528 C177.24155,7.46042839 177.280386,7.28995355 177.328707,7.1531871 C177.377028,7.01643871 177.440203,6.8894271 177.517696,6.77312774 C177.672681,6.55848516 177.870797,6.40732129 178.113297,6.3199071 C178.355439,6.23155355 178.738249,6.16832774 179.260295,6.1294529 L179.260295,5.77753806 L169.904806,5.77753806" id="path34"></path>
                        <path d="M193.534686,10.3088413 C193.398672,9.9862271 193.264446,9.69739355 193.128432,9.44344258 C192.992417,9.18940129 192.842085,8.94497032 192.677435,8.71034839 C192.512786,8.47570839 192.324871,8.22154065 192.1119,7.94768258 C191.433616,7.12666839 190.619317,6.49603613 189.670793,6.05591226 C188.722269,5.61609548 187.675314,5.39621419 186.533506,5.39621419 C185.447177,5.39621419 184.436015,5.58701161 183.496439,5.96813677 C182.556863,6.34967742 181.742565,6.87750452 181.055332,7.55223226 C180.3681,8.22641806 179.82941,9.02286452 179.442841,9.94225806 C179.054483,10.8608748 178.861557,11.8581626 178.861557,12.9341213 C178.861557,14.0285058 179.065221,15.0552929 179.471476,16.0134168 C179.87952,16.9711252 180.439686,17.8070968 181.157343,18.5210065 C181.87321,19.2347355 182.710775,19.7969032 183.670037,20.207329 C184.629299,20.6182968 185.660148,20.8231484 186.764373,20.8231484 C187.734373,20.8231484 188.623838,20.6768258 189.438137,20.3836387 C190.252435,20.0900903 190.968303,19.6693677 191.589317,19.1225548 C192.208542,18.5744774 192.716808,17.9099742 193.114114,17.1280516 C193.511421,16.3457135 193.767343,15.4754374 193.883672,14.517729 L184.265996,14.517729 C184.285683,10.8608748 185.903542,9.03296258 189.119576,9.03296258 C190.340129,9.03296258 191.374557,9.33576 192.228229,9.94225806 C192.557528,10.1571897 192.818819,10.3769987 193.012103,10.6024619 C193.205387,10.8265703 193.448782,11.16416 193.738708,11.6137858 L194,11.4968723 C193.826402,11.0274658 193.670701,10.6314555 193.534686,10.3088413 M188.740166,15.7294606 C188.740166,15.9664129 188.736587,16.1782555 188.725849,16.3663794 C188.7169,16.5540877 188.706162,16.7272542 188.697214,16.8850297 C188.688266,17.0428052 188.672159,17.2203613 188.654262,17.4185652 C188.575517,18.4852387 188.382232,19.2611097 188.07262,19.7454194 C187.763007,20.2288258 187.31738,20.4716129 186.735738,20.4716129 C185.923229,20.4716129 185.307583,19.992 184.89059,19.0338581 C184.473598,18.0751742 184.265996,16.6867355 184.265996,14.8697703 L188.740166,14.8697703 L188.740166,15.7294606" id="path36"></path>
                    </g>
                </g>
            </g>
        </g>
    </g>
</svg>