<?xml version="1.0" encoding="UTF-8" standalone="no"?>
<svg width="24px" height="24px" viewBox="0 0 24 24" version="1.1" xmlns="http://www.w3.org/2000/svg" xmlns:xlink="http://www.w3.org/1999/xlink">
    <!-- Generator: sketchtool 39.1 (31720) - http://www.bohemiancoding.com/sketch -->
    <title>B3D19767-AED0-462A-8916-909DF232CA19</title>
    <desc>Created with sketchtool.</desc>
    <defs></defs>
    <g id="Article" stroke="none" stroke-width="1" fill="none" fill-rule="evenodd">
        <g id="Desktop-HD---Article" transform="translate(-438.000000, -2938.000000)" fill="#828282">
            <g id="Share-+-Category" transform="translate(254.000000, 2915.000000)">
                <g id="Share" transform="translate(0.000000, 21.000000)">
                    <g id="Share-This-Article">
                        <path d="M196.819178,26 L185.324616,26 C184.592836,26 184,25.4067958 184,24.6753014 L184,3.32460548 C184,2.59292485 184.592929,2 185.324616,2 L206.675477,2 C207.406977,2 208,2.59292485 208,3.32460548 L208,24.6753014 C208,25.4068889 207.406884,26 206.675477,26 L200.559653,26 L200.559653,16.7058773 L203.679261,16.7058773 L204.146378,13.0837928 L200.559653,13.0837928 L200.559653,10.7713207 C200.559653,9.72264365 200.850856,9.00800484 202.354645,9.00800484 L204.272656,9.00716672 L204.272656,5.76754527 C203.940943,5.72340417 202.802392,5.62478513 201.477776,5.62478513 C198.712417,5.62478513 196.819178,7.31276313 196.819178,10.4126044 L196.819178,13.0837928 L193.691561,13.0837928 L193.691561,16.7058773 L196.819178,16.7058773 L196.819178,26 L196.819178,26 Z" id="Facebook"></path>
                    </g>
                </g>
            </g>
        </g>
    </g>
</svg>