<?xml version="1.0" encoding="UTF-8" standalone="no"?>
<svg width="28px" height="24px" viewBox="0 0 28 24" version="1.1" xmlns="http://www.w3.org/2000/svg" xmlns:xlink="http://www.w3.org/1999/xlink">
    <!-- Generator: sketchtool 39.1 (31720) - http://www.bohemiancoding.com/sketch -->
    <title>D2E319A4-7FC2-4E60-A965-C97BC263575C</title>
    <desc>Created with sketchtool.</desc>
    <defs></defs>
    <g id="Article" stroke="none" stroke-width="1" fill="none" fill-rule="evenodd">
        <g id="Desktop-HD---Article" transform="translate(-486.000000, -2938.000000)" fill="#828282">
            <g id="Share-+-Category" transform="translate(254.000000, 2915.000000)">
                <g id="Share" transform="translate(0.000000, 21.000000)">
                    <g id="Share-This-Article">
                        <path d="M256.701532,5.79458288 C257.888126,5.04572048 258.798615,3.85828819 259.227564,2.44377031 C258.11657,3.13716143 256.888889,3.64160347 255.57739,3.912026 C254.532136,2.73499458 253.038211,2 251.384868,2 C248.214592,2 245.642543,4.71289274 245.642543,8.05850488 C245.642543,8.53347779 245.691847,8.99458288 245.790456,9.4383532 C241.016141,9.18526544 236.784176,6.77573131 233.949169,3.10595883 C233.454481,4.00390033 233.171803,5.04572048 233.171803,6.15514626 C233.171803,8.25612134 234.185831,10.1109426 235.727417,11.1978332 C234.787345,11.168364 233.899865,10.8927411 233.124142,10.4420368 L233.124142,10.5165764 C233.124142,13.4530878 235.104537,15.9024919 237.734108,16.4572048 C237.252568,16.5993499 236.744732,16.6704225 236.220461,16.6704225 C235.850678,16.6704225 235.489112,16.6340195 235.13905,16.5629469 C235.8704,18.9690141 237.990491,20.7215601 240.505018,20.768364 C238.539414,22.3943662 236.061044,23.3633803 233.370664,23.3633803 C232.907202,23.3633803 232.448671,23.3356446 232,23.2801733 C234.542466,24.9963164 237.563186,26 240.805776,26 C251.373364,26 257.150203,16.7692308 257.150203,8.76229686 C257.150203,8.49880823 257.145272,8.23531961 257.135411,7.97703142 C258.257909,7.12242687 259.232494,6.05633803 260,4.8411701 C258.97118,5.32307692 257.863474,5.64897075 256.701532,5.79458288 Z" id="Twitter"></path>
                    </g>
                </g>
            </g>
        </g>
    </g>
</svg>