<?xml version="1.0" encoding="UTF-8"?>
<svg width="467px" height="111px" viewBox="0 0 467 111" version="1.1" xmlns="http://www.w3.org/2000/svg" xmlns:xlink="http://www.w3.org/1999/xlink">
    <!-- Generator: Sketch 47.1 (45422) - http://www.bohemiancoding.com/sketch -->
    <title>Headermark</title>
    <desc>Created with Sketch.</desc>
    <defs>
        <linearGradient x1="0%" y1="0%" x2="101.999998%" y2="100.999999%" id="linearGradient-1">
            <stop stop-color="#00EAF8" offset="0%"></stop>
            <stop stop-color="#6D42EF" offset="100%"></stop>
        </linearGradient>
    </defs>
    <g id="Page-1" stroke="none" stroke-width="1" fill="none" fill-rule="evenodd">
        <g id="Desktop-HD-Copy" transform="translate(-483.000000, -926.000000)">
            <g id="Headermark" transform="translate(483.000000, 922.000000)">
                <path d="M160.7135,11.493 C160.7135,12.4470048 160.556002,13.3304959 160.241,14.1435 C159.925998,14.9565041 159.480503,15.659997 158.9045,16.254 C158.328497,16.848003 157.635504,17.3114983 156.8255,17.6445 C156.015496,17.9775017 155.115505,18.144 154.1255,18.144 C153.141495,18.144 152.244504,17.9775017 151.4345,17.6445 C150.624496,17.3114983 149.930003,16.848003 149.351,16.254 C148.771997,15.659997 148.323502,14.9565041 148.0055,14.1435 C147.687498,13.3304959 147.5285,12.4470048 147.5285,11.493 C147.5285,10.5389952 147.687498,9.65550406 148.0055,8.8425 C148.323502,8.02949593 148.771997,7.32600297 149.351,6.732 C149.930003,6.13799703 150.624496,5.67450167 151.4345,5.3415 C152.244504,5.00849833 153.141495,4.842 154.1255,4.842 C154.785503,4.842 155.406497,4.91849923 155.9885,5.0715 C156.570503,5.22450077 157.104498,5.4404986 157.5905,5.7195 C158.076502,5.99850139 158.512998,6.33749801 158.9,6.7365 C159.287002,7.13550199 159.615499,7.58099754 159.8855,8.073 C160.155501,8.56500246 160.360999,9.09899712 160.502,9.675 C160.643001,10.2510029 160.7135,10.8569968 160.7135,11.493 Z M158.2385,11.493 C158.2385,10.7789964 158.142501,10.1385028 157.9505,9.5715 C157.758499,9.00449717 157.485502,8.52300198 157.1315,8.127 C156.777498,7.73099802 156.347003,7.42800105 155.84,7.218 C155.332997,7.00799895 154.761503,6.903 154.1255,6.903 C153.489497,6.903 152.918003,7.00799895 152.411,7.218 C151.903997,7.42800105 151.472002,7.73099802 151.115,8.127 C150.757998,8.52300198 150.483501,9.00449717 150.2915,9.5715 C150.099499,10.1385028 150.0035,10.7789964 150.0035,11.493 C150.0035,12.2070036 150.099499,12.8474972 150.2915,13.4145 C150.483501,13.9815028 150.757998,14.461498 151.115,14.8545 C151.472002,15.247502 151.903997,15.548999 152.411,15.759 C152.918003,15.9690011 153.489497,16.074 154.1255,16.074 C154.761503,16.074 155.332997,15.9690011 155.84,15.759 C156.347003,15.548999 156.777498,15.247502 157.1315,14.8545 C157.485502,14.461498 157.758499,13.9815028 157.9505,13.4145 C158.142501,12.8474972 158.2385,12.2070036 158.2385,11.493 Z M172.0845,16.047 C172.552502,16.047 172.970998,15.9690008 173.34,15.813 C173.709002,15.6569992 174.019499,15.4380014 174.2715,15.156 C174.523501,14.8739986 174.716999,14.532002 174.852,14.13 C174.987001,13.727998 175.0545,13.2780025 175.0545,12.78 L175.0545,4.986 L177.4755,4.986 L177.4755,12.78 C177.4755,13.5540039 177.351001,14.2694967 177.102,14.9265 C176.852999,15.5835033 176.496002,16.1504976 176.031,16.6275 C175.565998,17.1045024 175.000503,17.4764987 174.3345,17.7435 C173.668497,18.0105013 172.918504,18.144 172.0845,18.144 C171.244496,18.144 170.491503,18.0105013 169.8255,17.7435 C169.159497,17.4764987 168.594002,17.1045024 168.129,16.6275 C167.663998,16.1504976 167.307001,15.5835033 167.058,14.9265 C166.808999,14.2694967 166.6845,13.5540039 166.6845,12.78 L166.6845,4.986 L169.1055,4.986 L169.1055,12.771 C169.1055,13.2690025 169.172999,13.718998 169.308,14.121 C169.443001,14.523002 169.637999,14.8664986 169.893,15.1515 C170.148001,15.4365014 170.459998,15.6569992 170.829,15.813 C171.198002,15.9690008 171.616498,16.047 172.0845,16.047 Z M188.1445,11.178 C188.600502,11.178 188.997998,11.1210006 189.337,11.007 C189.676002,10.8929994 189.954999,10.735501 190.174,10.5345 C190.393001,10.333499 190.556499,10.0950014 190.6645,9.819 C190.772501,9.54299862 190.8265,9.24000165 190.8265,8.91 C190.8265,8.2499967 190.609002,7.74300177 190.174,7.389 C189.738998,7.03499823 189.074504,6.858 188.1805,6.858 L186.6325,6.858 L186.6325,11.178 L188.1445,11.178 Z M194.3725,18 L192.1855,18 C191.771498,18 191.471501,17.8380016 191.2855,17.514 L188.5495,13.347 C188.447499,13.1909992 188.335001,13.0800003 188.212,13.014 C188.088999,12.9479997 187.907501,12.915 187.6675,12.915 L186.6325,12.915 L186.6325,18 L184.2115,18 L184.2115,4.986 L188.1805,4.986 C189.062504,4.986 189.819997,5.07749908 190.453,5.2605 C191.086003,5.44350091 191.604998,5.69999835 192.01,6.03 C192.415002,6.36000165 192.713499,6.7544977 192.9055,7.2135 C193.097501,7.67250229 193.1935,8.17799724 193.1935,8.73 C193.1935,9.16800219 193.129001,9.58199805 193,9.972 C192.870999,10.3620019 192.685001,10.7159984 192.442,11.034 C192.198999,11.3520016 191.899002,11.6309988 191.542,11.871 C191.184998,12.1110012 190.778502,12.2999993 190.3225,12.438 C190.478501,12.5280005 190.622499,12.6344994 190.7545,12.7575 C190.886501,12.8805006 191.006499,13.0259992 191.1145,13.194 L194.3725,18 Z M210.5895,18 L208.1595,18 L208.1595,4.986 L210.5895,4.986 L210.5895,18 Z M231.6085,4.986 L231.6085,18 L229.4755,18 L229.4755,9.594 C229.4755,9.25799832 229.4935,8.89500195 229.5295,8.505 L225.5965,15.894 C225.410499,16.2480018 225.125502,16.425 224.7415,16.425 L224.3995,16.425 C224.015498,16.425 223.730501,16.2480018 223.5445,15.894 L219.5665,8.478 C219.5845,8.67600099 219.5995,8.87099904 219.6115,9.063 C219.6235,9.25500096 219.6295,9.43199919 219.6295,9.594 L219.6295,18 L217.4965,18 L217.4965,4.986 L219.3235,4.986 C219.431501,4.986 219.5245,4.98899997 219.6025,4.995 C219.6805,5.00100003 219.751,5.01599988 219.814,5.04 C219.877,5.06400012 219.934,5.10299973 219.985,5.157 C220.036,5.21100027 220.0855,5.28299955 220.1335,5.373 L224.0305,12.6 C224.132501,12.792001 224.227,12.989999 224.314,13.194 C224.401,13.398001 224.4865,13.6079989 224.5705,13.824 C224.6545,13.6019989 224.7415,13.387501 224.8315,13.1805 C224.9215,12.973499 225.017499,12.774001 225.1195,12.582 L228.9625,5.373 C229.0105,5.28299955 229.0615,5.21100027 229.1155,5.157 C229.1695,5.10299973 229.228,5.06400012 229.291,5.04 C229.354,5.01599988 229.4245,5.00100003 229.5025,4.995 C229.5805,4.98899997 229.673499,4.986 229.7815,4.986 L231.6085,4.986 Z M242.7365,11.529 C243.180502,11.529 243.567498,11.4735006 243.8975,11.3625 C244.227502,11.2514994 244.501999,11.092501 244.721,10.8855 C244.940001,10.678499 245.103499,10.4265015 245.2115,10.1295 C245.319501,9.83249851 245.3735,9.50100183 245.3735,9.135 C245.3735,8.78699826 245.319501,8.47200141 245.2115,8.19 C245.103499,7.90799859 244.941501,7.66800099 244.7255,7.47 C244.509499,7.27199901 244.236502,7.12050052 243.9065,7.0155 C243.576498,6.91049947 243.186502,6.858 242.7365,6.858 L240.9275,6.858 L240.9275,11.529 L242.7365,11.529 Z M242.7365,4.986 C243.606504,4.986 244.359497,5.08799898 244.9955,5.292 C245.631503,5.49600102 246.156498,5.78099817 246.5705,6.147 C246.984502,6.51300183 247.291999,6.95099745 247.493,7.461 C247.694001,7.97100255 247.7945,8.52899697 247.7945,9.135 C247.7945,9.76500315 247.689501,10.3424974 247.4795,10.8675 C247.269499,11.3925026 246.954502,11.8439981 246.5345,12.222 C246.114498,12.6000019 245.588003,12.893999 244.955,13.104 C244.321997,13.3140011 243.582504,13.419 242.7365,13.419 L240.9275,13.419 L240.9275,18 L238.5065,18 L238.5065,4.986 L242.7365,4.986 Z M259.6155,13.086 L258.0315,8.757 C257.9535,8.56499904 257.8725,8.33700132 257.7885,8.073 C257.7045,7.80899868 257.6205,7.52400153 257.5365,7.218 C257.4585,7.52400153 257.3775,7.81049867 257.2935,8.0775 C257.2095,8.34450134 257.1285,8.57699901 257.0505,8.775 L255.4755,13.086 L259.6155,13.086 Z M263.8905,18 L262.0185,18 C261.808499,18 261.637501,17.9475005 261.5055,17.8425 C261.373499,17.7374995 261.2745,17.6070008 261.2085,17.451 L260.2365,14.796 L254.8455,14.796 L253.8735,17.451 C253.8255,17.5890007 253.732501,17.7149994 253.5945,17.829 C253.456499,17.9430006 253.285501,18 253.0815,18 L251.1915,18 L256.3125,4.986 L258.7785,4.986 L263.8905,18 Z M277.7905,14.931 C277.922501,14.931 278.039499,14.9819995 278.1415,15.084 L279.0955,16.119 C278.567497,16.7730033 277.918004,17.2739983 277.147,17.622 C276.375996,17.9700017 275.450505,18.144 274.3705,18.144 C273.404495,18.144 272.536004,17.9790017 271.765,17.649 C270.993996,17.3189984 270.335503,16.8600029 269.7895,16.272 C269.243497,15.6839971 268.825001,14.9820041 268.534,14.166 C268.242999,13.3499959 268.0975,12.4590048 268.0975,11.493 C268.0975,10.5149951 268.253498,9.61950406 268.5655,8.8065 C268.877502,7.99349593 269.316997,7.29300294 269.884,6.705 C270.451003,6.11699706 271.127496,5.65950163 271.9135,5.3325 C272.699504,5.00549836 273.569495,4.842 274.5235,4.842 C275.471505,4.842 276.312996,4.99799844 277.048,5.31 C277.783004,5.62200156 278.408497,6.02999748 278.9245,6.534 L278.1145,7.659 C278.0665,7.73100036 278.005,7.79399973 277.93,7.848 C277.855,7.90200027 277.751501,7.929 277.6195,7.929 C277.5295,7.929 277.4365,7.90350025 277.3405,7.8525 C277.2445,7.80149974 277.139501,7.73850037 277.0255,7.6635 C276.911499,7.58849962 276.779501,7.50600045 276.6295,7.416 C276.479499,7.32599955 276.305501,7.24350037 276.1075,7.1685 C275.909499,7.09349962 275.680001,7.03050025 275.419,6.9795 C275.157999,6.92849974 274.856502,6.903 274.5145,6.903 C273.932497,6.903 273.400002,7.00649896 272.917,7.2135 C272.433998,7.42050103 272.018502,7.72049803 271.6705,8.1135 C271.322498,8.50650196 271.052501,8.98649716 270.8605,9.5535 C270.668499,10.1205028 270.5725,10.7669964 270.5725,11.493 C270.5725,12.2250037 270.675999,12.8759971 270.883,13.446 C271.090001,14.0160028 271.370498,14.4959981 271.7245,14.886 C272.078502,15.2760019 272.495498,15.574499 272.9755,15.7815 C273.455502,15.988501 273.971497,16.092 274.5235,16.092 C274.853502,16.092 275.151999,16.0740002 275.419,16.038 C275.686001,16.0019998 275.931999,15.9450004 276.157,15.867 C276.382001,15.7889996 276.594999,15.6885006 276.796,15.5655 C276.997001,15.4424994 277.196499,15.2910009 277.3945,15.111 C277.4545,15.0569997 277.5175,15.0135002 277.5835,14.9805 C277.6495,14.9474998 277.7185,14.931 277.7905,14.931 Z M293.8505,6.975 L289.9265,6.975 L289.9265,18 L287.5055,18 L287.5055,6.975 L283.5815,6.975 L283.5815,4.986 L293.8505,4.986 L293.8505,6.975 Z M309.8155,18 L307.3855,18 L307.3855,4.986 L309.8155,4.986 L309.8155,18 Z M323.6525,7.353 C323.5805,7.47900063 323.504,7.57049972 323.423,7.6275 C323.342,7.68450028 323.241501,7.713 323.1215,7.713 C322.995499,7.713 322.859001,7.66650046 322.712,7.5735 C322.564999,7.48049953 322.389501,7.37700057 322.1855,7.263 C321.981499,7.14899943 321.743001,7.04550046 321.47,6.9525 C321.196999,6.85949953 320.874502,6.813 320.5025,6.813 C320.166498,6.813 319.872501,6.85349959 319.6205,6.9345 C319.368499,7.0155004 319.157001,7.12799928 318.986,7.272 C318.814999,7.41600072 318.6875,7.58849899 318.6035,7.7895 C318.5195,7.990501 318.4775,8.2109988 318.4775,8.451 C318.4775,8.75700153 318.562999,9.01199898 318.734,9.216 C318.905001,9.42000102 319.131499,9.59399928 319.4135,9.738 C319.695501,9.88200072 320.016498,10.0109994 320.3765,10.125 C320.736502,10.2390006 321.105498,10.3604994 321.4835,10.4895 C321.861502,10.6185006 322.230498,10.7684991 322.5905,10.9395 C322.950502,11.1105009 323.271499,11.3264987 323.5535,11.5875 C323.835501,11.8485013 324.061999,12.1679981 324.233,12.546 C324.404001,12.9240019 324.4895,13.3829973 324.4895,13.923 C324.4895,14.5110029 324.389001,15.0614974 324.188,15.5745 C323.986999,16.0875026 323.693002,16.5344981 323.306,16.9155 C322.918998,17.2965019 322.446503,17.5964989 321.8885,17.8155 C321.330497,18.0345011 320.691504,18.144 319.9715,18.144 C319.557498,18.144 319.149502,18.1035004 318.7475,18.0225 C318.345498,17.9414996 317.960002,17.8260007 317.591,17.676 C317.221998,17.5259992 316.875502,17.346001 316.5515,17.136 C316.227498,16.925999 315.939501,16.6920013 315.6875,16.434 L316.3985,15.273 C316.4585,15.1889996 316.5365,15.1185003 316.6325,15.0615 C316.7285,15.0044997 316.830499,14.976 316.9385,14.976 C317.088501,14.976 317.250499,15.0374994 317.4245,15.1605 C317.598501,15.2835006 317.805499,15.4199993 318.0455,15.57 C318.285501,15.7200008 318.565998,15.8564994 318.887,15.9795 C319.208002,16.1025006 319.593498,16.164 320.0435,16.164 C320.733503,16.164 321.267498,16.0005016 321.6455,15.6735 C322.023502,15.3464984 322.2125,14.8770031 322.2125,14.265 C322.2125,13.9229983 322.127001,13.6440011 321.956,13.428 C321.784999,13.2119989 321.558501,13.0305007 321.2765,12.8835 C320.994499,12.7364993 320.673502,12.6120005 320.3135,12.51 C319.953498,12.4079995 319.587502,12.2970006 319.2155,12.177 C318.843498,12.0569994 318.477502,11.9130008 318.1175,11.745 C317.757498,11.5769992 317.436501,11.3580013 317.1545,11.088 C316.872499,10.8179986 316.646001,10.480502 316.475,10.0755 C316.303999,9.67049797 316.2185,9.17100297 316.2185,8.577 C316.2185,8.10299763 316.312999,7.64100225 316.502,7.191 C316.691001,6.74099775 316.965498,6.34200174 317.3255,5.994 C317.685502,5.64599826 318.129497,5.36700105 318.6575,5.157 C319.185503,4.94699895 319.791497,4.842 320.4755,4.842 C321.243504,4.842 321.951497,4.9619988 322.5995,5.202 C323.247503,5.4420012 323.799498,5.77799784 324.2555,6.21 L323.6525,7.353 Z" id="Our-impact-is" fill="#FFFFFF"></path>
                <path d="M349.5,11.5 L379.5,11.5" id="Line" stroke="#FFFFFF" stroke-width="3" stroke-linecap="square"></path>
                <path d="M96,11 L126,11" id="Line" stroke="#FFFFFF" stroke-width="3" stroke-linecap="square"></path>
                <path d="M10.191,113.752 C5.538,113.95 2.766,114.841 0.885,114.841 C0.39,114.841 -0.204,114.643 0.39,113.653 C8.904,99.199 20.883,79.696 37.416,57.322 C35.436,57.421 34.446,55.936 34.149,53.857 C33.951,52.471 33.753,49.402 33.753,48.511 C33.753,47.026 34.545,46.432 36.822,45.838 C39,45.244 43.059,44.749 47.217,44.452 C48.009,43.264 48.9,42.175 49.791,41.086 C51.276,39.304 52.167,38.908 53.553,39.601 C54.543,40.096 56.721,41.482 58.107,42.571 C58.602,42.967 58.998,43.66 59.097,44.452 C65.235,45.145 70.383,47.026 73.848,50.887 C75.828,52.966 77.016,56.728 77.016,59.401 C77.016,74.251 56.523,89.992 42.465,92.269 C38.208,92.962 36.327,91.774 35.337,90.586 C34.446,89.497 33.654,88.21 33.06,86.923 C26.526,96.724 20.091,105.832 15.636,111.376 C14.151,113.158 12.567,113.752 10.191,113.752 Z M60.879,53.956 C58.899,53.956 56.622,54.055 54.147,54.352 C49.791,61.183 43.653,70.885 37.218,80.587 C49.989,78.706 68.7,67.024 71.076,56.431 C68.997,54.847 65.73,53.956 60.879,53.956 Z M86.817,112.564 C80.679,112.564 75.927,109.792 72.561,104.644 C67.611,96.922 68.403,82.864 83.253,64.846 C92.262,53.857 108.102,41.581 117.705,41.581 C120.576,41.581 123.348,42.868 126.021,44.65 C127.605,45.739 129.09,46.927 129.09,48.016 C129.09,48.709 128.199,49.303 127.011,49.798 C130.773,52.174 133.05,56.629 133.05,61.975 C133.05,69.202 130.476,79.102 122.655,89.596 C113.25,102.268 99.291,112.564 86.817,112.564 Z M92.955,77.617 C85.431,88.507 83.055,99.001 85.827,103.654 C94.44,101.773 107.013,93.853 115.329,83.953 C123.942,73.756 126.021,64.846 126.021,60.193 C126.021,55.936 124.437,53.263 121.764,52.174 C112.854,56.827 101.667,65.044 92.955,77.617 Z M141.861,108.208 C138.495,112.366 137.901,112.96 135.624,111.772 C134.04,110.881 133.446,110.386 132.06,108.901 C129.486,106.129 130.08,102.268 131.862,97.615 C136.911,84.349 147.801,57.817 155.721,43.363 C156.711,41.581 157.503,40.789 158.592,41.779 C160.077,42.967 161.958,44.155 163.641,45.244 C167.007,47.422 167.304,50.095 164.037,56.728 C159.681,65.539 155.325,76.132 150.078,89.299 C158.79,78.112 168.294,66.727 175.422,59.005 C176.61,57.718 177.501,57.322 178.293,57.322 C179.184,57.322 180.669,58.114 181.758,58.609 C183.738,59.797 185.124,61.282 184.035,64.45 C181.362,72.172 178.887,81.181 176.214,90.982 C190.668,72.964 210.666,51.58 220.962,42.868 C221.358,42.472 221.754,42.571 221.754,43.066 C221.754,43.561 221.061,45.145 220.665,46.63 C220.071,48.907 219.081,50.293 213.042,56.926 C202.944,68.014 189.777,83.953 174.036,106.327 C171.66,109.693 170.373,110.287 168.492,109.99 C166.413,109.693 164.928,109.198 162.651,108.307 C159.681,107.02 159.681,103.258 160.968,97.516 C162.552,90.586 163.839,84.943 165.72,78.904 C156.909,89.497 148.395,99.793 141.861,108.208 Z M205.617,114.247 C203.34,114.247 201.756,113.455 199.479,111.574 C196.608,109.198 194.43,105.535 198.39,99.496 C202.152,93.754 206.112,87.814 210.072,82.072 C209.775,81.379 209.478,80.686 209.28,79.894 C208.587,77.716 209.082,77.221 209.973,77.023 C211.062,76.825 212.349,76.627 214.032,76.429 C219.18,68.806 224.229,61.777 228.585,55.738 C228.486,55.639 228.387,55.441 228.288,55.243 C227.595,53.758 226.902,50.293 226.902,48.313 C226.902,47.521 227.199,47.224 228.09,47.125 C230.664,46.828 233.139,46.63 235.614,46.333 C236.802,44.947 237.792,43.66 238.683,42.571 C240.069,40.888 241.059,40.393 241.95,41.383 C243.138,42.769 244.524,44.155 245.811,45.442 C255.711,44.65 265.71,44.056 276.897,43.462 C278.382,43.363 278.58,43.561 278.58,43.957 C278.58,44.65 277.788,47.026 277.392,48.016 C276.6,49.897 275.907,50.59 272.937,50.887 C262.938,51.877 254.325,53.263 245.316,54.748 C240.762,61.678 236.604,68.014 232.149,74.647 C238.881,74.053 246.405,73.459 254.622,72.568 C255.117,72.568 255.315,72.865 255.315,73.261 C255.315,73.855 255.018,74.845 254.325,76.132 C253.335,77.914 251.949,78.904 250.266,79.102 C242.247,79.993 234.426,81.082 226.902,82.468 C222.843,88.507 218.388,95.14 212.943,102.862 C227.298,101.377 239.178,100.387 242.643,100.486 C243.435,100.486 243.534,100.783 243.336,101.476 C242.643,103.951 241.851,105.634 237.594,106.723 C220.665,110.782 208.983,114.247 205.617,114.247 Z M297.093,113.257 C295.707,115.039 294.222,115.633 293.628,114.445 C291.054,108.505 285.807,99.892 277.491,87.22 C273.531,92.665 269.373,98.506 264.621,104.842 C261.156,109.495 258.978,110.782 254.721,111.673 C250.959,112.465 248.187,112.861 246.504,112.861 C245.613,112.861 245.712,111.376 246.702,109.891 C257.988,91.774 272.64,70.093 284.322,55.144 C284.124,54.946 283.926,54.748 283.827,54.55 C283.233,53.56 281.847,48.61 281.352,46.135 C281.154,45.145 281.352,43.957 282.54,43.66 C286.005,42.67 292.143,41.878 297.588,41.878 C306.894,41.878 313.626,43.759 318.576,49.006 C320.853,51.382 321.942,54.55 321.942,57.817 C321.942,69.4 309.468,81.181 292.044,86.131 C294.816,91.477 297.39,96.823 299.37,101.575 C300.261,103.654 300.756,105.238 300.756,106.723 C300.756,109.495 299.667,109.693 297.093,113.257 Z M296.796,59.104 C292.836,64.945 289.074,70.588 285.015,76.429 C297.39,75.142 315.111,64.648 316.695,54.847 C314.616,52.867 311.25,51.976 306.498,51.976 C303.231,51.976 298.875,52.471 294.519,53.461 C297.192,55.837 298.182,57.124 296.796,59.104 Z M302.835,112.861 C302.34,112.861 301.746,112.663 302.34,111.673 C309.072,100.981 315.606,91.081 321.645,82.369 C320.853,81.082 320.358,79.795 320.358,79.102 C320.358,78.409 320.952,78.211 322.14,78.112 L324.714,77.815 C330.555,69.301 335.802,61.975 340.356,55.837 C337.683,55.936 337.089,55.738 336.396,55.045 C335.406,54.154 334.515,50.392 334.317,48.808 C334.218,47.917 334.614,47.719 335.604,47.62 C339.267,47.323 343.227,46.927 347.286,46.531 C350.553,42.274 351.246,41.977 352.533,42.769 C354.018,43.561 355.404,44.551 356.988,45.541 C363.918,44.848 370.848,44.056 377.085,43.264 C380.451,42.868 384.708,42.472 385.698,42.472 C386.49,42.472 386.787,42.769 386.787,43.165 C386.787,43.264 386.787,43.462 386.688,43.66 C386.193,44.749 385.5,46.927 384.51,48.115 C383.421,49.501 382.134,49.996 378.669,50.59 C372.432,51.679 364.413,52.966 356.988,53.956 C353.127,59.896 348.177,67.519 342.633,75.538 C350.454,74.647 357.78,73.756 363.027,73.261 C363.918,73.162 364.413,73.459 363.522,75.043 C361.542,78.013 359.166,80.587 355.701,81.28 C353.127,81.775 345.009,83.062 336.792,84.052 C330.753,92.962 324.417,101.872 318.675,109.396 C317.19,111.376 315.507,111.772 313.131,111.772 C308.478,111.97 304.716,112.861 302.835,112.861 Z M378.471,113.158 C375.204,113.158 372.234,112.366 370.056,110.881 C364.809,109 362.334,103.951 362.334,97.912 C362.334,89.794 368.472,78.607 377.184,66.727 C384.213,56.926 392.43,47.422 398.271,41.482 C399.063,40.69 399.657,40.591 400.548,41.086 C402.33,42.076 404.706,44.353 406.389,46.234 C408.369,48.313 407.775,50.788 405.894,52.966 C400.449,59.5 394.113,67.321 388.47,75.043 C378.669,88.606 373.521,98.605 374.016,105.535 C381.54,104.545 390.45,97.714 401.934,84.25 C411.438,73.261 420.447,59.995 429.06,45.541 C429.555,44.749 430.248,44.749 430.842,45.343 C431.436,45.937 431.832,46.828 432.624,47.719 C434.01,49.303 434.604,50.887 432.723,54.55 C427.674,64.45 419.457,78.508 410.349,90.19 C398.271,105.733 388.965,113.158 378.471,113.158 Z M424.902,114.742 C421.14,115.039 419.655,113.455 418.17,110.782 C415.992,106.921 414.309,103.456 416.982,99.496 C427.674,83.26 446.979,56.035 455.889,43.858 C458.166,40.69 458.76,40.294 459.75,40.888 C461.532,42.076 463.809,43.759 465.096,44.848 C467.571,46.927 466.779,48.907 464.106,53.263 C457.077,64.45 442.425,86.527 429.951,104.446 C439.851,102.961 450.444,101.575 460.245,100.486 C461.532,100.288 461.928,100.585 461.928,101.08 C461.928,101.575 461.433,102.862 461.037,104.248 C460.74,105.238 460.74,105.535 458.265,106.426 C449.157,109.693 432.03,114.148 424.902,114.742 Z" id="POWERFUL" fill="url(#linearGradient-1)" style="mix-blend-mode: screen;"></path>
            </g>
        </g>
    </g>
</svg>