<?xml version="1.0" encoding="UTF-8"?>
<svg width="348px" height="136px" viewBox="0 0 348 136" version="1.1" xmlns="http://www.w3.org/2000/svg" xmlns:xlink="http://www.w3.org/1999/xlink">
    <!-- Generator: Sketch 47.1 (45422) - http://www.bohemiancoding.com/sketch -->
    <title>Headermark</title>
    <desc>Created with Sketch.</desc>
    <defs></defs>
    <g id="Page-1" stroke="none" stroke-width="1" fill="none" fill-rule="evenodd">
        <g id="Desktop-HD-Copy" transform="translate(-546.000000, -2203.000000)">
            <g id="Headermark" transform="translate(547.000000, 2203.000000)">
                <path d="M65.2675,7.493 C65.2675,8.44700477 65.1100016,9.33049594 64.795,10.1435 C64.4799984,10.9565041 64.0345029,11.659997 63.4585,12.254 C62.8824971,12.848003 62.189504,13.3114983 61.3795,13.6445 C60.569496,13.9775017 59.669505,14.144 58.6795,14.144 C57.6954951,14.144 56.798504,13.9775017 55.9885,13.6445 C55.1784959,13.3114983 54.4840029,12.848003 53.905,12.254 C53.3259971,11.659997 52.8775016,10.9565041 52.5595,10.1435 C52.2414984,9.33049594 52.0825,8.44700477 52.0825,7.493 C52.0825,6.53899523 52.2414984,5.65550407 52.5595,4.8425 C52.8775016,4.02949594 53.3259971,3.32600297 53.905,2.732 C54.4840029,2.13799703 55.1784959,1.67450167 55.9885,1.3415 C56.798504,1.00849834 57.6954951,0.842 58.6795,0.842 C59.3395033,0.842 59.9604971,0.918499235 60.5425,1.0715 C61.1245029,1.22450077 61.6584976,1.44049861 62.1445,1.7195 C62.6305024,1.9985014 63.0669981,2.33749801 63.454,2.7365 C63.8410019,3.135502 64.1694986,3.58099754 64.4395,4.073 C64.7095013,4.56500246 64.9149993,5.09899712 65.056,5.675 C65.1970007,6.25100288 65.2675,6.85699682 65.2675,7.493 Z M62.7925,7.493 C62.7925,6.77899643 62.696501,6.13850284 62.5045,5.5715 C62.312499,5.00449717 62.0395018,4.52300198 61.6855,4.127 C61.3314982,3.73099802 60.9010025,3.42800105 60.394,3.218 C59.8869975,3.00799895 59.3155032,2.903 58.6795,2.903 C58.0434968,2.903 57.4720025,3.00799895 56.965,3.218 C56.4579975,3.42800105 56.0260018,3.73099802 55.669,4.127 C55.3119982,4.52300198 55.037501,5.00449717 54.8455,5.5715 C54.653499,6.13850284 54.5575,6.77899643 54.5575,7.493 C54.5575,8.20700357 54.653499,8.84749717 54.8455,9.4145 C55.037501,9.98150284 55.3119982,10.461498 55.669,10.8545 C56.0260018,11.247502 56.4579975,11.548999 56.965,11.759 C57.4720025,11.9690011 58.0434968,12.074 58.6795,12.074 C59.3155032,12.074 59.8869975,11.9690011 60.394,11.759 C60.9010025,11.548999 61.3314982,11.247502 61.6855,10.8545 C62.0395018,10.461498 62.312499,9.98150284 62.5045,9.4145 C62.696501,8.84749717 62.7925,8.20700357 62.7925,7.493 Z M76.6385,12.047 C77.1065023,12.047 77.5249982,11.9690008 77.894,11.813 C78.2630018,11.6569992 78.5734987,11.4380014 78.8255,11.156 C79.0775013,10.8739986 79.2709993,10.532002 79.406,10.13 C79.5410007,9.72799799 79.6085,9.27800249 79.6085,8.78 L79.6085,0.986 L82.0295,0.986 L82.0295,8.78 C82.0295,9.55400387 81.9050012,10.2694967 81.656,10.9265 C81.4069988,11.5835033 81.0500023,12.1504976 80.585,12.6275 C80.1199977,13.1045024 79.5545033,13.4764987 78.8885,13.7435 C78.2224967,14.0105013 77.4725042,14.144 76.6385,14.144 C75.7984958,14.144 75.0455033,14.0105013 74.3795,13.7435 C73.7134967,13.4764987 73.1480023,13.1045024 72.683,12.6275 C72.2179977,12.1504976 71.8610012,11.5835033 71.612,10.9265 C71.3629988,10.2694967 71.2385,9.55400387 71.2385,8.78 L71.2385,0.986 L73.6595,0.986 L73.6595,8.771 C73.6595,9.26900249 73.7269993,9.71899799 73.862,10.121 C73.9970007,10.523002 74.1919987,10.8664986 74.447,11.1515 C74.7020013,11.4365014 75.0139982,11.6569992 75.383,11.813 C75.7520018,11.9690008 76.1704977,12.047 76.6385,12.047 Z M92.6985,7.178 C93.1545023,7.178 93.5519983,7.12100057 93.891,7.007 C94.2300017,6.89299943 94.5089989,6.73550101 94.728,6.5345 C94.9470011,6.333499 95.1104995,6.09500138 95.2185,5.819 C95.3265005,5.54299862 95.3805,5.24000165 95.3805,4.91 C95.3805,4.2499967 95.1630022,3.74300177 94.728,3.389 C94.2929978,3.03499823 93.6285045,2.858 92.7345,2.858 L91.1865,2.858 L91.1865,7.178 L92.6985,7.178 Z M98.9265,14 L96.7395,14 C96.3254979,14 96.0255009,13.8380016 95.8395,13.514 L93.1035,9.347 C93.0014995,9.19099922 92.8890006,9.08000033 92.766,9.014 C92.6429994,8.94799967 92.4615012,8.915 92.2215,8.915 L91.1865,8.915 L91.1865,14 L88.7655,14 L88.7655,0.986 L92.7345,0.986 C93.6165044,0.986 94.3739968,1.07749909 95.007,1.2605 C95.6400032,1.44350092 96.158998,1.69999835 96.564,2.03 C96.969002,2.36000165 97.267499,2.75449771 97.4595,3.2135 C97.651501,3.6725023 97.7475,4.17799724 97.7475,4.73 C97.7475,5.16800219 97.6830006,5.58199805 97.554,5.972 C97.4249994,6.36200195 97.2390012,6.71599841 96.996,7.034 C96.7529988,7.35200159 96.4530018,7.6309988 96.096,7.871 C95.7389982,8.1110012 95.3325023,8.29999931 94.8765,8.438 C95.0325008,8.52800045 95.1764993,8.63449939 95.3085,8.7575 C95.4405007,8.88050062 95.5604995,9.02599916 95.6685,9.194 L98.9265,14 Z M116.6465,7.178 C117.102502,7.178 117.499998,7.12100057 117.839,7.007 C118.178002,6.89299943 118.456999,6.73550101 118.676,6.5345 C118.895001,6.333499 119.058499,6.09500138 119.1665,5.819 C119.274501,5.54299862 119.3285,5.24000165 119.3285,4.91 C119.3285,4.2499967 119.111002,3.74300177 118.676,3.389 C118.240998,3.03499823 117.576504,2.858 116.6825,2.858 L115.1345,2.858 L115.1345,7.178 L116.6465,7.178 Z M122.8745,14 L120.6875,14 C120.273498,14 119.973501,13.8380016 119.7875,13.514 L117.0515,9.347 C116.949499,9.19099922 116.837001,9.08000033 116.714,9.014 C116.590999,8.94799967 116.409501,8.915 116.1695,8.915 L115.1345,8.915 L115.1345,14 L112.7135,14 L112.7135,0.986 L116.6825,0.986 C117.564504,0.986 118.321997,1.07749909 118.955,1.2605 C119.588003,1.44350092 120.106998,1.69999835 120.512,2.03 C120.917002,2.36000165 121.215499,2.75449771 121.4075,3.2135 C121.599501,3.6725023 121.6955,4.17799724 121.6955,4.73 C121.6955,5.16800219 121.631001,5.58199805 121.502,5.972 C121.372999,6.36200195 121.187001,6.71599841 120.944,7.034 C120.700999,7.35200159 120.401002,7.6309988 120.044,7.871 C119.686998,8.1110012 119.280502,8.29999931 118.8245,8.438 C118.980501,8.52800045 119.124499,8.63449939 119.2565,8.7575 C119.388501,8.88050062 119.508499,9.02599916 119.6165,9.194 L122.8745,14 Z M130.7175,2.912 L130.7175,6.521 L135.2715,6.521 L135.2715,8.384 L130.7175,8.384 L130.7175,12.065 L136.4955,12.065 L136.4955,14 L128.2875,14 L128.2875,0.986 L136.4955,0.986 L136.4955,2.912 L130.7175,2.912 Z M146.8675,7.529 C147.311502,7.529 147.698498,7.47350056 148.0285,7.3625 C148.358502,7.25149945 148.632999,7.09250104 148.852,6.8855 C149.071001,6.67849897 149.234499,6.42650149 149.3425,6.1295 C149.450501,5.83249852 149.5045,5.50100183 149.5045,5.135 C149.5045,4.78699826 149.450501,4.47200141 149.3425,4.19 C149.234499,3.90799859 149.072501,3.66800099 148.8565,3.47 C148.640499,3.27199901 148.367502,3.12050053 148.0375,3.0155 C147.707498,2.91049948 147.317502,2.858 146.8675,2.858 L145.0585,2.858 L145.0585,7.529 L146.8675,7.529 Z M146.8675,0.986 C147.737504,0.986 148.490497,1.08799898 149.1265,1.292 C149.762503,1.49600102 150.287498,1.78099817 150.7015,2.147 C151.115502,2.51300183 151.422999,2.95099745 151.624,3.461 C151.825001,3.97100255 151.9255,4.52899697 151.9255,5.135 C151.9255,5.76500315 151.820501,6.34249738 151.6105,6.8675 C151.400499,7.39250263 151.085502,7.84399811 150.6655,8.222 C150.245498,8.60000189 149.719003,8.89399895 149.086,9.104 C148.452997,9.31400105 147.713504,9.419 146.8675,9.419 L145.0585,9.419 L145.0585,14 L142.6375,14 L142.6375,0.986 L146.8675,0.986 Z M163.0175,12.047 C163.485502,12.047 163.903998,11.9690008 164.273,11.813 C164.642002,11.6569992 164.952499,11.4380014 165.2045,11.156 C165.456501,10.8739986 165.649999,10.532002 165.785,10.13 C165.920001,9.72799799 165.9875,9.27800249 165.9875,8.78 L165.9875,0.986 L168.4085,0.986 L168.4085,8.78 C168.4085,9.55400387 168.284001,10.2694967 168.035,10.9265 C167.785999,11.5835033 167.429002,12.1504976 166.964,12.6275 C166.498998,13.1045024 165.933503,13.4764987 165.2675,13.7435 C164.601497,14.0105013 163.851504,14.144 163.0175,14.144 C162.177496,14.144 161.424503,14.0105013 160.7585,13.7435 C160.092497,13.4764987 159.527002,13.1045024 159.062,12.6275 C158.596998,12.1504976 158.240001,11.5835033 157.991,10.9265 C157.741999,10.2694967 157.6175,9.55400387 157.6175,8.78 L157.6175,0.986 L160.0385,0.986 L160.0385,8.771 C160.0385,9.26900249 160.105999,9.71899799 160.241,10.121 C160.376001,10.523002 160.570999,10.8664986 160.826,11.1515 C161.081001,11.4365014 161.392998,11.6569992 161.762,11.813 C162.131002,11.9690008 162.549498,12.047 163.0175,12.047 Z M184.2345,2.975 L180.3105,2.975 L180.3105,14 L177.8895,14 L177.8895,2.975 L173.9655,2.975 L173.9655,0.986 L184.2345,0.986 L184.2345,2.975 Z M195.5515,9.086 L193.9675,4.757 C193.8895,4.56499904 193.8085,4.33700132 193.7245,4.073 C193.6405,3.80899868 193.5565,3.52400153 193.4725,3.218 C193.3945,3.52400153 193.3135,3.81049867 193.2295,4.0775 C193.1455,4.34450134 193.0645,4.57699901 192.9865,4.775 L191.4115,9.086 L195.5515,9.086 Z M199.8265,14 L197.9545,14 C197.744499,14 197.573501,13.9475005 197.4415,13.8425 C197.309499,13.7374995 197.2105,13.6070008 197.1445,13.451 L196.1725,10.796 L190.7815,10.796 L189.8095,13.451 C189.7615,13.5890007 189.668501,13.7149994 189.5305,13.829 C189.392499,13.9430006 189.221501,14 189.0175,14 L187.1275,14 L192.2485,0.986 L194.7145,0.986 L199.8265,14 Z M212.9975,2.975 L209.0735,2.975 L209.0735,14 L206.6525,14 L206.6525,2.975 L202.7285,2.975 L202.7285,0.986 L212.9975,0.986 L212.9975,2.975 Z M221.1375,14 L218.7075,14 L218.7075,0.986 L221.1375,0.986 L221.1375,14 Z M240.4555,7.493 C240.4555,8.44700477 240.298002,9.33049594 239.983,10.1435 C239.667998,10.9565041 239.222503,11.659997 238.6465,12.254 C238.070497,12.848003 237.377504,13.3114983 236.5675,13.6445 C235.757496,13.9775017 234.857505,14.144 233.8675,14.144 C232.883495,14.144 231.986504,13.9775017 231.1765,13.6445 C230.366496,13.3114983 229.672003,12.848003 229.093,12.254 C228.513997,11.659997 228.065502,10.9565041 227.7475,10.1435 C227.429498,9.33049594 227.2705,8.44700477 227.2705,7.493 C227.2705,6.53899523 227.429498,5.65550407 227.7475,4.8425 C228.065502,4.02949594 228.513997,3.32600297 229.093,2.732 C229.672003,2.13799703 230.366496,1.67450167 231.1765,1.3415 C231.986504,1.00849834 232.883495,0.842 233.8675,0.842 C234.527503,0.842 235.148497,0.918499235 235.7305,1.0715 C236.312503,1.22450077 236.846498,1.44049861 237.3325,1.7195 C237.818502,1.9985014 238.254998,2.33749801 238.642,2.7365 C239.029002,3.135502 239.357499,3.58099754 239.6275,4.073 C239.897501,4.56500246 240.102999,5.09899712 240.244,5.675 C240.385001,6.25100288 240.4555,6.85699682 240.4555,7.493 Z M237.9805,7.493 C237.9805,6.77899643 237.884501,6.13850284 237.6925,5.5715 C237.500499,5.00449717 237.227502,4.52300198 236.8735,4.127 C236.519498,3.73099802 236.089003,3.42800105 235.582,3.218 C235.074997,3.00799895 234.503503,2.903 233.8675,2.903 C233.231497,2.903 232.660003,3.00799895 232.153,3.218 C231.645997,3.42800105 231.214002,3.73099802 230.857,4.127 C230.499998,4.52300198 230.225501,5.00449717 230.0335,5.5715 C229.841499,6.13850284 229.7455,6.77899643 229.7455,7.493 C229.7455,8.20700357 229.841499,8.84749717 230.0335,9.4145 C230.225501,9.98150284 230.499998,10.461498 230.857,10.8545 C231.214002,11.247502 231.645997,11.548999 232.153,11.759 C232.660003,11.9690011 233.231497,12.074 233.8675,12.074 C234.503503,12.074 235.074997,11.9690011 235.582,11.759 C236.089003,11.548999 236.519498,11.247502 236.8735,10.8545 C237.227502,10.461498 237.500499,9.98150284 237.6925,9.4145 C237.884501,8.84749717 237.9805,8.20700357 237.9805,7.493 Z M257.5595,0.986 L257.5595,14 L256.3175,14 C256.125499,14 255.965001,13.9685003 255.836,13.9055 C255.706999,13.8424997 255.582501,13.7360008 255.4625,13.586 L248.6675,4.91 C248.7035,5.30600198 248.7215,5.67199832 248.7215,6.008 L248.7215,14 L246.5885,14 L246.5885,0.986 L247.8575,0.986 C247.959501,0.986 248.048,0.990499955 248.123,0.9995 C248.198,1.00850005 248.264,1.02649987 248.321,1.0535 C248.378,1.08050014 248.4335,1.11949975 248.4875,1.1705 C248.5415,1.22150026 248.6015,1.28899958 248.6675,1.373 L255.4895,10.085 C255.4715,9.87499895 255.4565,9.66800102 255.4445,9.464 C255.4325,9.25999898 255.4265,9.07100087 255.4265,8.897 L255.4265,0.986 L257.5595,0.986 Z M275.2615,14 L272.8315,14 L272.8315,0.986 L275.2615,0.986 L275.2615,14 Z M289.0985,3.353 C289.0265,3.47900063 288.95,3.57049972 288.869,3.6275 C288.788,3.68450029 288.687501,3.713 288.5675,3.713 C288.441499,3.713 288.305001,3.66650047 288.158,3.5735 C288.010999,3.48049954 287.835501,3.37700057 287.6315,3.263 C287.427499,3.14899943 287.189001,3.04550047 286.916,2.9525 C286.642999,2.85949954 286.320502,2.813 285.9485,2.813 C285.612498,2.813 285.318501,2.8534996 285.0665,2.9345 C284.814499,3.01550041 284.603001,3.12799928 284.432,3.272 C284.260999,3.41600072 284.1335,3.588499 284.0495,3.7895 C283.9655,3.99050101 283.9235,4.2109988 283.9235,4.451 C283.9235,4.75700153 284.008999,5.01199898 284.18,5.216 C284.351001,5.42000102 284.577499,5.59399928 284.8595,5.738 C285.141501,5.88200072 285.462498,6.01099943 285.8225,6.125 C286.182502,6.23900057 286.551498,6.36049936 286.9295,6.4895 C287.307502,6.61850065 287.676498,6.76849915 288.0365,6.9395 C288.396502,7.11050086 288.717499,7.3264987 288.9995,7.5875 C289.281501,7.84850131 289.507999,8.16799811 289.679,8.546 C289.850001,8.92400189 289.9355,9.3829973 289.9355,9.923 C289.9355,10.5110029 289.835001,11.0614974 289.634,11.5745 C289.432999,12.0875026 289.139002,12.5344981 288.752,12.9155 C288.364998,13.2965019 287.892503,13.5964989 287.3345,13.8155 C286.776497,14.0345011 286.137504,14.144 285.4175,14.144 C285.003498,14.144 284.595502,14.1035004 284.1935,14.0225 C283.791498,13.9414996 283.406002,13.8260008 283.037,13.676 C282.667998,13.5259993 282.321502,13.3460011 281.9975,13.136 C281.673498,12.925999 281.385501,12.6920013 281.1335,12.434 L281.8445,11.273 C281.9045,11.1889996 281.9825,11.1185003 282.0785,11.0615 C282.1745,11.0044997 282.276499,10.976 282.3845,10.976 C282.534501,10.976 282.696499,11.0374994 282.8705,11.1605 C283.044501,11.2835006 283.251499,11.4199993 283.4915,11.57 C283.731501,11.7200008 284.011998,11.8564994 284.333,11.9795 C284.654002,12.1025006 285.039498,12.164 285.4895,12.164 C286.179503,12.164 286.713498,12.0005016 287.0915,11.6735 C287.469502,11.3464984 287.6585,10.8770031 287.6585,10.265 C287.6585,9.92299829 287.573001,9.64400108 287.402,9.428 C287.230999,9.21199892 287.004501,9.03050074 286.7225,8.8835 C286.440499,8.73649927 286.119502,8.61200051 285.7595,8.51 C285.399498,8.40799949 285.033502,8.2970006 284.6615,8.177 C284.289498,8.0569994 283.923502,7.91300084 283.5635,7.745 C283.203498,7.57699916 282.882501,7.35800135 282.6005,7.088 C282.318499,6.81799865 282.092001,6.48050203 281.921,6.0755 C281.749999,5.67049798 281.6645,5.17100297 281.6645,4.577 C281.6645,4.10299763 281.758999,3.64100225 281.948,3.191 C282.137001,2.74099775 282.411498,2.34200174 282.7715,1.994 C283.131502,1.64599826 283.575497,1.36700105 284.1035,1.157 C284.631503,0.94699895 285.237497,0.842 285.9215,0.842 C286.689504,0.842 287.397497,0.9619988 288.0455,1.202 C288.693503,1.4420012 289.245498,1.77799784 289.7015,2.21 L289.0985,3.353 Z" id="Our-Reputation-Is" fill="#FFFFFF"></path>
                <path d="M315.5,7.5 L345.5,7.5" id="Line" stroke="#FFFFFF" stroke-width="3" stroke-linecap="square"></path>
                <path d="M0.5,7.5 L30.5,7.5" id="Line" stroke="#FFFFFF" stroke-width="3" stroke-linecap="square"></path>
                <path d="M6.96,135.08 C6.24,135.08 5.52,134.84 6.24,133.64 C15.84,117.68 33.6,91.16 53.04,62.72 C44.52,64.04 35.88,65.48 28.2,66.8 C26.16,67.16 25.8,66.68 26.28,65.72 C27.84,62.24 28.68,59.36 30,57.68 C32.04,55.16 33.84,53.6 39.24,52.76 C43.44,52.04 52.2,51.08 61.44,50.24 C62.52,48.68 63.24,47.48 63.84,46.52 C65.04,44.72 65.64,44.6 67.8,45.68 C69.36,46.52 71.52,47.84 73.68,49.28 C79.44,48.92 84.72,48.68 88.68,48.68 C91.92,48.68 93.96,49.76 96.36,51.32 C99.24,53.24 100.32,53.96 100.32,54.8 C100.32,55.28 99.84,55.64 98.88,55.76 C94.44,56.36 85.44,57.68 74.64,59.36 C66.72,72.08 42.12,108.44 26.04,129.44 C23.16,133.16 21.12,133.76 18.24,133.76 C12.24,134 9.36,135.08 6.96,135.08 Z M68.04,129.68 C67.2,129.68 66.24,129.2 62.88,128.24 C59.28,127.28 56.16,126.2 56.16,122.24 C56.16,118.76 58.44,113.12 64.44,105.32 C69.12,99.2 76.92,88.16 78.72,84.68 C79.08,83.84 80.04,83.84 80.76,84.08 C82.8,84.8 84.24,84.92 85.92,85.88 C87.36,86.72 87.84,88.16 87.84,89.84 C87.84,91.16 87.6,92.72 87.12,94.4 C93.96,88.16 100.08,83.96 105.48,81.44 C108.12,80.12 109.8,79.52 110.76,79.52 C111.72,79.52 111.96,80.12 112.8,80.84 C113.16,81.2 113.88,81.68 113.88,81.92 C113.88,82.16 113.64,82.4 113.28,82.64 C101.16,90.2 86.76,104 75.24,121.52 C70.44,128.72 69.36,129.68 68.04,129.68 Z M129.84,126.8 C126.96,124.52 125.76,121.76 128.28,115.52 C120.72,124.52 112.8,131 107.76,131 C104.16,131 101.28,128.48 98.76,125.6 C94.68,121.04 96,115.16 103.44,105.32 C114,91.4 115.68,88.88 116.28,86.36 C116.52,85.4 117.6,85.16 118.8,85.16 C123.24,85.16 130.92,86.48 130.92,91.76 C130.92,99.8 118.92,109.52 114,120.44 C121.68,117.8 130.68,107.24 138.6,94.04 C140.64,90.56 141.24,89.6 143.04,89.6 C144.36,89.6 147.36,90.08 149.88,90.68 C152.52,91.28 153.96,92.48 153.96,94.76 C153.96,97.4 152.28,100.52 147.96,107.48 C143.28,115.28 141.24,119.6 142.2,121.64 C147.36,120.44 153.36,115.64 161.04,105.32 L161.4,104.84 C162.24,103.76 162.48,103.64 162.84,104 L163.2,104.36 C164.04,105.2 163.92,105.92 163.44,106.64 L163.08,107.24 C158.88,114.2 146.64,129.32 137.04,129.32 C134.28,129.32 132.6,128.84 129.84,126.8 Z M177.36,121.16 C177.36,125.12 175.32,129.08 170.88,132.44 C168.24,134.36 165.12,135.8 161.16,135.8 C157.08,135.8 154.08,134.36 151.44,132.08 C149.28,130.16 148.8,128.36 150,128 C156.96,125.72 167.4,118.76 167.4,112.76 C167.4,108.44 160.44,106.64 160.44,99.44 C160.44,88.28 173.52,86.84 181.44,81.8 C182.16,81.2 183.48,81.56 185.28,83.84 C187.92,87.2 188.64,89.96 188.64,91.52 C188.64,95.72 184.92,98.36 177,101.12 C172.56,102.68 170.16,103.76 170.16,106.16 C170.16,110.12 177.36,113.12 177.36,121.16 Z M198,131 C195.36,131 191.88,130.16 188.52,126.92 C183.36,122.12 182.76,117.08 190.44,105.32 C193.56,100.52 196.32,96.32 198.84,92.36 C197.28,92.36 196.68,92 195.72,91.16 C194.16,89.72 192.84,87.32 192.84,86.36 C192.84,85.88 193.2,85.52 195.12,85.28 C198,84.92 201.24,84.44 204.48,84.08 C208.92,77.6 213,71.84 217.56,65.84 C221.16,61.04 222.6,60.08 223.56,60.08 C225.24,60.08 225.84,62 228,63.92 C233.04,68.12 231.96,70.88 224.52,82.4 C228,82.28 231.12,82.16 233.52,82.16 C234.72,82.16 234.84,82.52 234.84,83 C234.84,84.32 233.76,85.52 232.32,85.76 C230.88,86 230.76,86.72 226.32,87.8 L220.08,89.24 C206.76,109.64 201.6,118.04 200.76,122.36 C210.12,121.76 217.68,117.08 226.44,105.32 L226.8,104.84 C227.64,103.76 227.88,103.64 228.24,104 L228.6,104.36 C229.44,105.2 229.32,105.8 228.84,106.64 L228.48,107.24 C224.28,114.2 208.8,131 198,131 Z M237.48,131 C234.36,131 231.96,130.52 229.92,129.44 C226.32,127.64 222.72,123.8 220.92,119.6 C219.12,115.52 220.8,108.2 225.96,101.24 C232.68,92.36 244.44,85.16 252.6,85.16 C255.84,85.16 258.36,86.24 261.72,91.28 C264.36,93.56 265.92,95.72 265.92,98.48 C265.92,101.36 263.4,105.08 255.72,109.88 C251.28,112.64 244.32,115.64 236.28,118.04 C236.04,119.6 235.92,121.04 236.04,122.48 C237.48,122.96 239.28,123.2 241.08,123.2 C250.68,123.2 262.2,116.84 270.84,105.32 L271.2,104.84 C272.04,103.76 272.28,103.64 272.64,104 L273,104.36 C273.84,105.2 273.72,105.8 273.24,106.64 L272.88,107.24 C265.08,120.32 249.48,131 237.48,131 Z M251.88,105.08 C257.16,101.24 258.84,98.12 258.6,94.64 C251.16,96.44 242.52,104 238.44,112.28 C243.72,110.12 249,107.36 251.88,105.08 Z M294.24,123.08 C293.76,122 293.64,120.32 293.76,118.52 C287.64,125.72 281.28,130.64 276.36,130.64 C273.84,130.64 271.44,129.2 268.8,125.96 C266.4,124.16 263.64,120.68 263.64,116 C263.64,112.4 265.08,108.08 268.68,103.4 C277.56,91.64 290.64,84.8 297.72,84.8 C300.12,84.8 303,86.48 305.28,89 C314.04,75.08 327.48,54.68 335.04,44.6 C335.88,43.52 336.72,43.4 337.56,44 C339.36,45.32 341.88,47.6 343.92,49.52 C346.08,51.56 346.32,55.4 343.2,60.2 C338.52,67.16 331.68,77.6 325.68,87.44 C315.96,103.4 311.16,112.76 310.8,119.96 C314.64,118.76 318.72,116.48 323.04,113.24 C323.64,112.76 324.24,113.24 324,114.32 C323.64,116 323.16,117.44 322.2,118.4 C318.96,121.64 310.08,129.2 301.56,129.2 C298.08,129.2 295.56,126.44 294.24,123.08 Z M277.8,122 C283.92,119.72 290.16,114.8 295.68,108.44 C297,104.12 299.04,99.44 301.8,94.52 C288.72,99.44 277.32,113.12 277.8,122 Z" id="Trusted" fill="#FFFFFF"></path>
            </g>
        </g>
    </g>
</svg>