<?xml version="1.0" encoding="UTF-8" standalone="no"?>
<svg width="200px" height="206px" viewBox="0 0 200 206" version="1.1" xmlns="http://www.w3.org/2000/svg" xmlns:xlink="http://www.w3.org/1999/xlink">
    <!-- Generator: Sketch 45.1 (43504) - http://www.bohemiancoding.com/sketch -->
    <title>boxing-gloves</title>
    <desc>Created with Sketch.</desc>
    <defs></defs>
    <g id="Page-2" stroke="none" stroke-width="1" fill="none" fill-rule="evenodd">
        <g id="Desktop-HD" transform="translate(-956.000000, -664.000000)" fill-rule="nonzero" fill="#000000">
            <g id="boxing-gloves" transform="translate(956.000000, 664.000000)">
                <path d="M80.0976636,150.337383 C80.0836449,150.350935 80.0663551,150.366822 80.0490654,150.382243 L81.9733645,161.340187 L92.9294393,163.260748 C92.9457944,163.247196 92.9593458,163.231308 92.9757009,163.212617 L90.8841121,152.428972 L80.0976636,150.337383 Z" id="Shape"></path>
                <path d="M177.126168,66.1859813 C134.602336,23.664486 110.195794,45.5130841 106.257009,60.3453271 C104.374299,67.4336449 104.554673,70.3799065 104.554673,70.3799065 C98.1626168,67.2327103 81.8476636,62.8088785 67.8373832,114.223364 L37.7042056,151.321495 C44.4574766,162.977103 52.2037383,173.169159 61.1728972,182.140187 C70.1429907,191.107009 80.3378505,198.85514 91.9901869,205.608411 L129.087383,175.476168 C141.125701,169.882243 160.69486,167.66729 173.206075,155.152804 C198.855607,129.500935 215.616355,104.675234 177.126168,66.1859813 Z M117.021495,157.473364 C114.492523,160.000935 110.394393,160.000935 107.866355,157.473364 C107.268224,156.876168 106.814953,156.187383 106.501402,155.453271 L98.5925234,153.920561 L100.123832,161.828505 C100.857009,162.147196 101.546262,162.599533 102.143925,163.197196 C104.672897,165.724766 104.672897,169.823364 102.143925,172.352336 C99.6154206,174.880841 95.517757,174.880841 92.9892523,172.352336 C92.4191589,171.782243 91.9859813,171.129907 91.6728972,170.435047 L83.3130841,168.971028 L84.7794393,177.329907 C85.4733645,177.641121 86.1261682,178.073832 86.6957944,178.646262 C89.2238318,181.173832 89.2238318,185.272897 86.6953271,187.801402 C84.1668224,190.329907 80.0686916,190.328972 77.5406542,187.801402 C75.0121495,185.272897 75.0121495,181.173832 77.5406542,178.646262 C77.5616822,178.622897 77.5859813,178.607009 77.6074766,178.584579 L75.6841121,167.628972 L64.7271028,165.703738 C64.7070093,165.726636 64.6883178,165.749533 64.6672897,165.771963 C62.1383178,168.300467 58.0406542,168.300467 55.5116822,165.771028 C52.9836449,163.243458 52.9831776,159.144393 55.5116822,156.616822 C58.0406542,154.088318 62.1383178,154.088318 64.6672897,156.616822 C65.2373832,157.185047 65.6714953,157.838318 65.9831776,158.531776 L74.3453271,160 L72.8761682,151.63972 C72.1831776,151.328037 71.5313084,150.891589 70.961215,150.322897 C68.4336449,147.79486 68.432243,143.696262 70.961215,141.167757 C73.4897196,138.63972 77.5878505,138.63972 80.1158879,141.167757 C80.7154206,141.766355 81.1672897,142.452336 81.482243,143.189252 L89.3915888,144.719626 L87.8579439,136.812617 C87.1247664,136.495327 86.4369159,136.043458 85.8373832,135.443925 C83.3098131,132.914953 83.3102804,128.816822 85.8373832,126.288785 C88.3654206,123.759813 92.4640187,123.760748 94.9920561,126.288785 C97.5154206,128.812617 97.5196262,132.898131 95.0079439,135.428037 L97.0981308,146.21215 L107.883645,148.304206 C110.413551,145.790187 114.499533,145.799533 117.021495,148.318224 C119.549065,150.846262 119.549533,154.944393 117.021495,157.473364 Z" id="Shape"></path>
                <path d="M50.8640187,124.734112 L48.1214953,121.200467 L37.5542056,124.207477 C37.5481308,124.230841 37.538785,124.249533 37.5327103,124.272897 L44.1060748,133.053738 L50.8640187,124.734112 Z" id="Shape"></path>
                <path d="M26.6252336,136.78271 C27.3915888,137.033645 28.0724299,137.418224 28.6663551,137.898131 L36.7859813,135.42757 L31.6995327,128.633178 C30.9406542,128.666822 30.1626168,128.576636 29.3962617,128.323832 C25.9985981,127.21028 24.146729,123.55514 25.2598131,120.156542 C26.3733645,116.757944 30.0294393,114.905607 33.4275701,116.020093 C34.2308411,116.283178 34.9471963,116.69486 35.5588785,117.20514 L43.3060748,114.998131 L38.3663551,108.636916 C37.5705607,108.687383 36.7509346,108.596262 35.9471963,108.331776 C32.5495327,107.218692 30.6981308,103.562617 31.811215,100.164019 C32.9247664,96.7663551 36.5808411,94.9158879 39.9785047,96.0275701 C43.3663551,97.1359813 45.2172897,100.779439 44.1196262,104.171028 L50.8579439,112.851402 L61.4233645,109.840654 C61.753271,108.848598 62.3037383,107.99486 62.9976636,107.302336 C68.9546729,87.7551402 75.2331776,77.085514 75.2331776,77.085514 C75.2331776,77.085514 68.753271,59.7714953 49.014486,67.4813084 C72.3864486,56.4079439 55.4093458,38.6943925 55.4093458,38.6943925 C55.4093458,38.6943925 75.5079439,53.9957944 94.9257009,62.3434579 C95.8831776,62.2004673 96.8509346,62.121028 97.8303738,62.121028 C98.2471963,62.121028 98.6621495,62.1341121 99.0771028,62.161215 C99.3088785,61.1023364 99.5892523,59.938785 99.9275701,58.6635514 C102.635047,48.4705607 111.891121,37.5953271 126.333178,35.2719626 C121.531776,24.4990654 110.057944,13.1490654 86.0934579,5.29766355 C34.3668224,-11.65 19.7915888,14.5214953 8.4953271,48.9892523 C2.98691589,65.8074766 9.84953271,84.2663551 10.3009346,97.5331776 L0.179906542,144.240654 C11.4696262,151.585514 22.9836449,157.178505 35.0383178,161.128037 C35.4453271,161.263084 35.8542056,161.388318 36.2626168,161.518224 C34.8182243,159.274766 33.4107477,156.971963 32.0378505,154.602336 L29.7747664,150.696729 L35.7336449,143.359813 L30.7845794,144.864486 C30.7747664,144.891589 30.771028,144.921495 30.761215,144.949533 C29.6476636,148.348131 25.9915888,150.199065 22.5929907,149.085047 C19.1957944,147.971963 17.3439252,144.316822 18.4574766,140.918692 C19.5700935,137.519626 23.2275701,135.66729 26.6252336,136.78271 Z" id="Shape"></path>
            </g>
        </g>
    </g>
</svg>