<?xml version="1.0" encoding="UTF-8"?>
<svg width="24px" height="18px" viewBox="0 0 24 18" version="1.1" xmlns="http://www.w3.org/2000/svg" xmlns:xlink="http://www.w3.org/1999/xlink">
    <!-- Generator: Sketch 45 (43475) - http://www.bohemiancoding.com/sketch -->
    <title>close-envelope-2</title>
    <desc>Created with Sketch.</desc>
    <defs></defs>
    <g id="Page-1" stroke="none" stroke-width="1" fill="none" fill-rule="evenodd">
        <g id="Desktop-HD" transform="translate(-101.000000, -2370.000000)" fill-rule="nonzero" fill="#4A4A4A">
            <g id="close-envelope-2" transform="translate(101.000000, 2370.000000)">
                <path d="M12,12 L9.03085714,9.40114286 L0.541714286,16.6782857 C0.850285714,16.9645714 1.26685714,17.1428571 1.72628571,17.1428571 L22.2737143,17.1428571 C22.7314286,17.1428571 23.1462857,16.9645714 23.4531429,16.6782857 L14.9691429,9.40114286 L12,12 Z" id="Shape"></path>
                <path d="M23.4582857,0.464571429 C23.1497143,0.176571429 22.7348571,0 22.2737143,0 L1.72628571,0 C1.26857143,0 0.853714286,0.178285714 0.545142857,0.468 L12,10.2857143 L23.4582857,0.464571429 Z" id="Shape"></path>
                <polygon id="Shape" points="0 1.50514286 0 15.7474286 8.28514286 8.70685714"></polygon>
                <polygon id="Shape" points="15.7148571 8.70685714 24 15.7474286 24 1.5"></polygon>
            </g>
        </g>
    </g>
</svg>