<?xml version="1.0" encoding="UTF-8"?>
<svg width="322px" height="124px" viewBox="0 0 322 124" version="1.1" xmlns="http://www.w3.org/2000/svg" xmlns:xlink="http://www.w3.org/1999/xlink">
    <!-- Generator: Sketch 47.1 (45422) - http://www.bohemiancoding.com/sketch -->
    <title>Headermark</title>
    <desc>Created with Sketch.</desc>
    <defs>
        <linearGradient x1="0%" y1="0%" x2="101.999998%" y2="100.999999%" id="linearGradient-1">
            <stop stop-color="#00EAF8" offset="0%"></stop>
            <stop stop-color="#6D42EF" offset="100%"></stop>
        </linearGradient>
    </defs>
    <g id="Page-1" stroke="none" stroke-width="1" fill="none" fill-rule="evenodd">
        <g id="Desktop-HD-Copy" transform="translate(-559.000000, -1564.000000)">
            <g id="Group" transform="translate(0.000000, 1457.000000)">
                <g id="Headermark" transform="translate(559.000000, 107.000000)">
                    <path d="M82.841,7.493 C82.841,8.44700477 82.6835016,9.33049594 82.3685,10.1435 C82.0534984,10.9565041 81.6080029,11.659997 81.032,12.254 C80.4559971,12.848003 79.7630041,13.3114983 78.953,13.6445 C78.142996,13.9775017 77.243005,14.144 76.253,14.144 C75.2689951,14.144 74.3720041,13.9775017 73.562,13.6445 C72.751996,13.3114983 72.0575029,12.848003 71.4785,12.254 C70.8994971,11.659997 70.4510016,10.9565041 70.133,10.1435 C69.8149984,9.33049594 69.656,8.44700477 69.656,7.493 C69.656,6.53899523 69.8149984,5.65550407 70.133,4.8425 C70.4510016,4.02949594 70.8994971,3.32600297 71.4785,2.732 C72.0575029,2.13799703 72.751996,1.67450167 73.562,1.3415 C74.3720041,1.00849834 75.2689951,0.842 76.253,0.842 C76.9130033,0.842 77.5339971,0.918499235 78.116,1.0715 C78.6980029,1.22450077 79.2319976,1.44049861 79.718,1.7195 C80.2040024,1.9985014 80.6404981,2.33749801 81.0275,2.7365 C81.4145019,3.135502 81.7429987,3.58099754 82.013,4.073 C82.2830014,4.56500246 82.4884993,5.09899712 82.6295,5.675 C82.7705007,6.25100288 82.841,6.85699682 82.841,7.493 Z M80.366,7.493 C80.366,6.77899643 80.270001,6.13850284 80.078,5.5715 C79.885999,5.00449717 79.6130018,4.52300198 79.259,4.127 C78.9049982,3.73099802 78.4745025,3.42800105 77.9675,3.218 C77.4604975,3.00799895 76.8890032,2.903 76.253,2.903 C75.6169968,2.903 75.0455025,3.00799895 74.5385,3.218 C74.0314975,3.42800105 73.5995018,3.73099802 73.2425,4.127 C72.8854982,4.52300198 72.611001,5.00449717 72.419,5.5715 C72.226999,6.13850284 72.131,6.77899643 72.131,7.493 C72.131,8.20700357 72.226999,8.84749717 72.419,9.4145 C72.611001,9.98150284 72.8854982,10.461498 73.2425,10.8545 C73.5995018,11.247502 74.0314975,11.548999 74.5385,11.759 C75.0455025,11.9690011 75.6169968,12.074 76.253,12.074 C76.8890032,12.074 77.4604975,11.9690011 77.9675,11.759 C78.4745025,11.548999 78.9049982,11.247502 79.259,10.8545 C79.6130018,10.461498 79.885999,9.98150284 80.078,9.4145 C80.270001,8.84749717 80.366,8.20700357 80.366,7.493 Z M94.212,12.047 C94.6800023,12.047 95.0984982,11.9690008 95.4675,11.813 C95.8365018,11.6569992 96.1469987,11.4380014 96.399,11.156 C96.6510013,10.8739986 96.8444993,10.532002 96.9795,10.13 C97.1145007,9.72799799 97.182,9.27800249 97.182,8.78 L97.182,0.986 L99.603,0.986 L99.603,8.78 C99.603,9.55400387 99.4785012,10.2694967 99.2295,10.9265 C98.9804988,11.5835033 98.6235023,12.1504976 98.1585,12.6275 C97.6934977,13.1045024 97.1280033,13.4764987 96.462,13.7435 C95.7959967,14.0105013 95.0460042,14.144 94.212,14.144 C93.3719958,14.144 92.6190033,14.0105013 91.953,13.7435 C91.2869967,13.4764987 90.7215023,13.1045024 90.2565,12.6275 C89.7914977,12.1504976 89.4345012,11.5835033 89.1855,10.9265 C88.9364988,10.2694967 88.812,9.55400387 88.812,8.78 L88.812,0.986 L91.233,0.986 L91.233,8.771 C91.233,9.26900249 91.3004993,9.71899799 91.4355,10.121 C91.5705007,10.523002 91.7654987,10.8664986 92.0205,11.1515 C92.2755013,11.4365014 92.5874982,11.6569992 92.9565,11.813 C93.3255018,11.9690008 93.7439977,12.047 94.212,12.047 Z M110.272,7.178 C110.728002,7.178 111.125498,7.12100057 111.4645,7.007 C111.803502,6.89299943 112.082499,6.73550101 112.3015,6.5345 C112.520501,6.333499 112.683999,6.09500138 112.792,5.819 C112.900001,5.54299862 112.954,5.24000165 112.954,4.91 C112.954,4.2499967 112.736502,3.74300177 112.3015,3.389 C111.866498,3.03499823 111.202004,2.858 110.308,2.858 L108.76,2.858 L108.76,7.178 L110.272,7.178 Z M116.5,14 L114.313,14 C113.898998,14 113.599001,13.8380016 113.413,13.514 L110.677,9.347 C110.574999,9.19099922 110.462501,9.08000033 110.3395,9.014 C110.216499,8.94799967 110.035001,8.915 109.795,8.915 L108.76,8.915 L108.76,14 L106.339,14 L106.339,0.986 L110.308,0.986 C111.190004,0.986 111.947497,1.07749909 112.5805,1.2605 C113.213503,1.44350092 113.732498,1.69999835 114.1375,2.03 C114.542502,2.36000165 114.840999,2.75449771 115.033,3.2135 C115.225001,3.6725023 115.321,4.17799724 115.321,4.73 C115.321,5.16800219 115.256501,5.58199805 115.1275,5.972 C114.998499,6.36200195 114.812501,6.71599841 114.5695,7.034 C114.326499,7.35200159 114.026502,7.6309988 113.6695,7.871 C113.312498,8.1110012 112.906002,8.29999931 112.45,8.438 C112.606001,8.52800045 112.749999,8.63449939 112.882,8.7575 C113.014001,8.88050062 113.133999,9.02599916 113.242,9.194 L116.5,14 Z M138.828,2.975 L134.904,2.975 L134.904,14 L132.483,14 L132.483,2.975 L128.559,2.975 L128.559,0.986 L138.828,0.986 L138.828,2.975 Z M146.968,2.912 L146.968,6.521 L151.522,6.521 L151.522,8.384 L146.968,8.384 L146.968,12.065 L152.746,12.065 L152.746,14 L144.538,14 L144.538,0.986 L152.746,0.986 L152.746,2.912 L146.968,2.912 Z M165.764,9.086 L164.18,4.757 C164.102,4.56499904 164.021,4.33700132 163.937,4.073 C163.853,3.80899868 163.769,3.52400153 163.685,3.218 C163.607,3.52400153 163.526,3.81049867 163.442,4.0775 C163.358,4.34450134 163.277,4.57699901 163.199,4.775 L161.624,9.086 L165.764,9.086 Z M170.039,14 L168.167,14 C167.956999,14 167.786001,13.9475005 167.654,13.8425 C167.521999,13.7374995 167.423,13.6070008 167.357,13.451 L166.385,10.796 L160.994,10.796 L160.022,13.451 C159.974,13.5890007 159.881001,13.7149994 159.743,13.829 C159.604999,13.9430006 159.434001,14 159.23,14 L157.34,14 L162.461,0.986 L164.927,0.986 L170.039,14 Z M189.501,0.986 L189.501,14 L187.368,14 L187.368,5.594 C187.368,5.25799832 187.386,4.89500195 187.422,4.505 L183.489,11.894 C183.302999,12.2480018 183.018002,12.425 182.634,12.425 L182.292,12.425 C181.907998,12.425 181.623001,12.2480018 181.437,11.894 L177.459,4.478 C177.477,4.67600099 177.492,4.87099904 177.504,5.063 C177.516,5.25500096 177.522,5.43199919 177.522,5.594 L177.522,14 L175.389,14 L175.389,0.986 L177.216,0.986 C177.324001,0.986 177.417,0.98899997 177.495,0.995 C177.573,1.00100003 177.6435,1.01599988 177.7065,1.04 C177.7695,1.06400012 177.8265,1.10299973 177.8775,1.157 C177.9285,1.21100027 177.978,1.28299955 178.026,1.373 L181.923,8.6 C182.025001,8.79200096 182.1195,8.98999898 182.2065,9.194 C182.2935,9.39800102 182.379,9.60799892 182.463,9.824 C182.547,9.60199889 182.634,9.38750104 182.724,9.1805 C182.814,8.97349897 182.909999,8.77400096 183.012,8.582 L186.855,1.373 C186.903,1.28299955 186.954,1.21100027 187.008,1.157 C187.062,1.10299973 187.1205,1.06400012 187.1835,1.04 C187.2465,1.01599988 187.317,1.00100003 187.395,0.995 C187.473,0.98899997 187.565999,0.986 187.674,0.986 L189.501,0.986 Z M203.329,3.353 C203.257,3.47900063 203.1805,3.57049972 203.0995,3.6275 C203.0185,3.68450029 202.918001,3.713 202.798,3.713 C202.671999,3.713 202.535501,3.66650047 202.3885,3.5735 C202.241499,3.48049954 202.066001,3.37700057 201.862,3.263 C201.657999,3.14899943 201.419501,3.04550047 201.1465,2.9525 C200.873499,2.85949954 200.551002,2.813 200.179,2.813 C199.842998,2.813 199.549001,2.8534996 199.297,2.9345 C199.044999,3.01550041 198.833501,3.12799928 198.6625,3.272 C198.491499,3.41600072 198.364,3.588499 198.28,3.7895 C198.196,3.99050101 198.154,4.2109988 198.154,4.451 C198.154,4.75700153 198.239499,5.01199898 198.4105,5.216 C198.581501,5.42000102 198.807999,5.59399928 199.09,5.738 C199.372001,5.88200072 199.692998,6.01099943 200.053,6.125 C200.413002,6.23900057 200.781998,6.36049936 201.16,6.4895 C201.538002,6.61850065 201.906998,6.76849915 202.267,6.9395 C202.627002,7.11050086 202.947999,7.3264987 203.23,7.5875 C203.512001,7.84850131 203.738499,8.16799811 203.9095,8.546 C204.080501,8.92400189 204.166,9.3829973 204.166,9.923 C204.166,10.5110029 204.065501,11.0614974 203.8645,11.5745 C203.663499,12.0875026 203.369502,12.5344981 202.9825,12.9155 C202.595498,13.2965019 202.123003,13.5964989 201.565,13.8155 C201.006997,14.0345011 200.368004,14.144 199.648,14.144 C199.233998,14.144 198.826002,14.1035004 198.424,14.0225 C198.021998,13.9414996 197.636502,13.8260008 197.2675,13.676 C196.898498,13.5259993 196.552002,13.3460011 196.228,13.136 C195.903998,12.925999 195.616001,12.6920013 195.364,12.434 L196.075,11.273 C196.135,11.1889996 196.213,11.1185003 196.309,11.0615 C196.405,11.0044997 196.506999,10.976 196.615,10.976 C196.765001,10.976 196.926999,11.0374994 197.101,11.1605 C197.275001,11.2835006 197.481999,11.4199993 197.722,11.57 C197.962001,11.7200008 198.242498,11.8564994 198.5635,11.9795 C198.884502,12.1025006 199.269998,12.164 199.72,12.164 C200.410003,12.164 200.943998,12.0005016 201.322,11.6735 C201.700002,11.3464984 201.889,10.8770031 201.889,10.265 C201.889,9.92299829 201.803501,9.64400108 201.6325,9.428 C201.461499,9.21199892 201.235001,9.03050074 200.953,8.8835 C200.670999,8.73649927 200.350002,8.61200051 199.99,8.51 C199.629998,8.40799949 199.264002,8.2970006 198.892,8.177 C198.519998,8.0569994 198.154002,7.91300084 197.794,7.745 C197.433998,7.57699916 197.113001,7.35800135 196.831,7.088 C196.548999,6.81799865 196.322501,6.48050203 196.1515,6.0755 C195.980499,5.67049798 195.895,5.17100297 195.895,4.577 C195.895,4.10299763 195.989499,3.64100225 196.1785,3.191 C196.367501,2.74099775 196.641998,2.34200174 197.002,1.994 C197.362002,1.64599826 197.805997,1.36700105 198.334,1.157 C198.862003,0.94699895 199.467997,0.842 200.152,0.842 C200.920004,0.842 201.627997,0.9619988 202.276,1.202 C202.924003,1.4420012 203.475998,1.77799784 203.932,2.21 L203.329,3.353 Z M224.919,9.086 L223.335,4.757 C223.257,4.56499904 223.176,4.33700132 223.092,4.073 C223.008,3.80899868 222.924,3.52400153 222.84,3.218 C222.762,3.52400153 222.681,3.81049867 222.597,4.0775 C222.513,4.34450134 222.432,4.57699901 222.354,4.775 L220.779,9.086 L224.919,9.086 Z M229.194,14 L227.322,14 C227.111999,14 226.941001,13.9475005 226.809,13.8425 C226.676999,13.7374995 226.578,13.6070008 226.512,13.451 L225.54,10.796 L220.149,10.796 L219.177,13.451 C219.129,13.5890007 219.036001,13.7149994 218.898,13.829 C218.759999,13.9430006 218.589001,14 218.385,14 L216.495,14 L221.616,0.986 L224.082,0.986 L229.194,14 Z M238.477,7.178 C238.933002,7.178 239.330498,7.12100057 239.6695,7.007 C240.008502,6.89299943 240.287499,6.73550101 240.5065,6.5345 C240.725501,6.333499 240.888999,6.09500138 240.997,5.819 C241.105001,5.54299862 241.159,5.24000165 241.159,4.91 C241.159,4.2499967 240.941502,3.74300177 240.5065,3.389 C240.071498,3.03499823 239.407004,2.858 238.513,2.858 L236.965,2.858 L236.965,7.178 L238.477,7.178 Z M244.705,14 L242.518,14 C242.103998,14 241.804001,13.8380016 241.618,13.514 L238.882,9.347 C238.779999,9.19099922 238.667501,9.08000033 238.5445,9.014 C238.421499,8.94799967 238.240001,8.915 238,8.915 L236.965,8.915 L236.965,14 L234.544,14 L234.544,0.986 L238.513,0.986 C239.395004,0.986 240.152497,1.07749909 240.7855,1.2605 C241.418503,1.44350092 241.937498,1.69999835 242.3425,2.03 C242.747502,2.36000165 243.045999,2.75449771 243.238,3.2135 C243.430001,3.6725023 243.526,4.17799724 243.526,4.73 C243.526,5.16800219 243.461501,5.58199805 243.3325,5.972 C243.203499,6.36200195 243.017501,6.71599841 242.7745,7.034 C242.531499,7.35200159 242.231502,7.6309988 241.8745,7.871 C241.517498,8.1110012 241.111002,8.29999931 240.655,8.438 C240.811001,8.52800045 240.954999,8.63449939 241.087,8.7575 C241.219001,8.88050062 241.338999,9.02599916 241.447,9.194 L244.705,14 Z M252.548,2.912 L252.548,6.521 L257.102,6.521 L257.102,8.384 L252.548,8.384 L252.548,12.065 L258.326,12.065 L258.326,14 L250.118,14 L250.118,0.986 L258.326,0.986 L258.326,2.912 L252.548,2.912 Z" id="Our-teams-are" fill="#FFFFFF"></path>
                    <path d="M276.5,7.5 L306.5,7.5" id="Line" stroke="#FFFFFF" stroke-width="3" stroke-linecap="square"></path>
                    <path d="M25.5,7.5 L55.5,7.5" id="Line" stroke="#FFFFFF" stroke-width="3" stroke-linecap="square"></path>
                    <path d="M12.66,122.84 C4.86,122.84 2.82,119.24 1.14,112.88 C0.54,110.48 0.9,109.64 2.46,109.52 C5.58,109.4 8.46,109.16 11.46,108.8 C8.82,105.32 8.22,103.52 9.66,101.36 C22.38,82.16 33.42,66.44 45.54,49.52 C43.98,46.64 41.94,43.64 40.38,41.72 C39.3,40.4 38.94,38.72 40.62,38.36 C44.94,37.52 49.5,36.92 54.54,36.92 L59.22,30.44 C60.06,29.36 60.9,29.24 63.9,32.24 C65.94,34.28 67.5,36.32 67.98,38.36 C76.86,40.52 84.78,45.44 88.62,55.28 C92.1,64.28 90.66,74.6 81.54,87.2 C67.38,106.88 38.34,122.84 12.66,122.84 Z M27.18,106.04 C62.22,97.28 81.9,74.24 84.06,59 C80.46,52.76 72.54,50.12 62.82,50 C51.3,68.84 39.06,87.8 27.18,106.04 Z M111.78,64.16 C112.62,64.76 115.14,65.48 116.82,65.48 C118.62,65.48 120.3,65.24 122.22,63.08 C123.66,61.64 127.14,58.4 130.26,55.28 C131.22,54.32 130.62,53.6 129.42,52.64 C128.1,51.44 125.1,49.88 122.58,49.16 C121.62,48.92 120.54,49.64 118.74,51.68 C116.34,54.32 113.58,58.16 111.78,62 C111.3,63.08 111.3,63.8 111.78,64.16 Z M93.3,118.88 C89.82,118.88 88.14,117.68 84.78,114.92 C79.38,110 79.14,107.24 88.14,93.32 C93.18,85.64 99.18,77.36 101.82,74.36 C102.3,73.76 102.78,73.52 103.74,73.52 C106.74,73.52 114.3,74.12 114.3,78.68 C114.3,81.08 111.9,85.28 107.7,91.16 C101.1,100.52 97.14,106.88 95.7,111.2 C100.38,110.72 105.3,107.96 109.62,103.4 C109.86,103.16 110.22,103.16 110.34,103.4 C110.46,103.76 110.58,104.72 110.58,105.2 C110.58,105.68 110.46,106.4 109.62,107.48 C106.5,112.04 99.78,118.88 93.3,118.88 Z M127.02,119.6 C124.02,119.6 119.46,117.32 116.58,115.4 C114.42,113.96 113.1,111.8 114.54,107.84 C117.66,99.2 126.54,83.6 129.66,74.24 C130.02,72.92 130.38,72.2 131.46,72.2 C132.66,72.2 133.98,73.04 136.98,74.12 C140.34,75.32 142.86,76.88 142.86,80.96 C142.86,85.04 140.22,92.12 132.66,105.8 C143.46,97.16 156.06,84.56 165.06,74 C165.9,73.04 166.5,73.28 167.1,74.12 C167.94,75.32 168.06,75.92 166.62,78.08 C161.94,85.04 142.62,108.68 134.82,115.52 C131.58,118.4 129.3,119.6 127.02,119.6 Z M177.18,119 C174.06,119 171.66,118.52 169.62,117.44 C166.02,115.64 162.42,111.8 160.62,107.6 C158.82,103.52 160.5,96.2 165.66,89.24 C172.38,80.36 184.14,73.16 192.3,73.16 C195.54,73.16 198.06,74.24 201.42,79.28 C204.06,81.56 205.62,83.72 205.62,86.48 C205.62,89.36 203.1,93.08 195.42,97.88 C190.98,100.64 184.02,103.64 175.98,106.04 C175.74,107.6 175.62,109.04 175.74,110.48 C177.18,110.96 178.98,111.2 180.78,111.2 C190.38,111.2 201.9,104.84 210.54,93.32 L210.9,92.84 C211.74,91.76 211.98,91.64 212.34,92 L212.7,92.36 C213.54,93.2 213.42,93.8 212.94,94.64 L212.58,95.24 C204.78,108.32 189.18,119 177.18,119 Z M191.58,93.08 C196.86,89.24 198.54,86.12 198.3,82.64 C190.86,84.44 182.22,92 178.14,100.28 C183.42,98.12 188.7,95.36 191.58,93.08 Z M212.58,118.28 C210.78,118.28 208.74,117.44 206.1,115.64 C203.34,113.72 202.14,112.16 202.14,109.52 C202.14,105.44 204.78,101 210.54,93.32 C217.86,83.48 222.9,75.68 224.46,72.68 C224.82,71.96 225.42,71.72 226.86,71.84 C229.02,71.96 231.78,72.68 233.34,73.52 C235.02,74.48 236.1,76.16 234.78,81.44 C241.38,75.8 247.38,72.08 254.1,68.24 C256.26,67.04 257.34,66.44 257.94,66.44 C258.9,66.44 259.26,68.36 259.26,69.56 C259.26,70.76 258.42,71.48 256.98,72.56 C245.7,80.72 234.18,91.64 220.38,110.48 C215.22,117.56 214.5,118.28 212.58,118.28 Z M268.26,109.16 C268.26,113.12 266.22,117.08 261.78,120.44 C259.14,122.36 256.02,123.8 252.06,123.8 C247.98,123.8 244.98,122.36 242.34,120.08 C240.18,118.16 239.7,116.36 240.9,116 C247.86,113.72 258.3,106.76 258.3,100.76 C258.3,96.44 251.34,94.64 251.34,87.44 C251.34,76.28 264.42,74.84 272.34,69.8 C273.06,69.2 274.38,69.56 276.18,71.84 C278.82,75.2 279.54,77.96 279.54,79.52 C279.54,83.72 275.82,86.36 267.9,89.12 C263.46,90.68 261.06,91.76 261.06,94.16 C261.06,98.12 268.26,101.12 268.26,109.16 Z M293.34,120.08 C288.78,120.08 285.06,118.4 279.9,112.28 C275.7,107.36 274.14,99.68 282.9,88.16 C289.14,80 300.06,73.16 307.86,73.16 C310.26,73.16 312.18,74 313.98,75.2 C315.78,76.4 316.74,77 317.82,78.56 C320.1,80.36 321.9,83.12 321.9,85.64 C321.9,89.24 319.74,92.72 311.7,97.88 C307.5,100.52 301.02,103.4 292.5,106.28 C292.02,108.56 292.02,110.48 292.86,111.68 C293.94,112.04 295.14,112.16 296.46,112.16 C303.3,112.16 310.5,110.24 319.02,103.28 C319.5,102.92 319.74,102.8 319.98,102.8 C320.46,102.8 320.58,103.28 320.58,104 C320.58,105.2 320.1,107.36 319.02,108.44 C312.18,115.88 302.46,120.08 293.34,120.08 Z M308.34,93.2 C312.78,89.96 315.66,86 314.46,81.8 C307.86,83.24 298.98,92.12 294.78,100.4 C300.18,98.12 305.1,95.6 308.34,93.2 Z" id="Diverse" fill="url(#linearGradient-1)"></path>
                </g>
            </g>
        </g>
    </g>
</svg>