<?xml version="1.0" encoding="UTF-8"?>
<svg width="188px" height="201px" viewBox="0 0 188 201" version="1.1" xmlns="http://www.w3.org/2000/svg" xmlns:xlink="http://www.w3.org/1999/xlink">
    <!-- Generator: Sketch 45 (43475) - http://www.bohemiancoding.com/sketch -->
    <title>high-five</title>
    <desc>Created with Sketch.</desc>
    <defs></defs>
    <g id="Page-1" stroke="none" stroke-width="1" fill="none" fill-rule="evenodd">
        <g id="Desktop-HD" transform="translate(-328.000000, -984.000000)" fill-rule="nonzero" fill="#000000">
            <g id="high-five" transform="translate(328.000000, 984.500000)">
                <path d="M93.71875,0 C91.4882812,0 89.6800781,1.80820313 89.6800781,4.03867188 L89.6800781,24.5878906 C89.6796875,26.81875 91.4882812,28.6269531 93.71875,28.6269531 C95.9492188,28.6269531 97.7574219,26.81875 97.7574219,24.5882812 L97.7574219,4.03867188 C97.7570312,1.80820313 95.9492188,0 93.71875,0 Z" id="Shape"></path>
                <path d="M82.5289063,21.7320312 L67.9980469,7.2015625 C66.4207031,5.62460937 63.8636719,5.62421875 62.2863281,7.20195312 C60.7089844,8.77890625 60.7089844,11.3363281 62.2863281,12.9136719 L76.8171875,27.4441406 C78.3941406,29.0207031 80.9515625,29.0214844 82.5289063,27.44375 C84.10625,25.8667969 84.10625,23.309375 82.5289063,21.7320312 Z" id="Shape"></path>
                <path d="M125.25,7.20195313 C123.673047,5.62460938 121.116016,5.62460938 119.538281,7.2015625 L105.007422,21.7320312 C103.430078,23.309375 103.430078,25.8667969 105.007422,27.44375 C106.584375,29.0210937 109.141797,29.0214844 110.719141,27.4441406 L125.25,12.9136719 C126.827344,11.3363281 126.827344,8.77890625 125.25,7.20195313 Z" id="Shape"></path>
                <path d="M93.71875,77.9492188 C91.4882812,77.9492188 89.6800781,79.7574219 89.6800781,81.9878906 L89.6800781,102.5375 C89.6800781,104.767969 91.4882812,106.576172 93.71875,106.576172 C95.9492188,106.576172 97.7574219,104.767969 97.7574219,102.5375 L97.7574219,81.9878906 C97.7570313,79.7574219 95.9492188,77.9492188 93.71875,77.9492188 Z" id="Shape"></path>
                <path d="M82.5289063,79.1324219 C80.9519531,77.5554688 78.3949219,77.5550781 76.8171875,79.1320313 L62.2863281,93.6625 C60.7089844,95.2398438 60.7089844,97.7972656 62.2863281,99.3742188 C63.8632812,100.951563 66.4203125,100.951953 67.9980469,99.3746094 L82.5289063,84.8441406 C84.10625,83.2667969 84.10625,80.709375 82.5289063,79.1324219 Z" id="Shape"></path>
                <path d="M125.25,93.6625 L110.719141,79.1320312 C109.141797,77.5550781 106.584766,77.5546875 105.007422,79.1324219 C103.430078,80.709375 103.430078,83.2667969 105.007422,84.8441406 L119.538281,99.3746094 C121.115234,100.951172 123.672656,100.951953 125.25,99.3742188 C126.827344,97.7972656 126.827344,95.2398437 125.25,93.6625 Z" id="Shape"></path>
                <circle id="Oval" cx="150.151172" cy="38.4261719" r="17.8425781"></circle>
                <path d="M186.328516,88.5804688 L170.108984,63.8671875 C168.846094,61.9425781 166.698828,60.7832031 164.396875,60.7832031 C160.297266,60.7832031 139.99375,60.7832031 136.85625,60.7832031 L113.334766,58.0335938 L104.868359,37.809375 C103.410937,34.3277344 99.4078125,32.6867188 95.9273437,34.1453125 C95.0878906,34.496875 94.3585937,34.9988281 93.7507812,35.603125 C93.1429687,34.9988281 92.4140625,34.4964844 91.5742187,34.1453125 C88.0929687,32.6875 84.0902344,34.328125 82.6332031,37.809375 L74.1667969,58.0335938 L50.6453125,60.7832031 C47.61875,60.7832031 26.5828125,60.7832031 23.1046875,60.7832031 C20.8027344,60.7832031 18.6554687,61.9425781 17.3925781,63.8667969 L1.17304687,88.5804688 C0.233984375,90.0109375 -0.133984375,91.7421875 0.141796875,93.4304688 L4.928125,122.751563 C5.53632812,126.477344 9.0484375,129.002344 12.7722656,128.394531 C16.4964844,127.786719 19.0230469,124.274609 18.4148437,120.550391 L14.0570312,93.8546875 L19.4214844,85.6808594 C19.4214844,103.397656 19.2726562,133.805859 19.2726562,151.517969 L11.3867188,190.160156 C10.48125,194.596875 13.3441406,198.928125 17.78125,199.833203 C22.2261719,200.738672 26.55,197.869141 27.4539063,193.438672 L35.5042969,153.985156 C35.6144531,153.445703 35.6699219,152.896484 35.6699219,152.345703 L35.6699219,126.2625 L39.2097656,126.2625 L39.2097656,191.798828 C39.2097656,196.326953 42.8808594,199.998047 47.4089844,199.998047 C51.9371094,199.998047 55.6082031,196.326953 55.6082031,191.798828 C55.6082031,184.532422 55.6113281,73.9605469 55.6113281,73.9605469 L79.7191406,71.1417969 C82.1695312,70.8550781 84.2753906,69.2695312 85.2285156,66.99375 L93.75,46.6382813 L102.271484,66.99375 C103.224219,69.2699219 105.330469,70.8550781 107.780859,71.1417969 L131.888672,73.9605469 C131.888672,73.9605469 131.891797,184.532422 131.891797,191.798828 C131.891797,196.326953 135.562891,199.998047 140.091016,199.998047 C144.619141,199.998047 148.290234,196.326953 148.290234,191.798828 L148.290234,126.2625 L151.830078,126.2625 L151.830078,152.345703 C151.830078,152.896484 151.885547,153.445313 151.995703,153.985156 L160.046484,193.438672 C160.951562,197.873438 165.279687,200.738281 169.719141,199.833203 C174.155859,198.927734 177.019141,194.596875 176.113672,190.160156 L168.228906,151.518359 C168.228906,140.519141 168.080469,114.239063 168.080469,85.6808594 L173.444922,93.8546875 L169.087109,120.550781 C168.479297,124.275 171.005469,127.786719 174.729687,128.394922 C178.454297,129.002344 181.966016,126.476172 182.573828,122.751953 L187.360156,93.4308594 C187.635547,91.7421875 187.267578,90.0109375 186.328516,88.5804688 Z" id="Shape"></path>
                <circle id="Oval" cx="37.3453125" cy="38.4261719" r="17.8425781"></circle>
            </g>
        </g>
    </g>
</svg>