<?xml version="1.0" encoding="UTF-8"?>
<svg width="92px" height="199px" viewBox="0 0 92 199" version="1.1" xmlns="http://www.w3.org/2000/svg" xmlns:xlink="http://www.w3.org/1999/xlink">
    <!-- Generator: Sketch 45 (43475) - http://www.bohemiancoding.com/sketch -->
    <title>man-thinking</title>
    <desc>Created with Sketch.</desc>
    <defs></defs>
    <g id="Page-1" stroke="none" stroke-width="1" fill="none" fill-rule="evenodd">
        <g id="Desktop-HD" transform="translate(-930.000000, -1267.000000)" fill-rule="nonzero" fill="#000000">
            <g id="man-thinking" transform="translate(930.000000, 1267.000000)">
                <g id="Group" transform="translate(64.150943, 7.547170)">
                    <g id="Shape">
                        <path d="M5.25471698,21.0075472 C4.83962264,21.0075472 4.48113208,20.7679245 4.45849057,20.4735849 C4.43584906,20.1792453 4.45283019,19.6018868 4.49622642,19.190566 C4.49622642,19.190566 4.90943396,15.3075472 6.95849057,12.8490566 C8.80377358,10.6773585 9.82830189,9.07735849 9.82830189,7.23207547 C9.82830189,5.14150943 8.51698113,3.74528302 5.93584906,3.70566038 C4.46037736,3.70566038 2.82075472,4.19811321 1.79433962,4.97735849 L1.08113208,3.1 C0.933962264,2.71132075 1.12264151,2.25660377 1.50188679,2.08867925 C1.50188679,2.08867925 4.50188679,0.754716981 6.67358491,0.754716981 C11.3886792,0.754716981 13.5207547,3.66603774 13.5207547,6.77924528 C13.5207547,9.56792453 11.9641509,11.5773585 9.99622642,13.9132075 C8.19245283,16.045283 7.53584906,17.8490566 7.66037736,19.9396226 L7.67169811,20.2528302 C7.68679245,20.6679245 7.36037736,21.0075472 6.94528302,21.0075472 L5.25471698,21.0075472 L5.25471698,21.0075472 Z"></path>
                        <path d="M6.94150943,21.7622642 L5.25471698,21.7622642 C4.43962264,21.7622642 3.76037736,21.2226415 3.70566038,20.5339623 C3.67924528,20.1886792 3.69811321,19.5641509 3.74528302,19.1113208 C3.76415094,18.9433962 4.20943396,14.9716981 6.37924528,12.3679245 C8.08679245,10.3566038 9.07358491,8.87358491 9.07358491,7.23396226 C9.07358491,4.98490566 7.36037736,4.48490566 5.9245283,4.46226415 C4.61320755,4.46226415 3.13207547,4.91132075 2.2490566,5.58113208 L1.44528302,6.19056604 L0.373584906,3.36981132 C0.0867924528,2.61320755 0.454716981,1.72830189 1.19433962,1.4 C1.32264151,1.33962264 4.36603774,0 6.67358491,0 C11.9245283,0 14.2735849,3.40566038 14.2735849,6.77924528 C14.2735849,9.76603774 12.6698113,11.909434 10.5716981,14.4 C8.94339623,16.3245283 8.29811321,17.9660377 8.41132075,19.8962264 L8.4245283,20.2245283 C8.43773585,20.6339623 8.29245283,21.0188679 8.00943396,21.3113208 C7.72830189,21.6018868 7.3490566,21.7622642 6.94150943,21.7622642 Z M5.20377358,20.2245283 L6.91509434,20.2528302 L6.90377358,19.9698113 C6.76792453,17.6339623 7.51886792,15.6716981 9.41886792,13.4264151 C11.3773585,11.1 12.7641509,9.26037736 12.7641509,6.77924528 C12.7641509,4.23018868 11.1641509,1.50943396 6.67169811,1.50943396 C4.68867925,1.50943396 1.83396226,2.76603774 1.80566038,2.77735849 L2.18867925,3.84528302 C3.27358491,3.28867925 4.6509434,2.9509434 5.93584906,2.9509434 C8.80566038,2.99622642 10.5830189,4.63584906 10.5830189,7.23207547 C10.5830189,9.33584906 9.46603774,11.0622642 7.53396226,13.3358491 C5.65849057,15.5867925 5.2509434,19.2320755 5.24716981,19.2698113 C5.21698113,19.5622642 5.19811321,19.9471698 5.20377358,20.2245283 Z"></path>
                    </g>
                    <g transform="translate(1.886792, 22.641509)" id="Shape">
                        <path d="M1.71132075,4.10377358 C1.71132075,2.58679245 2.73584906,1.52264151 4.17169811,1.52264151 C5.60566038,1.52264151 6.59056604,2.58679245 6.59056604,4.10377358 C6.59056604,5.53962264 5.64716981,6.64716981 4.12830189,6.64716981 C2.69433962,6.64528302 1.71132075,5.53962264 1.71132075,4.10377358 Z"></path>
                        <path d="M4.12830189,7.4 C2.32075472,7.4 0.956603774,5.98301887 0.956603774,4.10188679 C0.956603774,2.16981132 2.30943396,0.766037736 4.17169811,0.766037736 C6.01132075,0.766037736 7.34528302,2.16981132 7.34528302,4.10188679 C7.34716981,6.01509434 5.99433962,7.4 4.12830189,7.4 Z M4.17169811,2.27735849 C3.1509434,2.27735849 2.46603774,3.01132075 2.46603774,4.10377358 C2.46603774,5.15660377 3.1490566,5.89245283 4.12830189,5.89245283 C5.16603774,5.89245283 5.83584906,5.19056604 5.83584906,4.10377358 C5.83773585,2.99433962 5.18490566,2.27735849 4.17169811,2.27735849 Z"></path>
                    </g>
                </g>
                <g id="Group">
                    <path d="M7.93207547,94.2603774 L35.445283,87.1660377 C38.1301887,86.4735849 40.7169811,83.9396226 41.4603774,81.2698113 L48.3716981,56.5283019 C48.7924528,55.0226415 48.5490566,53.4811321 47.7,52.2962264 C46.8528302,51.109434 45.4698113,50.3792453 43.9056604,50.290566 L40.9528302,50.1339623 C38.1,50.1339623 35.3283019,52.1698113 34.5037736,54.8679245 L29.9867925,69.6396226 C29.5735849,70.9886792 27.9490566,72.5188679 26.5754717,72.8528302 L6.14150943,76.8132075 C3.29811321,77.5037736 1.00754717,80.3339623 0.926415094,83.254717 C0.926415094,83.254717 0.667924528,92.190566 1.54716981,93.0962264 C2.38867925,93.9603774 3.55471698,94.890566 7.93207547,94.2603774 Z" id="Shape"></path>
                    <path d="M26.2415094,65.6018868 C27.0773585,65.6018868 27.8981132,65.5358491 28.709434,65.4377358 L32.1603774,54.1509434 C33.2867925,50.4622642 37.0679245,47.6811321 40.954717,47.6811321 L44.0377358,47.8396226 C44.8754717,47.8867925 45.6603774,48.1018868 46.4075472,48.390566 C46.5773585,47.3339623 46.6886792,46.2584906 46.6886792,45.154717 C46.6886792,33.8811321 37.5169811,24.709434 26.2433962,24.709434 C14.9698113,24.709434 5.79811321,33.8811321 5.79811321,45.154717 C5.79811321,56.4283019 14.9679245,65.6018868 26.2415094,65.6018868 Z" id="Shape"></path>
                    <path d="M71.3150943,0 C60.045283,0 50.8754717,10.1245283 50.8754717,22.5679245 C50.8754717,28.1603774 52.7377358,33.2754717 55.8018868,37.2226415 C55.6433962,37.3490566 55.4886792,37.4867925 55.3735849,37.6679245 L51.1698113,44.2698113 C50.6113208,45.1490566 50.8698113,46.3150943 51.7490566,46.8754717 C52.0622642,47.0754717 52.4132075,47.1698113 52.7603774,47.1698113 C53.3849057,47.1698113 53.9943396,46.8603774 54.354717,46.2962264 L58.3584906,40.0056604 C61.8886792,43.2075472 66.4018868,45.1339623 71.3150943,45.1339623 C82.5867925,45.1339623 91.7566038,35.009434 91.7566038,22.5660377 C91.7566038,10.1226415 82.5867925,0 71.3150943,0 Z M71.3150943,41.3622642 C62.1245283,41.3622642 54.6490566,32.9320755 54.6490566,22.5679245 C54.6490566,12.2037736 62.1245283,3.77358491 71.3150943,3.77358491 C80.5056604,3.77358491 87.9830189,12.2037736 87.9830189,22.5679245 C87.9830189,32.9320755 80.5056604,41.3622642 71.3150943,41.3622642 Z" id="Shape"></path>
                    <path d="M52.1037736,74.2509434 C50.9660377,72.6660377 48.9679245,71.4169811 46.9283019,70.8169811 L43.8226415,81.9320755 C42.845283,85.4320755 39.5811321,88.6339623 36.0584906,89.5433962 L8.54339623,96.6377358 C7.23584906,96.8396226 6.29245283,96.9207547 5.39056604,96.9207547 C5.14528302,96.9207547 4.92641509,96.9037736 4.7,96.890566 L4.7,132.898113 L4.7,133.84717 L4.7,188.877358 C4.7,194.079245 8.93207547,198.311321 14.1339623,198.311321 L14.8,198.311321 C20.0018868,198.311321 24.2339623,194.079245 24.2339623,188.877358 L24.2339623,139.50566 L28.245283,139.50566 L28.245283,188.875472 C28.245283,194.077358 32.4773585,198.309434 37.6792453,198.309434 L38.3433962,198.309434 C43.545283,198.309434 47.7773585,194.077358 47.7773585,188.875472 L47.7773585,133.845283 L47.7773585,132.896226 L47.7773585,132.669811 L48.3698113,132.669811 C51.1037736,132.669811 54.2962264,130.803774 55.6396226,128.420755 L68.7377358,105.167925 C70.109434,102.735849 69.9075472,99.054717 68.2792453,96.7886792 L52.1037736,74.2509434 Z M54.0924528,104.790566 L47.7792453,115.075472 L47.7792453,91.6603774 L53.9698113,100.543396 C54.7283019,101.633962 54.7886792,103.658491 54.0924528,104.790566 Z" id="Shape"></path>
                </g>
            </g>
        </g>
    </g>
</svg>