<?xml version="1.0" encoding="UTF-8"?>
<svg width="200px" height="191px" viewBox="0 0 200 191" version="1.1" xmlns="http://www.w3.org/2000/svg" xmlns:xlink="http://www.w3.org/1999/xlink">
    <!-- Generator: Sketch 45 (43475) - http://www.bohemiancoding.com/sketch -->
    <title>medal-2</title>
    <desc>Created with Sketch.</desc>
    <defs></defs>
    <g id="Page-1" stroke="none" stroke-width="1" fill="none" fill-rule="evenodd">
        <g id="Desktop-HD" transform="translate(-876.000000, -671.000000)" fill-rule="nonzero" fill="#000000">
            <g id="medal-2" transform="translate(876.000000, 671.000000)">
                <path d="M198.748437,31.5644531 L168.490625,1.30820313 C167.689062,0.50703125 166.602344,0.056640625 165.46875,0.056640625 L34.53125,0.056640625 C33.3980469,0.056640625 32.3105469,0.50703125 31.509375,1.30820313 L1.25195312,31.5644531 C-0.18046875,32.9972656 -0.410546875,35.2386719 0.7015625,36.9324219 L63.9949219,133.315234 C61.4671875,138.553125 60.0496094,144.423828 60.0496094,150.619141 C60.0496094,172.647266 77.9710937,190.56875 99.9988281,190.56875 C122.026562,190.56875 139.948047,172.646875 139.948047,150.619141 C139.948047,144.424609 138.530859,138.555078 136.003906,133.317578 L199.299219,36.9324219 C200.410937,35.2386719 200.180859,32.9972656 198.748437,31.5644531 Z M36.3011719,8.60390625 L163.698438,8.60390625 L185.408984,30.3148438 L155.153906,30.3148438 C155.123828,30.3148438 155.094141,30.3140625 155.064063,30.3148438 L44.9363281,30.3148438 C44.9050781,30.3140625 44.8738281,30.3148438 44.8433594,30.3148438 L14.5910156,30.3148438 L36.3011719,8.60390625 Z M147.228516,38.8613281 L100.066016,110.670703 C100.04375,110.670703 100.021484,110.669922 99.9988281,110.669922 C99.9769531,110.669922 99.9558594,110.670703 99.934375,110.670703 L52.7710937,38.8613281 L147.228516,38.8613281 Z M12.19375,38.8613281 L42.5457031,38.8613281 L90.4652344,111.821875 C81.9109375,113.924609 74.4320313,118.788281 69.0300781,125.411719 L12.19375,38.8613281 Z M99.9988281,182.022266 C82.6835938,182.022266 68.596875,167.935156 68.596875,150.619531 C68.596875,133.303906 82.6839844,119.217578 99.9988281,119.217578 C117.314063,119.217578 131.401172,133.304688 131.401172,150.619922 C131.401172,167.935156 117.314063,182.022266 99.9988281,182.022266 Z M130.96875,125.414063 C125.567578,118.790234 118.088281,113.926172 109.534375,111.823047 L157.453906,38.8613281 L187.805859,38.8613281 L130.96875,125.414063 Z" id="Shape"></path>
                <path d="M101.450391,134.978906 L94.6609375,134.978906 C92.3007812,134.978906 90.3875,136.892578 90.3875,139.252344 C90.3875,141.612109 92.3007812,143.525781 94.6609375,143.525781 L97.1765625,143.525781 L97.1765625,166.635547 C97.1765625,168.995312 99.0898437,170.908984 101.45,170.908984 C103.810156,170.908984 105.723437,168.995312 105.723437,166.635547 L105.723437,139.252344 C105.723828,136.892188 103.810547,134.978906 101.450391,134.978906 Z" id="Shape"></path>
            </g>
        </g>
    </g>
</svg>