<?xml version="1.0" encoding="UTF-8" standalone="no"?>
<svg width="201px" height="61px" viewBox="0 0 201 61" version="1.1" xmlns="http://www.w3.org/2000/svg" xmlns:xlink="http://www.w3.org/1999/xlink">
    <!-- Generator: Sketch 45.1 (43504) - http://www.bohemiancoding.com/sketch -->
    <title>NBTC Theme Logos - Light</title>
    <desc>Created with Sketch.</desc>
    <defs></defs>
    <g id="Page-2" stroke="none" stroke-width="1" fill="none" fill-rule="evenodd">
        <g id="Desktop-HD" transform="translate(-37.000000, -87.000000)">
            <g id="NBTC-Theme-Logos---Light" transform="translate(39.000000, 87.000000)">
                <g id="Group-2" transform="translate(63.698630, 41.976661)" fill-rule="nonzero" fill="#FFFFFF">
                    <polygon id="_Compound_Path_" points="3.89467465 12.800528 3.89467465 18.0396897 2.22090586 18.0396897 2.22090586 12.800528 0.261802148 12.800528 0.261802148 11.4368339 5.85083676 11.4368339 5.85083676 12.800528 3.89173305 12.800528"></polygon>
                    <polygon id="_Compound_Path_2" points="6.37149946 18.0396897 6.37149946 11.4396341 11.0368726 11.4396341 11.0368726 12.7809267 7.9923195 12.7809267 7.9923195 14.0242125 10.8721431 14.0242125 10.8721431 15.3011006 7.9923195 15.3011006 7.9923195 16.6731953 11.2280764 16.6731953 11.2280764 18.0312891 6.37149946 18.0312891"></polygon>
                    <path d="M17.0524388,17.9248817 C16.5607992,18.1232599 16.0301189,18.2187552 15.4963339,18.2049011 C14.9890115,18.2095472 14.4852289,18.12408 14.0108273,17.9528837 C13.1198107,17.6316557 12.4091177,16.9723689 12.048782,16.132758 C11.6657824,15.2165643 11.6657824,14.1955548 12.048782,13.2793611 C12.2303508,12.8649341 12.5020316,12.4917946 12.8459548,12.1844855 C13.1918306,11.8793429 13.5977237,11.6423749 14.0402433,11.4872374 C14.5117376,11.3249656 15.0096879,11.2434352 15.5110419,11.2464207 C16.0049194,11.2470461 16.4948226,11.3304589 16.9583077,11.4928377 C17.3998841,11.6368468 17.7956948,11.8854663 18.1084721,12.2152876 L16.970074,13.2989624 C16.8151984,13.0933373 16.6019246,12.9340285 16.3552802,12.8397307 C16.1067007,12.7438148 15.8410395,12.6943775 15.5728154,12.6941207 C15.2948888,12.6917203 15.0194539,12.7441592 14.7638762,12.8481313 C14.524779,12.9462069 14.3094851,13.0901449 14.1314328,13.2709605 C13.9516316,13.4571619 13.8117413,13.674983 13.7196092,13.9122047 C13.6189696,14.1701434 13.5691109,14.4435246 13.5725293,14.7186604 C13.5687443,14.9992963 13.618581,15.2782498 13.7196092,15.5419172 C13.8099833,15.7778533 13.947876,15.9947244 14.1255496,16.1803613 C14.3010886,16.3580599 14.5134325,16.499174 14.7491682,16.5947899 C14.9998525,16.6976266 15.2704486,16.7491443 15.5433994,16.7460004 C15.8493795,16.7543719 16.1527131,16.6898839 16.4258786,16.5583874 C16.6603868,16.4447642 16.8623081,16.2784984 17.014198,16.073954 L18.1908369,17.1184261 C17.8777377,17.4631019 17.4891789,17.7383619 17.0524388,17.9248817 Z" id="_Compound_Path_3"></path>
                    <polygon id="_Compound_Path_4" points="23.038589 18.0396897 23.038589 15.2786991 20.3470276 15.2786991 20.3470276 18.0396897 18.6732588 18.0396897 18.6732588 11.4396341 20.3470276 11.4396341 20.3470276 13.9374065 23.0503554 13.9374065 23.0503554 11.4396341 24.7270658 11.4396341 24.7270658 18.0396897 23.0503554 18.0396897"></polygon>
                    <polygon id="_Compound_Path_5" points="30.319042 18.0396897 27.5274663 13.7217916 27.4980503 13.7217916 27.5392327 18.0396897 25.9125294 18.0396897 25.9125294 11.4396341 27.821626 11.4396341 30.6043769 15.7463314 30.6426177 15.7463314 30.6014353 11.4396341 32.2281385 11.4396341 32.2281385 18.0396897"></polygon>
                    <path d="M40.644048,14.7102598 C40.6480384,15.2021067 40.5479989,15.6896873 40.3498883,16.1439588 C40.1728384,16.5659697 39.9041993,16.9476495 39.5615403,17.2640361 C39.2162246,17.5767397 38.8079627,17.8196376 38.3613686,17.9780854 C37.8786461,18.1487682 37.3672583,18.2341726 36.8523293,18.2301028 C36.3392589,18.2348189 35.8296776,18.1493831 35.3491731,17.9780854 C34.9046728,17.8189661 34.4984708,17.5761033 34.1548847,17.2640361 C33.8129692,16.9470594 33.5444427,16.5655395 33.3665366,16.1439588 C33.1693442,15.6894239 33.0693413,15.2020219 33.0723769,14.7102598 C33.0676584,14.2183489 33.1677261,13.7306309 33.3665366,13.2765609 C33.5453095,12.8660455 33.8140812,12.496588 34.1548847,12.1928861 C34.4998995,11.888689 34.9062023,11.6543397 35.3491731,11.5040385 C35.8313709,11.3399567 36.3402746,11.2584266 36.8523293,11.2632219 C37.3662365,11.259225 37.8769264,11.3407223 38.3613686,11.5040385 C38.8069214,11.6553229 39.2153235,11.8916341 39.5615403,12.1984865 C39.9033903,12.5013273 40.1723304,12.8710162 40.3498883,13.2821613 C40.5485454,13.7343132 40.648623,14.2201741 40.644048,14.7102598 L40.644048,14.7102598 Z M38.8526154,14.7102598 C38.8544653,14.4370697 38.8046444,14.165793 38.7055355,13.9094046 C38.6163551,13.6729256 38.4783276,13.4558424 38.2995951,13.2709605 C38.1230968,13.0909499 37.9099031,12.9470779 37.6730349,12.8481313 C37.4174825,12.7440813 37.1420303,12.6916391 36.8640957,12.6941207 C36.5880251,12.6912654 36.3144125,12.743739 36.0610396,12.8481313 C35.8253061,12.9489761 35.6124838,13.0925975 35.4344794,13.2709605 C35.2538812,13.4545027 35.1156073,13.6719734 35.028539,13.9094046 C34.9322882,14.1663558 34.8844878,14.4374751 34.8873424,14.7102598 C34.8838502,14.9917865 34.9336727,15.2716089 35.0344222,15.5363169 C35.1241765,15.7758856 35.2620531,15.9965359 35.4403626,16.1859617 C35.6141044,16.3677086 35.8267545,16.5118907 36.0639812,16.6087909 C36.5768645,16.8176876 37.15721,16.8176876 37.6700933,16.6087909 C37.90725,16.51033 38.1205411,16.3663922 38.2966535,16.1859617 C38.4778108,15.9975423 38.6178,15.7767117 38.7084771,15.5363169 C38.8073073,15.2712071 38.8561049,14.991548 38.8526154,14.7102598 Z" id="_Compound_Path_6"></path>
                    <polygon id="_Compound_Path_7" points="41.5265272 18.0396897 41.5265272 11.4396341 43.2091208 11.4396341 43.2091208 16.653594 45.894799 16.653594 45.894799 18.0536906 41.5265272 18.0536906"></polygon>
                    <path d="M53.6694403,14.7102598 C53.6734307,15.2021067 53.5733911,15.6896873 53.3752806,16.1439588 C53.1983882,16.5660488 52.9297283,16.9477582 52.5869325,17.2640361 C52.2429347,17.5769759 51.8355765,17.8199316 51.3897025,17.9780854 C50.907032,18.1489508 50.3956086,18.2343612 49.8806631,18.2301028 C49.3666278,18.2349072 48.8560653,18.1494741 48.3745654,17.9780854 C47.930065,17.8189661 47.523863,17.5761033 47.1802769,17.2640361 C46.8374811,16.9477582 46.5688212,16.5660488 46.3919289,16.1439588 C46.1948878,15.6893806 46.094891,15.2020078 46.0977692,14.7102598 C46.0934565,14.2183846 46.1935084,13.7307432 46.3919289,13.2765609 C46.5694868,12.8654158 46.8384269,12.4957269 47.1802769,12.1928861 C47.5269721,11.8879797 47.9353516,11.6535872 48.3804486,11.5040385 C48.8636379,11.3398597 49.3735246,11.2583317 49.8865463,11.2632219 C50.4004535,11.259225 50.9111435,11.3407223 51.3955857,11.5040385 C51.8403438,11.6551632 52.2478158,11.8915155 52.5928157,12.1984865 C52.9346658,12.5013273 53.2036058,12.8710162 53.3811637,13.2821613 C53.5778054,13.7347138 53.6758785,14.22056 53.6694403,14.7102598 L53.6694403,14.7102598 Z M51.875066,14.7102598 C51.876916,14.4370697 51.8270951,14.165793 51.7279861,13.9094046 C51.6380959,13.673248 51.500149,13.4562915 51.3220457,13.2709605 C51.145493,13.0910092 50.932313,12.9471463 50.6954855,12.8481313 C50.4408933,12.7443052 50.1664494,12.6918643 49.8894879,12.6941207 C49.6124693,12.6912895 49.3379022,12.743754 49.0834903,12.8481313 C48.847376,12.9483414 48.6344313,13.0920455 48.4569301,13.2709605 C48.2762622,13.4544524 48.1379789,13.671938 48.0509897,13.9094046 C47.9536171,14.1661535 47.9048164,14.4372982 47.9068514,14.7102598 C47.9043056,14.9917154 47.9540999,15.2713793 48.0539313,15.5363169 C48.1432031,15.7761013 48.2811328,15.9968365 48.4598717,16.1859617 C48.6326393,16.3675137 48.8442876,16.5116967 49.0805487,16.6087909 C49.5947009,16.8165339 50.1754501,16.8165339 50.6896023,16.6087909 C50.9265524,16.5099819 51.1397736,16.3660913 51.3161625,16.1859617 C51.4973199,15.9975423 51.637309,15.7767117 51.7279861,15.5363169 C51.8278175,15.2713793 51.8776119,14.9917154 51.875066,14.7102598 L51.875066,14.7102598 Z" id="_Compound_Path_8"></path>
                    <path d="M59.5114522,18.0508904 C59.0293318,18.1578264 58.5356801,18.2104576 58.0406537,18.2077012 C57.5179838,18.2126827 56.998706,18.1272922 56.5080815,17.9556839 C56.0609326,17.7992367 55.6516773,17.5582482 55.3049683,17.247235 C54.9652607,16.9365948 54.6959672,16.5630314 54.5136787,16.1495592 C54.1332756,15.230959 54.1332756,14.209162 54.5136787,13.2905618 C54.695397,12.875509 54.9681933,12.5022148 55.3137931,12.1956863 C55.6568692,11.8926012 56.0598397,11.6574919 56.4992567,11.5040385 C56.9707192,11.3416521 57.4686911,11.2601182 57.9700553,11.2632219 C58.4905774,11.2574753 59.0081784,11.338016 59.4996859,11.5012383 C59.9243764,11.6362057 60.3150209,11.8536043 60.6469087,12.1396824 L59.5879338,13.2877616 C59.4066112,13.0993422 59.1862688,12.9487032 58.9407824,12.8453311 C58.6535748,12.7288363 58.3439955,12.6706597 58.0318289,12.6745193 C57.7518601,12.6706748 57.4741944,12.7231568 57.2170065,12.8285299 C56.9737538,12.9279042 56.754499,13.0737189 56.5727967,13.2569595 C56.3857346,13.4452743 56.2397612,13.6670334 56.1433235,13.9094046 C56.0384219,14.1780665 55.9865639,14.4628653 55.9903604,14.7494625 C55.9870271,15.0348538 56.033754,15.3187736 56.1286155,15.5895205 C56.213724,15.8336405 56.3520589,16.0578867 56.5345559,16.2475659 C56.7208556,16.4346244 56.9477113,16.5808211 57.1993569,16.6759955 C57.4892365,16.7820929 57.7977763,16.8343711 58.1083104,16.8300062 C58.29452,16.8303576 58.480452,16.8163104 58.6642723,16.7880033 C58.8333797,16.7618981 58.9984037,16.7158055 59.155519,16.6507938 L59.155519,15.4243091 L57.8347419,15.4243091 L57.8347419,14.1390204 L60.6939743,14.1390204 L60.6939743,17.6336616 C60.3193874,17.8186358 59.9221957,17.9587768 59.5114522,18.0508904 L59.5114522,18.0508904 Z" id="_Compound_Path_9"></path>
                    <polygon id="_Compound_Path_10" points="65.2093259 15.2450968 65.2093259 18.04529 63.5355572 18.04529 63.5355572 15.2450968 60.9410685 11.4396341 62.9707705 11.4396341 64.4415691 13.8842028 65.9123677 11.4396341 67.8714714 11.4396341"></polygon>
                    <path d="M75.3401866,17.9248817 C74.8485737,18.123344 74.3178741,18.2188428 73.7840817,18.2049011 C73.2767766,18.2093509 72.7730317,18.1238902 72.2985751,17.9528837 C71.8597769,17.792863 71.4595323,17.5499725 71.1219363,17.2388344 C70.784282,16.9250523 70.517954,16.5485765 70.3394714,16.132758 C69.9561724,15.2166189 69.9561724,14.1955002 70.3394714,13.2793611 C70.5218173,12.8653393 70.7933923,12.4923451 71.1366442,12.1844855 C71.4833411,11.8789698 71.8902757,11.6419774 72.3338743,11.4872374 C72.8054479,11.3252508 73.3033443,11.2437293 73.8046729,11.2464207 C74.297562,11.2473745 74.7864397,11.3307822 75.2489971,11.4928377 C75.6905735,11.6368468 76.0863842,11.8854663 76.3991616,12.2152876 L75.2637051,13.2989624 C75.1075632,13.0933511 74.8933632,12.9341123 74.6459697,12.8397307 C74.3973901,12.7438148 74.1317289,12.6943775 73.8635048,12.6941207 C73.5855782,12.6917203 73.3101433,12.7441592 73.0545656,12.8481313 C72.8153856,12.9460657 72.6000631,13.0900227 72.4221222,13.2709605 C72.2420162,13.456943 72.102087,13.6748245 72.0102986,13.9122047 C71.9108045,14.1704367 71.8609826,14.443616 71.8632187,14.7186604 C71.860397,14.9992241 71.9102046,15.2780149 72.0102986,15.5419172 C72.1014125,15.7775151 72.2392232,15.9942574 72.416239,16.1803613 C72.5914952,16.3583711 72.8039125,16.499534 73.0398576,16.5947899 C73.2905942,16.6974669 73.5611543,16.7489777 73.8340888,16.7460004 C74.1400809,16.7544908 74.4434448,16.6899963 74.716568,16.5583874 C74.9508782,16.4444841 75.1527348,16.2782715 75.3048874,16.073954 L76.4815263,17.1184261 C76.1680395,17.4639024 75.7783267,17.7392684 75.3401866,17.9248817 L75.3401866,17.9248817 Z" id="_Compound_Path_11"></path>
                    <path d="M84.1796861,14.7102598 C84.1827217,15.2020219 84.0827188,15.6894239 83.8855263,16.1439588 C83.7083979,16.5659303 83.4397692,16.9475954 83.0971783,17.2640361 C82.7518626,17.5767397 82.3436007,17.8196376 81.8970067,17.9780854 C80.9237195,18.3127703 79.8580983,18.3127703 78.8848112,17.9780854 C78.4403108,17.8189661 78.0341088,17.5761033 77.6905227,17.2640361 C77.3482364,16.9479254 77.0805088,16.566116 76.9051163,16.1439588 C76.7063058,15.6898887 76.606238,15.2021708 76.6109566,14.7102598 C76.6046659,14.2182121 76.7047951,13.7301945 76.9051163,13.2765609 C77.0818143,12.8656741 77.3497357,12.4960061 77.6905227,12.1928861 C78.0355869,11.8887514 78.4418755,11.6544102 78.8848112,11.5040385 C79.8606209,11.1833626 80.9211969,11.1833626 81.8970067,11.5040385 C82.3425952,11.6552515 82.7510117,11.891571 83.0971783,12.1984865 C83.4385365,12.5017324 83.707397,12.8713121 83.8855263,13.2821613 C84.0835578,13.7344938 84.1836101,14.2202317 84.1796861,14.7102598 L84.1796861,14.7102598 Z M82.3882534,14.7102598 C82.3909506,14.4370029 82.3411033,14.1655822 82.2411735,13.9094046 C82.1519931,13.6729256 82.0139657,13.4558424 81.8352331,13.2709605 C81.6590651,13.0905906 81.445788,12.9466623 81.2086729,12.8481313 C80.9530447,12.7443143 80.6776442,12.691882 80.3997337,12.6941207 C79.8595294,12.6852417 79.340447,12.8936709 78.9701175,13.2681603 C78.7896579,13.4518024 78.6514027,13.6692438 78.5641771,13.9066044 C78.4689821,14.1638159 78.4212132,14.434757 78.4229804,14.7074596 C78.4206197,14.9889011 78.4704086,15.2685343 78.5700603,15.5335167 C78.6618282,15.7727953 78.8005903,15.993265 78.9789423,16.1831615 C79.1517708,16.3646484 79.3634032,16.5088206 79.5996193,16.6059907 C80.1125729,16.8145606 80.6927777,16.8145606 81.2057313,16.6059907 C81.443225,16.508099 81.6566318,16.3640831 81.8322915,16.1831615 C82.011653,15.9939742 82.1505387,15.773308 82.2411735,15.5335167 C82.3403887,15.2694709 82.389203,14.9906639 82.3853118,14.7102598 L82.3882534,14.7102598 Z" id="_Compound_Path_12"></path>
                    <polygon id="_Compound_Path_13" points="89.459853 18.0396897 86.6682773 13.7217916 86.6388613 13.7217916 86.6771021 18.0396897 85.0621652 18.0396897 85.0621652 11.4396341 86.9742034 11.4396341 89.7569543 15.7463314 89.7687207 15.7463314 89.7304799 11.4396341 91.3571831 11.4396341 91.3571831 18.0396897 89.4569114 18.0396897"></polygon>
                    <polygon id="_Compound_Path_14" points="94.2017076 12.800528 94.2017076 14.1586218 96.8844442 14.1586218 96.8844442 15.4747126 94.2017076 15.4747126 94.2017076 18.0368895 92.5455884 18.0368895 92.5455884 11.4396341 97.1227136 11.4396341 97.1227136 12.8033282 94.213474 12.8033282"></polygon>
                    <polygon id="_Compound_Path_15" points="97.9551856 18.0396897 97.9551856 11.4396341 102.617617 11.4396341 102.617617 12.7809267 99.5701224 12.7809267 99.5701224 14.0242125 102.449946 14.0242125 102.449946 15.3011006 99.5701224 15.3011006 99.5701224 16.6731953 102.805879 16.6731953 102.805879 18.0312891 97.9551856 18.0312891"></polygon>
                    <path d="M107.368297,18.0396897 L105.862199,15.4243091 L105.291529,15.4243091 L105.291529,18.0424898 L103.656001,18.0424898 L103.656001,11.4396341 L106.303438,11.4396341 C106.630757,11.4387872 106.957213,11.4716472 107.277107,11.5376408 C107.580783,11.5956599 107.870212,11.7077665 108.13017,11.8680636 C108.375738,12.023903 108.577678,12.234398 108.71849,12.481306 C108.877333,12.7752331 108.954307,13.1030373 108.942051,13.4333717 C108.953736,13.8370392 108.819815,14.2323376 108.562585,14.553449 C108.288963,14.8705303 107.919102,15.0993834 107.50361,15.2086942 L109.315634,18.0312891 L107.35653,18.0312891 L107.368297,18.0396897 Z M107.30064,13.4641738 C107.305096,13.3318819 107.268244,13.2013028 107.194742,13.0889479 C107.127514,12.9933726 107.035245,12.9161559 106.927057,12.8649325 C106.813516,12.8075877 106.689881,12.7705717 106.562299,12.7557249 C106.43366,12.7382372 106.303946,12.7288827 106.174008,12.727723 L105.291529,12.727723 L105.291529,14.2678293 L106.088702,14.2678293 C106.230581,14.2667007 106.372173,14.2554685 106.512292,14.234227 C106.648802,14.2165823 106.781127,14.1768041 106.903524,14.1166189 C107.022859,14.0634526 107.124599,13.980162 107.197684,13.8758022 C107.273726,13.7511959 107.309534,13.6080309 107.30064,13.4641738 L107.30064,13.4641738 Z" id="_Compound_Path_16"></path>
                    <polygon id="_Compound_Path_17" points="109.91572 18.0396897 109.91572 11.4396341 114.581093 11.4396341 114.581093 12.7809267 111.53654 12.7809267 111.53654 14.0242125 114.416363 14.0242125 114.416363 15.3011006 111.53654 15.3011006 111.53654 16.6731953 114.772297 16.6731953 114.772297 18.0312891 109.91572 18.0312891"></polygon>
                    <polygon id="_Compound_Path_18" points="120.037756 18.0396897 117.24618 13.7217916 117.216764 13.7217916 117.255005 18.0396897 115.628301 18.0396897 115.628301 11.4396341 117.537398 11.4396341 120.320149 15.7463314 120.361331 15.7463314 120.32309 11.4396341 121.949794 11.4396341 121.949794 18.0396897"></polygon>
                    <path d="M128.100673,17.9248817 C127.60906,18.123344 127.078361,18.2188428 126.544568,18.2049011 C126.036253,18.2099621 125.531426,18.1244871 125.05612,17.9528837 C124.617686,17.7921758 124.217578,17.5493682 123.879481,17.2388344 C123.542213,16.9247463 123.275942,16.5483513 123.097017,16.132758 C122.714017,15.2165643 122.714017,14.1955548 123.097017,13.2793611 C123.278033,12.8646465 123.549789,12.4914029 123.894189,12.1844855 C124.240886,11.8789698 124.647821,11.6419774 125.091419,11.4872374 C125.562898,11.3249083 126.060859,11.2433762 126.562218,11.2464207 C127.056828,11.2503371 127.546807,11.3375548 128.009484,11.5040385 C128.452063,11.6477357 128.848904,11.8963667 129.16259,12.2264884 L128.024192,13.3101632 C127.869316,13.1045381 127.656042,12.9452292 127.409398,12.8509315 C127.160777,12.7551499 126.895143,12.7057177 126.626933,12.7053214 C126.349007,12.702921 126.073572,12.75536 125.817994,12.8593321 C125.578814,12.9572665 125.363491,13.1012235 125.185551,13.2821613 C125.004758,13.4676495 124.86474,13.6856689 124.773727,13.9234055 C124.673087,14.1813442 124.623229,14.4547253 124.626647,14.7298612 C124.622862,15.0104971 124.672699,15.2894506 124.773727,15.553118 C124.863123,15.7894994 125.001126,16.0065439 125.179667,16.1915621 C125.354924,16.3695719 125.567341,16.5107348 125.803286,16.6059907 C126.053036,16.7085227 126.322606,16.7600357 126.594576,16.7572011 C126.900568,16.7656915 127.203932,16.7011971 127.477055,16.5695882 C127.711104,16.4553164 127.912876,16.2891734 128.065374,16.0851547 L129.242013,17.1296268 C128.927046,17.4707758 128.537493,17.7422053 128.100673,17.9248817 L128.100673,17.9248817 Z" id="_Compound_Path_19"></path>
                    <polygon id="_Compound_Path_20" points="129.709727 18.0396897 129.709727 11.4396341 134.3751 11.4396341 134.3751 12.7809267 131.324664 12.7809267 131.324664 14.0242125 134.204487 14.0242125 134.204487 15.3011006 131.324664 15.3011006 131.324664 16.6731953 134.560421 16.6731953 134.560421 18.0312891 129.709727 18.0312891"></polygon>
                    <polygon id="_Compound_Path_21" points="5.00659837 7.8861888 2.02676045 3.27987084 1.99440288 3.27987084 2.03558524 7.8861888 0.297101314 7.8861888 0.297101314 0.840902489 2.33856975 0.840902489 5.30958288 5.44162006 5.34488205 5.44162006 5.30369969 0.840902489 7.03924202 0.840902489 7.03924202 7.88898899 5.00953997 7.88898899"></polygon>
                    <path d="M13.5813541,7.8861888 L12.9930347,6.50289331 L10.1396854,6.50289331 L9.59843155,7.8861888 L7.65109423,7.8861888 L10.7574208,0.838102295 L12.4929632,0.838102295 L15.5669322,7.8861888 L13.5813541,7.8861888 Z M11.595776,2.71983218 L10.6544649,5.13919918 L12.5135543,5.13919918 L11.595776,2.71983218 Z" id="_Compound_Path_22"></path>
                    <polygon id="_Compound_Path_23" points="18.9380025 2.2942028 18.9380025 7.89458938 17.1465699 7.89458938 17.1465699 2.2942028 15.0521527 2.2942028 15.0521527 0.840902489 21.0235949 0.840902489 21.0235949 2.2942028 18.9321194 2.2942028"></polygon>
                    <polygon id="_Compound_Path_24" points="22.0531539 7.8861888 22.0531539 0.840902489 23.8534114 0.840902489 23.8534114 7.88898899 22.0531539 7.88898899"></polygon>
                    <path d="M32.8870563,4.33274352 C32.8971834,4.85596006 32.7971646,5.37581146 32.5928966,5.86164905 C32.4005468,6.3071091 32.1142078,6.71025263 31.7515998,7.04613081 C31.3825072,7.37917899 30.9461658,7.63735386 30.4690634,7.80498319 C29.4293308,8.16302397 28.2906888,8.16302397 27.2509561,7.80498319 C26.7768132,7.63669165 26.3434929,7.37852791 25.9772446,7.04613081 C25.6135935,6.71108465 25.3270978,6.30772058 25.1359478,5.86164905 C24.9316798,5.37581146 24.8316609,4.85596006 24.8417881,4.33274352 C24.830852,3.81037311 24.9309072,3.29128482 25.1359478,2.80663818 C25.327555,2.36815956 25.6142367,1.97312141 25.9772446,1.64735815 C26.3456463,1.32305865 26.7788066,1.07260848 27.2509561,0.910907321 C28.2932318,0.566952002 29.4267877,0.566952002 30.4690634,0.910907321 C30.9441402,1.07201443 31.3803077,1.32246812 31.7515998,1.64735815 C32.1136088,1.9739372 32.4001343,2.36876027 32.5928966,2.80663818 C32.7980153,3.29126324 32.8980735,3.81036686 32.8870563,4.33274352 L32.8870563,4.33274352 Z M30.9750181,4.33274352 C30.9738673,4.04605489 30.9201104,3.76176176 30.8161719,3.49268553 C30.7197564,3.2398576 30.5718033,3.00766029 30.3808155,2.80943837 C30.1931508,2.61847363 29.9657343,2.46683907 29.713073,2.36420764 C29.4411515,2.25242461 29.1473366,2.19705914 28.851185,2.20179643 C27.9717794,2.18274901 27.1795735,2.70509589 26.8891397,3.49548572 C26.6824167,4.05746338 26.6824167,4.6696279 26.8891397,5.23160556 C26.9852154,5.48793552 27.1331202,5.72386231 27.3244961,5.9260535 C27.5119996,6.11806204 27.7380593,6.27231535 27.989297,6.37968481 C28.5380224,6.59763356 29.1555228,6.59763356 29.7042482,6.37968481 C29.9603869,6.26614775 30.1895782,6.10418453 30.3778739,5.90365195 C30.5707371,5.70200899 30.7197063,5.46597925 30.8161719,5.20920401 C30.9223327,4.92808502 30.9760895,4.63147333 30.9750181,4.33274352 L30.9750181,4.33274352 Z" id="_Compound_Path_25"></path>
                    <polygon id="_Compound_Path_26" points="38.7761338 7.8861888 35.7962959 3.27987084 35.7639383 3.27987084 35.8051207 7.8861888 34.0695784 7.8861888 34.0695784 0.840902489 36.1081052 0.840902489 39.0791183 5.44162006 39.1114759 5.44162006 39.0702935 0.840902489 40.8058359 0.840902489 40.8058359 7.88898899 38.7761338 7.88898899"></polygon>
                    <path d="M47.3508896,7.8861888 L46.7625701,6.50289331 L43.8974545,6.50289331 L43.353259,7.8861888 L41.4059217,7.8861888 L44.5151899,0.838102295 L46.2507322,0.838102295 L49.3276429,7.8861888 L47.3508896,7.8861888 Z M45.3506035,2.72263238 L44.4092924,5.14199938 L46.274265,5.14199938 L45.3506035,2.72263238 Z" id="_Compound_Path_27"></path>
                    <polygon id="_Compound_Path_28" points="49.9542031 7.8861888 49.9542031 0.840902489 51.7544605 0.840902489 51.7544605 6.40768674 54.6195762 6.40768674 54.6195762 7.88898899 49.9542031 7.88898899"></polygon>
                    <path d="M64.2621317,5.8392475 C64.27331,6.17739576 64.1911553,6.51242416 64.0238623,6.81091457 C63.8671559,7.06655683 63.6482407,7.28263129 63.3855357,7.44095806 C63.107131,7.60494006 62.8003743,7.72060669 62.4795238,7.78258164 C62.138259,7.85221708 61.7901561,7.88694986 61.44114,7.8861888 L58.4995428,7.8861888 L58.4995428,0.840902489 L61.44114,0.840902489 C61.7374609,0.841680901 62.033004,0.869814528 62.3236191,0.924908287 C62.6108073,0.973816 62.887273,1.06848357 63.1413831,1.20492762 C63.3828834,1.34271529 63.5849569,1.53507507 63.7297026,1.76496627 C63.8941144,2.03272788 63.9737885,2.33999362 63.9591472,2.64982735 C63.9743141,3.0003217 63.8563072,3.34428327 63.6267467,3.61869423 C63.3954969,3.8825001 63.0890198,4.07699653 62.7442675,4.17873289 L62.7442675,4.19833424 C62.9490356,4.22986056 63.1474732,4.29125261 63.332587,4.3803468 C63.5139046,4.46651079 63.6773455,4.5831989 63.8150089,4.72477058 C63.9538966,4.86651237 64.0636495,5.03177605 64.1385846,5.21200421 C64.2227887,5.41129153 64.2647759,5.62445891 64.2621317,5.8392475 Z M62.2324296,2.8794432 C62.2476552,2.66570735 62.1334611,2.46242956 61.9382699,2.35580706 C61.6737949,2.23119894 61.379804,2.17426219 61.0852067,2.19059565 L60.2027276,2.19059565 L60.2027276,3.64389597 L61.1646298,3.64389597 C61.4390865,3.66050013 61.7120057,3.59383449 61.9441531,3.45348282 C62.1373003,3.32160331 62.2469614,3.10544298 62.2353712,2.8794432 L62.2324296,2.8794432 Z M62.4736406,5.67963649 C62.5000932,5.42400901 62.3586597,5.17921859 62.1177073,5.06359396 C61.8295017,4.93757679 61.5138121,4.87901011 61.1969874,4.89278217 L60.2027276,4.89278217 L60.2027276,6.50569351 L61.2352282,6.50569351 C61.3801108,6.50628695 61.5247797,6.49504494 61.667643,6.47209119 C61.8095725,6.45196645 61.9474502,6.41136399 62.076525,6.35168288 C62.1956723,6.2905857 62.296813,6.20200919 62.3706847,6.09406509 C62.4485556,5.96801973 62.4854085,5.8228217 62.4765822,5.67683629 L62.4736406,5.67963649 Z" id="_Compound_Path_29"></path>
                    <path d="M71.4955191,6.39088558 C71.3517219,6.72906883 71.1329927,7.03375016 70.8542509,7.28414724 C70.5635597,7.54224856 70.2200866,7.74052301 69.8452831,7.86658744 C68.9931966,8.14564976 68.0675817,8.14564976 67.2154952,7.86658744 C66.8442286,7.74216932 66.5052216,7.54357809 66.2212354,7.28414724 C65.9473793,7.03271154 65.733673,6.72803908 65.5946752,6.39088558 C65.4442395,6.02136266 65.3693571,5.62788149 65.3740554,5.23160556 L65.3740554,0.840902489 L67.1390137,0.840902489 L67.1390137,5.0887957 C67.1378532,5.27809184 67.164588,5.46660749 67.2184368,5.64883436 C67.2665328,5.81544929 67.3484825,5.9714699 67.4596478,6.10806606 C67.5706503,6.25009255 67.7186927,6.3620611 67.889121,6.43288848 C68.3005326,6.59576689 68.7631873,6.59576689 69.1745989,6.43288848 C69.344623,6.3601409 69.4931545,6.24856668 69.6070137,6.10806606 C69.7201807,5.97267688 69.8023441,5.8162495 69.8482247,5.64883436 C69.9000869,5.46633908 69.9248407,5.27782816 69.9217646,5.0887957 L69.9217646,0.840902489 L71.7102557,0.840902489 L71.7102557,5.23160556 C71.7185278,5.62764658 71.6455877,6.02142242 71.4955191,6.39088558 Z" id="_Compound_Path_30"></path>
                    <path d="M77.0757289,2.6694287 C76.9195846,2.48000973 76.7177793,2.32920775 76.4874095,2.22979836 C76.2652972,2.12371636 76.0210564,2.06630895 75.7726014,2.06178676 C75.6512726,2.06176912 75.5301851,2.07207753 75.4107849,2.09258889 C75.2935782,2.1078907 75.1812097,2.14704822 75.081326,2.20739681 C74.9841589,2.26235074 74.9008206,2.33690387 74.8371735,2.42581189 C74.7667926,2.52678323 74.7317832,2.64636645 74.7371592,2.76743547 C74.7326999,2.8721539 74.7591982,2.9759623 74.8136407,3.06705615 C74.8720031,3.15303231 74.9505491,3.22492678 75.0430853,3.27707065 C75.1579844,3.34281481 75.279123,3.39812873 75.4049017,3.44228205 C75.5402152,3.48988534 75.6990614,3.54308901 75.8726157,3.59629268 C76.125593,3.67749829 76.3844536,3.76430428 76.6550805,3.86231104 C76.9219724,3.95391159 77.1728582,4.0832361 77.3993046,4.24593752 C77.6248012,4.40526855 77.8131113,4.60741043 77.9523249,4.8395785 C78.10855,5.10910698 78.1848126,5.41401262 78.1729447,5.72163939 C78.1826702,6.08443875 78.1020284,6.44427596 77.9376169,6.77171187 C77.7879962,7.05798233 77.5716843,7.30795198 77.3051735,7.50256232 C77.0328916,7.69805802 76.7246096,7.84336481 76.39622,7.93099189 C76.0515612,8.02329581 75.6952833,8.07040018 75.337245,8.07100155 C74.8117232,8.07187314 74.2904183,7.98173294 73.7987897,7.80498319 C73.332351,7.64787707 72.9104818,7.39005453 72.5662605,7.0517312 L73.7428993,5.93165388 C73.9389532,6.15513343 74.1825871,6.33647186 74.4577074,6.46369061 C74.7306221,6.59863409 75.032697,6.67148112 75.3401866,6.6765053 C75.4708826,6.67675726 75.6011732,6.66266323 75.7284774,6.6345024 C75.8465203,6.61387001 75.9587355,6.56999711 76.0579363,6.50569351 C76.1538564,6.44641045 76.2319161,6.36438288 76.2844393,6.26767708 C76.3425085,6.15649071 76.3708027,6.0333634 76.366804,5.90925234 C76.3717175,5.78870317 76.3356074,5.66986614 76.2638481,5.57042895 C76.1844103,5.46785196 76.0844375,5.38124996 75.9696884,5.31561136 C75.8174369,5.22901612 75.655661,5.15858963 75.4872664,5.10559686 L74.8312903,4.90118275 C74.5941628,4.82999637 74.3622495,4.74393537 74.1370733,4.64356497 C73.9161149,4.54668491 73.7126024,4.41721682 73.5340459,4.25993849 C73.352296,4.10306638 73.2061473,3.91248647 73.1045727,3.69989983 C72.989018,3.44370239 72.9337956,3.1665262 72.9427849,2.88784378 C72.9327638,2.53829736 73.0200408,2.19244616 73.1957623,1.88537458 C73.3570538,1.61149708 73.5825387,1.3767283 73.85468,1.19932723 C74.1346094,1.01686435 74.4463573,0.883179242 74.7753999,0.804499976 C75.1138198,0.722895398 75.4617378,0.68243712 75.8108421,0.684091665 C76.2481607,0.685624379 76.6819628,0.758553453 77.0933785,0.899706548 C77.5181723,1.03982663 77.9085197,1.26087103 78.2406014,1.54935139 L77.0757289,2.6694287 Z" id="_Compound_Path_31"></path>
                    <polygon id="_Compound_Path_32" points="79.3437003 7.8861888 79.3437003 0.840902489 81.1439578 0.840902489 81.1439578 7.88898899 79.3437003 7.88898899"></polygon>
                    <polygon id="_Compound_Path_33" points="87.3772022 7.8861888 84.3973643 3.27987084 84.3650067 3.27987084 84.406189 7.8861888 82.6677051 7.8861888 82.6677051 0.840902489 84.706232 0.840902489 87.6772451 5.44162006 87.7096027 5.44162006 87.6684203 0.840902489 89.4039626 0.840902489 89.4039626 7.88898899 87.3742606 7.88898899"></polygon>
                    <polygon id="_Compound_Path_34" points="90.9453595 7.8861888 90.9453595 0.840902489 95.9254835 0.840902489 95.9254835 2.26340068 92.6603107 2.26340068 92.6603107 3.59909288 95.7342797 3.59909288 95.7342797 4.96278701 92.6603107 4.96278701 92.6603107 6.42728809 96.0990378 6.42728809 96.0990378 7.88058841 90.9453595 7.88058841"></polygon>
                    <path d="M101.193884,2.6694287 C101.037092,2.48062783 100.835458,2.32995397 100.605565,2.22979836 C100.383487,2.12362674 100.139225,2.06621424 99.8907565,2.06178676 C99.7694333,2.06188736 99.6483568,2.07219483 99.5289401,2.09258889 C99.4119293,2.10863563 99.2997205,2.1477375 99.1994812,2.20739681 C99.1024285,2.26249541 99.0191203,2.33702161 98.9553286,2.42581189 C98.8849478,2.52678323 98.8499384,2.64636645 98.8553143,2.76743547 C98.8508551,2.8721539 98.8773533,2.9759623 98.9317958,3.06705615 C98.9903234,3.15290256 99.068834,3.22476455 99.1612404,3.27707065 C99.2764736,3.34222276 99.3975542,3.39751015 99.5230569,3.44228205 C99.6613119,3.48988534 99.8172166,3.54308901 99.9937124,3.59629268 C100.243748,3.67749829 100.50555,3.76430428 100.779119,3.86231104 C101.044909,3.95431997 101.294763,4.08362349 101.520401,4.24593752 C101.745832,4.4061537 101.934935,4.60807328 102.076363,4.8395785 C102.230817,5.10975601 102.306963,5.41419291 102.296983,5.72163939 C102.305823,6.08436021 102.225225,6.44400368 102.061655,6.77171187 C101.9116,7.0577139 101.695363,7.30759751 101.429212,7.50256232 C101.156605,7.69755632 100.848426,7.84281466 100.520258,7.93099189 C100.177572,8.02313403 99.82326,8.07024019 99.4671665,8.07100155 C98.9406739,8.07202592 98.4183754,7.98188627 97.9257696,7.80498319 C97.4585121,7.64780401 97.0357015,7.39002137 96.6902988,7.0517312 L97.8669377,5.93165388 C98.0644614,6.15483712 98.3089785,6.33608704 98.5846874,6.46369061 C98.8575251,6.5988263 99.1596484,6.67168499 99.4671665,6.6765053 C99.5968877,6.67669153 99.7261964,6.66259695 99.8525158,6.6345024 C99.9705832,6.61394973 100.082815,6.57007026 100.181975,6.50569351 C100.277895,6.44641045 100.355954,6.36438288 100.408478,6.26767708 C100.466898,6.15660864 100.495212,6.03339585 100.490842,5.90925234 C100.495756,5.78870317 100.459646,5.66986614 100.387886,5.57042895 C100.307997,5.46824055 100.208112,5.38171448 100.093727,5.31561136 C99.941667,5.22866901 99.7798496,5.15822446 99.6113048,5.10559686 L98.9582702,4.90118275 C98.7209504,4.83051729 98.4890007,4.74444277 98.2640533,4.64356497 C98.0421527,4.54677706 97.8376561,4.41731447 97.6580843,4.25993849 C97.4755769,4.10371618 97.3293047,3.91297523 97.2286111,3.69989983 C97.1133299,3.44362292 97.058119,3.16650482 97.0668232,2.88784378 C97.0559013,2.53855039 97.1421597,2.19271446 97.316859,1.88537458 C97.4794994,1.61242745 97.7047295,1.37792395 97.9757768,1.19932723 C98.2550248,1.01752301 98.5656813,0.883878908 98.8935551,0.804499976 C99.2320327,0.723189658 99.5799113,0.682735955 99.9289973,0.684091665 C100.366316,0.685624379 100.800118,0.758553453 101.211534,0.899706548 C101.636467,1.03953995 102.026873,1.26061716 102.358757,1.54935139 L101.193884,2.6694287 Z" id="_Compound_Path_35"></path>
                    <path d="M107.37418,2.6694287 C107.217071,2.48093017 107.01552,2.33031818 106.78586,2.22979836 C106.563818,2.1235368 106.319533,2.06611917 106.071052,2.06178676 C105.949729,2.06188736 105.828652,2.07219483 105.709236,2.09258889 C105.592204,2.10855528 105.479978,2.14766307 105.379777,2.20739681 C105.283377,2.26331604 105.200236,2.33769316 105.135624,2.42581189 C105.065243,2.52678323 105.030234,2.64636645 105.03561,2.76743547 C105.032043,2.87242303 105.059565,2.97624932 105.115033,3.06705615 C105.172336,3.15385833 105.251116,3.22596702 105.344478,3.27707065 C105.458813,3.34199806 105.578895,3.39727928 105.703353,3.44228205 C105.841608,3.48988534 105.997512,3.54308901 106.171066,3.59629268 C106.424044,3.67749829 106.682904,3.76430428 106.956473,3.86231104 C107.222521,3.95377511 107.472457,4.08312148 107.697755,4.24593752 C107.923296,4.40603926 108.112421,4.60798216 108.253717,4.8395785 C108.409115,5.10941079 108.485323,5.41409619 108.474337,5.72163939 C108.484063,6.08443875 108.403421,6.44427596 108.239009,6.77171187 C108.088272,7.05729144 107.87215,7.30704098 107.606566,7.50256232 C107.333182,7.69803156 107.023944,7.84331894 106.694671,7.93099189 C106.351036,8.02338717 105.995716,8.07049575 105.638637,8.07100155 C105.113086,8.0721858 104.591723,7.98203541 104.100182,7.80498319 C103.632736,7.64817066 103.209843,7.39033743 102.864711,7.0517312 L104.04135,5.93165388 C104.23677,6.15575599 104.480556,6.33720792 104.756158,6.46369061 C105.029187,6.59834795 105.33119,6.6711777 105.638637,6.6765053 C105.768344,6.67644538 105.897623,6.662354 106.023987,6.6345024 C106.141861,6.61332762 106.253964,6.56949883 106.353445,6.50569351 C106.448374,6.44613737 106.525413,6.36411744 106.577007,6.26767708 C106.636093,6.15673921 106.665401,6.03359939 106.662313,5.90925234 C106.666366,5.7883899 106.629216,5.66952506 106.556416,5.57042895 C106.477762,5.4671814 106.377633,5.38044379 106.262256,5.31561136 C106.110607,5.22792918 105.948698,5.15744482 105.779834,5.10559686 L105.129741,4.90118275 C104.891305,4.83095387 104.658346,4.74486945 104.432583,4.64356497 C104.211103,4.54605867 104.006718,4.41666684 103.826614,4.25993849 C103.64617,4.10259043 103.501075,3.91208071 103.400082,3.69989983 C103.283597,3.44397359 103.228335,3.16659791 103.238294,2.88784378 C103.227372,2.53855039 103.313631,2.19271446 103.48833,1.88537458 C103.650805,1.61231327 103.876066,1.37777758 104.147248,1.19932723 C104.42736,1.01717418 104.739048,0.883514822 105.067968,0.804499976 C105.406411,0.723013607 105.754313,0.682557171 106.10341,0.684091665 C106.540728,0.685624379 106.97453,0.758553453 107.385946,0.899706548 C107.811056,1.03917852 108.201535,1.26029728 108.533169,1.54935139 L107.37418,2.6694287 Z" id="_Compound_Path_36"></path>
                    <path d="M117.275596,7.8861888 L116.701984,6.50289331 L113.836869,6.50289331 L113.301498,7.8861888 L111.354161,7.8861888 L114.457546,0.838102295 L116.19603,0.838102295 L119.269999,7.8861888 L117.281479,7.8861888 L117.275596,7.8861888 Z M115.290018,2.71983218 L114.348707,5.13919918 L116.210738,5.13919918 L115.290018,2.71983218 Z" id="_Compound_Path_37"></path>
                    <polygon id="_Compound_Path_38" points="124.588406 7.8861888 121.605627 3.27987084 121.573269 3.27987084 121.614452 7.8861888 119.875968 7.8861888 119.875968 0.840902489 121.914494 0.840902489 124.885508 5.44162006 124.914924 5.44162006 124.873741 0.840902489 126.609284 0.840902489 126.609284 7.88898899 124.579582 7.88898899"></polygon>
                    <path d="M135.069317,4.34394429 C135.083952,4.89671633 134.959916,5.44484313 134.707501,5.94285466 C134.481286,6.37511767 134.155499,6.7532036 133.754423,7.048931 C133.357098,7.34072354 132.904781,7.55743609 132.42188,7.68737507 C131.932334,7.82179744 131.425286,7.8896735 130.915782,7.88898899 L128.153622,7.88898899 L128.153622,0.840902489 L130.830476,0.840902489 C131.351711,0.839027492 131.871263,0.897323593 132.377756,1.01451447 C132.866508,1.12045425 133.328394,1.31745464 133.736774,1.59415448 C134.144304,1.87414639 134.47438,2.24408753 134.698676,2.6722289 C134.959791,3.19358616 135.086838,3.76660631 135.069317,4.34394429 Z M133.207286,4.34394429 C133.219325,4.00406038 133.149914,3.66602832 133.004316,3.35547606 C132.879633,3.10711535 132.692757,2.89172052 132.46012,2.72823276 C132.227679,2.57056169 131.964743,2.45826141 131.68648,2.39780996 C131.397727,2.33014454 131.101374,2.29629177 130.804001,2.297003 L129.921522,2.297003 L129.921522,6.41608732 L130.768702,6.41608732 C131.080723,6.41840317 131.391879,6.38455185 131.695305,6.31528036 C131.977155,6.24995084 132.24293,6.13296257 132.47777,5.97085659 C132.71132,5.80364121 132.898185,5.58441329 133.021965,5.33241252 C133.157492,5.0196276 133.216828,4.68168226 133.19552,4.34394429 L133.207286,4.34394429 Z" id="_Compound_Path_39"></path>
                </g>
                <g id="_Group_" transform="translate(63.698630, 0.000000)" fill-rule="nonzero" fill="#FFFFFF">
                    <polygon id="_Compound_Path_40" points="0.397084114 1.35734965 11.8719126 1.35734965 28.1613859 26.7002703 28.2516323 26.7002703 28.2516323 1.35734965 36.694182 1.35734965 36.694182 37.8339738 25.6705855 37.8339738 8.94792953 11.8682186 8.8486585 11.8682186 8.8486585 37.8339738 0.397084114 37.8339738"></polygon>
                    <path d="M41.7885907,1.35734965 L56.0745942,1.35734965 C57.748782,1.35869358 59.4208534,1.47064322 61.0787565,1.69239165 C62.6531129,1.88668818 64.1799727,2.34016864 65.591076,3.03255966 C66.909382,3.68797776 68.0282427,4.65542234 68.839946,5.84175799 C69.6702128,7.04447287 70.0853462,8.64093369 70.0853462,10.6311405 C70.1587266,12.4914374 69.5170037,14.3133719 68.2804184,15.7555649 C67.0139289,17.1485919 65.3488242,18.1605244 63.4883351,18.6678531 L63.4883351,18.7709429 C64.6848071,18.9233791 65.8465895,19.2629969 66.9267226,19.776069 C67.9256748,20.2528126 68.8248243,20.8991248 69.5799664,21.6832311 C70.3287133,22.4705755 70.9081773,23.3899237 71.2856232,24.3893396 C71.6874922,25.4467937 71.8891573,26.5637158 71.8812493,27.6882147 C71.9452324,29.3790106 71.4938998,31.0513121 70.5817013,32.5033696 C69.7320093,33.7767585 68.5826326,34.8444134 67.2245356,35.6218375 C65.7949948,36.4406279 64.2293949,37.0216575 62.5948959,37.3400016 C60.9141656,37.6803239 59.2007684,37.8530723 57.4824379,37.8554508 L41.7885907,37.8554508 L41.7885907,1.35734965 Z M50.2311405,15.9359722 L56.3453334,15.9359722 C56.9922019,15.9364971 57.6370549,15.8673304 58.2675815,15.7297925 C58.8728513,15.6028807 59.4501141,15.3760974 59.9732382,15.0597085 C60.478421,14.7526477 60.896756,14.3322987 61.1915645,13.8355165 C61.508992,13.2648769 61.664525,12.6252733 61.6427964,11.9798993 C61.6693494,11.3182675 61.4904243,10.6638645 61.128392,10.0985096 C60.7962322,9.61142683 60.3398176,9.21241957 59.8017701,8.9387488 C59.2237178,8.65232494 58.6027582,8.45239074 57.9607437,8.34598218 C57.3000605,8.22806084 56.6294664,8.16767559 55.9572739,8.16557495 L50.2446774,8.16557495 L50.2446774,15.944563 L50.2311405,15.9359722 Z M50.2311405,31.0300439 L57.8073249,31.0300439 C58.4719647,31.0286458 59.1345378,30.9595254 59.7837208,30.8238642 C60.427814,30.6939115 61.04024,30.4490572 61.5886486,30.1022353 C62.1319345,29.7571028 62.5855947,29.2988103 62.9152705,28.7620673 C63.2754239,28.1489203 63.4532617,27.453944 63.429675,26.7518153 C63.4659982,26.0021987 63.2266471,25.2639795 62.752827,24.6642459 C62.2997258,24.1309579 61.7132545,23.7144638 61.0471703,23.4529402 C60.3365123,23.1719705 59.5900719,22.9813328 58.8271091,22.885946 C58.0915871,22.7869051 57.3498805,22.7352427 56.6070479,22.7313112 L50.2446774,22.7313112 L50.2446774,31.0171577 L50.2311405,31.0300439 Z" id="_Compound_Path_41"></path>
                    <polygon id="_Compound_Path_42" points="81.5782239 8.46625367 70.6674354 8.46625367 70.6674354 1.35734965 100.976685 1.35734965 100.976685 8.46625367 90.0207737 8.46625367 90.0207737 37.8339738 81.5782239 37.8339738"></polygon>
                    <path d="M127.581321,10.8287293 C126.75775,9.87224052 125.709875,9.11307877 124.521968,8.61229762 C123.196392,8.07477277 121.766048,7.81123973 120.325511,7.83912377 C117.303192,7.8089652 114.413923,9.02057288 112.397366,11.1637713 C111.376478,12.2556385 110.585972,13.5243988 110.069009,14.9007783 C108.950582,17.944582 108.950582,21.2596277 110.069009,24.3034314 C110.588291,25.6653896 111.368598,26.9237766 112.370292,28.0146659 C113.325045,29.0495737 114.496127,29.8834697 115.808679,30.4630497 C117.141515,31.0447123 118.593156,31.3381008 120.059284,31.3221318 C121.658628,31.3518325 123.240031,30.9972766 124.657338,30.2912333 C125.992435,29.60425 127.12741,28.6123932 127.960356,27.4047176 L134.995062,32.4002798 C133.442472,34.5078679 131.307613,36.1654707 128.826721,37.1896623 C126.409633,38.2046675 123.797597,38.731215 121.155778,38.73601 C118.333773,38.764082 115.52935,38.310175 112.875672,37.3958419 C110.439059,36.5682598 108.206241,35.2745497 106.314759,33.5944038 C104.447538,31.8894374 102.981817,29.8265552 102.014519,27.5421708 C99.9579942,22.4342384 99.9579942,16.7828575 102.014519,11.6749252 C102.979698,9.38445324 104.445532,7.31555591 106.314759,5.60551042 C108.198592,3.91298081 110.42692,2.60604532 112.862135,1.76541363 C115.515838,0.851170712 118.320244,0.397266536 121.142241,0.425245618 C122.276653,0.429728245 123.408681,0.524558062 124.526481,0.708742697 C125.709859,0.900748218 126.870579,1.20287577 127.991942,1.61077886 C129.149363,2.03374493 130.249222,2.587524 131.267886,3.26021641 C132.333065,3.96426486 133.282054,4.81551812 134.083573,5.78591765 L127.581321,10.8287293 Z" id="_Compound_Path_43"></path>
                </g>
                <g id="_Group_3" transform="translate(0.000000, 2.741573)" stroke="#FFFFFF" stroke-width="3.58134121" stroke-linecap="round" stroke-linejoin="round">
                    <path d="M0.0752081655,25.083524 C0.358671246,21.1335467 1.51755413,17.2976526 3.46673829,13.8575835 L10.0205927,17.844703" id="_Path_2"></path>
                    <path d="M2.74330737,39.3196315 C0.644087215,34.8869524 -0.27529865,29.9814091 0.0752081655,25.083524" id="_Path_3"></path>
                    <path d="M47.0910556,47.3731804 C41.963646,52.5489573 35.0007296,55.4579013 27.7392784,55.4579013 C20.4778271,55.4579013 13.5149108,52.5489573 8.38750112,47.3731804" id="_Path_4"></path>
                    <path d="M13.3655654,3.92583467 C24.0903125,-2.28924964 37.6250782,-0.477921863 46.3640433,8.34194805 C51.6851659,13.6822331 54.6990792,20.9196062 54.7515445,28.4830301" id="_Path_5"></path>
                    <g id="_Group_4" transform="translate(7.520817, 7.570480)">
                        <path d="M10.6580714,37.8235605 C9.03512568,36.9157575 7.54737167,35.7822581 6.23869639,34.4564993 C-1.47193124,26.6552999 -2.15954875,14.0125981 5.55107888,6.20418868 C9.2453471,2.45634023 14.2732836,0.348350077 19.5183096,0.348350077 C24.7633356,0.348350077 29.7912721,2.45634023 33.4855403,6.20418868" id="_Path_6"></path>
                        <path d="M22.555287,40.4515986 C27.0344045,40.0508647 31.2247954,38.0555936 34.373713,34.8242084 C39.7457248,29.3842777 40.8201271,21.3415438 38.4958367,14.8525609 L31.5014773,14.8525609" id="_Path_7"></path>
                    </g>
                    <path d="M15.2350255,29.6077871 C14.3806182,23.613034 17.9716999,17.8793989 23.7135317,16.0707351 C29.4553635,14.2620712 35.6528196,16.9123394 38.3456603,22.3279903 C41.038501,27.7436411 39.4317354,34.3258453 34.5521037,37.8685051 C29.672472,41.4111648 22.9605579,40.8684024 18.7053452,36.5870487" id="_Path_8"></path>
                </g>
            </g>
        </g>
    </g>
</svg>