<?xml version="1.0" encoding="UTF-8"?>
<svg width="158px" height="52px" viewBox="0 0 158 52" version="1.1" xmlns="http://www.w3.org/2000/svg" xmlns:xlink="http://www.w3.org/1999/xlink">
    <!-- Generator: Sketch 42 (36781) - http://www.bohemiancoding.com/sketch -->
    <title>Logo Copy</title>
    <desc>Created with Sketch.</desc>
    <defs></defs>
    <g id="Page-2" stroke="none" stroke-width="1" fill="none" fill-rule="evenodd">
        <g id="Final-Copy-6" transform="translate(-26.000000, -91.000000)" fill="#FFFFFF">
            <g id="Local-Menu-Bar" transform="translate(30.000000, 91.000000)">
                <g id="Logo/White" transform="translate(0.000000, 1.000000)">
                    <g id="Nspire_Logo_2017">
                        <g id="Layer_1" fill-rule="nonzero">
                            <polygon id="Shape" points="35.3861004 17.5414013 35.3861004 36.6878981 29.7683398 36.6878981 29.7683398 5.81847134 31.5926641 5.81847134 49.4594595 24.6496815 49.4594595 5.81847134 55.2799228 5.81847134 55.2799228 36.6878981 53.2528958 36.6878981"></polygon>
                            <path d="M59.9420849,29.2929936 C60.8687259,30.2961783 62.027027,31.1273885 63.4169884,31.7866242 C64.8069498,32.4745223 66.1679537,32.8184713 67.5289575,32.8184713 C68.2528958,32.8184713 68.9189189,32.7324841 69.527027,32.5318471 C70.1351351,32.3598726 70.6274131,32.1019108 71.0617761,31.8152866 C71.496139,31.5286624 71.7857143,31.1847134 72.0173745,30.8121019 C72.2490347,30.4394904 72.3359073,30.0955414 72.3359073,29.7802548 C72.3359073,28.977707 72.046332,28.3757962 71.496139,27.9171975 C70.9169884,27.4872611 70.1640927,27.1719745 69.1795367,27 L66.2258687,26.455414 C64.5173745,26.1687898 63.0984556,25.7961783 61.9980695,25.366242 C60.8687259,24.9363057 59.9710425,24.4203822 59.3050193,23.8471338 C58.6389961,23.2738854 58.1756757,22.6433121 57.9150579,21.9267516 C57.6544402,21.2388535 57.5096525,20.4649682 57.5096525,19.6050955 C57.5096525,18.5732484 57.7123552,17.5987261 58.1467181,16.6528662 C58.5521236,15.7070064 59.1891892,14.8757962 60,14.1592357 C60.8108108,13.4426752 61.8243243,12.8694268 63.011583,12.410828 C64.1988417,11.9808917 65.530888,11.7802548 67.0366795,11.7802548 C68.7451737,11.7802548 70.3378378,12.0382166 71.8725869,12.5828025 C73.3783784,13.1273885 74.9710425,13.9585987 76.6505792,15.1050955 L73.6969112,18.7165605 C72.4227799,17.656051 71.2355212,16.9394904 70.1351351,16.5955414 C69.034749,16.2229299 68.0501931,16.0509554 67.1814672,16.0509554 C66.6023166,16.0509554 66.0521236,16.1082803 65.530888,16.2515924 C65.0096525,16.3949045 64.5173745,16.566879 64.1119691,16.8535032 C63.7065637,17.111465 63.3590734,17.4267516 63.0984556,17.7993631 C62.8378378,18.1719745 62.7220077,18.6019108 62.7220077,19.089172 C62.7220077,19.8057325 62.9826255,20.3789809 63.5617761,20.7802548 C64.1119691,21.1815287 64.8938224,21.4681529 65.8783784,21.6401274 L71.1486486,22.6433121 C73.3204633,23.044586 74.9420849,23.7611465 75.984556,24.7929936 C77.027027,25.8248408 77.5482625,27.2292994 77.5482625,29.0350318 C77.5482625,29.9235669 77.3455598,30.8407643 76.969112,31.7866242 C76.5926641,32.7324841 75.984556,33.5923567 75.1737452,34.3949045 C74.3629344,35.1974522 73.2915058,35.8566879 71.988417,36.343949 C70.6853282,36.8598726 69.1216216,37.1178344 67.2972973,37.1178344 C65.2123552,37.1178344 63.3011583,36.7738854 61.534749,36.0573248 C59.7683398,35.3407643 58.0598456,34.3089172 56.3803089,32.9044586 L59.9420849,29.2929936 Z" id="Shape"></path>
                            <path d="M84.2084942,15.3630573 L84.3243243,15.3630573 C85.2509653,14.2165605 86.4092664,13.3280255 87.7413127,12.7261146 C89.1023166,12.1242038 90.6081081,11.8089172 92.2586873,11.8089172 C94.2567568,11.8089172 96.0521236,12.1815287 97.5868726,12.9267516 C99.1505792,13.6719745 100.453668,14.6464968 101.525097,15.8216561 C102.596525,16.9968153 103.407336,18.343949 103.986486,19.8630573 C104.565637,21.3535032 104.826255,22.9012739 104.826255,24.4490446 C104.826255,25.9394904 104.53668,27.4299363 103.928571,28.9203822 C103.320463,30.410828 102.480695,31.7579618 101.380309,32.9904459 C100.279923,34.2229299 98.9478764,35.1974522 97.3552124,35.9713376 C95.7625483,36.7165605 93.996139,37.1178344 92.027027,37.1178344 C90.2316602,37.1178344 88.6679537,36.7738854 87.3359073,36.1146497 C86.003861,35.4267516 84.9903475,34.5955414 84.3243243,33.5636943 L84.2084942,33.5636943 L84.2084942,44.7133758 L78.996139,44.7133758 L78.996139,12.4394904 L84.2084942,12.4394904 L84.2084942,15.3630573 L84.2084942,15.3630573 Z M99.3243243,24.4490446 C99.3243243,23.3598726 99.1216216,22.3566879 98.6872587,21.410828 C98.2818533,20.4649682 97.7027027,19.6624204 97.007722,18.9458599 C96.3127413,18.2579618 95.5019305,17.7133758 94.546332,17.2834395 C93.6196911,16.8821656 92.6351351,16.6528662 91.5926641,16.6528662 C90.5501931,16.6528662 89.5656371,16.8535032 88.6679537,17.2834395 C87.7413127,17.6847134 86.9594595,18.2579618 86.2355212,18.9458599 C85.5405405,19.633758 84.9903475,20.4649682 84.5849421,21.410828 C84.1795367,22.3566879 83.976834,23.3598726 83.976834,24.4490446 C83.976834,25.5382166 84.1795367,26.5700637 84.5849421,27.4872611 C84.9903475,28.433121 85.5405405,29.2356688 86.2355212,29.9522293 C86.9305019,30.6401274 87.7413127,31.1847134 88.6679537,31.6146497 C89.5945946,32.0159236 90.5501931,32.2452229 91.5926641,32.2452229 C92.6351351,32.2452229 93.6196911,32.044586 94.546332,31.6146497 C95.472973,31.2133758 96.3127413,30.6401274 97.007722,29.9522293 C97.7027027,29.2643312 98.2818533,28.433121 98.6872587,27.4872611 C99.1216216,26.5414013 99.3243243,25.5382166 99.3243243,24.4490446 L99.3243243,24.4490446 Z" id="Shape"></path>
                            <rect id="Rectangle-path" x="106.245174" y="12.4394904" width="5.21235521" height="23.9904459"></rect>
                            <path d="M113.745174,12.4394904 L118.638996,12.4394904 L118.638996,15.0764331 L118.725869,15.0764331 C119.160232,14.1019108 119.797297,13.2993631 120.637066,12.6974522 C121.476834,12.0955414 122.432432,11.8089172 123.503861,11.8089172 C124.633205,11.8089172 125.588803,12.066879 126.341699,12.5541401 L124.488417,17.656051 C124.227799,17.455414 123.909266,17.2834395 123.532819,17.1687898 C123.127413,17.0254777 122.80888,16.9681529 122.548263,16.9681529 C121.592664,16.9681529 120.752896,17.3121019 120.028958,17.9713376 C119.305019,18.6305732 118.957529,19.5191083 118.957529,20.6082803 L118.957529,36.4585987 L113.745174,36.4585987 L113.745174,12.4394904 L113.745174,12.4394904 Z" id="Shape"></path>
                            <path d="M148.349421,31.2133758 C146.872587,33.0191083 145.19305,34.4522293 143.252896,35.4840764 C141.341699,36.5159236 139.256757,37.0318471 137.055985,37.0605096 C134.942085,37.0605096 133.059846,36.6878981 131.380309,35.9713376 C129.72973,35.2547771 128.310811,34.2802548 127.181467,33.133758 C126.052124,31.9585987 125.183398,30.611465 124.57529,29.0923567 C123.967181,27.5732484 123.677606,26.0254777 123.677606,24.4203822 C123.677606,22.843949 123.967181,21.2961783 124.57529,19.7770701 C125.183398,18.2579618 126.052124,16.910828 127.181467,15.7356688 C128.310811,14.5605096 129.72973,13.6146497 131.380309,12.8980892 C133.059846,12.1815287 134.942085,11.8089172 137.055985,11.8089172 C138.330116,11.8089172 139.69112,12.066879 141.167954,12.611465 C142.644788,13.156051 144.005792,13.9585987 145.250965,15.0477707 C146.496139,16.1369427 147.53861,17.5414013 148.378378,19.2324841 C149.218147,20.9235669 149.623552,22.9585987 149.623552,25.3089172 L149.623552,26.2547771 L129.498069,26.2547771 C129.555985,27.1719745 129.816602,28.0318471 130.279923,28.7770701 C130.743243,29.5509554 131.293436,30.2101911 131.959459,30.7547771 C132.625483,31.3280255 133.378378,31.7579618 134.276062,32.0732484 C135.144788,32.388535 136.042471,32.5318471 136.940154,32.5318471 C138.330116,32.5318471 139.633205,32.2165605 140.820463,31.5573248 C142.007722,30.8980892 143.050193,29.9808917 143.947876,28.8057325 L148.349421,31.2133758 Z M143.542471,21.955414 C142.96332,20.0923567 142.065637,18.7165605 140.791506,17.7707006 C139.517375,16.8248408 138.069498,16.366242 136.389961,16.366242 C134.710425,16.366242 133.262548,16.8535032 132.046332,17.8280255 C130.801158,18.8025478 129.96139,20.1783439 129.555985,21.955414 L143.542471,21.955414 Z" id="Shape"></path>
                            <g id="Flame">
                                <path d="M17.6640927,33.3057325 C18.5617761,32.5318471 23.2818533,29.1783439 23.4266409,24.477707 C23.542471,21.066879 22.3262548,18.4012739 21.515444,16.8248408 C20.4440154,14.7038217 18.5907336,11.3789809 18.5907336,11.3789809 C18.7934363,12.6974522 17.9826255,16.022293 16.8532819,15.7643312 C15.2316602,15.3630573 15.9266409,13.0127389 16.5057915,11.4076433 C17.1138996,9.80254777 17.4034749,7.48089172 17.7220077,5.87579618 C18.0694981,4.15605096 18.011583,0.974522293 17.2586873,0.143312102 C17.2586873,0.143312102 15.4054054,4.7866242 11.2065637,8.39808917 C8.97683398,10.3184713 6.57335907,11.2643312 4.92277992,14.3025478 C3.12741313,17.5414013 4.4015444,19.6624204 3.33011583,19.8917197 C2.25868726,20.1210191 1.73745174,18.8312102 1.91119691,17.1974522 C1.91119691,17.1974522 2.33875553e-15,18.3726115 2.33875553e-15,23.7324841 C2.33875553e-15,28.433121 3.04054054,31.1273885 5.79150579,32.3598726 C7.99227799,33.3343949 9.67181467,36.2006369 9.67181467,36.2006369 C9.9034749,35.0254777 9.55598456,32.2738854 9.20849421,31.2133758 C8.65830116,29.4936306 6.83397683,28.4617834 6.83397683,25.5095541 C6.83397683,23.8471338 7.7027027,19.2898089 12.6254826,19.2898089 C17.4903475,19.2898089 18.6776062,23.7611465 18.6486486,25.5382166 C18.5907336,28.0031847 16.7953668,29.4936306 16.2451737,31.2133758 C15.8976834,32.2738854 15.4343629,34.9394904 15.6081081,36.2006369 C15.6370656,36.0859873 16.476834,34.3375796 17.6640927,33.3057325" id="XMLID_2_"></path>
                                <path d="M12.6833977,37.0318471 L6.6023166,37.0318471 C6.6023166,37.0318471 6.6023166,36.9458599 7.96332046,40.9585987 C9.99034749,40.9585987 12.6833977,44.2547771 12.6833977,44.2547771 C12.6833977,44.2547771 15.3764479,40.9872611 17.4034749,40.9872611 C18.7644788,36.9745223 18.7644788,37.0605096 18.7644788,37.0605096 L12.6833977,37.0605096 L12.6833977,37.0318471 Z" id="XMLID_1_"></path>
                            </g>
                        </g>
                    </g>
                </g>
            </g>
        </g>
    </g>
</svg>