<?xml version="1.0" encoding="UTF-8"?>
<svg width="81px" height="155px" viewBox="0 0 81 155" version="1.1" xmlns="http://www.w3.org/2000/svg" xmlns:xlink="http://www.w3.org/1999/xlink">
    <!-- Generator: Sketch 42 (36781) - http://www.bohemiancoding.com/sketch -->
    <title>Flame</title>
    <desc>Created with Sketch.</desc>
    <defs></defs>
    <g id="Symbols" stroke="none" stroke-width="1" fill="none" fill-rule="evenodd">
        <g id="Logo/White" fill-rule="nonzero" fill="#FFFFFF">
            <g id="Nspire_Logo_2017">
                <g id="Layer_1">
                    <g id="Flame">
                        <path d="M61,116.2 C64.1,113.5 80.4,101.8 80.9,85.4 C81.3,73.5 77.1,64.2 74.3,58.7 C70.6,51.3 64.2,39.7 64.2,39.7 C64.9,44.3 62.1,55.9 58.2,55 C52.6,53.6 55,45.4 57,39.8 C59.1,34.2 60.1,26.1 61.2,20.5 C62.4,14.5 62.2,3.4 59.6,0.5 C59.6,0.5 53.2,16.7 38.7,29.3 C31,36 22.7,39.3 17,49.9 C10.8,61.2 15.2,68.6 11.5,69.4 C7.8,70.2 6,65.7 6.6,60 C6.6,60 7.10542736e-15,64.1 7.10542736e-15,82.8 C7.10542736e-15,99.2 10.5,108.6 20,112.9 C27.6,116.3 33.4,126.3 33.4,126.3 C34.2,122.2 33,112.6 31.8,108.9 C29.9,102.9 23.6,99.3 23.6,89 C23.6,83.2 26.6,67.3 43.6,67.3 C60.4,67.3 64.5,82.9 64.4,89.1 C64.2,97.7 58,102.9 56.1,108.9 C54.9,112.6 53.3,121.9 53.9,126.3 C54,125.9 56.9,119.8 61,116.2" id="XMLID_2_"></path>
                        <path d="M43.8,129.2 L22.8,129.2 C22.8,129.2 22.8,128.9 27.5,142.9 C34.5,142.9 43.8,154.4 43.8,154.4 C43.8,154.4 53.1,143 60.1,143 C64.8,129 64.8,129.3 64.8,129.3 L43.8,129.3 L43.8,129.2 Z" id="XMLID_1_"></path>
                    </g>
                </g>
            </g>
        </g>
    </g>
</svg>