<?xml version="1.0" encoding="UTF-8" standalone="no"?>
<svg width="176px" height="200px" viewBox="0 0 176 200" version="1.1" xmlns="http://www.w3.org/2000/svg" xmlns:xlink="http://www.w3.org/1999/xlink">
    <!-- Generator: Sketch 45.1 (43504) - http://www.bohemiancoding.com/sketch -->
    <title>parachute</title>
    <desc>Created with Sketch.</desc>
    <defs></defs>
    <g id="Page-2" stroke="none" stroke-width="1" fill="none" fill-rule="evenodd">
        <g id="Desktop-HD" transform="translate(-313.000000, -962.000000)" fill-rule="nonzero" fill="#000000">
            <g id="parachute" transform="translate(313.000000, 962.000000)">
                <path d="M173.679866,80.4771812 C174.810738,79.3194631 175.308725,77.7812081 175.187248,76.285906 L175.247651,76.285906 C169.388591,33.2637584 132.412752,0 87.8080537,0 C43.3389262,0 6.45302013,33.0604027 0.422147651,75.8919463 C0.412751678,75.9583893 0.400671141,76.0241611 0.393959732,76.0912752 C0.385234899,76.1563758 0.375838926,76.2208054 0.367114094,76.285906 L0.382550336,76.285906 C0.287919463,77.7543624 0.789261745,79.2543624 1.89932886,80.3879195 L49.9436242,129.425503 C51.5127517,128.914094 53.1845638,128.634228 54.9214765,128.634228 L60.5302013,128.634228 C60.5187919,127.963087 60.514094,127.824161 60.514094,127.501342 C60.514094,126.655034 60.5583893,125.819463 60.6348993,124.991946 L11.1248322,74.4590604 C15.3134228,66.0610738 23.9825503,60.2899329 34.0067114,60.2899329 C42.738255,60.2899329 50.442953,64.6704698 55.0530201,71.3510067 L66.8610738,109.985235 C69.3308725,107.012081 72.4114094,104.56443 75.9080537,102.84698 L66.4308725,71.8422819 C70.9986577,64.8865772 78.8637584,60.2899329 87.8080537,60.2899329 C96.5818792,60.2899329 104.321477,64.7127517 108.92349,71.4483221 L99.5610738,102.787248 C103.067785,104.490604 106.157718,106.932215 108.642953,109.901342 L109.462416,107.157718 L120.191275,71.2436242 C124.810067,64.6241611 132.477181,60.2899329 141.161074,60.2899329 C151.320134,60.2899329 160.091946,66.2147651 164.214094,74.7973154 L114.983893,125.150336 C115.057047,125.967785 115.100671,126.791946 115.100671,127.626846 C115.100671,127.907383 115.096644,127.962416 115.087919,128.633557 L120.022148,128.633557 C121.988591,128.633557 123.872483,128.988591 125.616107,129.636913 L173.679866,80.4771812 Z" id="Shape"></path>
                <path d="M125.391275,144.742282 C125.391275,141.777181 122.987248,139.373154 120.022148,139.373154 L99.7959732,139.373154 C102.62349,136.01745 104.362416,132.052349 104.362416,127.628188 C104.362416,118.485906 96.9496644,110.822148 87.8080537,110.822148 C78.6651007,110.822148 71.252349,118.226174 71.252349,127.368456 C71.252349,131.614765 72.8530201,135.667785 75.4825503,138.597987 C75.4630872,138.632215 75.4436242,138.701342 75.4248322,138.701342 L75.4214765,138.701342 C75.3758389,138.701342 75.3302013,138.701342 75.2865772,139.372483 L54.9214765,139.372483 C51.9563758,139.372483 49.552349,141.77651 49.552349,144.741611 C49.552349,147.706711 51.9563758,150.110738 54.9214765,150.110738 L72.8187919,150.110738 L72.8187919,194.40604 C72.8187919,197.371141 75.2228188,199.775168 78.1879195,199.775168 C81.1530201,199.775168 83.557047,197.371141 83.557047,194.40604 L83.557047,177.283893 C84.8993289,177.502685 85.538255,177.627517 86.5771812,177.627517 C87.6161074,177.627517 88.9261745,177.503356 89.5973154,177.283893 L89.5973154,194.40604 C89.5973154,197.371141 92.0013423,199.775168 94.966443,199.775168 C97.9315436,199.775168 100.33557,197.371141 100.33557,194.40604 L100.33557,150.110738 L120.022148,150.110738 C122.987248,150.111409 125.391275,147.707383 125.391275,144.742282 Z" id="Shape"></path>
            </g>
        </g>
    </g>
</svg>