<?xml version="1.0" encoding="UTF-8"?>
<svg width="146px" height="31px" viewBox="0 0 146 31" version="1.1" xmlns="http://www.w3.org/2000/svg" xmlns:xlink="http://www.w3.org/1999/xlink">
    <!-- Generator: Sketch 47.1 (45422) - http://www.bohemiancoding.com/sketch -->
    <title>Rogers Logo</title>
    <desc>Created with Sketch.</desc>
    <defs></defs>
    <g id="Page-1" stroke="none" stroke-width="1" fill="none" fill-rule="evenodd">
        <g id="Desktop-HD-Copy" transform="translate(-929.000000, -2540.000000)" fill="#FFFFFF">
            <path d="M1068.15531,2548.6535 L1070.90605,2548.6535 L1070.90605,2549.05961 L1069.75758,2549.05961 L1069.75758,2552.0411 L1069.30185,2552.0411 L1069.30185,2549.05961 L1068.15531,2549.05961 L1068.15531,2548.6535 L1068.15531,2548.6535 Z M1074.55909,2552.0411 L1074.55909,2548.6535 L1073.90874,2548.6535 L1072.94767,2551.51938 L1072.94189,2551.51938 L1071.96973,2548.6535 L1071.31649,2548.6535 L1071.31649,2552.0411 L1071.75343,2552.0411 L1071.75343,2550.0414 C1071.75343,2549.9412 1071.74765,2549.51245 1071.74765,2549.20124 L1071.75343,2549.20124 L1072.70872,2552.04062 L1073.16975,2552.04062 L1074.11492,2549.19305 L1074.12697,2549.19305 C1074.12697,2549.51245 1074.11492,2549.9412 1074.11492,2550.0414 L1074.11492,2552.0411 C1074.11492,2552.0411 1074.55909,2552.0411 1074.55909,2552.0411 Z M989.223579,2555.70618 C989.223579,2557.4207 989.609454,2558.84183 990.414924,2559.78364 C991.096105,2560.58766 992.043688,2561.00678 993.137721,2561.00678 C994.232235,2561.00678 995.183673,2560.58766 995.864372,2559.78364 C996.670324,2558.84183 997.058607,2557.4207 997.058607,2555.70618 C997.058607,2553.98685 996.670324,2552.5662 995.864372,2551.62392 C995.183673,2550.81989 994.232235,2550.40174 993.137721,2550.40174 C992.043688,2550.40174 991.096105,2550.81989 990.414924,2551.62392 C989.609454,2552.5662 989.223579,2553.98637 989.223579,2555.70618 L989.223579,2555.70618 Z M999.471163,2549.57411 C1001.01081,2551.07955 1001.77774,2553.12406 1001.77774,2555.71582 C1001.77774,2558.28301 1001.0137,2560.32319 999.481761,2561.83537 C997.950308,2563.34707 995.834022,2564.10051 993.127604,2564.10051 C990.430821,2564.10051 988.31598,2563.34659 986.783564,2561.83537 C985.252593,2560.32319 984.485662,2558.28301 984.485662,2555.71582 C984.485662,2553.12406 985.252111,2551.07955 986.783564,2549.57411 C988.315499,2548.0706 990.430821,2547.31619 993.127604,2547.31619 C995.816198,2547.31619 997.932966,2548.0706 999.471163,2549.57411 L999.471163,2549.57411 Z M1034.43059,2563.53784 C1035.69178,2563.53784 1036.13595,2563.35767 1036.74053,2561.08 L1036.82628,2560.74712 L1028.59864,2560.74712 L1028.59864,2556.71158 L1033.28597,2556.71158 C1034.48984,2556.71158 1034.9923,2556.52707 1035.60074,2554.25277 L1035.68504,2553.92904 L1028.59864,2553.92904 L1028.59864,2550.54385 L1033.65691,2550.54385 C1035.15705,2550.54385 1035.31651,2550.35838 1035.86569,2548.06385 L1035.93795,2547.74591 L1023.80677,2547.74591 L1023.80677,2563.5388 L1034.43059,2563.5388 L1034.43059,2563.53784 L1034.43059,2563.53784 Z M1060.05051,2561.15274 C1058.96274,2561.14311 1057.56762,2560.97354 1056.06411,2560.1512 L1054.93298,2562.71214 L1055.17578,2562.84462 C1055.83962,2563.19436 1057.72033,2564.09473 1060.52599,2564.09473 C1064.17228,2564.09473 1067.49388,2562.57484 1067.49388,2559.18387 C1067.49388,2556.68364 1065.70373,2555.51349 1063.50025,2554.29998 C1061.30015,2553.08696 1059.83325,2552.45395 1059.85926,2551.33102 C1059.88046,2550.55301 1060.7842,2550.19652 1062.14367,2550.22253 C1063.87987,2550.25144 1064.91753,2550.63153 1065.77166,2551.08533 L1066.98902,2548.64724 L1066.75971,2548.52343 C1066.14742,2548.20067 1064.39533,2547.37111 1061.50151,2547.37111 C1057.09021,2547.37111 1055.23118,2549.68973 1055.23118,2551.86045 C1055.23118,2553.13947 1055.46434,2554.86651 1059.05668,2556.79251 C1061.99241,2558.38274 1062.40574,2558.88085 1062.41489,2559.66706 C1062.42694,2560.67197 1061.44659,2561.16382 1060.05051,2561.15274 L1060.05051,2561.15274 Z M1054.62756,2563.53784 C1054.62756,2563.53784 1052.70734,2561.33869 1051.28042,2559.32068 C1050.41618,2558.10766 1049.73356,2557.12347 1049.19642,2556.29343 C1050.95814,2555.68836 1052.16586,2554.35683 1052.16586,2552.09891 C1052.16586,2550.42342 1051.49817,2549.35155 1050.27359,2548.62556 C1048.91604,2547.81672 1046.85805,2547.74494 1044.41755,2547.74494 L1039.11503,2547.74494 L1039.11503,2563.53784 L1043.78502,2563.53784 L1043.78502,2557.48477 L1044.26098,2557.48477 C1044.64011,2557.48477 1044.88339,2557.57678 1045.42583,2558.46174 C1046.59164,2560.33089 1047.16684,2561.2067 1047.93377,2562.44862 C1048.34422,2563.10813 1049.00324,2563.53784 1050.25287,2563.53784 L1054.62756,2563.53784 L1054.62756,2563.53784 Z M1047.43565,2552.58258 C1047.43565,2553.75562 1046.90044,2554.28361 1046.27418,2554.60637 C1045.8276,2554.83857 1045.14112,2554.95178 1044.41755,2554.95178 L1043.78502,2554.95178 L1043.78502,2550.32225 L1044.77404,2550.32225 C1046.57864,2550.32225 1047.43565,2551.14507 1047.43565,2552.58258 L1047.43565,2552.58258 Z M984.357519,2563.53784 C984.357519,2563.53784 982.433929,2561.33869 981.010868,2559.32068 C980.149997,2558.10766 979.466889,2557.12347 978.92734,2556.29343 C980.688583,2555.68836 981.894861,2554.35683 981.894861,2552.09891 C981.894861,2550.42342 981.229096,2549.35155 980.003067,2548.62556 C978.642631,2547.81672 976.586081,2547.74494 974.147029,2547.74494 L968.84114,2547.74494 L968.84114,2563.53784 L973.517394,2563.53784 L973.517394,2557.48477 L973.992391,2557.48477 C974.369112,2557.48477 974.609982,2557.57678 975.159166,2558.46174 C976.323051,2560.33089 976.896804,2561.2067 977.664698,2562.44862 C978.074659,2563.10813 978.73368,2563.53784 979.983797,2563.53784 L984.357519,2563.53784 L984.357519,2563.53784 Z M977.167542,2552.58258 C977.167542,2553.75562 976.623175,2554.28361 976.003657,2554.60637 C975.557084,2554.83857 974.872049,2554.95178 974.146548,2554.95178 L973.516431,2554.95178 L973.516431,2550.32225 L974.4987,2550.32225 C976.309081,2550.32225 977.167542,2551.14507 977.167542,2552.58258 L977.167542,2552.58258 Z M1020.27127,2555.07125 L1020.2838,2555.06643 L1011.83021,2555.06643 C1011.83021,2555.06643 1012.18092,2556.29343 1012.23632,2556.50057 C1012.58269,2557.72805 1012.84091,2557.83596 1013.55388,2557.84415 L1013.55774,2557.85186 L1015.79157,2557.85186 L1015.79157,2561.09397 C1015.17494,2561.22597 1014.47063,2561.28474 1013.68925,2561.25102 C1010.85084,2561.13974 1008.49079,2559.15015 1008.49079,2555.645 C1008.49079,2552.42023 1010.68319,2550.33671 1014.06934,2550.33671 C1015.85612,2550.33671 1017.37505,2550.70427 1018.67671,2551.30308 L1020.30258,2548.72047 L1020.05304,2548.57305 C1019.02742,2547.96751 1017.33795,2547.37063 1014.47063,2547.29259 C1011.46746,2547.20973 1008.73696,2548.20308 1007.30426,2549.15066 C1005.96743,2550.05585 1003.72734,2552.12685 1003.72734,2555.84348 C1003.72734,2558.01131 1004.39262,2559.80869 1005.6967,2561.18454 C1007.4695,2563.0561 1010.48809,2564.09425 1013.98215,2564.09425 C1016.90198,2564.09425 1018.99707,2563.54555 1020.31993,2562.78103 L1020.31993,2555.07125 L1020.27127,2555.07125 Z M935.904061,2554.85591 C936.287045,2554.17473 936.532251,2553.73298 937.1272,2552.92895 C940.661248,2548.21705 948.670666,2540.75922 955.502227,2544.03602 C952.84013,2541.62491 949.259352,2540 945.381823,2540 C941.312562,2540 938.43898,2541.08392 935.859741,2543.6251 C935.306703,2544.17428 934.036835,2546.79013 934.036835,2548.86451 C934.036835,2550.6007 934.541217,2552.53778 935.904061,2554.85591 L935.904061,2554.85591 Z M944.739182,2564.97632 C944.058482,2564.58996 943.616726,2564.34716 942.813183,2563.74836 C938.101761,2560.21624 930.640565,2552.20682 933.917363,2545.37285 C931.507697,2548.0388 929.881823,2551.61862 929.881823,2555.49759 C929.881823,2559.56541 930.963812,2562.43803 933.50692,2565.01823 C934.054659,2565.57078 936.67051,2566.84162 938.743921,2566.84162 C940.482041,2566.8421 942.418156,2566.33723 944.739182,2564.97632 L944.739182,2564.97632 Z M954.857177,2556.14361 C954.471303,2556.81949 954.227542,2557.26172 953.632593,2558.06912 C950.098544,2562.77862 942.090091,2570.23789 935.256602,2566.96205 C937.922554,2569.37461 941.502367,2571 945.381823,2571 C949.448195,2571 952.31985,2569.91175 954.899088,2567.37201 C955.456462,2566.82524 956.727293,2564.20794 956.727293,2562.13549 C956.727293,2560.39689 956.216649,2558.46222 954.857177,2556.14361 L954.857177,2556.14361 Z M946.022056,2546.01983 C946.703719,2546.40378 947.143548,2546.64995 947.9495,2547.24586 C952.661404,2550.78039 960.120673,2558.78884 956.841948,2565.62233 C959.252095,2562.95445 960.88086,2559.37897 960.88086,2555.49807 C960.88086,2551.42977 959.793572,2548.55619 957.255763,2545.97888 C956.706097,2545.42392 954.090728,2544.15212 952.01539,2544.15212 C950.276307,2544.15164 948.3426,2544.66036 946.022056,2546.01983 L946.022056,2546.01983 Z" id="Rogers-Logo"></path>
        </g>
    </g>
</svg>