<?xml version="1.0" encoding="UTF-8" standalone="no"?>
<svg width="200px" height="84px" viewBox="0 0 200 84" version="1.1" xmlns="http://www.w3.org/2000/svg" xmlns:xlink="http://www.w3.org/1999/xlink">
    <!-- Generator: Sketch 45.1 (43504) - http://www.bohemiancoding.com/sketch -->
    <title>superman-flying</title>
    <desc>Created with Sketch.</desc>
    <defs></defs>
    <g id="Page-2" stroke="none" stroke-width="1" fill="none" fill-rule="evenodd">
        <g id="Desktop-HD" transform="translate(-945.000000, -1274.000000)" fill-rule="nonzero" fill="#010002">
            <g id="superman-flying" transform="translate(945.000000, 1273.000000)">
                <circle id="Oval" cx="154.25625" cy="18.946875" r="13.6875"></circle>
                <path d="M191.05,30.503125 C176.26875,34.290625 161.375,37.540625 146.378125,40.284375 C146.31875,39.35625 146.171875,38.396875 145.903125,37.409375 C142.89375,26.571875 126.48125,23.0875 122.5,21.509375 C125.059375,18.725 127.61875,15.94375 130.178125,13.1625 C135.903125,6.94375 126.640625,-2.3625 120.896875,3.88125 C116.20625,8.984375 111.509375,14.090625 106.815625,19.190625 C104.140625,22.1 104.184375,27.565625 108.146875,29.49375 C110.346875,30.565625 112.596875,31.546875 114.8625,32.49375 C99.85625,36.971875 92.790625,37.553125 92.459375,37.578125 C62.934375,40.128125 36.934375,42.425 7.409375,44.978125 C-3.05,45.88125 -2.16875,62.159375 8.375,61.25 C25.90625,59.740625 43.440625,58.2125 60.971875,56.70625 C44.9,60.7375 28.825,64.771875 12.75625,68.796875 C2.5,71.365625 6.85,87.1875 17.115625,84.615625 C37.7375,79.45 117.1625,61.5375 132.21875,55.928125 C153.190625,52.66875 173.96875,48.43125 194.5375,43.153125 C202.734375,41.05 199.25625,28.4 191.05,30.503125 Z" id="Shape"></path>
                <path d="M102.51875,30.909375 C101.475,29.59375 100.753125,28.0125 100.421875,26.26875 C100.284375,25.5375 100.271875,24.79375 100.271875,24.05625 L100.1125,23.83125 L2.921875,8.51875 L14.715625,39.540625 L92.05,32.85625 C92.259375,32.8375 95.6375,32.5375 102.51875,30.909375 Z" id="Shape"></path>
            </g>
        </g>
    </g>
</svg>