<?xml version="1.0" encoding="UTF-8"?>
<svg width="200px" height="200px" viewBox="0 0 200 200" version="1.1" xmlns="http://www.w3.org/2000/svg" xmlns:xlink="http://www.w3.org/1999/xlink">
    <!-- Generator: Sketch 45 (43475) - http://www.bohemiancoding.com/sketch -->
    <title>team-2</title>
    <desc>Created with Sketch.</desc>
    <defs></defs>
    <g id="Page-1" stroke="none" stroke-width="1" fill="none" fill-rule="evenodd">
        <g id="Desktop-HD" transform="translate(-314.000000, -1567.000000)" fill-rule="nonzero" fill="#000000">
            <g id="team-2" transform="translate(314.000000, 1567.000000)">
                <path d="M177.691016,168.125391 L174.405078,166.807813 C190.929688,148.425781 200,124.814844 200,100 C200,79.6988281 193.8625,60.1652344 182.680078,43.7445312 C182.544531,43.4777344 182.376563,43.2375 182.18125,43.0277344 C177.282422,35.9671875 171.450781,29.4914062 164.758594,23.7988281 C163.430078,22.66875 161.4375,22.8296875 160.307422,24.1582031 C159.177344,25.4867187 159.338281,27.4800781 160.666406,28.6097656 C166.035156,33.1765625 170.813672,38.28125 174.958984,43.8058594 C168.274609,46.4183594 160.251172,48.6308594 151.294141,50.3789062 C148.821484,43.0117188 145.782422,36.1429688 142.209766,29.9457031 C137.394531,21.5921875 131.855859,14.865625 125.819531,9.91835937 C135.214453,12.6042969 144.164062,16.7660156 152.376953,22.3140625 C153.822266,23.2894531 155.784766,22.9101562 156.761328,21.4648438 C157.7375,20.0199219 157.357422,18.0570313 155.912109,17.0804688 C139.373437,5.90625 120.039062,0 100,0 C73.2886719,0 48.1769531,10.4015625 29.2898437,29.2898437 C10.4015625,48.1769531 0,73.2894531 0,100 C0,124.846875 9.0828125,148.460938 25.634375,166.849609 L22.3898438,168.120312 C21.1949219,168.551953 11.034375,172.604688 11.034375,185.523828 L11.034375,196.839062 C11.034375,198.583594 12.4476562,200 14.1921875,200 L32.3578125,200 L35.1855469,200 L38.5539062,200 L54.7109375,200 L60.6742187,200 C60.8265625,200 60.9753906,199.985547 61.121875,199.964453 C61.26875,199.985547 61.4171875,200 61.5695312,200 L74.41875,200 C76.1632812,200 77.5765625,198.586719 77.5765625,196.842187 C77.5765625,195.097656 76.1628906,193.684375 74.41875,193.684375 L64.7273437,193.684375 L64.7273437,182.686328 C64.7273437,171.083203 73.8414062,167.745703 74.209375,167.616016 C74.2582031,167.599609 74.3066406,167.582031 74.3550781,167.562891 L89.7332031,161.540234 C89.7664062,161.576172 89.7976562,161.613672 89.8328125,161.648047 L98.0054687,169.608203 C98.5957031,170.182422 99.3867187,170.503906 100.208984,170.503906 C100.225391,170.503906 100.242187,170.503906 100.258594,170.503516 C101.098828,170.490625 101.9,170.142578 102.482422,169.537109 L110.329687,161.394922 L125.687109,167.553516 C125.742969,167.576172 125.779687,167.590234 125.836719,167.608984 C126.224609,167.745312 135.339844,171.083984 135.339844,182.686328 L135.339844,193.684375 L112.242187,193.684375 L87.8238281,193.684375 L84.2882812,193.684375 C82.54375,193.684375 81.1304687,195.098047 81.1304687,196.842187 C81.1304687,198.586719 82.5441406,200 84.2882812,200 L87.8238281,200 L112.242187,200 L138.498047,200 L138.498437,200 L138.498828,200 L142.527734,200 L145.355078,200 L148.724219,200 L164.880469,200 L185.874609,200 C187.619141,200 189.032422,198.564063 189.032422,196.819922 L189.032422,185.523828 C189.033203,172.654297 178.949219,168.582812 177.691016,168.125391 Z M168.135938,164.29375 L165.023047,163.045313 L165.023047,161.248437 C168.463281,159.230859 171.107422,155.999219 172.363672,152.144531 C176.957813,151.781641 180.586719,147.935156 180.586719,143.249609 C180.586719,140.462891 179.302344,137.972266 177.296484,136.332422 L177.296484,130.719922 C177.296484,119.898828 169.176172,110.944531 158.710547,109.615625 C158.829688,107.474609 158.912109,105.317578 158.951953,103.157813 L193.625781,103.157813 C192.866797,126.016016 183.887891,147.607031 168.135938,164.29375 Z M156.735156,157.184766 L153.855078,157.184766 C148.275,157.184766 143.735547,152.645312 143.735547,147.066016 L143.735547,138.710547 L143.735547,138.710547 C147.849219,138.264062 155.135547,136.826172 160.749219,132.137891 C162.006641,134.294531 163.952344,136.626953 166.854688,137.989062 L166.854688,147.065625 C166.854297,152.645312 162.314844,157.184766 156.735156,157.184766 Z M158.707813,163.377734 L158.707813,165.128516 L155.189063,168.779297 L151.882812,165.559375 L151.882812,163.377344 C152.530078,163.455078 153.1875,163.5 153.855469,163.5 L156.735547,163.5 C157.403516,163.500391 158.060156,163.455469 158.707813,163.377734 Z M140.587891,132.6 C140.584375,132.6 140.580859,132.6 140.577344,132.6 C140.46875,132.6 140.360938,132.605859 140.255078,132.616406 C140.221094,132.619922 140.187891,132.626953 140.153906,132.631641 C140.082813,132.641016 140.011719,132.649609 139.942188,132.664062 C139.894531,132.673438 139.848828,132.687891 139.801953,132.7 C139.747656,132.713672 139.692969,132.725391 139.640234,132.741797 C139.605859,132.752344 139.573438,132.766797 139.539453,132.778516 L139.539453,130.720313 C139.539453,122.467969 146.253125,115.754688 154.505469,115.754688 L156.015625,115.754688 C164.267578,115.754688 170.980078,122.467969 170.980078,130.720313 L170.980078,132.752734 C170.920703,132.733594 170.860547,132.71875 170.799609,132.703516 C170.770703,132.695312 170.741797,132.685937 170.7125,132.678516 C166.310156,131.677344 164.870313,125.801953 164.859766,125.757422 C164.585938,124.547266 163.628516,123.609766 162.4125,123.361328 C161.196484,123.112109 159.948438,123.598828 159.221094,124.604297 C153.502734,132.509375 140.755078,132.6 140.587891,132.6 Z M173.169922,145.377734 L173.169922,141.122266 C173.834766,141.596875 174.270703,142.373047 174.270703,143.250391 C174.270703,144.127734 173.834766,144.903125 173.169922,145.377734 Z M178.665234,49.1203125 C187.8125,63.2515625 193.050391,79.7023438 193.625,96.8417969 L158.950391,96.8417969 C158.694141,82.6273438 156.707812,68.9175781 153.166016,56.4320313 C162.875,54.5035156 171.531641,52.0390625 178.665234,49.1203125 Z M152.633984,96.8425781 L120.313281,96.8425781 C120.309766,96.8421875 120.306641,96.8425781 120.303516,96.8425781 C115.995313,92.0800781 109.939063,88.9335938 103.157813,88.4101562 L103.157813,61.2539062 C118.654297,61.0996094 133.608594,59.8109375 146.932031,57.5714844 C150.418359,69.6464844 152.375,82.9800781 152.633984,96.8425781 Z M124.777344,129.818359 C124.777344,131.675781 123.522656,133.241797 121.816797,133.723437 L121.816797,125.912109 C123.522656,126.394531 124.777344,127.960938 124.777344,129.818359 Z M103.157813,6.49101563 C115.724609,7.83320313 127.548047,17.1574219 136.737891,33.0996094 C139.962891,38.69375 142.732031,44.8742188 145.014844,51.5039062 C132.282813,53.5886719 117.994141,54.7886719 103.157422,54.9375 L103.157422,6.49101563 L103.157813,6.49101563 Z M101.155078,94.640625 C111.911719,94.640625 120.6625,103.392188 120.6625,114.149219 L120.6625,118.008203 C120.641406,117.991406 120.619141,117.976562 120.597656,117.959766 C120.551953,117.923828 120.505469,117.888672 120.457422,117.855469 C120.420313,117.829688 120.382031,117.805859 120.34375,117.781641 C120.296484,117.751562 120.249609,117.721875 120.200391,117.694531 C120.155469,117.669141 120.108984,117.646875 120.062891,117.623828 C120.01875,117.601953 119.975,117.579687 119.929688,117.559375 C119.874219,117.534766 119.816797,117.514453 119.760156,117.492969 C119.720703,117.478125 119.681641,117.462891 119.641797,117.449609 C119.578125,117.428516 119.5125,117.411719 119.447266,117.394922 C119.418359,117.386719 119.389844,117.376953 119.360156,117.369922 C113.361328,116.005859 111.460938,108.184375 111.444922,108.116406 C111.171094,106.90625 110.213672,105.96875 108.997656,105.720312 C107.782031,105.470312 106.533594,105.957812 105.80625,106.963281 C98.4113281,117.186719 82.0757813,117.291406 81.8601563,117.291406 C81.8597656,117.291406 81.859375,117.291406 81.859375,117.291406 C81.8550781,117.291406 81.8519531,117.291406 81.8480469,117.291406 C81.7394531,117.291406 81.6316406,117.296875 81.5257813,117.307422 C81.4925781,117.311328 81.4605469,117.317969 81.4273438,117.322656 C81.3558594,117.332422 81.2832031,117.341016 81.2128906,117.355078 C81.1679688,117.364453 81.1242188,117.378516 81.0792969,117.389453 C81.0230469,117.403516 80.965625,117.416016 80.9109375,117.432812 C80.8597656,117.448828 80.8105469,117.469531 80.7605469,117.487891 C80.7148438,117.504687 80.6671875,117.519531 80.621875,117.538281 C80.5640625,117.562891 80.5089844,117.591797 80.4539063,117.61875 C80.4179688,117.636328 80.3816406,117.651562 80.3464844,117.670703 C80.2894531,117.701172 80.2363281,117.736328 80.1816406,117.769922 C80.1503906,117.789844 80.1175781,117.807422 80.0863281,117.828125 C80.0355469,117.8625 79.9875,117.900781 79.9382813,117.938281 C79.9066406,117.962109 79.8738281,117.983984 79.8429688,118.009375 C79.8140625,118.033203 79.7871094,118.060156 79.7585938,118.085156 L79.7585938,114.148828 C79.7585938,103.391797 88.509375,94.640625 99.2660156,94.640625 L101.155078,94.640625 Z M47.3660156,96.8421875 C47.625,82.9773438 49.5824219,69.6410156 53.0695313,57.5648437 C66.4117188,59.8074219 81.3820313,61.0988281 96.8421875,61.2542969 L96.8421875,88.4425781 C90.2222656,89.0625 84.3210938,92.1882813 80.1003906,96.8632812 C79.9855469,96.8507812 79.86875,96.8425781 79.7503906,96.8425781 L47.3660156,96.8425781 L47.3660156,96.8421875 Z M78.6902344,125.879688 L78.6902344,133.757031 C76.9195313,133.319141 75.6019531,131.722266 75.6019531,129.818359 C75.6015625,127.914844 76.9195313,126.317969 78.6902344,125.879688 Z M96.8421875,6.49101563 L96.8421875,54.9375 C82.040625,54.7875 67.740625,53.5828125 54.9882812,51.4941406 C57.2707031,44.8683594 60.0386719,38.6917969 63.2621094,33.0996094 C72.4519531,17.1574219 84.2753906,7.83320313 96.8421875,6.49101563 Z M74.1457031,9.94609375 C68.1230469,14.8914063 62.5960938,21.6074219 57.7898438,29.9453125 C54.2183594,36.1410156 51.1804688,43.0066406 48.7082031,50.371875 C39.7625,48.6261719 31.7519531,46.41875 25.0800781,43.8164063 C37.1746094,27.7285156 54.3230469,15.6460938 74.1457031,9.94609375 Z M21.3632812,49.1351563 C28.4789063,52.0429687 37.1371094,54.4980469 46.8367188,56.4246094 C43.2925781,68.9117187 41.30625,82.6246094 41.0492188,96.8421875 L6.375,96.8421875 C6.95898438,79.3007812 12.3867188,62.9660156 21.3632812,49.1351563 Z M41.7121094,163.378125 C42.359375,163.455859 43.0167969,163.500391 43.6847656,163.500391 L46.5652344,163.500391 C47.2324219,163.500391 47.8898438,163.455859 48.5367188,163.377734 L48.5367188,165.128125 L45.01875,168.778906 L41.7121094,165.558984 L41.7121094,163.378125 L41.7121094,163.378125 Z M46.5652344,157.184766 L43.6847656,157.184766 C38.1046875,157.184766 33.5652344,152.645312 33.5652344,147.065625 L33.5652344,138.714062 C37.678125,138.269141 44.9617188,136.828906 50.5789063,132.137891 C51.8367188,134.294922 53.7820313,136.627734 56.6839844,137.989844 L56.6839844,147.066016 C56.6835938,152.645312 52.1445313,157.184766 46.5652344,157.184766 Z M54.690625,125.757031 C54.4167969,124.546875 53.459375,123.609375 52.2433594,123.360938 C51.0273438,123.111719 49.7789063,123.598438 49.0523438,124.603906 C43.3296875,132.513672 30.571875,132.600391 30.4179688,132.600391 C30.4140625,132.600391 30.4109375,132.600391 30.4074219,132.600391 C30.2988281,132.600391 30.1910156,132.605859 30.0851563,132.616406 C30.0519531,132.620313 30.0199219,132.626953 29.9867188,132.631641 C29.9152344,132.641016 29.8425781,132.65 29.7722656,132.664063 C29.7273438,132.673438 29.6835938,132.6875 29.6386719,132.698438 C29.5824219,132.7125 29.5253906,132.725 29.4703125,132.741797 C29.4363281,132.752344 29.4042969,132.766797 29.3707031,132.778516 L29.3707031,130.720313 C29.3707031,122.467969 36.0839844,115.754297 44.3363281,115.754297 L45.846875,115.754297 C54.0988281,115.754297 60.8113281,122.467969 60.8113281,130.720313 L60.8113281,132.753125 L60.8105469,132.753125 C60.75,132.733203 60.6871094,132.718359 60.6253906,132.702344 C60.5976563,132.695313 60.5707031,132.685547 60.5425781,132.678906 C56.1410156,131.677734 54.7011719,125.801172 54.690625,125.757031 Z M6.37460937,103.157812 L41.0484375,103.157812 C41.0878906,105.332812 41.171875,107.505078 41.2917969,109.659766 C30.9945313,111.140625 23.0539063,120.01875 23.0539063,130.719922 L23.0539063,136.307812 C21.0285156,137.946875 19.7296875,140.448438 19.7296875,143.249609 C19.7296875,147.969922 23.4144531,151.836719 28.0578125,152.15 C29.3140625,156.002344 31.9570313,159.23125 35.3960938,161.248438 L35.3960938,163.026953 L31.9464844,164.377734 C16.1414063,147.678125 7.13398437,126.065234 6.37460937,103.157812 Z M27.2488281,141.051953 L27.2488281,145.447266 C26.5261719,144.981641 26.0453125,144.171484 26.0453125,143.250391 C26.0453125,142.328516 26.5261719,141.518359 27.2488281,141.051953 Z M58.4109375,182.686719 L58.4109375,193.684375 L54.7101563,193.684375 L38.5535156,193.684375 L35.1851563,193.684375 L32.3578125,193.684375 L17.3503906,193.684375 L17.3503906,185.523828 C17.3503906,176.719531 24.2332031,174.167969 24.5007813,174.073047 C24.5496094,174.056641 24.5984375,174.039062 24.6464844,174.019922 L36.5570313,169.355469 L42.8859375,175.519531 C43.4757813,176.094141 44.2664063,176.415234 45.0890625,176.415234 C45.1054688,176.415234 45.1222656,176.415234 45.1390625,176.414844 C45.9792969,176.401953 46.7800781,176.053906 47.3625,175.448437 L53.340625,169.244531 L60.7300781,172.207422 C59.3289063,175.075 58.4109375,178.548047 58.4109375,182.686719 Z M88.8789063,155.092188 L72.1179688,161.655859 C69.9835938,162.390234 67.0296875,164.084375 64.409375,166.878125 L54.8519531,163.045313 L54.8519531,161.249219 C58.2929688,159.23125 60.9367188,155.999609 62.1929688,152.144531 C66.7875,151.781641 70.4167969,147.935156 70.4167969,143.249609 C70.4167969,140.462891 69.1320313,137.972266 67.1261719,136.332422 L67.1261719,130.719922 C67.1261719,119.579688 58.5207031,110.417578 47.609375,109.517188 C47.4890625,107.410547 47.4058594,105.285547 47.365625,103.157422 L75.9046875,103.157422 C74.328125,106.494531 73.4421875,110.219141 73.4421875,114.148438 L73.4421875,121.517188 C70.9199219,123.412109 69.2851563,126.427344 69.2851563,129.818359 C69.2851563,135.486328 73.8542969,140.105078 79.5027344,140.191797 C80.9847656,145.197266 84.3984375,149.379297 88.878125,151.871094 L88.878125,155.092188 L88.8789063,155.092188 Z M62.9996094,145.378125 L62.9996094,141.121094 C63.6648437,141.596094 64.1011719,142.372266 64.1011719,143.25 C64.1011719,144.127734 63.6648437,144.903516 62.9996094,145.378125 Z M105.312891,157.296094 C105.312891,157.300391 105.312891,157.304687 105.312891,157.307812 L105.312891,157.499219 L100.138672,162.868359 L95.1945313,158.052734 L95.1945313,154.079297 C96.2550781,154.25625 97.3425781,154.352734 98.453125,154.352734 L102.055469,154.352734 C103.165234,154.352734 104.252344,154.25625 105.312891,154.080078 L105.312891,157.296094 Z M102.055469,148.0375 L98.453125,148.0375 C91.0382813,148.0375 85.0058594,142.005469 85.0058594,134.590625 L85.0058594,123.441406 C90.0457031,122.977344 100.011328,121.225391 107.290625,114.690625 C108.826953,117.598047 111.402344,120.973438 115.501563,122.724219 L115.501563,134.590234 C115.501172,142.005469 109.469531,148.0375 102.055469,148.0375 Z M135.677344,166.899609 C133.057422,164.098828 130.1,162.398828 127.960937,161.660547 L111.628125,155.110156 L111.628125,151.871094 C116.108984,149.378906 119.521875,145.195703 121.003516,140.188672 C126.592187,140.033984 131.092187,135.442969 131.092187,129.81875 C131.092187,126.447266 129.475,123.447266 126.977344,121.550391 L126.977344,114.148828 C126.977344,110.219922 126.091797,106.494922 124.514844,103.157813 L152.633203,103.157813 C152.592187,105.294531 152.508594,107.428125 152.386719,109.544922 C141.642188,110.610938 133.222656,119.700391 133.222656,130.719922 L133.222656,136.308594 C131.197656,137.947266 129.899219,140.448828 129.899219,143.25 C129.899219,147.970703 133.583984,151.8375 138.227344,152.150391 C139.483594,156.002734 142.126953,159.231641 145.566016,161.248828 L145.566016,163.027344 L135.677344,166.899609 Z M137.419922,141.051953 L137.419922,145.447266 C136.696875,144.981641 136.216406,144.171484 136.216406,143.250391 C136.216406,142.328516 136.697266,141.517969 137.419922,141.051953 Z M182.717578,193.684375 L164.88125,193.684375 L148.725,193.684375 L145.355859,193.684375 L142.528516,193.684375 L141.656641,193.684375 L141.656641,182.686328 C141.656641,178.564453 140.746875,175.103125 139.354688,172.242578 L146.728125,169.355078 L153.05625,175.519141 C153.646094,176.09375 154.436719,176.415234 155.259766,176.415234 C155.276172,176.415234 155.292969,176.415234 155.309375,176.414844 C156.149609,176.401953 156.950391,176.053906 157.533203,175.448437 L163.511719,169.244531 L175.396875,174.010156 C175.452344,174.032812 175.483203,174.044531 175.540625,174.064062 C175.833594,174.167969 182.717969,176.719922 182.717969,185.524219 L182.717969,193.684375 L182.717578,193.684375 Z" id="Shape"></path>
            </g>
        </g>
    </g>
</svg>