<?xml version="1.0" encoding="UTF-8"?>
<svg width="111px" height="36px" viewBox="0 0 111 36" version="1.1" xmlns="http://www.w3.org/2000/svg" xmlns:xlink="http://www.w3.org/1999/xlink">
    <!-- Generator: Sketch 47.1 (45422) - http://www.bohemiancoding.com/sketch -->
    <title>telus-digital-logo</title>
    <desc>Created with Sketch.</desc>
    <defs></defs>
    <g id="Page-1" stroke="none" stroke-width="1" fill="none" fill-rule="evenodd">
        <g id="Desktop-HD-Copy" transform="translate(-481.000000, -2624.000000)">
            <g id="telus-digital-logo" transform="translate(481.000000, 2624.000000)">
                <g id="Group">
                    <g id="Layer_17" transform="translate(55.699628, 3.343887)"></g>
                    <g id="Layer_16" transform="translate(69.173634, 3.343887)"></g>
                    <g id="Layer_15" transform="translate(96.333833, 3.030398)"></g>
                    <g id="Layer_14" transform="translate(41.270772, 3.343887)"></g>
                    <g id="Layer_13" transform="translate(81.162315, 3.343887)"></g>
                    <g id="Layer_12"></g>
                    <g id="Layer_11" transform="translate(56.654479, 18.286882)"></g>
                    <g id="Layer_10" transform="translate(68.643161, 18.286882)"></g>
                    <g id="Layer_9" transform="translate(72.144280, 21.735266)"></g>
                    <g id="Layer_8" transform="translate(83.920773, 18.286882)"></g>
                    <g id="Layer_7" transform="translate(86.891420, 19.122854)"></g>
                    <g id="Layer_6" transform="translate(68.752039, 3.339762)"></g>
                    <g id="Layer_5" transform="translate(104.503112, 18.286882)"></g>
                    <g id="Layer_4" transform="translate(107.367664, 18.286882)"></g>
                    <g id="Layer_3" transform="translate(109.065177, 18.286882)"></g>
                    <polyline id="Shape" fill="#FFFFFF" points="63.5187951 5.58011148 63.5187951 3.41703456 55.6996282 3.41703456 55.6996282 14.5250093 63.5187951 14.5250093 63.5187951 12.2678855 58.8612452 12.2678855 58.8612452 9.81221851 62.7336955 9.81221851 62.7336955 7.65959123 58.8612452 7.65959123 58.8612452 5.58011148 63.5187951 5.58011148"></polyline>
                    <polyline id="Shape" fill="#FFFFFF" points="77.3110839 12.3305834 72.4201261 12.3305834 72.4201261 3.41703456 69.2160713 3.41703456 69.2160713 14.5250093 77.3110839 14.5250093 77.3110839 12.3305834"></polyline>
                    <path d="M103.123883,7.64914158 C100.959555,7.16845782 100.206284,7.11620959 100.206284,6.26978818 C100.206284,5.47561501 101.277838,5.23527313 101.893187,5.23527313 C102.890475,5.23527313 104.068124,5.46516537 105.266993,6.07124489 L106.136968,4.02311408 C104.906271,3.36478632 103.336072,3.0930955 101.81892,3.0930955 C98.8376641,3.0930955 96.8324774,4.28435526 96.7476018,6.60417689 C96.6627262,8.72545522 98.4132859,9.51962839 100.015313,9.84356745 C101.564293,10.1570569 103.134493,10.4287477 103.166321,11.337867 C103.198149,12.1738387 102.434269,12.5291267 100.991383,12.5291267 C99.6545919,12.5291267 98.4132859,12.1111408 97.150761,11.5886585 L96.4080993,13.8144333 C97.8615944,14.4205128 99.3469178,14.7653512 100.874679,14.7653512 C102.99657,14.7653512 104.53494,14.4414121 105.680761,13.3859978 C106.47647,12.6649721 106.731097,11.7872018 106.731097,10.9616797 C106.731097,9.19568933 105.617105,8.20297287 103.123883,7.64914158" id="Shape" fill="#FFFFFF"></path>
                    <polyline id="Shape" fill="#FFFFFF" points="51.1481729 5.61146042 51.1481729 3.41703456 41.3132099 3.41703456 41.3132099 5.61146042 44.6339687 5.61146042 44.6339687 14.5250093 47.8168046 14.5250093 47.8168046 5.61146042 51.1481729 5.61146042"></polyline>
                    <path d="M88.2388205,3.41703456 L88.2388205,10.4809959 C88.2388205,11.0348272 88.2388205,11.1915719 88.2069922,11.4005648 C88.1008976,12.0693423 87.4431116,12.4664288 86.3821663,12.4768785 C85.5970667,12.4664288 85.0241563,12.2365366 84.7589199,11.83945 C84.6209971,11.6304571 84.5573403,11.2647194 84.5573403,10.6690896 L84.5573403,3.41703456 L81.2365816,3.41703456 L81.2365816,11.0766258 C81.2365816,12.1320401 81.3851139,12.6127239 81.8625393,13.2188034 C82.6688577,14.2115199 84.2284473,14.7340022 86.3821663,14.7340022 L86.4564324,14.7340022 L86.4988702,14.7340022 C89.3846414,14.7340022 90.8699649,13.6263397 91.3049524,12.5918246 C91.5171415,12.0902415 91.5383604,11.8498997 91.5383604,10.8362839 L91.5383604,3.41703456 L88.2388205,3.41703456" id="Shape" fill="#FFFFFF"></path>
                    <path d="M42.8091428,0.376187291 L27.8604236,3.30208844 C28.3590678,2.49746563 28.666742,1.7346414 28.7197892,1.06586399 L28.7197892,1.00316611 C28.7197892,0.752374582 28.6136947,0.501583055 28.4227246,0.313489409 C28.221145,0.114946117 27.9452992,0.010449647 27.6588439,0.0208992939 C26.7570404,0.0731475288 25.0701374,1.38980305 24.1577245,2.18397622 C23.1922642,3.00949833 22.3010702,3.81412114 21.4629234,4.60829431 L4.49840807,8.19252323 L3.73452745,10.1988554 L19.6593164,6.3847343 C18.1315552,7.98353029 16.8372019,9.57187663 15.7656471,11.1915719 C11.6279605,13.3755481 6.36567179,15.6117726 1.12460202,17.3673133 L0.997288581,17.4091119 L0,20.0737718 L0.572910462,19.8543292 C3.9042787,18.6003716 9.45302262,16.2596507 14.4925128,13.6472389 C14.2060576,14.3891639 14.0681347,15.0788406 14.0681347,15.7058194 C14.0681347,16.1760535 14.1530103,16.604489 14.3015426,17.0015756 C14.6198262,17.7852991 15.2457839,18.380929 16.1051496,18.7257674 C17.3995029,19.2273504 19.1500626,19.2378001 21.1552493,18.6421702 C26.2796151,17.1060721 32.3588316,12.4141806 33.6850132,11.4737124 L33.7380605,11.4423634 C33.7911078,11.4110145 33.7911078,11.3483166 33.7698889,11.3169677 C33.7380605,11.2751691 33.6850132,11.2647194 33.631966,11.2856187 L33.5683093,11.3274173 C32.1466426,12.1633891 25.2398887,16.1969528 20.7520901,17.3882126 C18.4710577,17.9942921 16.7311074,17.6599034 16.0733213,16.7612337 C15.8399133,16.458194 15.7338188,16.0611074 15.7338188,15.6013229 C15.7338188,14.7131029 16.1581969,13.5740914 16.9857342,12.3201338 C17.7390054,11.8916983 18.4498388,11.484162 19.0757965,11.0870754 C21.897911,9.53007804 24.9852618,7.01171312 26.8843539,4.66054255 C37.4301502,2.10037904 42.7985334,0.58518023 42.8515806,0.564280936 C42.9258468,0.543381643 42.9470657,0.491133408 42.9364563,0.44933482 C42.9364563,0.397086585 42.883409,0.365737644 42.8091428,0.376187291 Z M27.1708091,1.40025269 C27.4572643,1.21215905 27.54214,1.32710517 27.4572643,1.5360981 C27.3829982,1.7137421 27.1495902,2.41386845 26.1629111,3.64692679 L24.2107717,4.03356373 L24.2107717,4.03356373 L24.1152866,4.05446302 L23.7227369,4.1380602 C25.0913563,2.88410256 26.3432718,1.92273504 27.1708091,1.40025269 Z M21.9933961,7.64914158 C20.773309,8.64185805 19.9033338,9.19568933 18.1315552,10.2197547 C19.2561572,8.66275734 20.5823388,7.17890747 21.897911,5.86225195 L24.1683339,5.31887031 L24.2319906,5.30842066 C24.4229608,5.26662207 24.592712,5.22482349 24.7730727,5.1830249 C24.0516299,5.88315124 23.1498264,6.70867336 21.9933961,7.64914158 Z" id="Shape" fill="#FFFFFF"></path>
                    <path d="M64.8555861,32.0386176 L64.8555861,30.1576812 L64.8131483,30.1576812 C64.6858349,30.4816202 64.4948647,30.7742103 64.2402379,31.0354515 C63.985611,31.3071423 63.6991558,31.5265849 63.3702627,31.7146786 C63.0413697,31.9027722 62.7018672,32.0490673 62.3305363,32.1431141 C61.9592055,32.2476106 61.5878746,32.2998588 61.2271532,32.2998588 C60.4632726,32.2998588 59.7948771,32.1640134 59.232576,31.8923226 C58.670275,31.6206317 58.1928497,31.2444444 57.8215188,30.7637607 C57.4395785,30.2830769 57.1637327,29.7292456 56.983372,29.0918172 C56.8030113,28.4543887 56.7075262,27.7960609 56.7075262,27.0854849 C56.7075262,26.3853586 56.8030113,25.7165812 56.983372,25.0791527 C57.1637327,24.4521739 57.4395785,23.887893 57.8215188,23.4072092 C58.1928497,22.9265255 58.670275,22.5503382 59.232576,22.2681977 C59.7948771,21.9860572 60.4632726,21.8502118 61.2271532,21.8502118 C61.5984841,21.8502118 61.9698149,21.8920104 62.3305363,21.9860572 C62.6912577,22.0801041 63.0201508,22.2159495 63.3278249,22.3935935 C63.635499,22.5816871 63.9113448,22.8115793 64.1553622,23.0728205 C64.3993797,23.3445113 64.5797404,23.6580007 64.7070538,24.0132887 L64.7494916,24.0132887 L64.7494916,18.3391304 L65.9801882,18.3391304 L65.9801882,32.028168 L64.8555861,32.028168 L64.8555861,32.0386176 Z M58.1291929,28.6215831 C58.2565064,29.1231661 58.4474765,29.5725009 58.7127129,29.9695875 C58.9779492,30.3666741 59.3174517,30.6906132 59.7312203,30.9414047 C60.144989,31.1921962 60.6436333,31.317592 61.2271532,31.317592 C61.8743298,31.317592 62.4260214,31.1921962 62.8716184,30.9414047 C63.3172155,30.6906132 63.6779369,30.3666741 63.9643921,29.9695875 C64.2402379,29.5725009 64.4418175,29.1231661 64.5691309,28.6215831 C64.6964443,28.12 64.7494916,27.6079673 64.7494916,27.0959346 C64.7494916,26.5839019 64.6858349,26.0823188 64.5691309,25.5702861 C64.4418175,25.0687031 64.2402379,24.6193683 63.9643921,24.2222817 C63.6885463,23.8251951 63.3278249,23.501256 62.8716184,23.2504645 C62.4260214,22.999673 61.8743298,22.8742772 61.2271532,22.8742772 C60.6436333,22.8742772 60.144989,22.999673 59.7312203,23.2504645 C59.3174517,23.501256 58.9779492,23.8251951 58.7127129,24.2222817 C58.4474765,24.6193683 58.2565064,25.0687031 58.1291929,25.5702861 C58.0018795,26.0718692 57.9488322,26.5839019 57.9488322,27.0959346 C57.9382228,27.6079673 58.0018795,28.12 58.1291929,28.6215831 Z" id="Shape" fill="#FFFFFF"></path>
                    <path d="M69.958733,18.3495801 L69.958733,20.2827648 L68.7280365,20.2827648 L68.7280365,18.3495801 L69.958733,18.3495801 Z M69.958733,22.1532516 L69.958733,32.0490673 L68.7280365,32.0490673 L68.7280365,22.1532516 L69.958733,22.1532516 Z" id="Shape" fill="#FFFFFF"></path>
                    <path d="M80.9501263,33.2089781 C80.7909845,33.7941583 80.5363577,34.2957414 80.1756363,34.7032776 C79.8255243,35.1108138 79.3693178,35.4243032 78.8070168,35.6437458 C78.2447158,35.8631884 77.5551014,35.9676849 76.7381735,35.9676849 C76.2289197,35.9676849 75.7408849,35.904987 75.2634595,35.7900409 C74.7860341,35.6750948 74.3510466,35.4974508 73.9691063,35.2571089 C73.5871659,35.016767 73.2688824,34.7032776 73.0142555,34.3270903 C72.7596286,33.950903 72.6110963,33.5015682 72.5792679,32.9790858 L73.8099645,32.9790858 C73.8736212,33.3552731 74.0009346,33.6583129 74.1919048,33.9091044 C74.3828749,34.1598959 74.6056734,34.3584392 74.8709098,34.5151839 C75.1361461,34.6719287 75.4332108,34.7764251 75.7621038,34.8495726 C76.0909969,34.9227202 76.4198899,34.9540691 76.7593924,34.9540691 C77.9052133,34.9540691 78.7221412,34.6301301 79.2313949,33.9927016 C79.7406487,33.3552731 79.9952756,32.4357042 79.9952756,31.2339948 L79.9952756,29.8859903 L79.9528377,29.8859903 C79.6663825,30.5025195 79.2526138,30.9936529 78.7009223,31.3593906 C78.1492307,31.7251282 77.5020541,31.9132219 76.7593924,31.9132219 C75.953074,31.9132219 75.2634595,31.7773764 74.7011585,31.5161353 C74.128248,31.2548941 73.6614321,30.8891564 73.2901013,30.429372 C72.9187704,29.9695875 72.6535341,29.4262059 72.4837828,28.8096767 C72.3140316,28.1931475 72.229156,27.5243701 72.229156,26.8242438 C72.229156,26.1450167 72.324641,25.5075883 72.5262206,24.8910591 C72.7278003,24.2849796 73.0248649,23.7520476 73.4068052,23.3027127 C73.7887456,22.8533779 74.2661709,22.4876403 74.8284719,22.2263991 C75.390773,21.9651579 76.0379496,21.8293125 76.7700018,21.8293125 C77.1519422,21.8293125 77.5020541,21.8815608 77.8309471,21.9860572 C78.1598402,22.0905537 78.4675143,22.2368488 78.7327506,22.4144928 C79.0085964,22.6025864 79.2526138,22.8115793 79.4648029,23.0623709 C79.676992,23.3027127 79.8467432,23.5639539 79.9634472,23.8251951 L80.005885,23.8251951 L80.005885,22.1532516 L81.2365816,22.1532516 L81.2365816,31.2444444 C81.1835343,31.9654701 81.1092681,32.6237978 80.9501263,33.2089781 Z M78.1280118,30.575667 C78.531171,30.3562245 78.8706735,30.0531847 79.1359099,29.6978967 C79.4117556,29.332159 79.6133352,28.9141732 79.7512581,28.4439391 C79.889181,27.9737049 79.9528377,27.4825715 79.9528377,26.9914381 C79.9528377,26.5107544 79.889181,26.019621 79.772477,25.5389372 C79.6557731,25.0582534 79.4648029,24.6089186 79.210176,24.211832 C78.9555492,23.8147454 78.6160467,23.501256 78.202278,23.2504645 C77.7885093,23.0101226 77.3004745,22.8847269 76.7169546,22.8847269 C76.1334347,22.8847269 75.6347904,22.999673 75.2210217,23.2400149 C74.807253,23.4803567 74.4571411,23.7833965 74.1919048,24.1700334 C73.916059,24.5566704 73.7250888,24.9955556 73.5977754,25.486689 C73.470462,25.9778224 73.4174147,26.4794054 73.4174147,26.9914381 C73.4174147,27.4930212 73.4810714,27.9737049 73.6083849,28.4439391 C73.7356983,28.9141732 73.9372779,29.332159 74.2131237,29.6978967 C74.4889695,30.0636343 74.8284719,30.3562245 75.2422406,30.575667 C75.6560093,30.7951096 76.1546536,30.9100557 76.7169546,30.9100557 C77.2580367,30.9100557 77.7248526,30.8055593 78.1280118,30.575667 Z" id="Shape" fill="#FFFFFF"></path>
                    <path d="M85.1620792,18.3495801 L85.1620792,20.2827648 L83.9313826,20.2827648 L83.9313826,18.3495801 L85.1620792,18.3495801 Z M85.1620792,22.1532516 L85.1620792,32.0490673 L83.9313826,32.0490673 L83.9313826,22.1532516 L85.1620792,22.1532516 Z" id="Shape" fill="#FFFFFF"></path>
                    <path d="M91.8990818,22.1532516 L91.8990818,23.1668673 L89.8514574,23.1668673 L89.8514574,29.8441918 C89.8514574,30.2412783 89.9045046,30.5547677 90.0212086,30.7742103 C90.1273032,30.9936529 90.4031489,31.1190487 90.848746,31.1503976 C91.1988579,31.1503976 91.5489699,31.1294983 91.8990818,31.0876997 L91.8990818,32.1013155 C91.7187211,32.1013155 91.5383604,32.1117651 91.3579997,32.1222148 C91.177639,32.1326644 90.9972783,32.1431141 90.8169176,32.1431141 C89.9999897,32.1431141 89.4270793,31.9863694 89.1087957,31.67288 C88.7799026,31.3593906 88.6313703,30.78466 88.6419797,29.9382386 L88.6419797,23.1668673 L86.89142,23.1668673 L86.89142,22.1532516 L88.6419797,22.1532516 L88.6419797,19.1855518 L89.8726763,19.1855518 L89.8726763,22.1532516 L91.8990818,22.1532516 Z" id="Shape" fill="#FFFFFF"></path>
                    <path d="M94.3074276,23.6789 C94.5196167,23.2609142 94.7954625,22.9160758 95.1561839,22.644385 C95.5169053,22.3726942 95.9306739,22.1741509 96.4080993,22.0487551 C96.8855247,21.9233593 97.4159974,21.8606615 97.9995173,21.8606615 C98.4451143,21.8606615 98.8801019,21.9024601 99.3256989,21.9860572 C99.7712959,22.0696544 100.163846,22.2263991 100.513958,22.4562913 C100.86407,22.6861836 101.150525,23.0101226 101.373323,23.4281085 C101.596122,23.8460944 101.702216,24.389476 101.702216,25.0478038 L101.702216,30.3039762 C101.702216,30.78466 101.946234,31.0250019 102.423659,31.0250019 C102.561582,31.0250019 102.699505,31.0041026 102.816209,30.9518543 L102.816209,31.9654701 C102.678286,31.9863694 102.550973,32.0072687 102.434269,32.0177183 C102.328174,32.028168 102.179642,32.0386176 102.0205,32.0386176 C101.712826,32.0386176 101.458199,31.996819 101.267229,31.9132219 C101.076259,31.8296247 100.938336,31.7146786 100.832241,31.5579339 C100.726147,31.4011891 100.66249,31.2235452 100.630662,31.0145522 C100.598833,30.8055593 100.577614,30.575667 100.577614,30.3144259 L100.535177,30.3144259 C100.312378,30.6383649 100.08958,30.9205054 99.866781,31.1712969 C99.6439825,31.4220884 99.3893556,31.6310814 99.1029004,31.7982757 C98.8270546,31.9654701 98.508771,32.0908658 98.1480496,32.1849127 C97.7873282,32.2789595 97.3629501,32.3207581 96.8749153,32.3207581 C96.4080993,32.3207581 95.9731118,32.2685098 95.5593431,32.1535637 C95.1455744,32.0490673 94.7954625,31.8714233 94.4877883,31.641531 C94.1801142,31.4011891 93.9360968,31.108599 93.7663455,30.7428614 C93.5965943,30.3771237 93.5011092,29.9486882 93.5011092,29.4471052 C93.5011092,28.7574285 93.660251,28.2140468 93.9679251,27.8274099 C94.2755993,27.4407729 94.6893679,27.1377332 95.1986217,26.9391899 C95.7078754,26.730197 96.2913953,26.5943515 96.9279625,26.5107544 C97.5751392,26.4271572 98.2223158,26.34356 98.8907113,26.2704125 C99.1453382,26.2495132 99.3787462,26.2181643 99.5697163,26.1763657 C99.7606865,26.1345671 99.9304377,26.0718692 100.057751,25.9778224 C100.185065,25.8837755 100.291159,25.7479301 100.354816,25.5807358 C100.429082,25.4135414 100.46091,25.1940988 100.46091,24.9328577 C100.46091,24.5253214 100.397254,24.1909327 100.259331,23.9296916 C100.121408,23.6684504 99.9410472,23.4594575 99.6970298,23.3027127 C99.4530123,23.145968 99.1771666,23.0414716 98.858883,22.9892233 C98.5405994,22.9265255 98.2010969,22.9056262 97.8403755,22.9056262 C97.0658854,22.9056262 96.4293182,23.0832702 95.9306739,23.4490078 C95.4426391,23.8147454 95.1774028,24.3999257 95.1561839,25.2045485 L93.9254873,25.2045485 C93.9785346,24.6089186 94.105848,24.1073356 94.3074276,23.6789 Z M100.439691,26.6361501 C100.365425,26.7824452 100.216893,26.876492 99.9940944,26.9391899 C99.7712959,27.0018878 99.5803258,27.0436864 99.4105745,27.0750353 C98.8907113,27.1586325 98.3602387,27.2422297 97.8085471,27.3153772 C97.2568556,27.3885247 96.7582113,27.4930212 96.3020048,27.6288666 C95.8457983,27.764712 95.4744675,27.9737049 95.1774028,28.2349461 C94.8909476,28.4961873 94.7424152,28.8723746 94.7424152,29.3530583 C94.7424152,29.6560981 94.8060719,29.9382386 94.9227759,30.1681308 C95.0500893,30.4084727 95.2092311,30.607016 95.4214202,30.78466 C95.6229998,30.962304 95.8670172,31.0876997 96.142863,31.1817466 C96.4187088,31.2757934 96.6945546,31.317592 96.9810098,31.317592 C97.4478257,31.317592 97.8934227,31.2444444 98.3284103,31.108599 C98.7527884,30.9727536 99.1347287,30.7637607 99.4530123,30.4920699 C99.7712959,30.220379 100.025923,29.89644 100.216893,29.509803 C100.407863,29.1231661 100.503348,28.6947306 100.503348,28.2035972 L100.503348,26.6257005 L100.439691,26.6257005 L100.439691,26.6361501 Z" id="Shape" fill="#FFFFFF"></path>
                    <polygon id="Shape" fill="#FFFFFF" points="105.797465 18.3495801 105.797465 32.0386176 104.566769 32.0386176 104.566769 18.3495801 105.797465 18.3495801"></polygon>
                    <polygon id="Shape" fill="#FFFFFF" points="107.399493 18.3495801 108.79994 18.3495801 108.79994 18.5063248 108.195202 18.5063248 108.195202 20.2514158 108.014841 20.2514158 108.014841 18.5063248 107.410102 18.5063248 107.410102 18.3495801"></polygon>
                    <polygon id="Shape" fill="#FFFFFF" points="109.118224 20.2409662 109.118224 18.3495801 109.39407 18.3495801 110.020028 20.0215236 110.030637 20.0215236 110.645985 18.3495801 110.921831 18.3495801 110.921831 20.2409662 110.74147 20.2409662 110.74147 18.558573 110.74147 18.558573 110.115513 20.2409662 109.945761 20.2409662 109.309194 18.558573 109.309194 18.558573 109.309194 20.2409662"></polygon>
                </g>
            </g>
        </g>
    </g>
</svg>