<?xml version="1.0" encoding="utf-8"?>
<!-- Generator: Adobe Illustrator 16.0.4, SVG Export Plug-In . SVG Version: 6.00 Build 0)  -->
<!DOCTYPE svg PUBLIC "-//W3C//DTD SVG 1.1//EN" "http://www.w3.org/Graphics/SVG/1.1/DTD/svg11.dtd">
<svg version="1.1" id="Layer_1" xmlns="http://www.w3.org/2000/svg" xmlns:xlink="http://www.w3.org/1999/xlink" x="0px" y="0px"
	 width="82.23px" height="82.229px" viewBox="0 0 82.23 82.229" enable-background="new 0 0 82.23 82.229" xml:space="preserve">
<path fill="#FFFFFF" d="M41.115,0C18.409,0,0,18.407,0,41.114c0,22.708,18.409,41.115,41.115,41.115
	c22.707,0,41.115-18.408,41.115-41.115C82.23,18.407,63.822,0,41.115,0z M15.418,62.424c0-7.998,3.564-14.947,5.716-18.46
	c-2.233-1.157-3.759-3.487-3.759-6.176c0-3.84,3.113-6.954,6.954-6.954s6.954,3.114,6.954,6.954c0,2.688-1.527,5.019-3.759,6.176
	c2.149,3.513,5.714,10.462,5.714,18.46H15.418z M33.238,46.63c0-8,3.566-14.947,5.717-18.461c-2.232-1.157-3.76-3.487-3.76-6.176
	c0-3.84,3.113-6.953,6.955-6.953c3.84,0,6.953,3.113,6.953,6.953c0,2.688-1.526,5.019-3.758,6.176
	c2.148,3.515,5.715,10.462,5.715,18.461H33.238z M51.061,60.907c0-7.999,3.566-14.948,5.715-18.461
	c-2.232-1.157-3.758-3.486-3.758-6.175c0-3.84,3.113-6.954,6.954-6.954s6.954,3.114,6.954,6.954c0,2.689-1.527,5.018-3.76,6.175
	c2.149,3.514,5.717,10.462,5.717,18.461H51.061z"/>
</svg>
