<?xml version="1.0" encoding="utf-8"?>
<!-- Generator: Adobe Illustrator 16.0.0, SVG Export Plug-In . SVG Version: 6.00 Build 0)  -->
<!DOCTYPE svg PUBLIC "-//W3C//DTD SVG 1.1//EN" "http://www.w3.org/Graphics/SVG/1.1/DTD/svg11.dtd">
<svg version="1.1" id="Layer_1" xmlns="http://www.w3.org/2000/svg" xmlns:xlink="http://www.w3.org/1999/xlink" x="0px" y="0px"
	 width="128px" height="128px" viewBox="0 0 128 128" enable-background="new 0 0 128 128" xml:space="preserve">
<g>
	<g>
		<g>
			<path fill="#2485C7" d="M29.752,76.581c0.739,0,1.341,0.603,1.341,1.343v2.642c0,0.739-0.602,1.34-1.341,1.34h-8.683
				c-0.739,0-1.34-0.601-1.34-1.34v-2.642c0-0.74,0.601-1.343,1.34-1.343H29.752 M29.752,73.581h-8.683
				c-2.396,0-4.34,1.944-4.34,4.343v2.642c0,2.396,1.943,4.34,4.34,4.34h8.683c2.398,0,4.341-1.943,4.341-4.34v-2.642
				C34.093,75.525,32.15,73.581,29.752,73.581L29.752,73.581z"/>
		</g>
	</g>
	<g>
		<g>
			<path fill="#2485C7" d="M49.045,65.755c0.74,0,1.343,0.603,1.343,1.343v13.468c0,0.739-0.603,1.34-1.343,1.34h-8.681
				c-0.74,0-1.342-0.601-1.342-1.34V67.098c0-0.74,0.602-1.343,1.342-1.343H49.045 M49.045,62.755h-8.681
				c-2.398,0-4.342,1.944-4.342,4.343v13.468c0,2.396,1.943,4.34,4.342,4.34h8.681c2.398,0,4.343-1.943,4.343-4.34V67.098
				C53.388,64.699,51.443,62.755,49.045,62.755L49.045,62.755z"/>
		</g>
	</g>
	<g>
		<g>
			<path fill="#2485C7" d="M68.338,68.945c0.74,0,1.343,0.603,1.343,1.343v10.277c0,0.739-0.603,1.34-1.343,1.34h-8.681
				c-0.739,0-1.34-0.601-1.34-1.34V70.288c0-0.74,0.601-1.343,1.34-1.343H68.338 M68.338,65.945h-8.681
				c-2.398,0-4.34,1.944-4.34,4.343v10.277c0,2.396,1.941,4.34,4.34,4.34h8.681c2.399,0,4.343-1.943,4.343-4.34V70.288
				C72.681,67.89,70.737,65.945,68.338,65.945L68.338,65.945z"/>
		</g>
	</g>
	<g>
		<g>
			<path fill="#2485C7" d="M87.636,57.78c0.739,0,1.34,0.603,1.34,1.343v21.442c0,0.739-0.601,1.34-1.34,1.34h-8.684
				c-0.739,0-1.34-0.601-1.34-1.34V59.123c0-0.74,0.601-1.343,1.34-1.343H87.636 M87.636,54.78h-8.684
				c-2.398,0-4.34,1.944-4.34,4.343v21.442c0,2.396,1.941,4.34,4.34,4.34h8.684c2.398,0,4.34-1.943,4.34-4.34V59.123
				C91.976,56.725,90.034,54.78,87.636,54.78L87.636,54.78z"/>
		</g>
	</g>
	<g>
		<g>
			<path fill="#2485C7" d="M106.929,45.029c0.74,0,1.342,0.602,1.342,1.341v34.195c0,0.739-0.602,1.34-1.342,1.34h-8.681
				c-0.74,0-1.343-0.601-1.343-1.34V46.37c0-0.739,0.603-1.341,1.343-1.341H106.929 M106.929,42.029h-8.681
				c-2.398,0-4.343,1.942-4.343,4.341v34.195c0,2.396,1.944,4.34,4.343,4.34h8.681c2.398,0,4.342-1.943,4.342-4.34V46.37
				C111.271,43.972,109.327,42.029,106.929,42.029L106.929,42.029z"/>
		</g>
	</g>
	<g>
		<g>
			<g>
				<g>
					<polygon fill="#212121" points="17.526,66.558 15.933,64.015 44.518,46.104 63.794,52.784 101.559,28.004 103.205,30.512 
						64.206,56.103 44.893,49.409 					"/>
				</g>
			</g>
			<g>
				<g>
					<g>
						<polygon fill="#212121" points="102.307,33.478 111.271,23.426 98.481,27.647 						"/>
					</g>
				</g>
			</g>
		</g>
	</g>
</g>
<path fill="#DCDDDE" d="M109.763,10.29H18.237c-6.235,0-11.309,5.974-11.309,13.315v61.12c0,7.342,5.073,13.315,11.309,13.315
	h91.525c6.235,0,11.309-5.974,11.309-13.315v-61.12C121.071,16.264,115.998,10.29,109.763,10.29z M64,96.389c-0.553,0-1-0.447-1-1
	s0.447-1,1-1s1,0.447,1,1S64.553,96.389,64,96.389z M116.071,84.726c0,4.508-2.889,8.315-6.309,8.315H18.237
	c-3.42,0-6.309-3.808-6.309-8.315v-61.12c0-4.508,2.889-8.315,6.309-8.315h91.525c3.42,0,6.309,3.808,6.309,8.315V84.726z"/>
<g>
	<path fill="#DCDDDE" d="M89.228,117.71H38.735c-2.454,0-4.445-1.952-4.531-4.445c-0.175-4.989,8.199-6.984,16.136-7.756v-0.806
		c0-2.317,2.033-4.203,4.533-4.203h18.194c2.5,0,4.533,1.886,4.533,4.203v0.804c7.942,0.77,16.333,2.764,16.159,7.758
		C93.671,115.758,91.681,117.71,89.228,117.71z M40.412,112.71h47.141c-2.418-1.021-7.543-2.043-12.519-2.401h-2.411l-0.023-3.094
		l0.001-0.002V105.5H55.34l0.001,4.638l-2.325,0.165C48.014,110.656,42.845,111.684,40.412,112.71z"/>
</g>
</svg>
