<?xml version="1.0" encoding="utf-8"?>
<!-- Generator: Adobe Illustrator 16.0.0, SVG Export Plug-In . SVG Version: 6.00 Build 0)  -->
<!DOCTYPE svg PUBLIC "-//W3C//DTD SVG 1.1//EN" "http://www.w3.org/Graphics/SVG/1.1/DTD/svg11.dtd">
<svg version="1.1" id="Layer_1" xmlns="http://www.w3.org/2000/svg" xmlns:xlink="http://www.w3.org/1999/xlink" x="0px" y="0px"
	 width="128px" height="128px" viewBox="0 0 128 128" enable-background="new 0 0 128 128" xml:space="preserve">
<g>
	<g>
		<path fill="#2485C7" d="M44.61,82.031c0,0-0.017,0.081-0.047,0.231c-0.04,0.149-0.066,0.374-0.089,0.661
			c-0.028,0.286-0.063,0.633-0.104,1.032c-0.024,0.399-0.004,0.853-0.012,1.345c0.019,0.987,0.166,2.132,0.429,3.339
			c0.316,1.191,0.723,2.453,1.347,3.615c1.185,2.359,2.991,4.351,4.577,5.523c0.814,0.557,1.483,1.036,2.009,1.282
			c0.506,0.278,0.794,0.437,0.794,0.437l-1.664,3.45c0,0-0.357-0.194-0.981-0.534c-0.643-0.31-1.479-0.89-2.479-1.589
			c-1.963-1.452-4.206-3.915-5.668-6.83c-0.765-1.438-1.276-2.992-1.659-4.465c-0.33-1.488-0.508-2.906-0.532-4.126
			c0.005-0.61-0.013-1.17,0.017-1.665c0.049-0.494,0.091-0.924,0.125-1.279c0.031-0.355,0.066-0.632,0.111-0.818
			c0.037-0.187,0.057-0.287,0.057-0.287L44.61,82.031z"/>
	</g>
	<g>
		<path fill="#DCDDDE" d="M53.877,70.115c0,0-0.226,0.101-0.606,0.305c-0.383,0.2-0.942,0.464-1.549,0.891
			c-1.242,0.795-2.792,2.063-3.981,3.645c-1.214,1.562-2.06,3.376-2.54,4.771c-0.215,0.708-0.416,1.293-0.473,1.723
			c-0.085,0.423-0.134,0.665-0.134,0.665l-3.774-0.657c0,0,0.061-0.299,0.165-0.823c0.079-0.53,0.315-1.256,0.586-2.131
			c0.59-1.727,1.636-3.957,3.14-5.89c1.475-1.957,3.389-3.532,4.924-4.515c0.754-0.522,1.441-0.855,1.915-1.101
			c0.472-0.249,0.75-0.373,0.75-0.373L53.877,70.115z"/>
	</g>
	<g>
		<path fill="#8FC6EC" d="M76.329,81.082c0,0-0.127-0.427-0.345-1.177c-0.234-0.743-0.644-1.786-1.288-2.958
			c-0.68-1.144-1.541-2.468-2.765-3.613c-1.196-1.161-2.645-2.227-4.25-3.018c-1.615-0.767-3.339-1.271-4.992-1.503
			c-1.657-0.247-3.227-0.119-4.55,0.039c-1.32,0.223-2.392,0.542-3.126,0.804c-0.724,0.292-1.137,0.458-1.137,0.458l-1.578-3.491
			c0,0,0.511-0.206,1.404-0.567c0.906-0.325,2.229-0.721,3.86-0.991c1.635-0.205,3.576-0.349,5.629-0.049
			c2.048,0.283,4.184,0.909,6.171,1.858c1.978,0.972,3.775,2.289,5.255,3.729c1.508,1.424,2.586,3.051,3.419,4.47
			c0.799,1.447,1.301,2.736,1.592,3.653c0.273,0.924,0.424,1.453,0.424,1.453L76.329,81.082z"/>
	</g>
	<g>
		<path fill="#6AB0E1" d="M74.063,93.848c0,0,0.118-0.172,0.324-0.473c0.175-0.321,0.425-0.779,0.726-1.329
			c0.511-1.138,1.174-2.69,1.413-4.347c0.267-1.64,0.338-3.323,0.146-4.563c-0.033-0.626-0.175-1.132-0.234-1.492
			c-0.068-0.358-0.108-0.563-0.108-0.563l3.724-0.902c0,0,0.05,0.253,0.137,0.695c0.078,0.444,0.241,1.07,0.291,1.843
			c0.225,1.532,0.155,3.616-0.183,5.648c-0.308,2.05-1.108,3.974-1.749,5.372c-0.37,0.678-0.679,1.242-0.896,1.638
			c-0.252,0.374-0.396,0.587-0.396,0.587L74.063,93.848z"/>
	</g>
	<g>
		<path fill="#4495D1" d="M53.515,99.496c0,0,0.338,0.142,0.93,0.39c0.581,0.274,1.462,0.542,2.524,0.806
			c2.125,0.486,5.139,0.649,7.962-0.203c1.427-0.354,2.751-1.017,3.946-1.682c0.566-0.387,1.155-0.704,1.627-1.123
			c0.247-0.195,0.486-0.386,0.718-0.569c0.223-0.195,0.419-0.404,0.618-0.592c0.197-0.19,0.387-0.373,0.566-0.547
			c0.162-0.191,0.314-0.372,0.458-0.542c0.278-0.348,0.562-0.62,0.727-0.896c0.362-0.529,0.569-0.831,0.569-0.831l3.216,2.081
			c0,0-0.256,0.374-0.704,1.026c-0.211,0.337-0.551,0.683-0.897,1.111c-0.18,0.21-0.37,0.433-0.571,0.668
			c-0.222,0.216-0.455,0.443-0.698,0.681c-0.246,0.233-0.492,0.489-0.768,0.729c-0.286,0.229-0.582,0.465-0.886,0.708
			c-0.591,0.511-1.308,0.917-2.014,1.387c-1.474,0.831-3.115,1.632-4.874,2.079c-3.484,1.044-7.216,0.858-9.849,0.249
			c-1.316-0.322-2.402-0.665-3.12-0.995c-0.729-0.309-1.145-0.485-1.145-0.485L53.515,99.496z"/>
	</g>
</g>
<g>
	<g>
		<path fill="#2485C7" d="M78.28,106.165c0,0,0.032,0.06,0.093,0.171c0.054,0.116,0.155,0.272,0.293,0.466
			c0.133,0.196,0.295,0.435,0.479,0.709c0.196,0.266,0.448,0.543,0.703,0.859c1.059,1.231,2.778,2.644,4.799,3.469
			c1.996,0.87,4.194,1.178,5.819,1.083c0.811-0.077,1.488-0.127,1.95-0.249c0.467-0.091,0.734-0.143,0.734-0.143l0.619,2.478
			c0,0-0.316,0.063-0.871,0.173c-0.55,0.138-1.355,0.208-2.322,0.292c-1.937,0.112-4.56-0.25-6.936-1.287
			c-2.402-0.986-4.448-2.664-5.71-4.131c-0.308-0.375-0.604-0.708-0.837-1.025c-0.222-0.326-0.415-0.61-0.574-0.844
			c-0.162-0.232-0.282-0.419-0.349-0.556c-0.072-0.133-0.111-0.204-0.111-0.204L78.28,106.165z"/>
	</g>
	<g>
		<path fill="#DCDDDE" d="M77.859,93.716c0,0-0.09,0.183-0.224,0.513c-0.138,0.329-0.352,0.792-0.512,1.383
			c-0.366,1.16-0.679,2.782-0.597,4.414c0.056,1.631,0.477,3.228,0.91,4.366c0.237,0.563,0.42,1.039,0.609,1.342
			c0.17,0.313,0.267,0.492,0.267,0.492l-2.213,1.274c0,0-0.115-0.213-0.318-0.586c-0.222-0.364-0.446-0.928-0.727-1.599
			c-0.519-1.355-1.015-3.249-1.081-5.195c-0.095-1.945,0.272-3.88,0.71-5.262c0.194-0.703,0.444-1.255,0.608-1.646
			c0.162-0.393,0.269-0.61,0.269-0.61L77.859,93.716z"/>
	</g>
	<g>
		<path fill="#8FC6EC" d="M97.885,88.807c0,0-0.307-0.204-0.841-0.563c-0.54-0.347-1.351-0.792-2.378-1.194
			c-1.035-0.367-2.281-0.75-3.661-0.83c-1.372-0.104-2.854-0.014-4.288,0.333c-1.429,0.366-2.788,0.958-3.958,1.684
			c-1.182,0.719-2.109,1.629-2.864,2.428c-0.72,0.839-1.229,1.606-1.557,2.161c-0.305,0.567-0.479,0.891-0.479,0.891l-2.298-1.114
			c0,0,0.207-0.386,0.568-1.061c0.389-0.66,0.994-1.575,1.853-2.57c0.895-0.957,2.007-2.033,3.413-2.894
			c1.395-0.869,3.017-1.574,4.713-2.005c1.702-0.413,3.471-0.524,5.106-0.397c1.646,0.102,3.132,0.547,4.362,0.989
			c1.225,0.478,2.188,1.009,2.831,1.421c0.637,0.425,0.998,0.672,0.998,0.672L97.885,88.807z"/>
	</g>
	<g>
		<path fill="#6AB0E1" d="M103.191,98.097c0,0-0.016-0.171-0.044-0.471c-0.059-0.296-0.143-0.718-0.242-1.225
			c-0.276-0.991-0.678-2.325-1.4-3.502c-0.697-1.181-1.542-2.285-2.317-2.97c-0.353-0.379-0.709-0.625-0.938-0.822
			c-0.232-0.19-0.366-0.3-0.366-0.3l1.522-2.05c0,0,0.159,0.129,0.438,0.354c0.272,0.232,0.692,0.531,1.115,0.978
			c0.918,0.821,1.935,2.129,2.763,3.541c0.855,1.408,1.345,2.991,1.665,4.17c0.119,0.603,0.218,1.104,0.287,1.456
			c0.036,0.357,0.057,0.561,0.057,0.561L103.191,98.097z"/>
	</g>
	<g>
		<path fill="#4495D1" d="M93.151,112.532c0,0,0.289-0.088,0.795-0.244c0.513-0.134,1.212-0.428,2.025-0.822
			c1.604-0.814,3.601-2.304,4.939-4.335c0.717-0.979,1.207-2.097,1.613-3.151c0.35-1.076,0.607-2.108,0.672-3.013
			c0.024-0.225,0.048-0.441,0.07-0.646c0.001-0.207,0.002-0.402,0.003-0.586c-0.007-0.368,0.028-0.689-0.013-0.952
			c-0.05-0.526-0.078-0.827-0.078-0.827l2.535-0.307c0,0,0.033,0.358,0.093,0.985c0.043,0.313,0.01,0.696,0.017,1.135
			c-0.002,0.219-0.005,0.453-0.008,0.699c-0.025,0.245-0.052,0.502-0.08,0.771c-0.082,1.078-0.381,2.311-0.802,3.59
			c-0.478,1.257-1.072,2.583-1.919,3.75c-1.596,2.412-3.969,4.196-5.886,5.164c-0.968,0.473-1.806,0.817-2.412,0.98
			c-0.602,0.182-0.946,0.287-0.946,0.287L93.151,112.532z"/>
	</g>
</g>
<g>
	<g>
		<path fill="#2485C7" d="M79.856,10.325c0,0-0.103,0.003-0.295,0.01c-0.193-0.004-0.475,0.028-0.83,0.083
			c-0.356,0.048-0.79,0.107-1.286,0.174c-0.493,0.086-1.039,0.241-1.641,0.375c-1.195,0.309-2.547,0.819-3.938,1.489
			c-1.358,0.729-2.775,1.589-4.009,2.685c-2.527,2.124-4.427,4.9-5.395,7.169c-0.442,1.152-0.83,2.105-0.979,2.815
			c-0.19,0.695-0.3,1.092-0.3,1.092l-3.742-0.82c0,0,0.128-0.472,0.352-1.297c0.184-0.838,0.631-1.978,1.168-3.344
			c1.152-2.7,3.41-6.011,6.414-8.533c0.717-0.669,1.543-1.198,2.323-1.761c0.801-0.532,1.638-0.983,2.438-1.425
			c1.65-0.8,3.26-1.403,4.681-1.771c0.715-0.164,1.365-0.341,1.952-0.444c0.591-0.081,1.106-0.151,1.531-0.209
			c0.424-0.063,0.758-0.1,0.988-0.098C79.52,6.505,79.643,6.5,79.643,6.5L79.856,10.325z"/>
	</g>
	<g>
		<path fill="#DCDDDE" d="M97.039,18.148c0,0-0.038-0.068-0.135-0.176c-0.095-0.109-0.234-0.269-0.411-0.473
			c-0.354-0.408-0.838-1.012-1.533-1.626c-1.327-1.281-3.318-2.799-5.589-3.788c-2.252-1.024-4.703-1.529-6.54-1.709
			c-0.924-0.057-1.693-0.131-2.233-0.077c-0.539,0.019-0.847,0.03-0.847,0.03l-0.235-3.823c0,0,0.367-0.013,1.009-0.037
			c0.643-0.056,1.559,0.019,2.656,0.092c2.186,0.209,5.086,0.812,7.768,2.033c2.7,1.18,5.075,2.981,6.653,4.504
			c0.822,0.736,1.402,1.448,1.821,1.934c0.21,0.243,0.374,0.434,0.486,0.564c0.113,0.129,0.16,0.209,0.16,0.209L97.039,18.148z"/>
	</g>
	<g>
		<path fill="#8FC6EC" d="M90.196,48.642c0,0,0.125-0.063,0.35-0.195c0.227-0.13,0.56-0.322,0.982-0.565
			c0.835-0.5,1.986-1.3,3.226-2.424c1.195-1.157,2.556-2.59,3.596-4.409c1.066-1.792,1.943-3.864,2.44-6.045
			c0.466-2.186,0.58-4.43,0.383-6.509c-0.18-2.088-0.789-3.962-1.364-5.526c-0.653-1.542-1.352-2.752-1.883-3.57
			c-0.564-0.796-0.887-1.251-0.887-1.251l3.03-2.342c0,0,0.384,0.54,1.055,1.485c0.632,0.97,1.464,2.407,2.235,4.241
			c0.694,1.856,1.404,4.088,1.624,6.573c0.238,2.474,0.102,5.147-0.456,7.737c-0.586,2.585-1.627,5.056-2.899,7.188
			c-1.246,2.161-2.851,3.875-4.278,5.245c-1.472,1.337-2.84,2.285-3.831,2.88c-0.503,0.289-0.897,0.516-1.167,0.67
			c-0.269,0.156-0.416,0.23-0.416,0.23L90.196,48.642z"/>
	</g>
	<g>
		<path fill="#6AB0E1" d="M74.008,49.582c0,0,0.243,0.093,0.669,0.257c0.44,0.12,1.07,0.292,1.826,0.498
			c1.531,0.293,3.612,0.648,5.698,0.461c2.073-0.15,4.142-0.553,5.595-1.143c0.752-0.223,1.327-0.54,1.747-0.717
			c0.416-0.188,0.654-0.295,0.654-0.295l1.739,3.413c0,0-0.282,0.128-0.775,0.354c-0.498,0.214-1.186,0.58-2.077,0.853
			c-1.729,0.69-4.188,1.188-6.658,1.359c-2.484,0.212-4.958-0.191-6.772-0.55c-0.896-0.245-1.643-0.449-2.166-0.592
			c-0.508-0.191-0.797-0.301-0.797-0.301L74.008,49.582z"/>
	</g>
	<g>
		<path fill="#4495D1" d="M61.186,26.216c0,0-0.075,0.453-0.206,1.244c-0.068,0.395-0.162,0.874-0.175,1.433
			c-0.013,0.557-0.128,1.185-0.074,1.871c0.022,2.728,0.699,6.442,2.552,9.629c0.846,1.632,2.033,3.053,3.188,4.315
			c0.635,0.578,1.192,1.2,1.838,1.654c0.31,0.243,0.61,0.479,0.901,0.708c0.301,0.214,0.612,0.393,0.898,0.581
			c0.289,0.185,0.566,0.362,0.83,0.531c0.279,0.141,0.544,0.274,0.793,0.4c0.504,0.237,0.917,0.502,1.301,0.624
			c0.748,0.288,1.175,0.452,1.175,0.452l-1.279,3.611c0,0-0.508-0.196-1.397-0.538c-0.453-0.152-0.951-0.455-1.55-0.741
			c-0.295-0.151-0.609-0.312-0.941-0.481c-0.314-0.199-0.645-0.409-0.99-0.627c-0.342-0.224-0.709-0.44-1.067-0.695
			c-0.347-0.271-0.705-0.552-1.074-0.84c-0.763-0.548-1.437-1.275-2.184-1.969c-1.382-1.494-2.778-3.191-3.79-5.125
			c-2.193-3.787-3.013-8.205-3.034-11.454c-0.054-0.817,0.067-1.563,0.088-2.225c0.021-0.665,0.128-1.234,0.208-1.703
			c0.158-0.938,0.248-1.475,0.248-1.475L61.186,26.216z"/>
	</g>
</g>
<g>
	<g>
		<path fill="#2485C7" d="M18.39,53.571c0,0,0.02,0.041,0.057,0.118c0.032,0.08,0.097,0.188,0.185,0.322
			c0.161,0.276,0.403,0.663,0.751,1.089c0.676,0.859,1.795,1.863,3.134,2.476c1.321,0.643,2.79,0.916,3.886,0.897
			c0.548-0.033,1.005-0.042,1.321-0.114c0.318-0.046,0.5-0.073,0.5-0.073l1.027,5.003c0,0-0.282,0.044-0.776,0.123
			c-0.492,0.098-1.209,0.135-2.068,0.169c-1.721,0.025-4.034-0.392-6.099-1.4c-2.088-0.965-3.837-2.526-4.9-3.874
			c-0.544-0.669-0.927-1.276-1.181-1.71c-0.134-0.213-0.232-0.383-0.287-0.507c-0.06-0.121-0.092-0.185-0.092-0.185L18.39,53.571z"
			/>
	</g>
	<g>
		<path fill="#DCDDDE" d="M18.462,45.174c0,0-0.065,0.121-0.165,0.34c-0.101,0.218-0.262,0.522-0.384,0.917
			c-0.279,0.771-0.539,1.853-0.529,2.952c-0.009,1.099,0.231,2.191,0.489,2.97c0.146,0.385,0.25,0.713,0.372,0.92
			c0.105,0.216,0.165,0.339,0.165,0.339l-4.53,2.358c0,0-0.095-0.193-0.261-0.532c-0.181-0.333-0.362-0.839-0.583-1.445
			c-0.409-1.22-0.775-2.912-0.76-4.64c-0.01-1.728,0.387-3.43,0.826-4.638c0.2-0.614,0.44-1.095,0.602-1.436
			c0.158-0.341,0.261-0.529,0.261-0.529L18.462,45.174z"/>
	</g>
	<g>
		<path fill="#8FC6EC" d="M32.093,42.442c0,0-0.203-0.144-0.552-0.403c-0.354-0.25-0.889-0.572-1.569-0.874
			c-1.355-0.614-3.374-0.958-5.338-0.563c-0.976,0.208-1.906,0.568-2.715,1.021c-0.816,0.448-1.463,1.038-1.998,1.552
			c-0.507,0.546-0.874,1.048-1.11,1.412c-0.222,0.374-0.349,0.587-0.349,0.587l-4.497-2.422c0,0,0.198-0.333,0.544-0.918
			c0.368-0.569,0.938-1.357,1.737-2.206c0.826-0.816,1.855-1.724,3.133-2.436c1.269-0.719,2.734-1.282,4.251-1.598
			c1.521-0.302,3.093-0.335,4.539-0.16c1.454,0.155,2.755,0.601,3.828,1.042c1.066,0.468,1.898,0.976,2.453,1.365
			c0.549,0.399,0.857,0.633,0.857,0.633L32.093,42.442z"/>
	</g>
	<g>
		<path fill="#6AB0E1" d="M35.398,48.852c0,0-0.005-0.116-0.015-0.318c-0.031-0.201-0.075-0.489-0.128-0.833
			c-0.163-0.676-0.388-1.589-0.844-2.399c-0.438-0.813-0.969-1.583-1.475-2.065c-0.225-0.268-0.461-0.441-0.608-0.58
			c-0.15-0.136-0.237-0.214-0.237-0.214l3.216-3.968c0,0,0.137,0.12,0.375,0.33c0.233,0.215,0.591,0.498,0.951,0.908
			c0.778,0.764,1.636,1.958,2.314,3.243c0.703,1.282,1.082,2.7,1.317,3.757c0.083,0.538,0.151,0.985,0.199,1.299
			c0.019,0.317,0.03,0.499,0.03,0.499L35.398,48.852z"/>
	</g>
	<g>
		<path fill="#4495D1" d="M28.223,58.286c0,0,0.197-0.052,0.543-0.144c0.351-0.073,0.829-0.255,1.388-0.495
			c1.101-0.504,2.49-1.444,3.449-2.777c1.006-1.297,1.555-2.882,1.717-4.086c0.056-0.3,0.085-0.578,0.085-0.826
			c0.004-0.248,0.042-0.463,0.02-0.641c-0.019-0.355-0.029-0.559-0.029-0.559l5.092-0.397c0,0,0.017,0.318,0.044,0.876
			c0.024,0.278-0.015,0.618-0.026,1.006c-0.008,0.39-0.052,0.827-0.134,1.299c-0.117,0.952-0.424,2.035-0.848,3.151
			c-0.468,1.097-1.048,2.245-1.839,3.248c-1.506,2.073-3.674,3.569-5.412,4.353c-0.875,0.384-1.631,0.654-2.173,0.778
			c-0.54,0.138-0.849,0.216-0.849,0.216L28.223,58.286z"/>
	</g>
</g>
<g>
	<g>
		<path fill="#2485C7" d="M57.951,97.329c0,0,0.02-0.105,0.057-0.304c0.049-0.197,0.08-0.491,0.105-0.867
			c0.032-0.375,0.072-0.831,0.117-1.354c0.024-0.523-0.008-1.117-0.008-1.762c-0.041-1.291-0.253-2.789-0.619-4.362
			c-0.229-0.773-0.452-1.581-0.756-2.372c-0.339-0.777-0.625-1.594-1.067-2.336c-1.591-3.068-3.993-5.644-6.09-7.152
			c-1.074-0.718-1.961-1.33-2.651-1.645c-0.666-0.354-1.047-0.556-1.047-0.556l1.08-2.314c0,0,0.426,0.225,1.173,0.619
			c0.768,0.356,1.767,1.034,2.967,1.845c2.35,1.691,5.048,4.578,6.828,8.013c0.49,0.834,0.819,1.745,1.194,2.617
			c0.34,0.885,0.592,1.789,0.846,2.655c0.413,1.762,0.647,3.439,0.694,4.887c0.003,0.724,0.035,1.388,0.007,1.975
			c-0.05,0.586-0.093,1.097-0.129,1.518c-0.03,0.421-0.067,0.751-0.119,0.972c-0.041,0.223-0.063,0.341-0.063,0.341L57.951,97.329z"
			/>
	</g>
	<g>
		<path fill="#DCDDDE" d="M46.025,113.089c0,0,0.078-0.023,0.211-0.097c0.133-0.072,0.329-0.177,0.577-0.311
			c0.498-0.268,1.225-0.625,2.013-1.193c1.612-1.063,3.618-2.751,5.149-4.843c1.563-2.067,2.639-4.453,3.243-6.289
			c0.27-0.93,0.52-1.7,0.59-2.263c0.104-0.556,0.163-0.873,0.163-0.873l2.521,0.405c0,0-0.066,0.355-0.183,0.979
			c-0.084,0.631-0.355,1.495-0.662,2.537c-0.674,2.058-1.879,4.722-3.632,7.039c-1.718,2.344-3.965,4.24-5.771,5.431
			c-0.886,0.633-1.696,1.037-2.255,1.336c-0.279,0.149-0.498,0.267-0.647,0.347c-0.149,0.082-0.236,0.109-0.236,0.109
			L46.025,113.089z"/>
	</g>
	<g>
		<path fill="#8FC6EC" d="M16.444,99.12c0,0,0.036,0.141,0.119,0.402c0.082,0.261,0.201,0.644,0.353,1.132
			c0.319,0.968,0.872,2.326,1.736,3.849c0.908,1.487,2.062,3.202,3.682,4.683c1.587,1.5,3.503,2.871,5.616,3.876
			c2.125,0.977,4.392,1.607,6.561,1.882c2.175,0.293,4.229,0.103,5.957-0.129c1.725-0.313,3.121-0.75,4.077-1.105
			c0.942-0.395,1.48-0.62,1.48-0.62l1.082,2.313c0,0-0.603,0.252-1.657,0.695c-1.07,0.399-2.633,0.889-4.564,1.237
			c-1.937,0.267-4.237,0.471-6.677,0.146c-2.433-0.305-4.976-1.013-7.35-2.108c-2.362-1.123-4.515-2.657-6.292-4.342
			c-1.813-1.664-3.113-3.579-4.126-5.249c-0.969-1.705-1.586-3.227-1.944-4.31c-0.17-0.546-0.304-0.975-0.395-1.268
			c-0.092-0.292-0.132-0.45-0.132-0.45L16.444,99.12z"/>
	</g>
	<g>
		<path fill="#6AB0E1" d="M19.19,82.369c0,0-0.15,0.227-0.415,0.625c-0.224,0.423-0.543,1.026-0.926,1.75
			c-0.652,1.496-1.488,3.541-1.776,5.715c-0.323,2.153-0.382,4.358-0.113,5.978c0.057,0.819,0.247,1.479,0.333,1.949
			c0.097,0.468,0.151,0.735,0.151,0.735l-2.474,0.633c0,0-0.063-0.299-0.173-0.823c-0.098-0.525-0.304-1.266-0.373-2.183
			c-0.293-1.814-0.239-4.287,0.128-6.701c0.33-2.437,1.255-4.73,1.991-6.4c0.429-0.81,0.786-1.485,1.036-1.958
			c0.294-0.447,0.463-0.702,0.463-0.702L19.19,82.369z"/>
	</g>
	<g>
		<path fill="#4495D1" d="M45.992,74.619c0,0-0.444-0.18-1.223-0.495c-0.388-0.16-0.855-0.365-1.424-0.507
			c-0.565-0.141-1.181-0.399-1.894-0.504c-2.792-0.602-6.742-0.759-10.421,0.403c-1.86,0.491-3.583,1.375-5.137,2.269
			c-0.736,0.514-1.498,0.944-2.11,1.499c-0.319,0.26-0.629,0.514-0.93,0.759c-0.287,0.259-0.542,0.535-0.8,0.785
			c-0.255,0.253-0.499,0.496-0.731,0.727c-0.208,0.252-0.406,0.492-0.592,0.718c-0.358,0.46-0.722,0.823-0.935,1.187
			c-0.466,0.698-0.731,1.097-0.731,1.097l-2.162-1.358c0,0,0.298-0.447,0.819-1.229c0.243-0.404,0.644-0.817,1.048-1.331
			c0.209-0.252,0.431-0.521,0.665-0.803c0.26-0.259,0.533-0.532,0.818-0.817c0.288-0.281,0.576-0.588,0.898-0.878
			c0.336-0.275,0.684-0.56,1.04-0.853c0.691-0.617,1.538-1.107,2.367-1.677c1.736-1.007,3.67-1.987,5.75-2.542
			c4.118-1.296,8.547-1.129,11.679-0.45c0.798,0.123,1.489,0.402,2.122,0.564c0.636,0.163,1.16,0.389,1.595,0.567
			c0.87,0.354,1.367,0.557,1.367,0.557L45.992,74.619z"/>
	</g>
</g>
<path fill="#212121" d="M109.055,42.136c-2.426,0-4.451,1.739-4.902,4.035L61.58,53.078c-0.59-1.603-1.689-2.957-3.107-3.863
	l9.206-21.209c0.245,0.03,0.494,0.05,0.747,0.05c3.374,0,6.118-2.745,6.118-6.118c0-3.374-2.744-6.119-6.118-6.119
	s-6.118,2.745-6.118,6.119c0,2.052,1.019,3.868,2.574,4.978l-9.205,21.206c-0.442-0.079-0.896-0.127-1.36-0.127
	c-2.166,0-4.124,0.896-5.531,2.334L27.161,36.621c0.169-0.526,0.262-1.085,0.262-1.667c0-3.015-2.453-5.468-5.469-5.468
	c-3.015,0-5.468,2.453-5.468,5.468s2.453,5.468,5.468,5.468c1.398,0,2.671-0.532,3.639-1.397l-0.069,0.11l21.617,13.703
	c-0.363,0.896-0.568,1.875-0.568,2.9c0,1.104,0.235,2.152,0.653,3.103L17.545,94.584c-0.63-0.26-1.318-0.408-2.041-0.408
	c-2.962,0-5.372,2.41-5.372,5.372c0,2.962,2.41,5.372,5.372,5.372s5.372-2.41,5.372-5.372c0-1.15-0.371-2.212-0.989-3.087
	l29.136-35.086c1.387,1.302,3.246,2.107,5.294,2.107c0.436,0,0.86-0.045,1.277-0.115L66.579,97.34
	C64.428,98.742,63,101.166,63,103.92c0,4.331,3.522,7.854,7.852,7.854c4.33,0,7.853-3.523,7.853-7.854s-3.522-7.854-7.853-7.854
	c-0.508,0-1.004,0.053-1.485,0.146L58.402,62.305c2.111-1.319,3.54-3.621,3.643-6.264l42.443-6.886
	c0.778,1.753,2.529,2.982,4.566,2.982c2.757,0,5-2.243,5-5S111.812,42.136,109.055,42.136z"/>
<g>
	<g>
		<path fill="#2485C7" d="M108.612,35.803c0,0,0.047-0.049,0.136-0.14c0.094-0.086,0.212-0.23,0.356-0.419
			c0.146-0.186,0.326-0.412,0.531-0.671c0.194-0.267,0.383-0.59,0.607-0.93c0.854-1.38,1.684-3.445,1.862-5.62
			c0.229-2.166-0.141-4.354-0.721-5.875c-0.317-0.75-0.569-1.38-0.824-1.785c-0.228-0.418-0.357-0.656-0.357-0.656l2.176-1.338
			c0,0,0.155,0.283,0.428,0.779c0.297,0.483,0.607,1.23,0.978,2.126c0.69,1.813,1.135,4.423,0.862,7.001
			c-0.216,2.587-1.199,5.044-2.218,6.689c-0.265,0.406-0.493,0.789-0.726,1.107c-0.244,0.31-0.457,0.58-0.632,0.802
			c-0.173,0.224-0.315,0.395-0.426,0.5c-0.104,0.109-0.161,0.168-0.161,0.168L108.612,35.803z"/>
	</g>
	<g>
		<path fill="#DCDDDE" d="M96.869,39.955c0,0,0.201,0.03,0.557,0.059c0.354,0.032,0.861,0.097,1.473,0.071
			c1.217,0,2.858-0.191,4.389-0.76c1.539-0.545,2.935-1.428,3.89-2.184c0.465-0.396,0.863-0.713,1.096-0.986
			c0.247-0.256,0.389-0.402,0.389-0.402l1.882,1.726c0,0-0.169,0.175-0.464,0.48c-0.28,0.321-0.75,0.706-1.306,1.174
			c-1.136,0.903-2.792,1.947-4.628,2.596c-1.825,0.677-3.781,0.91-5.231,0.909c-0.729,0.027-1.331-0.045-1.753-0.084
			c-0.423-0.036-0.662-0.072-0.662-0.072L96.869,39.955z"/>
	</g>
	<g>
		<path fill="#8FC6EC" d="M86.155,22.339c0,0-0.103,0.354-0.284,0.971c-0.168,0.62-0.349,1.527-0.423,2.628
			c-0.037,1.098-0.027,2.4,0.312,3.741c0.314,1.339,0.847,2.725,1.609,3.989c0.779,1.251,1.753,2.37,2.798,3.267
			c1.042,0.909,2.189,1.52,3.179,2c1.017,0.433,1.902,0.688,2.529,0.833c0.633,0.12,0.994,0.188,0.994,0.188l-0.37,2.527
			c0,0-0.431-0.081-1.184-0.223c-0.745-0.171-1.801-0.474-3.009-0.992c-1.182-0.564-2.543-1.3-3.788-2.382
			c-1.248-1.068-2.409-2.402-3.332-3.89c-0.906-1.499-1.545-3.151-1.917-4.75c-0.398-1.6-0.421-3.151-0.37-4.458
			c0.087-1.311,0.303-2.39,0.502-3.127c0.214-0.735,0.34-1.154,0.34-1.154L86.155,22.339z"/>
	</g>
	<g>
		<path fill="#6AB0E1" d="M93.414,14.479c0,0-0.158,0.067-0.436,0.185c-0.265,0.145-0.642,0.352-1.095,0.6
			c-0.862,0.562-2.014,1.346-2.918,2.39c-0.916,1.021-1.714,2.159-2.135,3.105c-0.255,0.45-0.383,0.864-0.501,1.141
			c-0.111,0.28-0.175,0.439-0.175,0.439l-2.414-0.833c0,0,0.075-0.191,0.206-0.524c0.139-0.33,0.298-0.819,0.597-1.358
			c0.506-1.122,1.447-2.486,2.544-3.701c1.085-1.241,2.446-2.184,3.475-2.845c0.539-0.295,0.987-0.54,1.302-0.712
			c0.329-0.142,0.518-0.222,0.518-0.222L93.414,14.479z"/>
	</g>
	<g>
		<path fill="#4495D1" d="M110.203,19.705c0,0-0.172-0.249-0.472-0.685c-0.282-0.448-0.773-1.027-1.395-1.684
			c-1.26-1.285-3.282-2.739-5.622-3.404c-1.148-0.388-2.363-0.519-3.49-0.589c-1.131-0.009-2.193,0.056-3.075,0.268
			c-0.222,0.044-0.435,0.087-0.637,0.128c-0.197,0.061-0.385,0.119-0.561,0.173c-0.348,0.118-0.666,0.182-0.903,0.299
			c-0.487,0.206-0.766,0.324-0.766,0.324l-1.057-2.325c0,0,0.332-0.14,0.912-0.385c0.285-0.136,0.661-0.22,1.077-0.358
			c0.21-0.063,0.433-0.131,0.668-0.203c0.241-0.049,0.495-0.101,0.76-0.155c1.053-0.246,2.317-0.333,3.665-0.317
			c1.343,0.077,2.785,0.244,4.153,0.699c2.78,0.795,5.196,2.521,6.697,4.057c0.742,0.781,1.322,1.475,1.661,2.004
			c0.355,0.519,0.559,0.815,0.559,0.815L110.203,19.705z"/>
	</g>
</g>
<g>
	<g>
		<path fill="#2485C7" d="M108.63,81.391c0,0-0.094-0.125-0.306-0.294c-0.2-0.182-0.493-0.433-0.881-0.689
			c-0.762-0.522-1.916-1.049-3.149-1.207c-1.227-0.186-2.48-0.035-3.36,0.255c-0.435,0.163-0.801,0.288-1.037,0.423
			c-0.244,0.118-0.384,0.186-0.384,0.186l-1.236-2.234c0,0,0.185-0.091,0.509-0.25c0.316-0.174,0.802-0.352,1.385-0.561
			c1.178-0.387,2.856-0.595,4.492-0.345c1.644,0.214,3.182,0.913,4.201,1.611c0.518,0.343,0.91,0.678,1.178,0.922
			c0.279,0.23,0.409,0.394,0.409,0.394L108.63,81.391z"/>
	</g>
	<g>
		<path fill="#DCDDDE" d="M110.686,88.181c0,0,0.022-0.114,0.048-0.315c0.027-0.201,0.078-0.488,0.078-0.836
			c0.032-0.692-0.032-1.63-0.317-2.516c-0.27-0.89-0.736-1.708-1.141-2.271c-0.214-0.274-0.383-0.511-0.532-0.649
			c-0.14-0.147-0.219-0.232-0.219-0.232l1.811-1.8c0,0,0.106,0.113,0.293,0.31c0.196,0.189,0.429,0.499,0.711,0.868
			c0.543,0.751,1.159,1.837,1.52,3.027c0.378,1.185,0.47,2.44,0.427,3.364c-0.005,0.466-0.067,0.848-0.105,1.116
			c-0.035,0.269-0.065,0.42-0.065,0.42L110.686,88.181z"/>
	</g>
	<g>
		<path fill="#8FC6EC" d="M100.382,93.816c0,0,0.199,0.066,0.546,0.187c0.349,0.112,0.859,0.238,1.484,0.31
			c1.246,0.153,2.967-0.077,4.447-0.891c0.733-0.412,1.395-0.937,1.933-1.507c0.545-0.568,0.921-1.206,1.221-1.755
			c0.271-0.567,0.441-1.065,0.54-1.418c0.085-0.357,0.133-0.561,0.133-0.561l2.507,0.486c0,0-0.064,0.272-0.177,0.748
			c-0.131,0.471-0.354,1.135-0.721,1.89c-0.394,0.738-0.904,1.584-1.631,2.347c-0.718,0.766-1.604,1.467-2.579,2.011
			c-1.967,1.088-4.281,1.395-5.94,1.189c-0.834-0.093-1.515-0.264-1.979-0.412c-0.463-0.157-0.727-0.25-0.727-0.251L100.382,93.816z
			"/>
	</g>
	<g>
		<path fill="#6AB0E1" d="M96.101,89.479c0,0,0.034,0.092,0.094,0.253c0.075,0.154,0.184,0.375,0.313,0.639
			c0.299,0.505,0.714,1.182,1.284,1.723c0.557,0.547,1.183,1.032,1.71,1.295c0.249,0.158,0.482,0.24,0.636,0.315
			c0.156,0.071,0.246,0.112,0.246,0.112l-0.944,2.373c0,0-0.119-0.053-0.328-0.146c-0.206-0.098-0.514-0.215-0.849-0.421
			c-0.7-0.356-1.544-0.996-2.286-1.732c-0.759-0.729-1.322-1.624-1.712-2.299c-0.173-0.352-0.315-0.646-0.416-0.851
			c-0.081-0.214-0.128-0.336-0.128-0.336L96.101,89.479z"/>
	</g>
	<g>
		<path fill="#4495D1" d="M99.513,80.064c0,0-0.146,0.091-0.402,0.251c-0.263,0.148-0.604,0.414-0.994,0.749
			c-0.763,0.684-1.645,1.794-2.084,3.109c-0.482,1.299-0.527,2.714-0.354,3.728c0.061,0.513,0.206,0.922,0.286,1.21
			c0.104,0.282,0.165,0.443,0.165,0.443l-2.371,0.949c0,0-0.079-0.216-0.219-0.593c-0.111-0.384-0.298-0.934-0.385-1.619
			c-0.23-1.357-0.169-3.245,0.474-4.976c0.589-1.749,1.76-3.241,2.785-4.153c0.52-0.451,0.979-0.8,1.326-1.001
			c0.342-0.211,0.537-0.332,0.537-0.332L99.513,80.064z"/>
	</g>
</g>
<g>
	<g>
		<path fill="#2485C7" d="M95.406,67.551c-0.004-0.007,0.14-0.036,0.354-0.164c0.224-0.11,0.536-0.278,0.885-0.525
			c0.702-0.479,1.542-1.295,2.089-2.303c0.568-0.992,0.858-2.116,0.902-2.968c0.002-0.427,0.021-0.783-0.019-1.032
			c-0.019-0.25-0.029-0.392-0.029-0.392l5.061-0.685c0,0,0.022,0.244,0.061,0.672c0.054,0.426,0.046,1.042,0.023,1.781
			c-0.079,1.475-0.572,3.432-1.556,5.141c-0.949,1.732-2.387,3.139-3.604,3.971c-0.604,0.426-1.146,0.719-1.533,0.911
			c-0.378,0.208-0.614,0.284-0.614,0.284L95.406,67.551z"/>
	</g>
	<g>
		<path fill="#DCDDDE" d="M88.892,67.051c0,0,0.09,0.057,0.256,0.146c0.163,0.09,0.392,0.232,0.691,0.346
			c0.584,0.258,1.409,0.518,2.263,0.568c0.853,0.065,1.714-0.065,2.333-0.223c0.307-0.094,0.566-0.156,0.734-0.241
			c0.173-0.07,0.271-0.11,0.271-0.11l2.044,4.681c0,0-0.171,0.07-0.471,0.192c-0.296,0.135-0.739,0.262-1.271,0.415
			c-1.068,0.28-2.538,0.494-4.018,0.379c-1.48-0.093-2.915-0.531-3.924-0.978c-0.515-0.208-0.912-0.441-1.194-0.599
			c-0.282-0.156-0.438-0.255-0.438-0.255L88.892,67.051z"/>
	</g>
	<g>
		<path fill="#8FC6EC" d="M87.492,56.324c0,0-0.122,0.15-0.342,0.407c-0.213,0.262-0.491,0.66-0.763,1.172
			c-0.548,1.021-0.921,2.567-0.72,4.114c0.111,0.769,0.341,1.51,0.649,2.162c0.304,0.657,0.729,1.189,1.099,1.633
			c0.397,0.422,0.768,0.734,1.038,0.938c0.278,0.192,0.438,0.302,0.438,0.302l-2.723,4.321c0,0-0.274-0.188-0.754-0.519
			c-0.467-0.349-1.108-0.883-1.787-1.617c-0.651-0.754-1.368-1.689-1.904-2.826c-0.542-1.128-0.938-2.416-1.12-3.733
			c-0.361-2.652,0.3-5.361,1.244-7.114c0.464-0.886,0.947-1.568,1.313-2.021c0.373-0.447,0.592-0.697,0.592-0.697L87.492,56.324z"/>
	</g>
	<g>
		<path fill="#6AB0E1" d="M92.645,54.097c0,0-0.09-0.002-0.248-0.006c-0.158,0.013-0.384,0.033-0.654,0.056
			c-0.533,0.092-1.256,0.216-1.908,0.528c-0.652,0.297-1.28,0.667-1.68,1.036c-0.221,0.159-0.367,0.334-0.483,0.441
			c-0.114,0.11-0.179,0.172-0.179,0.172l-3.74-3.479c0,0,0.11-0.11,0.304-0.302c0.198-0.188,0.462-0.476,0.834-0.761
			c0.7-0.622,1.772-1.287,2.912-1.793c1.14-0.526,2.375-0.77,3.294-0.909c0.465-0.039,0.853-0.071,1.124-0.094
			c0.272,0.002,0.429,0.003,0.429,0.003L92.645,54.097z"/>
	</g>
	<g>
		<path fill="#4495D1" d="M99.588,60.167c0,0-0.03-0.156-0.084-0.43c-0.037-0.277-0.154-0.657-0.311-1.104
			c-0.334-0.88-0.988-2.009-1.974-2.824c-0.954-0.851-2.155-1.36-3.081-1.549c-0.459-0.123-0.859-0.129-1.133-0.159
			c-0.277-0.004-0.436-0.007-0.436-0.007l-0.051-5.107c0,0,0.274,0.005,0.754,0.014c0.475,0.04,1.166,0.074,1.966,0.272
			c1.608,0.331,3.679,1.215,5.323,2.674c1.687,1.41,2.842,3.354,3.411,4.889c0.278,0.771,0.465,1.435,0.54,1.906
			c0.086,0.47,0.135,0.739,0.135,0.739L99.588,60.167z"/>
	</g>
</g>
<g>
	<g>
		<path fill="#2485C7" d="M32.6,22.498c0,0-0.042,0.039-0.121,0.112c-0.082,0.069-0.188,0.186-0.317,0.339
			c-0.132,0.151-0.292,0.334-0.476,0.544c-0.175,0.217-0.347,0.482-0.55,0.758c-0.778,1.128-1.563,2.835-1.802,4.662
			c-0.282,1.816-0.062,3.676,0.365,4.982c0.237,0.645,0.423,1.187,0.621,1.539c0.175,0.362,0.274,0.568,0.274,0.568l-2.238,1.229
			c0,0-0.123-0.252-0.338-0.693c-0.237-0.432-0.476-1.093-0.759-1.887c-0.522-1.603-0.798-3.888-0.452-6.113
			c0.298-2.236,1.255-4.327,2.209-5.712c0.247-0.341,0.462-0.664,0.677-0.93c0.226-0.259,0.421-0.484,0.583-0.669
			c0.159-0.187,0.29-0.329,0.391-0.416c0.096-0.09,0.146-0.139,0.146-0.139L32.6,22.498z"/>
	</g>
	<g>
		<path fill="#DCDDDE" d="M42.669,19.481c0,0-0.168-0.034-0.467-0.072c-0.298-0.042-0.722-0.118-1.238-0.121
			c-1.026-0.05-2.417,0.043-3.73,0.46c-1.319,0.396-2.532,1.083-3.369,1.68c-0.408,0.315-0.758,0.565-0.964,0.786
			c-0.219,0.206-0.345,0.323-0.345,0.323l-1.795-1.816c0,0,0.153-0.145,0.423-0.397c0.257-0.267,0.681-0.581,1.184-0.964
			c1.023-0.735,2.505-1.57,4.126-2.056c1.613-0.51,3.321-0.629,4.579-0.567c0.634,0.008,1.153,0.096,1.519,0.147
			c0.365,0.049,0.572,0.091,0.572,0.091L42.669,19.481z"/>
	</g>
	<g>
		<path fill="#8FC6EC" d="M50.975,34.773c0,0,0.101-0.294,0.279-0.807c0.167-0.516,0.356-1.273,0.465-2.198
			c0.233-1.846-0.101-4.399-1.3-6.595c-0.606-1.087-1.381-2.07-2.225-2.869c-0.841-0.81-1.783-1.372-2.597-1.816
			c-0.839-0.407-1.575-0.659-2.098-0.807c-0.528-0.127-0.831-0.2-0.831-0.2l0.494-2.505c0,0,0.369,0.088,1.017,0.243
			c0.64,0.181,1.543,0.488,2.569,0.989c1.002,0.54,2.152,1.237,3.187,2.228c1.039,0.98,1.99,2.188,2.728,3.518
			c0.723,1.339,1.207,2.8,1.462,4.204c0.277,1.405,0.232,2.752,0.132,3.885c-0.13,1.134-0.364,2.061-0.568,2.693
			c-0.216,0.629-0.344,0.987-0.344,0.987L50.975,34.773z"/>
	</g>
	<g>
		<path fill="#6AB0E1" d="M44.531,41.099c0,0,0.137-0.05,0.375-0.137c0.229-0.111,0.556-0.27,0.948-0.461
			c0.749-0.438,1.753-1.052,2.558-1.895c0.814-0.823,1.534-1.749,1.927-2.529c0.234-0.369,0.358-0.713,0.47-0.941
			c0.105-0.231,0.166-0.363,0.166-0.363l2.37,0.95c0,0-0.073,0.163-0.201,0.446c-0.134,0.281-0.293,0.699-0.575,1.153
			c-0.487,0.952-1.361,2.097-2.365,3.104c-0.994,1.03-2.216,1.792-3.137,2.321c-0.479,0.233-0.88,0.427-1.159,0.563
			c-0.292,0.109-0.459,0.171-0.459,0.171L44.531,41.099z"/>
	</g>
	<g>
		<path fill="#4495D1" d="M30.595,36.002c0,0,0.135,0.217,0.37,0.597c0.219,0.39,0.609,0.897,1.105,1.477
			c1.01,1.135,2.653,2.444,4.599,3.102c0.952,0.375,1.971,0.535,2.918,0.641c0.953,0.054,1.852,0.043,2.604-0.099
			c0.38-0.046,0.723-0.114,1.021-0.204c0.299-0.085,0.569-0.125,0.774-0.215c0.419-0.153,0.658-0.241,0.658-0.241l0.942,2.374
			c0,0-0.294,0.107-0.808,0.295c-0.254,0.105-0.584,0.163-0.95,0.266c-0.367,0.107-0.788,0.191-1.255,0.25
			c-0.924,0.169-2.026,0.191-3.194,0.12c-1.162-0.124-2.407-0.33-3.575-0.783c-2.379-0.809-4.403-2.409-5.641-3.806
			c-0.611-0.709-1.085-1.337-1.357-1.81c-0.286-0.466-0.449-0.732-0.449-0.732L30.595,36.002z"/>
	</g>
</g>
</svg>
