<?xml version="1.0" encoding="utf-8"?>
<!-- Generator: Adobe Illustrator 16.0.0, SVG Export Plug-In . SVG Version: 6.00 Build 0)  -->
<!DOCTYPE svg PUBLIC "-//W3C//DTD SVG 1.1//EN" "http://www.w3.org/Graphics/SVG/1.1/DTD/svg11.dtd">
<svg version="1.1" id="Layer_1" xmlns="http://www.w3.org/2000/svg" xmlns:xlink="http://www.w3.org/1999/xlink" x="0px" y="0px"
	 width="128px" height="128px" viewBox="0 0 128 128" enable-background="new 0 0 128 128" xml:space="preserve">
<path fill-rule="evenodd" clip-rule="evenodd" fill="none" stroke="#2485C7" stroke-width="3" stroke-miterlimit="10" d="
	M63.646,42.53c0.553,0.25,1.453,0.577,2.694,0.98c1.273,0.399,2.613,0.863,4.021,1.384c1.409,0.517,2.705,1.188,3.896,2.009
	c1.188,0.824,2.167,1.844,2.94,3.068c0.771,1.225,1.156,2.725,1.156,4.5c0,1.879-0.335,3.537-1.003,4.978
	c-0.672,1.44-1.559,2.675-2.665,3.693c-1.108,1.024-2.388,1.821-3.845,2.394c-1.459,0.565-2.979,0.918-4.553,1.055v3.819h-5.128
	v-3.771c-2.347-0.166-4.619-0.705-6.812-1.609c-2.199-0.904-4.084-2.028-5.656-3.368l7.291-7.741
	c0.398,0.434,0.893,0.854,1.481,1.256c0.586,0.401,1.214,0.762,1.888,1.08c0.668,0.318,1.363,0.572,2.087,0.757
	c0.717,0.183,1.446,0.273,2.181,0.273c0.672,0,1.284-0.116,1.84-0.352c0.551-0.232,0.829-0.652,0.829-1.257
	c0-0.337-0.093-0.62-0.278-0.852c-0.183-0.236-0.51-0.473-0.981-0.706c-0.468-0.235-1.111-0.495-1.935-0.779
	c-0.821-0.286-1.851-0.631-3.092-1.032c-1.203-0.402-2.362-0.87-3.469-1.408c-1.105-0.535-2.088-1.198-2.94-1.983
	c-0.854-0.788-1.536-1.735-2.034-2.845c-0.503-1.102-0.756-2.41-0.756-3.921c0-1.777,0.303-3.343,0.906-4.701
	c0.602-1.359,1.407-2.511,2.412-3.469c1.005-0.955,2.17-1.727,3.493-2.313c1.326-0.588,2.691-0.996,4.099-1.232v-3.722h5.128v3.622
	c2.211,0.135,4.416,0.628,6.611,1.48c2.195,0.856,4.15,2.039,5.857,3.547l-7.441,7.391c-0.803-0.972-1.792-1.71-2.966-2.211
	c-1.173-0.504-2.227-0.755-3.166-0.755c-0.874,0-1.577,0.118-2.117,0.353c-0.533,0.232-0.803,0.638-0.803,1.207
	C62.816,41.886,63.093,42.277,63.646,42.53z"/>
<g>
	<path fill="#DCDDDE" d="M77.381,113.693H50.618c-0.025,0-0.046,0.01-0.069,0.012h-3.623v3.612h3.632
		c0.021,0.001,0.039,0.011,0.06,0.011h26.763c0.021,0,0.039-0.009,0.061-0.011h3.634v-3.612H77.45
		C77.428,113.703,77.406,113.693,77.381,113.693z"/>
	<g>
		<path fill="#DCDDDE" d="M81.026,101.974H47.098l0.166-3.496c0.006-0.143,0.58-14.117-4.706-26.259
			c-0.711-1.634-1.811-3.26-2.976-4.982C36.8,63.118,33.345,58,33.315,49.935c-0.024-6.186,1.14-17.774,9.201-25.874
			c5.269-5.293,12.389-7.982,21.162-7.99c9.686,0,17.276,2.723,22.563,8.092c5.77,5.857,8.608,14.532,8.438,25.782
			c-0.113,7.626-5.157,15.5-8.171,20.204c-0.657,1.025-1.276,1.992-1.634,2.64c-3.83,6.931-4.173,20.908-3.982,25.708
			L81.026,101.974z M52.29,96.974h23.569c-0.041-4.835,0.255-18.671,4.638-26.603c0.437-0.791,1.068-1.776,1.799-2.917
			c2.728-4.257,7.291-11.38,7.383-17.583c0.149-9.862-2.206-17.331-7.001-22.199c-4.313-4.38-10.705-6.601-18.998-6.601
			c-7.394,0.007-13.323,2.199-17.621,6.517c-6.787,6.82-7.766,16.917-7.745,22.328c0.024,6.546,2.76,10.597,5.406,14.515
			c1.243,1.838,2.526,3.735,3.421,5.792C51.813,80.954,52.291,92.628,52.29,96.974z"/>
	</g>
	<rect x="46.926" y="105.854" fill="#DCDDDE" width="34.15" height="3.612"/>
	<path fill="#DCDDDE" d="M64,125.998c9.463,0,14.731-4.505,14.731-4.505h-29.46C49.271,121.493,55.976,125.998,64,125.998z"/>
</g>
<g>
	<rect x="62.5" y="1.184" fill="#212121" width="3" height="9.816"/>
</g>
<g>
	<rect x="38.375" y="10.143" transform="matrix(0.5 0.866 -0.866 0.5 31.7253 -31.6635)" fill="#212121" width="9.817" height="3"/>
</g>
<g>
	<rect x="23.21" y="25.309" transform="matrix(0.866 0.5 -0.5 0.866 17.1725 -10.4679)" fill="#212121" width="9.817" height="3"/>
</g>
<g>
	<rect x="17.659" y="46.025" fill="#212121" width="9.817" height="3"/>
</g>
<g>
	
		<rect x="26.618" y="63.333" transform="matrix(0.4999 0.8661 -0.8661 0.4999 73.1632 9.7732)" fill="#212121" width="3" height="9.817"/>
</g>
<g>
	
		<rect x="83.214" y="6.735" transform="matrix(0.866 0.5001 -0.5001 0.866 17.1746 -40.8018)" fill="#212121" width="3" height="9.817"/>
</g>
<g>
	
		<rect x="98.379" y="21.9" transform="matrix(0.5001 0.866 -0.866 0.5001 73.1493 -73.0918)" fill="#212121" width="3" height="9.817"/>
</g>
<g>
	<rect x="100.521" y="46.025" fill="#212121" width="9.817" height="3"/>
</g>
<g>
	
		<rect x="94.971" y="66.741" transform="matrix(0.8661 0.4999 -0.4999 0.8661 47.4932 -40.7928)" fill="#212121" width="9.817" height="3"/>
</g>
</svg>
