<?xml version="1.0" encoding="utf-8"?>
<!-- Generator: Adobe Illustrator 16.0.4, SVG Export Plug-In . SVG Version: 6.00 Build 0)  -->
<!DOCTYPE svg PUBLIC "-//W3C//DTD SVG 1.1//EN" "http://www.w3.org/Graphics/SVG/1.1/DTD/svg11.dtd">
<svg version="1.1" id="Layer_1" xmlns="http://www.w3.org/2000/svg" xmlns:xlink="http://www.w3.org/1999/xlink" x="0px" y="0px"
	 width="82.092px" height="82.092px" viewBox="0 0 82.092 82.092" enable-background="new 0 0 82.092 82.092" xml:space="preserve">
<path fill="#3688C8" d="M41.046,0C18.377,0,0,18.377,0,41.047c0,22.668,18.377,41.045,41.046,41.045s41.046-18.377,41.046-41.045
	C82.092,18.377,63.715,0,41.046,0z M60.694,35.959l-0.437,9.926c1.475,0.67,2.504,2.152,2.504,3.879
	c0,2.354-1.911,4.262-4.264,4.262c-1.097,0-2.093-0.418-2.848-1.1l-10.558,7.088c0.083,0.381,0.13,0.773,0.13,1.178
	c0,3.021-2.449,5.471-5.471,5.471s-5.471-2.449-5.471-5.471s2.449-5.471,5.471-5.471c1.566,0,2.975,0.662,3.973,1.717l10.557-7.088
	c-0.026-0.191-0.044-0.387-0.044-0.586c0-1.961,1.324-3.607,3.126-4.104l0.435-9.887c-1.895-0.541-3.451-1.873-4.295-3.619
	L22.155,38c-0.508,1.262-1.74,2.156-3.185,2.156c-1.896,0-3.436-1.537-3.436-3.436c0-1.896,1.539-3.434,3.436-3.434
	c0.227,0,0.445,0.023,0.659,0.066l5.556-10.342c-0.699-0.805-1.126-1.852-1.126-3.002c0-2.529,2.051-4.58,4.581-4.58
	s4.58,2.051,4.58,4.58c0,2.531-2.05,4.582-4.58,4.582c-0.327,0-0.646-0.037-0.954-0.104l-5.688,10.59l30.824-5.75
	c-0.002-0.053-0.009-0.104-0.009-0.156c0-3.795,3.077-6.871,6.872-6.871c3.794,0,6.869,3.076,6.869,6.871
	C66.555,32.621,64.008,35.471,60.694,35.959z"/>
</svg>
