<?xml version="1.0" encoding="utf-8"?>
<!-- Generator: Adobe Illustrator 16.0.4, SVG Export Plug-In . SVG Version: 6.00 Build 0)  -->
<!DOCTYPE svg PUBLIC "-//W3C//DTD SVG 1.1//EN" "http://www.w3.org/Graphics/SVG/1.1/DTD/svg11.dtd">
<svg version="1.1" id="Layer_1" xmlns="http://www.w3.org/2000/svg" xmlns:xlink="http://www.w3.org/1999/xlink" x="0px" y="0px"
	 width="82.229px" height="82.558px" viewBox="0 0 82.229 82.558" enable-background="new 0 0 82.229 82.558" xml:space="preserve">
<g>
	<rect x="24.68" y="36.163" fill="#FFFFFF" width="3.091" height="3.1"/>
	<rect x="31.391" y="36.163" fill="#FFFFFF" width="3.091" height="3.1"/>
	<rect x="38.101" y="36.163" fill="#FFFFFF" width="3.091" height="3.1"/>
	<rect x="44.81" y="36.163" fill="#FFFFFF" width="3.092" height="3.1"/>
	<path fill="#FFFFFF" d="M41.116,0C18.409,0,0,18.407,0,41.114c0,17.888,11.426,33.099,27.375,38.754
		c4.381,1.731,9.132,2.689,14.102,2.689c8.329,0,16.052-2.671,22.425-7.222c11.049-7.37,18.328-19.944,18.328-34.222
		C82.229,18.407,63.821,0,41.116,0z M36.291,54.828c-1.292,0-2.583-0.087-3.856-0.257c-0.094,1.082,0.041,2.426,0.201,3.318
		c0.062,0.161,0.096,0.336,0.096,0.517c0,0.797-0.645,1.442-1.442,1.442c-0.235-0.001-0.478-0.051-0.696-0.166
		c-3.276-1.733-5.64-5.197-7.099-7.949c-5.981-3.222-9.536-8.476-9.536-14.136c0-9.503,10.018-17.232,22.333-17.232
		c12.314,0,22.333,7.729,22.333,17.232C58.624,47.1,48.605,54.828,36.291,54.828z M69.39,50.35
		c-0.451,3.461-3.043,6.393-6.961,7.886c-1.11,1.567-2.832,3.496-4.975,4.294c-0.102,0.039-0.209,0.058-0.314,0.058
		c-0.232,0-0.459-0.089-0.631-0.257c-0.25-0.242-0.336-0.608-0.223-0.939c0.179-0.52,0.398-1.406,0.434-2.13
		c-0.789-0.009-1.581-0.048-2.367-0.15c-2.516-0.328-4.916-1.189-6.939-2.493c-0.283-0.183-0.442-0.509-0.409-0.845
		c0.032-0.336,0.25-0.626,0.563-0.751c4.271-1.702,11.672-5.904,13.253-14.916c0.048-0.275,0.222-0.514,0.468-0.643
		c0.246-0.132,0.541-0.14,0.795-0.023C67.089,41.728,69.956,46.009,69.39,50.35z"/>
</g>
</svg>
