<?xml version="1.0" encoding="utf-8"?>
<!-- Generator: Adobe Illustrator 16.0.4, SVG Export Plug-In . SVG Version: 6.00 Build 0)  -->
<!DOCTYPE svg PUBLIC "-//W3C//DTD SVG 1.1//EN" "http://www.w3.org/Graphics/SVG/1.1/DTD/svg11.dtd">
<svg version="1.1" id="Layer_1" xmlns="http://www.w3.org/2000/svg" xmlns:xlink="http://www.w3.org/1999/xlink" x="0px" y="0px"
	 width="82.23px" height="84.782px" viewBox="0 0 82.23 84.782" enable-background="new 0 0 82.23 84.782" xml:space="preserve">
<g>
	<rect x="36" y="48.424" fill="#FFFFFF" width="3.441" height="3.451"/>
	<rect x="36" y="41.811" fill="#FFFFFF" width="3.441" height="3.45"/>
	<rect x="36" y="55.037" fill="#FFFFFF" width="3.441" height="3.451"/>
	<rect x="36" y="35.197" fill="#FFFFFF" width="3.441" height="3.451"/>
	<rect x="28.527" y="48.424" fill="#FFFFFF" width="3.442" height="3.451"/>
	<rect x="28.527" y="55.037" fill="#FFFFFF" width="3.442" height="3.451"/>
	<rect x="43.47" y="55.037" fill="#FFFFFF" width="3.442" height="3.451"/>
	<rect x="28.527" y="35.197" fill="#FFFFFF" width="3.442" height="3.451"/>
	<rect x="28.527" y="41.811" fill="#FFFFFF" width="3.442" height="3.45"/>
	<rect x="50.942" y="48.424" fill="#FFFFFF" width="3.442" height="3.451"/>
	<rect x="50.942" y="41.811" fill="#FFFFFF" width="3.442" height="3.45"/>
	<rect x="50.942" y="35.197" fill="#FFFFFF" width="3.442" height="3.451"/>
	<rect x="43.47" y="48.424" fill="#FFFFFF" width="3.442" height="3.451"/>
	<path fill="#FFFFFF" d="M41.115,0.001C18.407,0.001,0,18.409,0,41.116S18.407,82.23,41.115,82.23
		c22.707,0,41.115-18.407,41.115-41.114S63.822,0.001,41.115,0.001z M61.435,59.975c0,1.454-1.185,2.64-2.639,2.64h-35.36
		c-1.457,0-2.642-1.186-2.642-2.64V24.612c0-1.456,1.185-2.641,2.642-2.641h6.388v-2.354h4.211v2.354h13.838v-2.354h4.212v2.354
		h6.712c1.454,0,2.639,1.185,2.639,2.641V59.975z"/>
	<path fill="#FFFFFF" d="M57.351,25.579h-5.267v1.991h-4.212v-1.991H34.034v1.991h-4.211v-1.991h-4.944
		c-0.259,0-0.476,0.22-0.476,0.477v5.698c3.381-0.698,9.898-1.829,16.573-1.829c6.585,0,13.478,1.215,16.851,1.9v-5.77
		C57.827,25.799,57.608,25.579,57.351,25.579z"/>
	<rect x="50.942" y="55.037" fill="#FFFFFF" width="3.442" height="3.451"/>
	<rect x="43.47" y="41.811" fill="#FFFFFF" width="3.442" height="3.45"/>
	<rect x="43.47" y="35.197" fill="#FFFFFF" width="3.442" height="3.451"/>
</g>
</svg>
