<?xml version="1.0" encoding="utf-8"?>
<!-- Generator: Adobe Illustrator 16.0.0, SVG Export Plug-In . SVG Version: 6.00 Build 0)  -->
<!DOCTYPE svg PUBLIC "-//W3C//DTD SVG 1.1//EN" "http://www.w3.org/Graphics/SVG/1.1/DTD/svg11.dtd">
<svg version="1.1" xmlns="http://www.w3.org/2000/svg" xmlns:xlink="http://www.w3.org/1999/xlink" x="0px" y="0px" width="100px"
	 height="100px" viewBox="0 0 100 100" enable-background="new 0 0 100 100" xml:space="preserve">
<g id="Layer_1" display="none">
	<path display="inline" fill="#3488C9" d="M58.984,72.479c0-8.031,3.582-15.009,5.739-18.536c-2.242-1.161-3.774-3.5-3.774-6.2
		c0-3.856,3.127-6.983,6.982-6.983c3.856,0,6.983,3.126,6.983,6.983c0,2.7-1.535,5.039-3.775,6.2
		c2.158,3.527,5.74,10.505,5.74,18.536H58.984z M41.091,58.144c0-8.032,3.58-15.007,5.74-18.535
		c-2.243-1.162-3.775-3.502-3.775-6.201c0-3.856,3.125-6.982,6.983-6.982c3.855,0,6.98,3.126,6.98,6.982
		c0,2.699-1.532,5.039-3.772,6.201c2.157,3.528,5.737,10.503,5.737,18.535H41.091z M23.198,74.002c0-8.03,3.578-15.007,5.739-18.534
		c-2.243-1.162-3.774-3.501-3.774-6.2c0-3.856,3.126-6.983,6.982-6.983s6.982,3.127,6.982,6.983c0,2.699-1.534,5.038-3.774,6.2
		c2.158,3.527,5.737,10.504,5.737,18.534H23.198z M49,11.325c-22.798,0-41.282,18.482-41.282,41.28
		c0,22.8,18.484,41.282,41.282,41.282c22.799,0,41.28-18.482,41.28-41.282C90.28,29.807,71.799,11.325,49,11.325 M146.053,66.319
		h3.44v-3.45h-3.44V66.319z M146.053,59.706h3.44v-3.45h-3.44V59.706z M146.053,72.935h3.44v-3.451h-3.44V72.935z M146.053,53.094
		h3.44v-3.451h-3.44V53.094z M138.58,66.319h3.441v-3.45h-3.441V66.319z M138.58,72.935h3.441v-3.451h-3.441V72.935z
		 M153.522,72.935h3.442v-3.451h-3.442V72.935z M138.58,53.094h3.441v-3.451h-3.441V53.094z M138.58,59.706h3.441v-3.45h-3.441
		V59.706z M160.994,66.319h3.442v-3.45h-3.442V66.319z M160.994,59.706h3.442v-3.45h-3.442V59.706z M160.994,53.094h3.442v-3.451
		h-3.442V53.094z M153.522,66.319h3.442v-3.45h-3.442V66.319z M171.486,74.421c0,1.453-1.184,2.639-2.638,2.639h-35.361
		c-1.456,0-2.641-1.186-2.641-2.639V39.057c0-1.456,1.185-2.64,2.641-2.64h6.389v-2.354h4.211v2.354h13.838v-2.354h4.212v2.354
		h6.712c1.454,0,2.638,1.184,2.638,2.64V74.421z M110.053,55.562c0,22.707,18.407,41.113,41.115,41.113
		c22.707,0,41.115-18.406,41.115-41.113s-18.408-41.115-41.115-41.115 M151.168,14.446c-22.708,0-41.115,18.408-41.115,41.115
		 M167.403,40.024h-5.268v1.991h-4.212v-1.991h-13.837v1.991h-4.211v-1.991h-4.945c-0.258,0-0.475,0.22-0.475,0.477v5.698
		c3.381-0.698,9.898-1.829,16.573-1.829c6.585,0,13.478,1.215,16.851,1.9v-5.769C167.88,40.244,167.661,40.024,167.403,40.024
		 M160.994,72.935h3.442v-3.451h-3.442V72.935z M153.522,59.706h3.442v-3.45h-3.442V59.706z M153.522,53.094h3.442v-3.451h-3.442
		V53.094z"/>
</g>
<g id="Layer_2" display="none">
	<path display="inline" fill="#3488C9" d="M65.488,48.196c-1.098,4.823-3.32,9.135-6.037,13.225c-1.869,2.81-4.064,5.354-6.373,7.81
		c-1.051,1.115-2.033,2.296-3.047,3.449h-0.091c-1.574-1.856-3.158-3.701-4.723-5.566c-4.324-5.152-7.935-10.729-10.104-17.149
		c-0.826-2.444-1.299-4.953-1.122-7.556c0.246-3.559,1.502-6.711,3.809-9.422c2.67-3.139,6.072-5.025,10.159-5.536
		c8.136-1.024,15.329,4.093,17.469,11.604C66.295,42.097,66.182,45.148,65.488,48.196 M50.002,9.936
		C27.875,9.936,9.935,27.873,9.935,50c0,22.125,17.939,40.065,40.067,40.065c22.127,0,40.063-17.94,40.063-40.065
		C90.065,27.873,72.129,9.936,50.002,9.936"/>
	<path display="inline" fill="#3488C9" d="M49.997,36.133c-4.001,0.004-7.232,3.25-7.234,7.273
		c-0.003,4.045,3.235,7.306,7.251,7.306c3.984-0.001,7.212-3.271,7.206-7.301C57.216,39.375,53.994,36.133,49.997,36.133"/>
	<path display="inline" fill="#FFFFFF" d="M-2.449-8.685c0-7.999,3.567-14.948,5.716-18.461c-2.232-1.157-3.759-3.486-3.759-6.175
		c0-3.841,3.114-6.955,6.954-6.955c3.841,0,6.955,3.114,6.955,6.955c0,2.689-1.528,5.018-3.76,6.175
		c2.149,3.513,5.717,10.462,5.717,18.461H-2.449z M-20.271-22.962c0-8,3.565-14.947,5.717-18.461
		c-2.233-1.157-3.76-3.488-3.76-6.176c0-3.84,3.112-6.954,6.955-6.954c3.84,0,6.952,3.114,6.952,6.954
		c0,2.688-1.525,5.019-3.758,6.176c2.149,3.514,5.715,10.461,5.715,18.461H-20.271z M-38.091-7.168
		c0-7.998,3.563-14.946,5.716-18.46c-2.233-1.157-3.759-3.487-3.759-6.175c0-3.841,3.113-6.955,6.954-6.955s6.954,3.114,6.954,6.955
		c0,2.688-1.527,5.018-3.759,6.175c2.149,3.514,5.714,10.462,5.714,18.46H-38.091z M-12.394-69.592
		c-22.706,0-41.115,18.407-41.115,41.114c0,22.707,18.409,41.115,41.115,41.115c22.707,0,41.114-18.408,41.114-41.115
		C28.721-51.185,10.313-69.592-12.394-69.592"/>
</g>
<g id="Layer_3">
	<path fill="#FFFFFF" d="M59.936,69.793c0-8,3.568-14.949,5.717-18.462c-2.232-1.157-3.76-3.486-3.76-6.175
		c0-3.841,3.115-6.955,6.955-6.955s6.955,3.114,6.955,6.955c0,2.689-1.529,5.018-3.76,6.175c2.148,3.513,5.717,10.462,5.717,18.462
		H59.936z M42.115,55.516c0-8,3.565-14.947,5.717-18.461c-2.233-1.157-3.76-3.488-3.76-6.176c0-3.84,3.112-6.954,6.956-6.954
		c3.84,0,6.951,3.114,6.951,6.954c0,2.688-1.525,5.019-3.758,6.176c2.15,3.514,5.715,10.461,5.715,18.461H42.115z M24.294,71.309
		c0-7.997,3.563-14.945,5.716-18.459c-2.233-1.157-3.759-3.487-3.759-6.175c0-3.841,3.113-6.955,6.954-6.955
		s6.954,3.114,6.954,6.955c0,2.688-1.527,5.018-3.759,6.175c2.149,3.514,5.714,10.462,5.714,18.459H24.294z M49.992,8.885
		c-22.706,0-41.115,18.407-41.115,41.114c0,22.707,18.409,41.115,41.115,41.115c22.708,0,41.114-18.408,41.114-41.115
		C91.105,27.292,72.699,8.885,49.992,8.885"/>
</g>
</svg>
