<?xml version="1.0" encoding="utf-8"?>
<!-- Generator: Adobe Illustrator 16.0.4, SVG Export Plug-In . SVG Version: 6.00 Build 0)  -->
<!DOCTYPE svg PUBLIC "-//W3C//DTD SVG 1.1//EN" "http://www.w3.org/Graphics/SVG/1.1/DTD/svg11.dtd">
<svg version="1.1" id="Layer_1" xmlns="http://www.w3.org/2000/svg" xmlns:xlink="http://www.w3.org/1999/xlink" x="0px" y="0px"
	 width="215.431px" height="83.555px" viewBox="-3.342 0 215.431 83.555" enable-background="new -3.342 0 215.431 83.555"
	 xml:space="preserve">
<g>
	<path fill="#FFFFFF" d="M27.953,48.484c-0.95-1.208-2.189-2.168-3.722-2.879c-1.53-0.712-3.007-1.068-4.433-1.068
		c-0.733,0-1.478,0.065-2.231,0.194c-0.755,0.13-1.436,0.378-2.038,0.744c-0.604,0.367-1.111,0.841-1.521,1.423
		c-0.41,0.585-0.615,1.327-0.615,2.233c0,0.775,0.162,1.421,0.486,1.938c0.322,0.518,0.796,0.972,1.422,1.357
		c0.625,0.392,1.368,0.746,2.232,1.068c0.862,0.326,1.832,0.659,2.912,1.005c1.553,0.518,3.17,1.088,4.853,1.713
		c1.684,0.628,3.214,1.457,4.594,2.491c1.382,1.036,2.523,2.319,3.432,3.85c0.904,1.532,1.357,3.441,1.357,5.729
		c0,2.632-0.484,4.905-1.455,6.826c-0.972,1.92-2.276,3.504-3.916,4.754c-1.64,1.253-3.517,2.179-5.629,2.783
		c-2.113,0.604-4.293,0.906-6.535,0.906c-3.279,0-6.449-0.571-9.513-1.715C4.571,80.697,2.027,79.068,0,76.953l7.246-7.376
		c1.123,1.381,2.598,2.537,4.435,3.463c1.832,0.928,3.654,1.391,5.467,1.391c0.818,0,1.618-0.089,2.395-0.257
		c0.776-0.174,1.455-0.452,2.039-0.842c0.582-0.391,1.045-0.907,1.391-1.556c0.345-0.646,0.519-1.425,0.519-2.328
		c0-0.863-0.217-1.596-0.646-2.199c-0.434-0.604-1.048-1.155-1.846-1.65c-0.797-0.493-1.789-0.949-2.976-1.357
		c-1.188-0.41-2.535-0.853-4.044-1.329c-1.469-0.474-2.902-1.034-4.304-1.68c-1.401-0.647-2.651-1.478-3.753-2.491
		c-1.1-1.014-1.983-2.243-2.652-3.689C2.6,53.607,2.267,51.85,2.267,49.779c0-2.545,0.518-4.721,1.553-6.535
		c1.035-1.812,2.394-3.3,4.076-4.464c1.682-1.164,3.58-2.017,5.692-2.557c2.113-0.536,4.248-0.807,6.406-0.807
		c2.588,0,5.229,0.476,7.926,1.422c2.695,0.95,5.059,2.354,7.084,4.205L27.953,48.484z"/>
	<path fill="#FFFFFF" d="M40.377,82.388V36.578h30.796v9.317H51.051v8.672h19.023v8.86H51.051v9.513h21.287v9.447L40.377,82.388
		L40.377,82.388z"/>
	<path fill="#FFFFFF" d="M102.555,82.388l-9.947-18.184h-3.771v18.184H78.032V36.578h17.47c2.199,0,4.347,0.228,6.439,0.68
		c2.09,0.452,3.965,1.218,5.627,2.295c1.66,1.08,2.987,2.506,3.979,4.271c0.992,1.771,1.489,3.969,1.489,6.601
		c0,3.105-0.842,5.717-2.522,7.829c-1.685,2.114-4.013,3.623-6.988,4.53l11.969,19.604H102.555z M102.102,50.62
		c0-1.079-0.229-1.952-0.685-2.621c-0.455-0.668-1.04-1.186-1.756-1.553c-0.715-0.366-1.516-0.614-2.404-0.742
		c-0.889-0.133-1.745-0.197-2.567-0.197h-5.917v10.677h5.266c0.91,0,1.843-0.072,2.798-0.225c0.953-0.152,1.818-0.422,2.601-0.81
		c0.779-0.39,1.419-0.949,1.918-1.684C101.852,52.733,102.102,51.783,102.102,50.62z"/>
	<path fill="#FFFFFF" d="M138.271,82.388V36.578h30.798v9.317h-20.122v8.672h19.021v8.86h-19.021v9.513h21.287v9.447L138.271,82.388
		L138.271,82.388z"/>
	<path fill="#FFFFFF" d="M200.127,48.484c-0.951-1.208-2.19-2.168-3.721-2.879c-1.531-0.712-3.008-1.068-4.432-1.068
		c-0.734,0-1.479,0.065-2.232,0.194c-0.756,0.13-1.436,0.378-2.039,0.744c-0.604,0.367-1.11,0.841-1.521,1.423
		c-0.408,0.585-0.613,1.327-0.613,2.233c0,0.775,0.162,1.421,0.483,1.938c0.324,0.518,0.8,0.972,1.425,1.357
		c0.625,0.392,1.37,0.746,2.231,1.068c0.863,0.326,1.832,0.659,2.912,1.005c1.553,0.518,3.171,1.088,4.853,1.713
		c1.683,0.628,3.215,1.457,4.595,2.491c1.38,1.036,2.521,2.319,3.43,3.85c0.905,1.532,1.358,3.441,1.358,5.729
		c0,2.632-0.484,4.905-1.456,6.826c-0.97,1.92-2.274,3.504-3.915,4.754c-1.64,1.253-3.517,2.179-5.628,2.783
		c-2.114,0.604-4.294,0.906-6.534,0.906c-3.279,0-6.45-0.571-9.514-1.715c-3.062-1.143-5.606-2.771-7.635-4.887l7.247-7.376
		c1.121,1.381,2.599,2.537,4.433,3.463c1.832,0.928,3.654,1.39,5.469,1.39c0.818,0,1.616-0.088,2.393-0.256
		c0.777-0.174,1.456-0.453,2.038-0.842c0.583-0.391,1.046-0.907,1.393-1.556c0.345-0.646,0.518-1.425,0.518-2.328
		c0-0.863-0.217-1.596-0.646-2.199c-0.433-0.604-1.049-1.155-1.846-1.65c-0.799-0.493-1.791-0.949-2.976-1.357
		c-1.188-0.41-2.535-0.854-4.044-1.329c-1.468-0.474-2.902-1.034-4.304-1.68c-1.402-0.647-2.652-1.478-3.753-2.491
		s-1.984-2.243-2.653-3.689c-0.668-1.444-1.002-3.201-1.002-5.272c0-2.545,0.518-4.721,1.552-6.535
		c1.036-1.812,2.394-3.3,4.077-4.464c1.683-1.164,3.58-2.018,5.694-2.557c2.111-0.536,4.247-0.807,6.404-0.807
		c2.588,0,5.229,0.476,7.926,1.422c2.695,0.95,5.058,2.354,7.086,4.205L200.127,48.484z"/>
</g>
<text transform="matrix(1 0 0 1 -3.3416 29.8171)" fill="#FFFFFF" font-family="'AvenirNext-Regular'" font-size="38.0053">DISCOVERY</text>
<path fill="#3486C7" d="M118.651,36.429h12.462l-2.178,32.187h-8.245L118.651,36.429z M124.801,72.174
	c1.416,0,2.63,0.502,3.637,1.499c1.007,0.99,1.513,2.196,1.513,3.605c0,1.399-0.506,2.597-1.513,3.604
	c-1.007,1-2.221,1.505-3.637,1.505c-1.417,0-2.625-0.497-3.616-1.49c-1.004-0.998-1.504-2.204-1.504-3.619
	c0-1.409,0.5-2.615,1.504-3.605C122.176,72.676,123.384,72.174,124.801,72.174"/>
</svg>
