<?xml version="1.0" encoding="utf-8"?>
<!-- Generator: Adobe Illustrator 16.0.4, SVG Export Plug-In . SVG Version: 6.00 Build 0)  -->
<!DOCTYPE svg PUBLIC "-//W3C//DTD SVG 1.1//EN" "http://www.w3.org/Graphics/SVG/1.1/DTD/svg11.dtd">
<svg version="1.1" id="Layer_1" xmlns="http://www.w3.org/2000/svg" xmlns:xlink="http://www.w3.org/1999/xlink" x="0px" y="0px"
	 width="322.667px" height="205.333px" viewBox="0 0 322.667 205.333" enable-background="new 0 0 322.667 205.333"
	 xml:space="preserve">
<g>
	<path fill="#FFFFFF" d="M79.008,99.984c-0.95-1.208-2.19-2.168-3.722-2.879c-1.53-0.712-3.007-1.068-4.432-1.068
		c-0.734,0-1.478,0.065-2.232,0.194c-0.755,0.13-1.435,0.378-2.038,0.744c-0.604,0.368-1.111,0.841-1.52,1.423
		c-0.411,0.585-0.616,1.327-0.616,2.234c0,0.775,0.162,1.421,0.487,1.938c0.322,0.518,0.796,0.972,1.422,1.358
		c0.625,0.391,1.368,0.746,2.232,1.068c0.862,0.326,1.832,0.659,2.912,1.005c1.553,0.517,3.17,1.088,4.853,1.713
		c1.683,0.628,3.213,1.457,4.593,2.491c1.382,1.036,2.524,2.319,3.432,3.849c0.904,1.533,1.357,3.442,1.357,5.729
		c0,2.632-0.484,4.905-1.455,6.826c-0.971,1.92-2.276,3.504-3.916,4.754c-1.639,1.253-3.516,2.179-5.629,2.783
		c-2.113,0.604-4.293,0.907-6.535,0.907c-3.279,0-6.449-0.572-9.512-1.715c-3.063-1.143-5.607-2.771-7.635-4.887l7.246-7.376
		c1.123,1.381,2.598,2.537,4.434,3.463c1.832,0.928,3.655,1.39,5.467,1.39c0.819,0,1.618-0.088,2.395-0.256
		c0.776-0.174,1.455-0.453,2.039-0.842c0.582-0.391,1.045-0.907,1.39-1.556c0.345-0.646,0.519-1.425,0.519-2.328
		c0-0.863-0.217-1.596-0.646-2.199c-0.434-0.604-1.048-1.155-1.846-1.651c-0.797-0.493-1.789-0.949-2.976-1.357
		c-1.187-0.41-2.535-0.853-4.044-1.329c-1.468-0.474-2.902-1.034-4.303-1.68c-1.402-0.647-2.652-1.477-3.753-2.491
		c-1.1-1.014-1.984-2.243-2.653-3.689c-0.669-1.445-1.002-3.202-1.002-5.273c0-2.545,0.518-4.721,1.553-6.535
		c1.035-1.812,2.394-3.3,4.076-4.464c1.682-1.164,3.58-2.017,5.693-2.557c2.113-0.536,4.248-0.806,6.406-0.806
		c2.588,0,5.229,0.475,7.926,1.422c2.695,0.95,5.058,2.353,7.084,4.205L79.008,99.984z"/>
	<path fill="#FFFFFF" d="M91.432,133.888v-45.81h30.796v9.317h-20.122v8.672h19.023v8.861h-19.023v9.512h21.287v9.447H91.432z"/>
	<path fill="#FFFFFF" d="M153.609,133.888l-9.947-18.183h-3.77v18.183h-10.806v-45.81h17.47c2.199,0,4.346,0.227,6.439,0.68
		c2.09,0.452,3.965,1.217,5.627,2.295c1.66,1.08,2.987,2.505,3.979,4.271c0.992,1.771,1.489,3.969,1.489,6.601
		c0,3.105-0.842,5.716-2.523,7.829c-1.684,2.114-4.012,3.623-6.988,4.53l11.969,19.604H153.609z M153.156,102.12
		c0-1.079-0.229-1.952-0.684-2.621c-0.455-0.668-1.04-1.186-1.756-1.553c-0.715-0.366-1.516-0.614-2.404-0.742
		c-0.889-0.133-1.746-0.197-2.568-0.197h-5.917v10.676h5.266c0.91,0,1.843-0.072,2.798-0.224c0.953-0.153,1.818-0.422,2.6-0.81
		c0.78-0.389,1.419-0.949,1.918-1.683C152.906,104.233,153.156,103.283,153.156,102.12z"/>
	<path fill="#FFFFFF" d="M189.325,133.888v-45.81h30.798v9.317h-20.122v8.672h19.022v8.861h-19.022v9.512h21.287v9.447H189.325z"/>
	<path fill="#FFFFFF" d="M251.182,99.984c-0.951-1.208-2.191-2.168-3.721-2.879c-1.531-0.712-3.008-1.068-4.432-1.068
		c-0.734,0-1.479,0.065-2.232,0.194c-0.756,0.13-1.436,0.378-2.039,0.744c-0.604,0.368-1.11,0.841-1.521,1.423
		c-0.408,0.585-0.613,1.327-0.613,2.234c0,0.775,0.162,1.421,0.484,1.938c0.324,0.518,0.799,0.972,1.424,1.358
		c0.625,0.391,1.37,0.746,2.232,1.068c0.863,0.326,1.832,0.659,2.912,1.005c1.553,0.517,3.171,1.088,4.852,1.713
		c1.683,0.628,3.215,1.457,4.595,2.491c1.38,1.036,2.522,2.319,3.43,3.849c0.905,1.533,1.358,3.442,1.358,5.729
		c0,2.632-0.484,4.905-1.456,6.826c-0.97,1.92-2.274,3.504-3.915,4.754c-1.64,1.253-3.516,2.179-5.628,2.783
		c-2.114,0.604-4.294,0.907-6.534,0.907c-3.279,0-6.45-0.572-9.514-1.715c-3.062-1.143-5.606-2.771-7.634-4.887l7.247-7.376
		c1.121,1.381,2.598,2.537,4.432,3.463c1.832,0.928,3.655,1.39,5.469,1.39c0.818,0,1.616-0.088,2.393-0.256
		c0.777-0.174,1.456-0.453,2.038-0.842c0.583-0.391,1.046-0.907,1.392-1.556c0.345-0.646,0.518-1.425,0.518-2.328
		c0-0.863-0.217-1.596-0.646-2.199c-0.432-0.604-1.048-1.155-1.845-1.651c-0.799-0.493-1.791-0.949-2.976-1.357
		c-1.188-0.41-2.535-0.853-4.044-1.329c-1.468-0.474-2.902-1.034-4.304-1.68c-1.402-0.647-2.652-1.477-3.753-2.491
		c-1.1-1.014-1.984-2.243-2.653-3.689c-0.668-1.445-1.002-3.202-1.002-5.273c0-2.545,0.518-4.721,1.552-6.535
		c1.036-1.812,2.394-3.3,4.077-4.464c1.683-1.164,3.58-2.017,5.694-2.557c2.112-0.536,4.248-0.806,6.405-0.806
		c2.588,0,5.229,0.475,7.926,1.422c2.695,0.95,5.057,2.353,7.085,4.205L251.182,99.984z"/>
</g>
<text transform="matrix(1 0 0 1 50.3799 80.5283)" fill="#FFFFFF" font-family="'AvenirNext-Regular'" font-size="39.0337">DISCOVERY</text>
<path fill="#3486C7" d="M169.706,87.929h12.462l-2.178,32.187h-8.245L169.706,87.929z M175.855,123.674
	c1.416,0,2.629,0.502,3.636,1.499c1.007,0.99,1.513,2.196,1.513,3.605c0,1.4-0.506,2.597-1.513,3.605
	c-1.007,1-2.22,1.504-3.636,1.504c-1.417,0-2.625-0.497-3.617-1.49c-1.004-0.998-1.504-2.204-1.504-3.619
	c0-1.409,0.5-2.615,1.504-3.605C173.23,124.176,174.438,123.674,175.855,123.674"/>
</svg>
