<?xml version="1.0" encoding="utf-8"?>
<!-- Generator: Adobe Illustrator 16.0.4, SVG Export Plug-In . SVG Version: 6.00 Build 0)  -->
<!DOCTYPE svg PUBLIC "-//W3C//DTD SVG 1.1//EN" "http://www.w3.org/Graphics/SVG/1.1/DTD/svg11.dtd">
<svg version="1.1" id="Layer_1" xmlns="http://www.w3.org/2000/svg" xmlns:xlink="http://www.w3.org/1999/xlink" x="0px" y="0px"
	 width="84.371px" height="84.371px" viewBox="0 0 84.371 84.371" enable-background="new 0 0 84.371 84.371" xml:space="preserve">
<path fill="#F7941E" d="M42.186,0C18.888,0,0,18.886,0,42.186c0,23.299,18.888,42.186,42.186,42.186
	c23.297,0,42.186-18.887,42.186-42.186C84.371,18.886,65.482,0,42.186,0z M49.58,65.971c-3.799,1.628-7.543,1.564-11.679,0.694
	c-6.812-1.434-13.949-10.882-13.949-18.251c-0.005-8.368,2.964-10.207,2.964-10.207c-0.268,2.563,0.522,4.598,2.177,4.221
	c1.657-0.375-0.296-3.683,2.466-8.75c2.582-4.729,6.272-6.209,9.744-9.223c6.49-5.63,9.363-12.893,9.363-12.893
	c1.15,1.306,1.23,6.296,0.714,8.983c-0.492,2.533-0.938,6.142-1.864,8.672c-0.922,2.537-1.96,6.227,0.533,6.838
	c1.719,0.422,3.01-4.805,2.676-6.85c0,0,2.012,5.543,3.952,8.719c1.405,2.286,3.533,6.713,3.442,12.082
	C60.005,56.267,54.607,63.815,49.58,65.971z"/>
</svg>
