<?xml version="1.0" encoding="utf-8"?>
<!-- Generator: Adobe Illustrator 19.1.1, SVG Export Plug-In . SVG Version: 6.00 Build 0)  -->
<svg version="1.1" id="Layer_1" xmlns="http://www.w3.org/2000/svg" xmlns:xlink="http://www.w3.org/1999/xlink" x="0px" y="0px"
	 viewBox="-421 222.5 115.2 117.5" style="enable-background:new -421 222.5 115.2 117.5;" xml:space="preserve">
<style type="text/css">
	.st0{fill:#3588C8;}
</style>
<path class="st0" d="M-363.4,222.5c-31.8,0-57.6,26.3-57.6,58.8c0,32.5,25.8,58.8,57.6,58.8c31.8,0,57.6-26.3,57.6-58.8
	C-305.8,248.8-331.6,222.5-363.4,222.5z M-354.2,318.4c-3.9,0-7.5,7.2-7.5,7.2s-3.5-7.2-8.4-7.2l-5.1-8.7h25.7L-354.2,318.4z
	 M-352.7,303.6c-2.4,2.1-3.9,5.9-3.9,5.9c-0.4-2.5,0.5-8.3,1.2-10.4c1.1-3.4,4.6-6.5,4.7-11.4c0.1-3.6-0.8-12.5-11.1-12.5
	c-10.3,0-11.9,9.2-11.9,12.5c0,5.9,3.5,8,4.6,11.4c0.7,2.1,1.6,7.7,1.2,10.1c0,0-3.6-5.8-7.8-7.7c-5.4-2.5-11.3-7.9-11.3-17.3
	c0-10.7,3.7-13.1,3.7-13.1c-0.3,3.3,0.7,5.9,2.7,5.4c2.1-0.5-0.4-4.7,3.1-11.2c3.2-6.1,7.9-8,12.3-11.8c8.2-7.2,11.8-16.5,11.8-16.5
	c1.4,1.7,1.5,8.1,0.9,11.5c-0.6,3.3-1.2,7.9-2.3,11.1c-1.2,3.3-2.5,8,0.7,8.8c2.2,0.5,3.8-6.2,3.4-8.8c0,0,3.2,6.7,5.3,11
	c1.6,3.2,4.1,8.8,4,15.7C-341.8,294.3-351,302.1-352.7,303.6z"/>
</svg>
