<?xml version="1.0" encoding="utf-8"?>
<!-- Generator: Adobe Illustrator 16.0.0, SVG Export Plug-In . SVG Version: 6.00 Build 0)  -->
<!DOCTYPE svg PUBLIC "-//W3C//DTD SVG 1.1//EN" "http://www.w3.org/Graphics/SVG/1.1/DTD/svg11.dtd">
<svg version="1.1" id="Layer_1" xmlns="http://www.w3.org/2000/svg" xmlns:xlink="http://www.w3.org/1999/xlink" x="0px" y="0px"
	 width="85.917px" height="85.917px" viewBox="0 0 85.917 85.917" enable-background="new 0 0 85.917 85.917" xml:space="preserve">
<g>
	<path fill="none" d="M42.959,3.256c-21.893,0-39.704,17.81-39.704,39.703c0,21.892,17.812,39.702,39.704,39.702
		c21.892,0,39.702-17.811,39.702-39.702C82.661,21.065,64.851,3.256,42.959,3.256z M51.908,67.274
		c-1.886,1.629-2.795,3.49-2.795,3.49c0.04-1.927,1.99-4.376,3.006-9.575c1.489-7.642-8.578-20.464-6.874-15.497
		c1.501,4.37-3.151,7.485-6.817,11.043c-5.041,4.891,1.946,11.565,1.661,14.029c0,0-2.86-3.59-6.263-5.107
		c-4.31-1.926-9.012-6.14-9.012-13.534c-0.005-8.396,2.974-10.24,2.974-10.24c-0.271,2.573,0.524,4.614,2.184,4.234
		c1.663-0.375-0.296-3.693,2.473-8.778c2.592-4.744,6.294-6.227,9.778-9.252c6.51-5.648,9.393-12.935,9.393-12.935
		c1.154,1.311,1.234,6.315,0.716,9.012c-0.493,2.542-0.941,6.163-1.869,8.701c-0.926,2.544-1.967,6.245,0.534,6.859
		c1.725,0.423,3.021-4.82,2.684-6.87c0,0,2.018,5.56,3.967,8.746c1.407,2.294,3.543,6.734,3.453,12.122
		C60.984,60.002,53.307,66.071,51.908,67.274z"/>
	<path fill="#FFFFFF" d="M53.68,32.854c0.337,2.05-0.959,7.293-2.684,6.87c-2.501-0.614-1.46-4.315-0.534-6.859
		c0.928-2.538,1.376-6.159,1.869-8.701c0.519-2.696,0.438-7.701-0.716-9.012c0,0-2.883,7.286-9.393,12.935
		c-3.484,3.025-7.187,4.508-9.778,9.252c-2.769,5.085-0.81,8.403-2.473,8.778c-1.659,0.38-2.454-1.661-2.184-4.234
		c0,0-2.979,1.845-2.974,10.24c0,7.395,4.702,11.608,9.012,13.534c3.402,1.518,6.263,5.107,6.263,5.107
		c0.285-2.464-6.702-9.139-1.661-14.029c3.666-3.558,8.318-6.673,6.817-11.043c-1.704-4.967,8.363,7.855,6.874,15.497
		c-1.016,5.199-2.966,7.648-3.006,9.575c0,0,0.909-1.861,2.795-3.49c1.398-1.203,9.076-7.272,9.191-13.552
		c0.09-5.388-2.046-9.828-3.453-12.122C55.697,38.414,53.68,32.854,53.68,32.854z"/>
	<path fill="#FFFFFF" d="M42.959,0C19.233,0,0,19.233,0,42.959c0,23.725,19.233,42.958,42.959,42.958s42.958-19.233,42.958-42.958
		C85.917,19.233,66.685,0,42.959,0z M42.959,82.661c-21.893,0-39.704-17.811-39.704-39.702c0-21.894,17.812-39.703,39.704-39.703
		c21.892,0,39.702,17.81,39.702,39.703C82.661,64.851,64.851,82.661,42.959,82.661z"/>
</g>
</svg>
