<?xml version="1.0" encoding="utf-8"?>
<!-- Generator: Adobe Illustrator 16.0.4, SVG Export Plug-In . SVG Version: 6.00 Build 0)  -->
<!DOCTYPE svg PUBLIC "-//W3C//DTD SVG 1.1//EN" "http://www.w3.org/Graphics/SVG/1.1/DTD/svg11.dtd">
<svg version="1.1" id="Layer_1" xmlns="http://www.w3.org/2000/svg" xmlns:xlink="http://www.w3.org/1999/xlink" x="0px" y="0px"
	 width="82.23px" height="82.229px" viewBox="0 0 82.23 82.229" enable-background="new 0 0 82.23 82.229" xml:space="preserve">
<path fill="#FFFFFF" d="M41.115,0C18.409,0,0,18.408,0,41.115s18.409,41.114,41.115,41.114c22.707,0,41.115-18.407,41.115-41.114
	S63.822,0,41.115,0z M22.727,26.131h37.963L41.892,43.68L21.974,26.366C22.188,26.217,22.446,26.131,22.727,26.131z M21.4,28.736
	l13.254,11.52L21.4,52.345V28.736z M60.947,55.135H22.727c-0.344,0-0.653-0.133-0.888-0.347c0.103-0.046,0.205-0.099,0.291-0.18
	l14.169-12.923l4.907,4.266c0.205,0.179,0.459,0.266,0.711,0.266c0.266,0,0.532-0.097,0.739-0.291l4.707-4.396l14.176,13.075
	c0.09,0.082,0.191,0.137,0.296,0.184C61.6,55.002,61.289,55.135,60.947,55.135z M62.274,52.338L48.951,40.049L62.274,27.61V52.338z"
	/>
</svg>
