<?xml version="1.0" encoding="utf-8"?>
<!-- Generator: Adobe Illustrator 16.0.4, SVG Export Plug-In . SVG Version: 6.00 Build 0)  -->
<!DOCTYPE svg PUBLIC "-//W3C//DTD SVG 1.1//EN" "http://www.w3.org/Graphics/SVG/1.1/DTD/svg11.dtd">
<svg version="1.1" id="Layer_1" xmlns="http://www.w3.org/2000/svg" xmlns:xlink="http://www.w3.org/1999/xlink" x="0px" y="0px"
	 width="82.228px" height="82.09px" viewBox="0 0 82.228 82.09" enable-background="new 0 0 82.228 82.09" xml:space="preserve">
<path fill="#656665" d="M41.115-0.14C18.406-0.14,0,18.268,0,40.975S18.406,82.09,41.115,82.09
	c22.706,0,41.112-18.408,41.112-41.115S63.821-0.14,41.115-0.14z M51.75,25.202c-0.553-0.211-1.062-0.369-1.526-0.477
	c-0.467-0.104-0.998-0.158-1.591-0.158c-1.525,0-2.671,0.328-3.434,0.984c-0.764,0.658-1.146,2.003-1.146,4.038v4.896h7.059v7.632
	h-7.059v23.278h-9.539V42.118h-6.297v-7.632h6.297v-5.468c0-1.696,0.147-3.296,0.445-4.802c0.296-1.505,0.867-2.83,1.717-3.975
	c0.848-1.146,2.067-2.046,3.655-2.703c1.591-0.657,3.678-0.985,6.267-0.985c0.974,0,1.928,0.041,2.859,0.126
	c0.934,0.086,1.844,0.235,2.737,0.446L51.75,25.202z"/>
</svg>
