<?xml version="1.0" encoding="utf-8"?>
<!-- Generator: Adobe Illustrator 16.0.0, SVG Export Plug-In . SVG Version: 6.00 Build 0)  -->
<!DOCTYPE svg PUBLIC "-//W3C//DTD SVG 1.1//EN" "http://www.w3.org/Graphics/SVG/1.1/DTD/svg11.dtd">
<svg version="1.1" id="Layer_1" xmlns="http://www.w3.org/2000/svg" xmlns:xlink="http://www.w3.org/1999/xlink" x="0px" y="0px"
	 width="85.917px" height="85.917px" viewBox="0 0 85.917 85.917" enable-background="new 0 0 85.917 85.917" xml:space="preserve">
<g>
	<path fill="none" d="M42.959,3.256c-21.893,0-39.703,17.81-39.703,39.703c0,21.893,17.811,39.702,39.703,39.702
		c21.892,0,39.702-17.81,39.702-39.702C82.661,21.065,64.851,3.256,42.959,3.256z M42.589,70.448c-3.33,0-6.112-2.22-6.112-2.22
		h12.226C48.702,68.229,46.516,70.448,42.589,70.448z M49.675,66.17h-1.336c-0.009,0.001-0.016,0.006-0.025,0.006H37.208
		c-0.009,0-0.017-0.005-0.025-0.006h-1.68v-1.779h1.676c0.011-0.001,0.019-0.006,0.029-0.006h11.105
		c0.011,0,0.019,0.005,0.029,0.006h1.332V66.17z M49.675,62.302H35.503v-1.779h14.172V62.302z M56.029,33.937
		c-0.062,4.109-3.619,8.664-4.626,10.484c-2.528,4.574-2.167,13.531-2.167,13.531H35.954c0,0,0.352-7.23-2.453-13.673
		c-1.303-2.993-4.398-5.258-4.418-10.329c-0.025-6.779,2.997-15.024,13.318-15.035C53.865,18.902,56.132,27.171,56.029,33.937z"/>
	<path fill="#FFFFFF" d="M42.959,0C19.233,0,0,19.233,0,42.959c0,23.725,19.233,42.958,42.959,42.958s42.958-19.233,42.958-42.958
		C85.917,19.233,66.685,0,42.959,0z M42.959,82.661c-21.893,0-39.703-17.81-39.703-39.702c0-21.894,17.811-39.703,39.703-39.703
		c21.892,0,39.702,17.81,39.702,39.703C82.661,64.852,64.851,82.661,42.959,82.661z"/>
	<path fill="#FFFFFF" d="M48.313,64.385H37.208c-0.011,0-0.019,0.005-0.029,0.006h-1.676v1.779h1.68
		c0.009,0.001,0.017,0.006,0.025,0.006h11.105c0.01,0,0.017-0.005,0.025-0.006h1.336v-1.779h-1.332
		C48.332,64.39,48.324,64.385,48.313,64.385z"/>
	<path fill="#FFFFFF" d="M42.401,18.915C32.08,18.926,29.058,27.171,29.083,33.95c0.02,5.071,3.115,7.336,4.418,10.329
		c2.805,6.442,2.453,13.673,2.453,13.673h13.282c0,0-0.361-8.957,2.167-13.531c1.007-1.82,4.564-6.375,4.626-10.484
		C56.132,27.171,53.865,18.902,42.401,18.915z"/>
	<rect x="35.503" y="60.522" fill="#FFFFFF" width="14.172" height="1.779"/>
	<path fill="#FFFFFF" d="M42.589,70.448c3.927,0,6.113-2.22,6.113-2.22H36.477C36.477,68.229,39.259,70.448,42.589,70.448z"/>
</g>
</svg>
