<?xml version="1.0" encoding="utf-8"?>
<!-- Generator: Adobe Illustrator 16.0.4, SVG Export Plug-In . SVG Version: 6.00 Build 0)  -->
<!DOCTYPE svg PUBLIC "-//W3C//DTD SVG 1.1//EN" "http://www.w3.org/Graphics/SVG/1.1/DTD/svg11.dtd">
<svg version="1.1" id="Layer_1" xmlns="http://www.w3.org/2000/svg" xmlns:xlink="http://www.w3.org/1999/xlink" x="0px" y="0px"
	 width="115.17px" height="117.52px" viewBox="0 0 115.17 117.52" enable-background="new 0 0 115.17 117.52" xml:space="preserve">
<path fill="#3588C8" d="M57.584,12.272c-25.674,0-46.487,20.813-46.487,46.487c0,25.675,20.813,46.488,46.487,46.488
	c25.676,0,46.489-20.813,46.489-46.488C104.073,33.086,83.26,12.272,57.584,12.272z M64.986,88.174
	c-3.162,0-6.085,5.667-6.085,5.667s-2.79-5.667-6.776-5.667l-4.141-6.918h20.776L64.986,88.174z M66.21,76.459
	c-1.908,1.648-3.159,4.685-3.159,4.685c-0.291-1.998,0.418-6.536,0.943-8.204c0.855-2.725,3.689-5.108,3.765-9.003
	c0.058-2.809-0.628-9.926-8.979-9.926c-8.349,0-9.578,7.243-9.578,9.889c0,4.678,2.858,6.321,3.742,9.043
	c0.546,1.671,1.315,6.117,0.965,7.963c0,0-2.896-4.581-6.337-6.117c-4.363-1.948-9.122-6.211-9.122-13.695
	c-0.004-8.496,3.01-10.362,3.01-10.362c-0.273,2.604,0.531,4.669,2.209,4.283c1.684-0.378-0.3-3.736,2.504-8.882
	c2.622-4.802,6.367-6.302,9.895-9.364c6.589-5.716,9.506-13.089,9.506-13.089c1.167,1.326,1.247,6.392,0.724,9.12
	c-0.499,2.573-0.952,6.237-1.892,8.807c-0.937,2.573-1.99,6.318,0.541,6.94c1.744,0.429,3.056-4.878,2.715-6.953
	c0,0,2.588,5.303,4.293,8.678c1.271,2.513,3.308,6.989,3.217,12.44C75.053,69.064,67.626,75.241,66.21,76.459z"/>
</svg>
