<?xml version="1.0" encoding="utf-8"?>
<!-- Generator: Adobe Illustrator 16.0.4, SVG Export Plug-In . SVG Version: 6.00 Build 0)  -->
<!DOCTYPE svg PUBLIC "-//W3C//DTD SVG 1.1//EN" "http://www.w3.org/Graphics/SVG/1.1/DTD/svg11.dtd">
<svg version="1.1" id="Layer_1" xmlns="http://www.w3.org/2000/svg" xmlns:xlink="http://www.w3.org/1999/xlink" x="0px" y="0px"
	 width="83.744px" height="84.371px" viewBox="0 0 83.744 84.371" enable-background="new 0 0 83.744 84.371" xml:space="preserve">
<path fill="#5E2381" d="M41.872,0.313C18.747,0.313,0,19.061,0,42.186c0,0.144,0.009,0.284,0.01,0.426
	C0.009,42.754,0,42.895,0,43.038c0,16.807,10.224,31.225,24.791,37.375c5.218,2.336,10.995,3.645,17.081,3.645
	c23.125,0,41.872-18.746,41.872-41.872C83.744,19.061,64.997,0.313,41.872,0.313z M41.902,67.474c-3.245,0-5.958-2.164-5.958-2.164
	H47.86C47.86,65.31,45.729,67.474,41.902,67.474z M48.81,63.304h-0.747v0.004H36.077v-0.004h-1.081v-1.734h1.081v-0.006h11.985
	v0.006h0.747V63.304z M48.81,59.533H34.996v-1.734H48.81V59.533z M51.67,40.966c-0.341,0.531-0.634,0.99-0.823,1.333
	c-2.384,4.311-2.066,12.892-2.062,12.978l0.017,0.419H35.013l0.021-0.422c0.003-0.069,0.303-7.03-2.359-13.146
	c-0.386-0.884-0.943-1.712-1.535-2.587c-1.309-1.936-2.791-4.131-2.805-7.641c-0.01-2.784,0.505-7.992,4.07-11.575
	c2.297-2.308,5.43-3.479,9.313-3.483c4.324,0,7.673,1.187,9.979,3.527c2.536,2.576,3.784,6.452,3.707,11.523
	C55.356,35.213,53.048,38.813,51.67,40.966z"/>
</svg>
