<?xml version="1.0" encoding="utf-8"?>
<!-- Generator: Adobe Illustrator 19.1.1, SVG Export Plug-In . SVG Version: 6.00 Build 0)  -->
<svg version="1.1" id="Layer_1" xmlns="http://www.w3.org/2000/svg" xmlns:xlink="http://www.w3.org/1999/xlink" x="0px" y="0px"
	 viewBox="-421 222.5 115.2 117.5" style="enable-background:new -421 222.5 115.2 117.5;" xml:space="preserve">
<style type="text/css">
	.st0{fill:#3688C8;}
</style>
<path class="st0" d="M-363.4,222.5c-31.8,0-57.6,26.3-57.6,58.8c0,32.5,25.8,58.8,57.6,58.8c31.8,0,57.6-26.3,57.6-58.8
	C-305.8,248.8-331.6,222.5-363.4,222.5z M-340.3,311.7c-3.3,0-6.4,0-9.6,0c-9.1,0-18.3,0.1-27.4,0c-6.5-0.1-10.2-3.8-10.2-10.4
	c0-14.2,0-28.4,0-42.6c0-5.5,1.7-7.2,7-7.2c10.9,0,21.9,0,33.2,0c0,14.8,0,29.3,0,44.4c-7.1,0-14.1,0-21.1,0c-3.2,0-6.5-0.1-9.7,0.1
	c-4.2,0.2-6.1,2.3-6,6.1c0.1,3.8,2.3,6.1,6.5,6.2c7.3,0.1,14.6,0,21.9,0c4.2,0,8.4,0,13.1,0c0-15.2,0-29.8,0-44.5
	c0-1.3,0.5-2.6,0.8-3.9c0.5,0.1,0.9,0.2,1.4,0.3C-340.3,277.2-340.3,294.2-340.3,311.7z"/>
</svg>
