<?xml version="1.0" encoding="utf-8"?>
<!-- Generator: Adobe Illustrator 16.0.4, SVG Export Plug-In . SVG Version: 6.00 Build 0)  -->
<!DOCTYPE svg PUBLIC "-//W3C//DTD SVG 1.1//EN" "http://www.w3.org/Graphics/SVG/1.1/DTD/svg11.dtd">
<svg version="1.1" id="Layer_1" xmlns="http://www.w3.org/2000/svg" xmlns:xlink="http://www.w3.org/1999/xlink" x="0px" y="0px"
	 width="115.17px" height="117.52px" viewBox="0 0 115.17 117.52" enable-background="new 0 0 115.17 117.52" xml:space="preserve">
<path fill-rule="evenodd" clip-rule="evenodd" fill="#3688C8" d="M62.911,17.437c-22.822,0-41.323,18.501-41.323,41.324
	c0,22.822,18.501,41.323,41.323,41.323c22.824,0,41.325-18.501,41.325-41.323C104.236,35.938,85.735,17.437,62.911,17.437z
	 M79.494,80.194c-2.339,0-4.625,0-6.913,0c-6.552,0-13.108,0.048-19.658-0.019c-4.675-0.048-7.287-2.7-7.301-7.319
	c-0.021-9.982-0.016-19.964,0-29.942c0.006-3.836,1.225-5.068,5.041-5.077c7.854-0.021,15.71-0.006,23.794-0.006
	c0,10.376,0,20.584,0,31.193c-5.081,0-10.099-0.003-15.118,0.003c-2.316,0-4.639-0.084-6.951,0.044
	c-2.998,0.16-4.37,1.603-4.329,4.288c0.042,2.686,1.641,4.325,4.669,4.383c5.241,0.102,10.482,0.035,15.729,0.035
	c3.005,0,6.012,0,9.402,0c0-10.715-0.015-20.989,0.028-31.263c0.002-0.904,0.391-1.81,0.601-2.714
	c0.338,0.07,0.672,0.139,1.007,0.208C79.494,55.95,79.494,67.891,79.494,80.194z"/>
</svg>
