<?xml version="1.0" encoding="utf-8"?>
<!-- Generator: Adobe Illustrator 16.0.0, SVG Export Plug-In . SVG Version: 6.00 Build 0)  -->
<!DOCTYPE svg PUBLIC "-//W3C//DTD SVG 1.1//EN" "http://www.w3.org/Graphics/SVG/1.1/DTD/svg11.dtd">
<svg version="1.1" id="Layer_1" xmlns="http://www.w3.org/2000/svg" xmlns:xlink="http://www.w3.org/1999/xlink" x="0px" y="0px"
	 width="89.539px" height="89.538px" viewBox="0 0 89.539 89.538" enable-background="new 0 0 89.539 89.538" xml:space="preserve">
<circle fill-rule="evenodd" clip-rule="evenodd" fill="none" stroke="#FFFFFF" stroke-width="3.6215" stroke-miterlimit="10" cx="44.77" cy="44.769" r="42.958"/>
<path fill-rule="evenodd" clip-rule="evenodd" fill="#FFFFFF" d="M62.008,67.051c-2.432,0-4.808,0-7.188,0
	c-6.811,0-13.626,0.05-20.437-0.019c-4.858-0.05-7.574-2.809-7.589-7.609c-0.021-10.377-0.016-20.753,0-31.126
	c0.008-3.988,1.273-5.269,5.241-5.278c8.164-0.022,16.331-0.007,24.735-0.007c0,10.787,0,21.399,0,32.427
	c-5.283,0-10.499-0.002-15.717,0.003c-2.408,0-4.822-0.086-7.227,0.046c-3.116,0.168-4.542,1.667-4.5,4.458
	c0.044,2.792,1.707,4.497,4.854,4.557c5.449,0.106,10.898,0.036,16.352,0.036c3.123,0,6.248,0,9.774,0
	c0-11.138-0.016-21.818,0.029-32.5c0.002-0.938,0.405-1.88,0.623-2.819c0.353,0.072,0.7,0.144,1.048,0.215
	C62.008,41.848,62.008,54.261,62.008,67.051z"/>
</svg>
