<?xml version="1.0" encoding="utf-8"?>
<!-- Generator: Adobe Illustrator 16.0.4, SVG Export Plug-In . SVG Version: 6.00 Build 0)  -->
<!DOCTYPE svg PUBLIC "-//W3C//DTD SVG 1.1//EN" "http://www.w3.org/Graphics/SVG/1.1/DTD/svg11.dtd">
<svg version="1.1" id="Layer_1" xmlns="http://www.w3.org/2000/svg" xmlns:xlink="http://www.w3.org/1999/xlink" x="0px" y="0px"
	 width="79.808px" height="79.806px" viewBox="0 0 79.808 79.806" enable-background="new 0 0 79.808 79.806" xml:space="preserve">
<g>
	<path fill-rule="evenodd" clip-rule="evenodd" fill="#FFFFFF" d="M39.905,0C17.867,0,0,17.865,0,39.902
		c0,22.036,17.867,39.903,39.905,39.903c22.037,0,39.902-17.867,39.902-39.903C79.808,17.865,61.942,0,39.905,0z M55.329,38.105
		c-1.094,4.804-3.308,9.099-6.014,13.172c-1.861,2.799-4.046,5.333-6.346,7.778c-1.047,1.11-2.025,2.286-3.035,3.435
		c-0.029,0-0.061,0-0.091,0c-1.568-1.849-3.146-3.686-4.704-5.544c-4.308-5.131-7.903-10.686-10.063-17.079
		c-0.822-2.435-1.294-4.933-1.117-7.525c0.245-3.544,1.496-6.684,3.794-9.384c2.659-3.126,6.047-5.005,10.118-5.514
		c8.104-1.02,15.268,4.077,17.399,11.557C56.133,32.031,56.021,35.07,55.329,38.105z"/>
	<path fill-rule="evenodd" clip-rule="evenodd" fill="#FFFFFF" d="M39.9,26.092c-3.985,0.004-7.203,3.236-7.205,7.244
		c-0.003,4.029,3.222,7.277,7.222,7.277c3.97-0.002,7.184-3.259,7.178-7.272C47.091,29.321,43.883,26.092,39.9,26.092z"/>
</g>
</svg>
