<?xml version="1.0" encoding="utf-8"?>
<!-- Generator: Adobe Illustrator 16.0.4, SVG Export Plug-In . SVG Version: 6.00 Build 0)  -->
<!DOCTYPE svg PUBLIC "-//W3C//DTD SVG 1.1//EN" "http://www.w3.org/Graphics/SVG/1.1/DTD/svg11.dtd">
<svg version="1.1" id="Layer_1" xmlns="http://www.w3.org/2000/svg" xmlns:xlink="http://www.w3.org/1999/xlink" x="0px" y="0px"
	 width="82.752px" height="82.751px" viewBox="0 0 82.752 82.751" enable-background="new 0 0 82.752 82.751" xml:space="preserve">
<path fill-rule="evenodd" clip-rule="evenodd" fill="#FFFFFF" d="M41.375,0C18.525,0,0,18.524,0,41.376
	c0,22.851,18.525,41.375,41.375,41.375c22.852,0,41.377-18.524,41.377-41.375C82.752,18.524,64.227,0,41.375,0z M61.214,43.25
	c-0.839,7.526-6.042,11.974-6.656,12.342c-0.617,0.37-0.411,1.108-0.411,1.108l1.969,5.988c0,0,1.601,3.611,0.78,4.029
	c-0.819,0.418-2.051-0.993-2.051-0.993s-3.364-3.363-4.308-4.389c-0.944-1.026-1.724-1.765-2.872-1.231
	c-1.147,0.534-5.214,1.806-8.985,1.764c-3.387-0.038-6.154-0.901-7.424-1.681c-1.271-0.779-1.93,0.081-1.93,0.081
	s-0.738,0.78-2.912,3.078c-2.175,2.298-4.438,4.112-4.896,3.371c-0.457-0.742,3.199-10.34,3.199-10.34
	c-13.442-14.059-6.005-27.655-0.947-32.69c4.827-4.806,12.755-7.24,20.079-5.516c7.325,1.725,10.255,5.602,10.255,5.602
	c-0.688,1.552-2.843,2.931-2.843,2.931s-5.084-6.118-15.255-4.396c-10.168,1.724-18.608,13.876-12.208,26.055
	c6.4,12.181,20.568,8.389,20.568,8.389c15.455-4.94,12.582-20.222,12.582-20.222c1.336-1.122,4.265-1.078,4.265-1.078
	C61.475,37.52,61.432,41.312,61.214,43.25z M39.314,48.934c7.564,0.053,9.198-8.041,9.198-8.041l4.165-2.132
	c0.824,8.525-6.781,14.193-13.302,14.436c-6.521,0.241-13.386-5.474-13.483-13.854c-0.097-8.379,8.138-12.883,13.271-12.98
	c5.133-0.098,8.04,2.615,8.04,2.615l-4.214,2.616c-1.599-0.969-4.504-0.775-4.504-0.775c-5.959,0.437-8.041,5.521-8.187,8.719
	C30.155,42.733,32.334,48.885,39.314,48.934z M62.801,32.417c0,0-4.166-0.872-6.975,0.436s-12.263,6.682-12.263,6.682l-0.005-0.005
	c0.005,0.083,0.014,0.165,0.014,0.25c0,2.381-1.931,4.31-4.312,4.31c-2.382,0-4.31-1.929-4.31-4.31c0-2.382,1.928-4.312,4.31-4.312
	c0.937,0,1.802,0.303,2.508,0.81v-0.002l11.927-7.055c0,0,2.809-1.696,4.02-5.426l9.734-5.812l-1.743,6.732l6.636,2.083
	L62.801,32.417z"/>
</svg>
