<?xml version="1.0" encoding="utf-8"?>
<!-- Generator: Adobe Illustrator 16.0.4, SVG Export Plug-In . SVG Version: 6.00 Build 0)  -->
<!DOCTYPE svg PUBLIC "-//W3C//DTD SVG 1.1//EN" "http://www.w3.org/Graphics/SVG/1.1/DTD/svg11.dtd">
<svg version="1.1" id="Layer_1" xmlns="http://www.w3.org/2000/svg" xmlns:xlink="http://www.w3.org/1999/xlink" x="0px" y="0px"
	 width="470.806px" height="178px" viewBox="0 0 470.806 178" enable-background="new 0 0 470.806 178" xml:space="preserve">
<g>
	<text transform="matrix(1 0 0 1 8.04 170.1484)" fill="#97C7EB" font-family="'AvenirNext-Bold'" font-size="30.9224">TECHNOLOGY CONFERENCE</text>
</g>
<g>
	<text transform="matrix(1 0 0 1 5.9131 136.4893)"><tspan x="0" y="0" fill="#97C7EB" font-family="'AvenirNext-Bold'" font-size="33.0074">N</tspan><tspan x="26.076" y="0" fill="#97C7EB" font-family="'AvenirNext-Bold'" font-size="33.0074" letter-spacing="-1">A</tspan><tspan x="48.817" y="0" fill="#97C7EB" font-family="'AvenirNext-Bold'" font-size="33.0074">T</tspan><tspan x="68.654" y="0" fill="#97C7EB" font-family="'AvenirNext-Bold'" font-size="33.0074">I</tspan><tspan x="78.491" y="0" fill="#97C7EB" font-family="'AvenirNext-Bold'" font-size="33.0074">ONA</tspan><tspan x="156.717" y="0" fill="#97C7EB" font-family="'AvenirNext-Bold'" font-size="33.0074" letter-spacing="1">L</tspan><tspan x="175.399" y="0" fill="#97C7EB" font-family="'AvenirNext-Bold'" font-size="33.0074"> BUSINESS AN</tspan><tspan x="403.477" y="0" fill="#97C7EB" font-family="'AvenirNext-Bold'" font-size="33.0074">D</tspan></text>
</g>
<path fill="#FFFFFF" d="M91.504,9.678h46.941c3.364,0,6.584,0.486,9.666,1.469c3.083,0.981,5.767,2.448,8.06,4.408
	c2.288,1.966,4.135,4.417,5.532,7.356c1.397,2.948,2.103,6.379,2.103,10.299c0,4.11-0.981,7.681-2.943,10.715
	c-1.959,3.044-4.577,5.308-7.848,6.799c4.57,1.5,8.333,4.043,11.283,7.643c2.938,3.598,4.414,8.188,4.414,13.796
	c0,3.929-0.685,7.455-2.033,10.584c-1.352,3.125-3.243,5.812-5.674,8.06c-2.431,2.24-5.31,3.934-8.624,5.107
	c-3.314,1.168-6.883,1.752-10.712,1.752H91.504V9.678z M107.76,44.842h28.869c3.543,0,6.254-0.978,8.122-2.944
	c1.866-1.964,2.801-4.297,2.801-7.008c0-2.612-0.935-4.899-2.801-6.861c-1.867-1.968-4.579-2.939-8.122-2.939H107.76V44.842z
	 M107.76,82.25h32.087c3.647,0,6.651-1.044,9.036-3.149c2.386-2.104,3.575-4.697,3.575-7.779c0-3.173-1.188-5.81-3.575-7.921
	c-2.384-2.099-5.388-3.15-9.036-3.15H107.76V82.25z"/>
<polygon fill="#FFFFFF" points="193.653,25.089 167.865,25.089 167.865,9.678 235.678,9.678 235.678,25.089 209.898,25.089 
	209.898,97.666 193.653,97.666 "/>
<path fill="#FFFFFF" d="M317.671,81.413c-4.955,6.167-10.7,10.714-17.241,13.66c-6.538,2.943-13.311,4.414-20.308,4.414
	c-6.64,0-12.804-1.172-18.497-3.5c-5.697-2.338-10.699-5.58-14.995-9.74c-4.3-4.161-7.661-9.019-10.084-14.576
	c-2.43-5.554-3.644-11.56-3.644-18.001c0-6.444,1.213-12.445,3.644-18.011c2.423-5.548,5.784-10.407,10.084-14.567
	c4.296-4.151,9.298-7.401,14.995-9.736c5.693-2.331,11.857-3.504,18.497-3.504c6.997,0,13.77,1.474,20.308,4.414
	c6.541,2.942,12.286,7.491,17.241,13.661l-13.45,10.09c-2.809-4.113-6.265-7.266-10.374-9.461
	c-4.106-2.189-8.688-3.293-13.725-3.293c-3.928,0-7.707,0.796-11.354,2.377c-3.641,1.599-6.865,3.745-9.663,6.45
	c-2.806,2.711-5.029,5.908-6.659,9.598c-1.634,3.691-2.453,7.687-2.453,11.982c0,4.3,0.819,8.295,2.453,11.977
	c1.63,3.692,3.853,6.917,6.659,9.67c2.798,2.752,6.022,4.906,9.663,6.449c3.648,1.537,7.426,2.304,11.354,2.304
	c5.038,0,9.666-1.069,13.863-3.215c4.206-2.154,7.708-5.145,10.513-8.975L317.671,81.413z"/>
<polygon fill="#97C7EB" points="321.427,9.678 335.998,9.678 335.998,25.926 321.427,35.735 "/>
<polygon fill="#FFFFFF" points="352.949,33.628 341.175,41.614 341.175,24.662 369.199,7.851 369.199,97.666 352.949,97.666 "/>
<polygon fill="#FFFFFF" points="431.612,41.661 416.466,41.661 416.466,62.451 397.74,62.451 420.457,11.095 404.764,11.095 
	375.848,76.77 416.466,76.77 416.466,97.564 431.612,97.564 "/>
<polygon fill="#FFFFFF" points="24.156,43.066 24.156,97.717 8.3,97.717 8.3,9.625 13.446,9.625 63.968,63.392 63.968,9.625 
	80.361,9.625 80.361,97.717 74.658,97.717 "/>
</svg>
