<?xml version="1.0" encoding="utf-8"?>
<!-- Generator: Adobe Illustrator 16.0.4, SVG Export Plug-In . SVG Version: 6.00 Build 0)  -->
<!DOCTYPE svg PUBLIC "-//W3C//DTD SVG 1.1//EN" "http://www.w3.org/Graphics/SVG/1.1/DTD/svg11.dtd">
<svg version="1.1" id="Layer_1" xmlns="http://www.w3.org/2000/svg" xmlns:xlink="http://www.w3.org/1999/xlink" x="0px" y="0px"
	 width="437.472px" height="208.49px" viewBox="0 0 437.472 208.49" enable-background="new 0 0 437.472 208.49"
	 xml:space="preserve">
<g>
	<g>
		<g>
			<path fill="#97C7EB" d="M19.667,183.673v17.379h-5.288v-17.379H8.195v-4.514h17.657v4.514H19.667z"/>
			<path fill="#97C7EB" d="M27.49,201.052V179.16h14.719v4.452h-9.617v4.144h9.091v4.236h-9.091v4.546h10.174v4.515H27.49z"/>
			<path fill="#97C7EB" d="M61.165,200.666c-1.422,0.649-3.062,0.975-4.917,0.975c-1.691,0-3.252-0.279-4.685-0.836
				c-1.433-0.557-2.675-1.344-3.726-2.365c-1.051-1.02-1.876-2.242-2.474-3.664c-0.598-1.422-0.897-2.988-0.897-4.7
				c0-1.752,0.304-3.339,0.912-4.763c0.608-1.422,1.448-2.633,2.521-3.633c1.071-1,2.329-1.768,3.772-2.304
				c1.443-0.536,3-0.804,4.669-0.804c1.546,0,3.066,0.273,4.561,0.819c1.494,0.546,2.706,1.345,3.633,2.396l-3.587,3.587
				c-0.495-0.68-1.145-1.186-1.948-1.516c-0.804-0.329-1.629-0.494-2.474-0.494c-0.928,0-1.778,0.17-2.551,0.51
				s-1.438,0.81-1.995,1.407c-0.557,0.599-0.989,1.304-1.299,2.118c-0.309,0.814-0.464,1.706-0.464,2.675
				c0,0.989,0.155,1.897,0.464,2.722c0.31,0.824,0.737,1.53,1.283,2.117c0.546,0.588,1.201,1.047,1.964,1.377
				c0.762,0.33,1.597,0.494,2.505,0.494c1.051,0,1.968-0.205,2.752-0.618c0.783-0.412,1.412-0.948,1.886-1.608l3.68,3.464
				C63.782,199.135,62.587,200.016,61.165,200.666z"/>
			<path fill="#97C7EB" d="M80.058,201.052V191.9h-8.535v9.152h-5.288V179.16h5.288v8.287h8.535v-8.287h5.288v21.893H80.058z"/>
			<path fill="#97C7EB" d="M103.002,201.052l-8.813-14.316h-0.093l0.124,14.316h-5.133V179.16h6.03l8.782,14.285h0.093
				l-0.124-14.285h5.133v21.893H103.002z"/>
			<path fill="#97C7EB" d="M135.563,190.013c0,1.731-0.299,3.314-0.897,4.746c-0.598,1.434-1.428,2.66-2.489,3.68
				c-1.062,1.021-2.324,1.809-3.788,2.365c-1.464,0.557-3.051,0.836-4.762,0.836c-1.711,0-3.293-0.279-4.747-0.836
				c-1.454-0.557-2.711-1.344-3.772-2.365c-1.062-1.02-1.892-2.246-2.489-3.68c-0.598-1.432-0.897-3.015-0.897-4.746
				c0-1.752,0.299-3.334,0.897-4.747c0.598-1.411,1.427-2.612,2.489-3.603c1.062-0.989,2.319-1.752,3.772-2.288
				c1.453-0.536,3.035-0.804,4.747-0.804c1.711,0,3.298,0.268,4.762,0.804c1.463,0.536,2.726,1.299,3.788,2.288
				c1.062,0.99,1.891,2.191,2.489,3.603C135.264,186.679,135.563,188.261,135.563,190.013z M129.905,190.013
				c0-0.948-0.155-1.835-0.464-2.66c-0.31-0.824-0.737-1.53-1.283-2.117c-0.547-0.588-1.206-1.052-1.979-1.393
				c-0.773-0.34-1.624-0.51-2.551-0.51s-1.773,0.17-2.536,0.51c-0.763,0.341-1.422,0.805-1.979,1.393
				c-0.557,0.587-0.985,1.293-1.283,2.117c-0.299,0.825-0.449,1.712-0.449,2.66c0,0.989,0.155,1.901,0.464,2.736
				c0.31,0.835,0.737,1.551,1.283,2.149s1.201,1.066,1.964,1.407c0.762,0.34,1.608,0.51,2.536,0.51s1.772-0.17,2.536-0.51
				c0.762-0.341,1.422-0.809,1.979-1.407s0.989-1.314,1.299-2.149C129.75,191.915,129.905,191.002,129.905,190.013z"/>
			<path fill="#97C7EB" d="M138.285,201.052V179.16h5.319v17.285h8.473v4.607H138.285z"/>
			<path fill="#97C7EB" d="M176.597,190.013c0,1.731-0.299,3.314-0.897,4.746c-0.598,1.434-1.428,2.66-2.489,3.68
				c-1.062,1.021-2.324,1.809-3.788,2.365c-1.464,0.557-3.051,0.836-4.762,0.836c-1.711,0-3.293-0.279-4.747-0.836
				c-1.454-0.557-2.711-1.344-3.772-2.365c-1.062-1.02-1.892-2.246-2.489-3.68c-0.598-1.432-0.897-3.015-0.897-4.746
				c0-1.752,0.299-3.334,0.897-4.747c0.598-1.411,1.427-2.612,2.489-3.603c1.062-0.989,2.319-1.752,3.772-2.288
				c1.453-0.536,3.035-0.804,4.747-0.804c1.711,0,3.298,0.268,4.762,0.804c1.463,0.536,2.726,1.299,3.788,2.288
				c1.062,0.99,1.891,2.191,2.489,3.603C176.297,186.679,176.597,188.261,176.597,190.013z M170.938,190.013
				c0-0.948-0.155-1.835-0.464-2.66c-0.31-0.824-0.737-1.53-1.283-2.117c-0.547-0.588-1.206-1.052-1.979-1.393
				c-0.773-0.34-1.624-0.51-2.551-0.51s-1.773,0.17-2.536,0.51c-0.763,0.341-1.422,0.805-1.979,1.393
				c-0.557,0.587-0.985,1.293-1.283,2.117c-0.299,0.825-0.449,1.712-0.449,2.66c0,0.989,0.155,1.901,0.464,2.736
				c0.31,0.835,0.737,1.551,1.283,2.149s1.201,1.066,1.964,1.407c0.762,0.34,1.608,0.51,2.536,0.51s1.772-0.17,2.536-0.51
				c0.762-0.341,1.422-0.809,1.979-1.407s0.989-1.314,1.299-2.149C170.783,191.915,170.938,191.002,170.938,190.013z"/>
			<path fill="#97C7EB" d="M195.011,201.083c-1.433,0.35-2.995,0.525-4.685,0.525c-1.752,0-3.366-0.278-4.839-0.835
				c-1.474-0.557-2.742-1.34-3.803-2.351c-1.062-1.01-1.892-2.221-2.489-3.633c-0.598-1.412-0.897-2.984-0.897-4.716
				c0-1.752,0.304-3.339,0.912-4.763c0.608-1.422,1.448-2.633,2.521-3.633c1.071-1,2.329-1.768,3.772-2.304
				c1.443-0.536,3-0.804,4.669-0.804c1.731,0,3.339,0.263,4.824,0.789c1.484,0.525,2.69,1.231,3.618,2.117l-3.339,3.804
				c-0.516-0.598-1.196-1.087-2.041-1.469c-0.846-0.382-1.804-0.572-2.875-0.572c-0.928,0-1.784,0.171-2.567,0.511
				c-0.784,0.34-1.464,0.814-2.041,1.422c-0.577,0.608-1.025,1.33-1.345,2.165c-0.32,0.835-0.479,1.747-0.479,2.736
				c0,1.011,0.144,1.938,0.433,2.783c0.288,0.845,0.716,1.572,1.283,2.18c0.567,0.608,1.268,1.083,2.103,1.423s1.788,0.51,2.86,0.51
				c0.619,0,1.206-0.046,1.763-0.139s1.072-0.242,1.546-0.449v-3.988h-4.174v-4.268h9.029v11.596
				C197.696,200.279,196.443,200.733,195.011,201.083z"/>
			<path fill="#97C7EB" d="M212.961,191.775v9.277h-5.288v-9.277l-8.226-12.615h6.401l4.669,8.102l4.669-8.102h6.185
				L212.961,191.775z"/>
			<path fill="#97C7EB" d="M244.874,200.666c-1.422,0.649-3.062,0.975-4.917,0.975c-1.691,0-3.252-0.279-4.685-0.836
				c-1.433-0.557-2.675-1.344-3.726-2.365c-1.051-1.02-1.876-2.242-2.474-3.664c-0.598-1.422-0.897-2.988-0.897-4.7
				c0-1.752,0.304-3.339,0.912-4.763c0.608-1.422,1.448-2.633,2.521-3.633c1.071-1,2.329-1.768,3.772-2.304
				c1.443-0.536,3-0.804,4.669-0.804c1.546,0,3.066,0.273,4.561,0.819c1.494,0.546,2.706,1.345,3.633,2.396l-3.587,3.587
				c-0.495-0.68-1.145-1.186-1.948-1.516c-0.804-0.329-1.629-0.494-2.474-0.494c-0.928,0-1.778,0.17-2.551,0.51
				s-1.438,0.81-1.995,1.407c-0.557,0.599-0.989,1.304-1.299,2.118c-0.309,0.814-0.464,1.706-0.464,2.675
				c0,0.989,0.155,1.897,0.464,2.722c0.31,0.824,0.737,1.53,1.283,2.117c0.546,0.588,1.201,1.047,1.964,1.377
				c0.762,0.33,1.597,0.494,2.505,0.494c1.051,0,1.968-0.205,2.752-0.618c0.783-0.412,1.412-0.948,1.886-1.608l3.68,3.464
				C247.491,199.135,246.296,200.016,244.874,200.666z"/>
			<path fill="#97C7EB" d="M272.765,190.013c0,1.731-0.299,3.314-0.897,4.746c-0.598,1.434-1.428,2.66-2.489,3.68
				c-1.062,1.021-2.324,1.809-3.788,2.365c-1.464,0.557-3.051,0.836-4.762,0.836c-1.711,0-3.293-0.279-4.747-0.836
				c-1.454-0.557-2.711-1.344-3.772-2.365c-1.062-1.02-1.892-2.246-2.489-3.68c-0.598-1.432-0.897-3.015-0.897-4.746
				c0-1.752,0.299-3.334,0.897-4.747c0.598-1.411,1.427-2.612,2.489-3.603c1.062-0.989,2.319-1.752,3.772-2.288
				c1.453-0.536,3.035-0.804,4.747-0.804c1.711,0,3.298,0.268,4.762,0.804c1.463,0.536,2.726,1.299,3.788,2.288
				c1.062,0.99,1.891,2.191,2.489,3.603C272.466,186.679,272.765,188.261,272.765,190.013z M267.106,190.013
				c0-0.948-0.155-1.835-0.464-2.66c-0.31-0.824-0.737-1.53-1.283-2.117c-0.547-0.588-1.206-1.052-1.979-1.393
				c-0.773-0.34-1.624-0.51-2.551-0.51s-1.773,0.17-2.536,0.51c-0.763,0.341-1.422,0.805-1.979,1.393
				c-0.557,0.587-0.985,1.293-1.283,2.117c-0.299,0.825-0.449,1.712-0.449,2.66c0,0.989,0.155,1.901,0.464,2.736
				c0.31,0.835,0.737,1.551,1.283,2.149s1.201,1.066,1.964,1.407c0.762,0.34,1.608,0.51,2.536,0.51s1.772-0.17,2.536-0.51
				c0.762-0.341,1.422-0.809,1.979-1.407s0.989-1.314,1.299-2.149C266.952,191.915,267.106,191.002,267.106,190.013z"/>
			<path fill="#97C7EB" d="M289.401,201.052l-8.813-14.316h-0.093l0.124,14.316h-5.133V179.16h6.03l8.782,14.285h0.093
				l-0.124-14.285h5.133v21.893H289.401z"/>
			<path fill="#97C7EB" d="M304.368,183.673v4.516h8.473v4.359h-8.473v8.504h-5.226V179.16h14.41v4.514H304.368z"/>
			<path fill="#97C7EB" d="M316.18,201.052V179.16h14.719v4.452h-9.617v4.144h9.091v4.236h-9.091v4.546h10.174v4.515H316.18z"/>
			<path fill="#97C7EB" d="M345.896,201.052l-4.753-8.689h-1.802v8.689h-5.164V179.16h8.349c1.051,0,2.077,0.107,3.077,0.324
				c1,0.217,1.896,0.582,2.69,1.098c0.793,0.516,1.427,1.195,1.901,2.041s0.711,1.896,0.711,3.154c0,1.484-0.402,2.731-1.206,3.741
				c-0.804,1.011-1.917,1.731-3.339,2.165l5.721,9.369H345.896z M345.679,185.869c0-0.514-0.109-0.932-0.326-1.252
				c-0.218-0.318-0.498-0.566-0.839-0.742c-0.342-0.175-0.726-0.293-1.15-0.355c-0.425-0.062-0.834-0.093-1.228-0.093h-2.827v5.103
				h2.517c0.435,0,0.88-0.036,1.336-0.108c0.456-0.071,0.87-0.201,1.243-0.387s0.678-0.453,0.917-0.804
				S345.679,186.425,345.679,185.869z"/>
			<path fill="#97C7EB" d="M353.905,201.052V179.16h14.719v4.452h-9.617v4.144h9.091v4.236h-9.091v4.546h10.174v4.515H353.905z"/>
			<path fill="#97C7EB" d="M385.816,201.052l-8.813-14.316h-0.093l0.124,14.316h-5.133V179.16h6.03l8.782,14.285h0.093
				l-0.124-14.285h5.133v21.893H385.816z"/>
			<path fill="#97C7EB" d="M411.235,200.666c-1.422,0.649-3.062,0.975-4.917,0.975c-1.691,0-3.252-0.279-4.685-0.836
				c-1.433-0.557-2.675-1.344-3.726-2.365c-1.051-1.02-1.876-2.242-2.474-3.664c-0.598-1.422-0.897-2.988-0.897-4.7
				c0-1.752,0.304-3.339,0.912-4.763c0.608-1.422,1.448-2.633,2.521-3.633c1.071-1,2.329-1.768,3.772-2.304
				c1.443-0.536,3-0.804,4.669-0.804c1.546,0,3.066,0.273,4.561,0.819c1.494,0.546,2.706,1.345,3.633,2.396l-3.587,3.587
				c-0.495-0.68-1.145-1.186-1.948-1.516c-0.804-0.329-1.629-0.494-2.474-0.494c-0.928,0-1.778,0.17-2.551,0.51
				s-1.438,0.81-1.995,1.407c-0.557,0.599-0.989,1.304-1.299,2.118c-0.309,0.814-0.464,1.706-0.464,2.675
				c0,0.989,0.155,1.897,0.464,2.722c0.31,0.824,0.737,1.53,1.283,2.117c0.546,0.588,1.201,1.047,1.964,1.377
				c0.762,0.33,1.597,0.494,2.505,0.494c1.051,0,1.968-0.205,2.752-0.618c0.783-0.412,1.412-0.948,1.886-1.608l3.68,3.464
				C413.853,199.135,412.657,200.016,411.235,200.666z"/>
			<path fill="#97C7EB" d="M416.306,201.052V179.16h14.719v4.452h-9.617v4.144h9.091v4.236h-9.091v4.546h10.174v4.515H416.306z"/>
		</g>
	</g>
	<g>
		<g>
			<path fill="#97C7EB" d="M23.176,167.393l-9.407-15.282H13.67l0.132,15.282H8.323v-23.369h6.437l9.374,15.249h0.099L24.1,144.024
				h5.479v23.369H23.176z"/>
			<path fill="#97C7EB" d="M50.242,167.393l-1.815-4.588h-9.044l-1.716,4.588h-6.139l9.803-23.369h5.479l9.704,23.369H50.242z
				 M43.97,150.262L41,158.283h5.875L43.97,150.262z"/>
			<path fill="#97C7EB" d="M67.141,148.843v18.55h-5.644v-18.55h-6.602v-4.819h18.847v4.819H67.141z"/>
			<path fill="#97C7EB" d="M76.978,167.393v-23.369h5.677v23.369H76.978z"/>
			<path fill="#97C7EB" d="M111.173,155.609c0,1.85-0.319,3.538-0.957,5.067c-0.639,1.529-1.524,2.839-2.657,3.928
				c-1.134,1.089-2.481,1.931-4.043,2.524c-1.562,0.595-3.257,0.892-5.083,0.892c-1.827,0-3.516-0.297-5.067-0.892
				c-1.551-0.594-2.894-1.436-4.027-2.524c-1.134-1.089-2.019-2.398-2.657-3.928s-0.957-3.218-0.957-5.067
				c0-1.869,0.319-3.559,0.957-5.066c0.638-1.507,1.523-2.789,2.657-3.846c1.133-1.056,2.476-1.869,4.027-2.441
				s3.24-0.859,5.067-0.859c1.826,0,3.521,0.287,5.083,0.859c1.562,0.572,2.91,1.386,4.043,2.441
				c1.133,1.057,2.019,2.339,2.657,3.846C110.854,152.05,111.173,153.74,111.173,155.609z M105.132,155.609
				c0-1.012-0.165-1.957-0.495-2.838c-0.33-0.88-0.787-1.635-1.37-2.262c-0.583-0.627-1.287-1.121-2.112-1.484
				s-1.733-0.545-2.723-0.545s-1.893,0.182-2.707,0.545c-0.814,0.363-1.519,0.857-2.113,1.484s-1.051,1.382-1.37,2.262
				c-0.319,0.881-0.479,1.826-0.479,2.838c0,1.057,0.165,2.03,0.495,2.922c0.33,0.891,0.786,1.656,1.37,2.294
				c0.583,0.638,1.282,1.139,2.096,1.502c0.813,0.362,1.716,0.544,2.707,0.544s1.892-0.182,2.707-0.544
				c0.814-0.363,1.518-0.864,2.112-1.502s1.056-1.403,1.386-2.294C104.967,157.639,105.132,156.666,105.132,155.609z"/>
			<path fill="#97C7EB" d="M129.756,167.393l-9.407-15.282h-0.099l0.132,15.282h-5.479v-23.369h6.437l9.374,15.249h0.099
				l-0.132-15.249h5.479v23.369H129.756z"/>
			<path fill="#97C7EB" d="M156.822,167.393l-1.815-4.588h-9.044l-1.716,4.588h-6.139l9.803-23.369h5.479l9.704,23.369H156.822z
				 M150.55,150.262l-2.97,8.021h5.875L150.55,150.262z"/>
			<path fill="#97C7EB" d="M165.041,167.393v-23.369h5.677v18.451h9.044v4.918H165.041z"/>
			<path fill="#97C7EB" d="M210.194,160.593c0,1.277-0.253,2.35-0.759,3.219c-0.507,0.869-1.178,1.567-2.014,2.096
				c-0.836,0.528-1.788,0.908-2.855,1.139c-1.068,0.23-2.162,0.347-3.284,0.347h-9.308v-23.369h9.308
				c0.902,0,1.826,0.094,2.772,0.28c0.946,0.188,1.804,0.507,2.575,0.957c0.77,0.451,1.397,1.062,1.881,1.832
				c0.484,0.771,0.726,1.75,0.726,2.938c0,1.299-0.352,2.371-1.056,3.219c-0.705,0.848-1.629,1.458-2.772,1.832v0.066
				c0.66,0.109,1.281,0.312,1.865,0.609c0.583,0.298,1.089,0.678,1.518,1.139c0.429,0.463,0.77,1.002,1.023,1.618
				C210.067,159.13,210.194,159.824,210.194,160.593z M203.791,150.791c0-0.793-0.303-1.37-0.908-1.732
				c-0.605-0.363-1.502-0.545-2.69-0.545h-2.772v4.818h3.037c1.056,0,1.875-0.215,2.459-0.643
				C203.499,152.259,203.791,151.626,203.791,150.791z M204.55,160.066c0-0.969-0.363-1.64-1.089-2.014s-1.695-0.562-2.904-0.562
				h-3.136v5.347h3.168c0.44,0,0.896-0.037,1.37-0.115c0.473-0.076,0.902-0.215,1.288-0.412c0.385-0.198,0.698-0.479,0.94-0.842
				S204.55,160.638,204.55,160.066z"/>
			<path fill="#97C7EB" d="M233.019,162.425c-0.474,1.155-1.15,2.146-2.03,2.971c-0.88,0.825-1.942,1.469-3.185,1.932
				c-1.243,0.461-2.624,0.692-4.143,0.692c-1.54,0-2.927-0.231-4.159-0.692c-1.232-0.463-2.277-1.106-3.136-1.932
				s-1.518-1.815-1.98-2.971c-0.462-1.155-0.693-2.437-0.693-3.846v-14.556h5.611v14.095c0,0.638,0.083,1.242,0.248,1.814
				s0.418,1.084,0.759,1.535c0.341,0.451,0.792,0.809,1.354,1.072c0.561,0.265,1.238,0.396,2.03,0.396s1.469-0.132,2.03-0.396
				c0.562-0.264,1.018-0.621,1.37-1.072c0.352-0.451,0.605-0.963,0.759-1.535c0.153-0.572,0.231-1.177,0.231-1.814v-14.095h5.644
				v14.556C233.728,159.989,233.491,161.27,233.019,162.425z"/>
			<path fill="#97C7EB" d="M250.628,150.097c-0.484-0.615-1.117-1.105-1.898-1.469c-0.781-0.363-1.535-0.545-2.261-0.545
				c-0.375,0-0.754,0.033-1.139,0.1c-0.385,0.065-0.732,0.192-1.04,0.379c-0.309,0.188-0.567,0.43-0.776,0.727
				c-0.209,0.297-0.313,0.677-0.313,1.139c0,0.396,0.083,0.727,0.248,0.99s0.407,0.495,0.726,0.693
				c0.319,0.197,0.698,0.379,1.139,0.545c0.44,0.164,0.935,0.336,1.485,0.512c0.792,0.264,1.618,0.555,2.476,0.874
				c0.858,0.319,1.639,0.743,2.344,1.271c0.704,0.528,1.287,1.184,1.75,1.965c0.462,0.781,0.693,1.754,0.693,2.92
				c0,1.344-0.248,2.504-0.743,3.482c-0.495,0.98-1.161,1.789-1.997,2.427s-1.793,1.111-2.872,1.419
				c-1.078,0.309-2.19,0.463-3.333,0.463c-1.673,0-3.29-0.293-4.852-0.875c-1.563-0.583-2.861-1.414-3.895-2.492l3.697-3.764
				c0.572,0.705,1.326,1.293,2.261,1.767c0.935,0.474,1.865,0.71,2.789,0.71c0.417,0,0.825-0.044,1.221-0.133
				c0.396-0.088,0.743-0.23,1.04-0.429c0.297-0.198,0.533-0.462,0.71-0.792c0.176-0.33,0.264-0.727,0.264-1.188
				c0-0.44-0.11-0.813-0.33-1.122c-0.22-0.309-0.534-0.588-0.94-0.842c-0.408-0.253-0.914-0.484-1.519-0.693
				c-0.605-0.209-1.293-0.434-2.063-0.676c-0.748-0.242-1.48-0.529-2.195-0.859c-0.715-0.33-1.354-0.753-1.915-1.27
				c-0.561-0.518-1.012-1.145-1.353-1.883c-0.341-0.736-0.512-1.633-0.512-2.689c0-1.299,0.264-2.41,0.792-3.334
				c0.528-0.924,1.222-1.684,2.08-2.277c0.858-0.594,1.826-1.028,2.905-1.304c1.078-0.274,2.167-0.413,3.268-0.413
				c1.32,0,2.668,0.242,4.043,0.727c1.375,0.484,2.58,1.199,3.614,2.146L250.628,150.097z"/>
			<path fill="#97C7EB" d="M257.79,167.393v-23.369h5.677v23.369H257.79z"/>
			<path fill="#97C7EB" d="M283.139,167.393l-9.407-15.282h-0.099l0.132,15.282h-5.479v-23.369h6.437l9.374,15.249h0.099
				l-0.132-15.249h5.479v23.369H283.139z"/>
			<path fill="#97C7EB" d="M294.362,167.393v-23.369h15.711v4.753h-10.265v4.423h9.704v4.522h-9.704v4.852h10.859v4.819H294.362z"/>
			<path fill="#97C7EB" d="M326.742,150.097c-0.484-0.615-1.117-1.105-1.898-1.469c-0.781-0.363-1.535-0.545-2.261-0.545
				c-0.375,0-0.754,0.033-1.139,0.1c-0.385,0.065-0.732,0.192-1.04,0.379c-0.309,0.188-0.567,0.43-0.776,0.727
				c-0.209,0.297-0.313,0.677-0.313,1.139c0,0.396,0.083,0.727,0.248,0.99s0.407,0.495,0.726,0.693
				c0.319,0.197,0.698,0.379,1.139,0.545c0.44,0.164,0.935,0.336,1.485,0.512c0.792,0.264,1.618,0.555,2.476,0.874
				c0.858,0.319,1.639,0.743,2.344,1.271c0.704,0.528,1.287,1.184,1.75,1.965c0.462,0.781,0.693,1.754,0.693,2.92
				c0,1.344-0.248,2.504-0.743,3.482c-0.495,0.98-1.161,1.789-1.997,2.427s-1.793,1.111-2.872,1.419
				c-1.078,0.309-2.19,0.463-3.333,0.463c-1.673,0-3.29-0.293-4.852-0.875c-1.563-0.583-2.861-1.414-3.895-2.492l3.697-3.764
				c0.572,0.705,1.326,1.293,2.261,1.767c0.935,0.474,1.865,0.71,2.789,0.71c0.417,0,0.825-0.044,1.221-0.133
				c0.396-0.088,0.743-0.23,1.04-0.429c0.297-0.198,0.533-0.462,0.71-0.792c0.176-0.33,0.264-0.727,0.264-1.188
				c0-0.44-0.11-0.813-0.33-1.122c-0.22-0.309-0.534-0.588-0.94-0.842c-0.408-0.253-0.914-0.484-1.519-0.693
				c-0.605-0.209-1.293-0.434-2.063-0.676c-0.748-0.242-1.48-0.529-2.195-0.859c-0.715-0.33-1.354-0.753-1.915-1.27
				c-0.561-0.518-1.012-1.145-1.353-1.883c-0.341-0.736-0.512-1.633-0.512-2.689c0-1.299,0.264-2.41,0.792-3.334
				c0.528-0.924,1.222-1.684,2.08-2.277c0.858-0.594,1.826-1.028,2.905-1.304c1.078-0.274,2.167-0.413,3.268-0.413
				c1.32,0,2.668,0.242,4.043,0.727c1.375,0.484,2.58,1.199,3.614,2.146L326.742,150.097z"/>
			<path fill="#97C7EB" d="M346.249,150.097c-0.484-0.615-1.117-1.105-1.898-1.469c-0.781-0.363-1.535-0.545-2.261-0.545
				c-0.375,0-0.754,0.033-1.139,0.1c-0.385,0.065-0.732,0.192-1.04,0.379c-0.309,0.188-0.567,0.43-0.776,0.727
				c-0.209,0.297-0.313,0.677-0.313,1.139c0,0.396,0.083,0.727,0.248,0.99s0.407,0.495,0.726,0.693
				c0.319,0.197,0.698,0.379,1.139,0.545c0.44,0.164,0.935,0.336,1.485,0.512c0.792,0.264,1.618,0.555,2.476,0.874
				c0.858,0.319,1.639,0.743,2.344,1.271c0.704,0.528,1.287,1.184,1.75,1.965c0.462,0.781,0.693,1.754,0.693,2.92
				c0,1.344-0.248,2.504-0.743,3.482c-0.495,0.98-1.161,1.789-1.997,2.427s-1.793,1.111-2.872,1.419
				c-1.078,0.309-2.19,0.463-3.333,0.463c-1.673,0-3.29-0.293-4.852-0.875c-1.563-0.583-2.861-1.414-3.895-2.492l3.697-3.764
				c0.572,0.705,1.326,1.293,2.261,1.767c0.935,0.474,1.865,0.71,2.789,0.71c0.417,0,0.825-0.044,1.221-0.133
				c0.396-0.088,0.743-0.23,1.04-0.429c0.297-0.198,0.533-0.462,0.71-0.792c0.176-0.33,0.264-0.727,0.264-1.188
				c0-0.44-0.11-0.813-0.33-1.122c-0.22-0.309-0.534-0.588-0.94-0.842c-0.408-0.253-0.914-0.484-1.519-0.693
				c-0.605-0.209-1.293-0.434-2.063-0.676c-0.748-0.242-1.48-0.529-2.195-0.859c-0.715-0.33-1.354-0.753-1.915-1.27
				c-0.561-0.518-1.012-1.145-1.353-1.883c-0.341-0.736-0.512-1.633-0.512-2.689c0-1.299,0.264-2.41,0.792-3.334
				c0.528-0.924,1.222-1.684,2.08-2.277c0.858-0.594,1.826-1.028,2.905-1.304c1.078-0.274,2.167-0.413,3.268-0.413
				c1.32,0,2.668,0.242,4.043,0.727c1.375,0.484,2.58,1.199,3.614,2.146L346.249,150.097z"/>
			<path fill="#97C7EB" d="M377.506,167.393l-1.815-4.588h-9.044l-1.716,4.588h-6.139l9.803-23.369h5.479l9.704,23.369H377.506z
				 M371.234,150.262l-2.97,8.021h5.875L371.234,150.262z"/>
			<path fill="#97C7EB" d="M400.578,167.393l-9.407-15.282h-0.099l0.132,15.282h-5.479v-23.369h6.437l9.374,15.249h0.099
				l-0.132-15.249h5.479v23.369H400.578z"/>
			<path fill="#97C7EB" d="M433.618,155.642c0,2.047-0.38,3.812-1.139,5.298c-0.759,1.485-1.761,2.706-3.004,3.664
				c-1.244,0.957-2.646,1.661-4.208,2.112s-3.147,0.677-4.753,0.677H411.8v-23.369h8.45c1.65,0,3.279,0.192,4.885,0.577
				c1.606,0.386,3.037,1.023,4.291,1.915c1.254,0.892,2.266,2.085,3.037,3.581C433.233,151.593,433.618,153.443,433.618,155.642z
				 M427.743,155.642c0-1.32-0.214-2.414-0.644-3.283s-1.001-1.562-1.716-2.08c-0.715-0.517-1.53-0.886-2.443-1.105
				c-0.913-0.221-1.854-0.33-2.822-0.33h-2.806v13.664h2.673c1.012,0,1.986-0.115,2.921-0.346c0.935-0.231,1.76-0.611,2.476-1.139
				c0.715-0.528,1.287-1.232,1.716-2.113C427.528,158.031,427.743,156.941,427.743,155.642z"/>
		</g>
	</g>
	<path fill="#FFFFFF" d="M91.504,40.582h46.941c3.364,0,6.584,0.486,9.666,1.469c3.083,0.981,5.767,2.448,8.06,4.408
		c2.288,1.966,4.135,4.417,5.532,7.356c1.397,2.948,2.103,6.379,2.103,10.299c0,4.11-0.981,7.681-2.943,10.715
		c-1.959,3.044-4.577,5.308-7.848,6.799c4.57,1.5,8.333,4.043,11.283,7.643c2.938,3.598,4.414,8.188,4.414,13.796
		c0,3.929-0.685,7.455-2.033,10.584c-1.352,3.125-3.243,5.812-5.674,8.06c-2.431,2.24-5.31,3.934-8.624,5.107
		c-3.314,1.168-6.883,1.752-10.712,1.752H91.504V40.582z M107.76,75.746h28.869c3.543,0,6.254-0.978,8.122-2.944
		c1.866-1.964,2.801-4.297,2.801-7.008c0-2.612-0.935-4.899-2.801-6.861c-1.867-1.968-4.579-2.939-8.122-2.939H107.76V75.746z
		 M107.76,113.154h32.087c3.647,0,6.651-1.044,9.036-3.149c2.386-2.104,3.575-4.697,3.575-7.779c0-3.173-1.188-5.81-3.575-7.921
		c-2.384-2.099-5.388-3.15-9.036-3.15H107.76V113.154z"/>
	<polygon fill="#FFFFFF" points="193.653,55.993 167.865,55.993 167.865,40.582 235.678,40.582 235.678,55.993 209.898,55.993 
		209.898,128.57 193.653,128.57 	"/>
	<path fill="#FFFFFF" d="M317.671,112.316c-4.955,6.167-10.7,10.714-17.241,13.66c-6.538,2.943-13.311,4.414-20.308,4.414
		c-6.64,0-12.804-1.172-18.497-3.5c-5.697-2.338-10.699-5.58-14.995-9.74c-4.3-4.161-7.661-9.019-10.084-14.576
		c-2.43-5.554-3.644-11.56-3.644-18.001c0-6.444,1.213-12.445,3.644-18.011c2.423-5.548,5.784-10.407,10.084-14.567
		c4.296-4.151,9.298-7.401,14.995-9.736c5.693-2.331,11.857-3.504,18.497-3.504c6.997,0,13.77,1.474,20.308,4.414
		c6.541,2.942,12.286,7.491,17.241,13.661l-13.45,10.09c-2.809-4.113-6.265-7.266-10.374-9.461
		c-4.106-2.189-8.688-3.293-13.725-3.293c-3.928,0-7.707,0.796-11.354,2.377c-3.641,1.599-6.865,3.745-9.663,6.45
		c-2.806,2.711-5.029,5.908-6.659,9.598c-1.634,3.691-2.453,7.687-2.453,11.982c0,4.3,0.819,8.295,2.453,11.977
		c1.63,3.692,3.853,6.917,6.659,9.67c2.798,2.752,6.022,4.906,9.663,6.449c3.648,1.537,7.426,2.304,11.354,2.304
		c5.038,0,9.666-1.069,13.863-3.215c4.206-2.154,7.708-5.145,10.513-8.975L317.671,112.316z"/>
	<polygon fill="#97C7EB" points="321.427,40.582 335.998,40.582 335.998,56.83 321.427,66.639 	"/>
	<polygon fill="#FFFFFF" points="352.949,64.532 341.175,72.518 341.175,55.565 369.199,38.755 369.199,128.57 352.949,128.57 	"/>
	<polygon fill="#FFFFFF" points="431.612,72.564 416.466,72.564 416.466,93.354 397.74,93.354 420.457,41.999 404.764,41.999 
		375.848,107.674 416.466,107.674 416.466,128.468 431.612,128.468 	"/>
	<polygon fill="#FFFFFF" points="24.156,73.97 24.156,128.621 8.3,128.621 8.3,40.529 13.446,40.529 63.968,94.296 63.968,40.529 
		80.361,40.529 80.361,128.621 74.658,128.621 	"/>
</g>
</svg>
