<?xml version="1.0" encoding="utf-8"?>
<!-- Generator: Adobe Illustrator 16.0.4, SVG Export Plug-In . SVG Version: 6.00 Build 0)  -->
<!DOCTYPE svg PUBLIC "-//W3C//DTD SVG 1.1//EN" "http://www.w3.org/Graphics/SVG/1.1/DTD/svg11.dtd">
<svg version="1.1" id="Layer_1" xmlns="http://www.w3.org/2000/svg" xmlns:xlink="http://www.w3.org/1999/xlink" x="0px" y="0px"
	 width="792px" height="612px" viewBox="0 0 792 612" enable-background="new 0 0 792 612" xml:space="preserve">
<g>
	<g>
		<text transform="matrix(1 0 0 1 188.2344 387.1484)" fill="#97C7EB" font-family="'AvenirNext-Bold'" font-size="30.9224">TECHNOLOGY CONFERENCE</text>
	</g>
	<g>
		<text transform="matrix(1 0 0 1 186.1074 353.4893)"><tspan x="0" y="0" fill="#97C7EB" font-family="'AvenirNext-Bold'" font-size="33.0074">N</tspan><tspan x="26.076" y="0" fill="#97C7EB" font-family="'AvenirNext-Bold'" font-size="33.0074" letter-spacing="-1">A</tspan><tspan x="48.817" y="0" fill="#97C7EB" font-family="'AvenirNext-Bold'" font-size="33.0074">T</tspan><tspan x="68.654" y="0" fill="#97C7EB" font-family="'AvenirNext-Bold'" font-size="33.0074">I</tspan><tspan x="78.491" y="0" fill="#97C7EB" font-family="'AvenirNext-Bold'" font-size="33.0074">ONA</tspan><tspan x="156.717" y="0" fill="#97C7EB" font-family="'AvenirNext-Bold'" font-size="33.0074" letter-spacing="1">L</tspan><tspan x="175.399" y="0" fill="#97C7EB" font-family="'AvenirNext-Bold'" font-size="33.0074"> BUSINESS AN</tspan><tspan x="403.477" y="0" fill="#97C7EB" font-family="'AvenirNext-Bold'" font-size="33.0074">D</tspan></text>
	</g>
	<path fill="#FFFFFF" d="M271.699,226.678h46.941c3.364,0,6.584,0.486,9.666,1.469c3.083,0.981,5.767,2.448,8.06,4.408
		c2.288,1.966,4.135,4.417,5.532,7.356c1.397,2.948,2.103,6.379,2.103,10.299c0,4.11-0.981,7.681-2.943,10.715
		c-1.959,3.044-4.577,5.308-7.848,6.799c4.57,1.5,8.333,4.043,11.283,7.643c2.938,3.598,4.414,8.188,4.414,13.796
		c0,3.929-0.685,7.455-2.033,10.584c-1.352,3.125-3.243,5.812-5.674,8.06c-2.431,2.24-5.31,3.934-8.624,5.107
		c-3.314,1.168-6.883,1.752-10.712,1.752h-50.165V226.678z M287.954,261.842h28.869c3.543,0,6.254-0.978,8.122-2.944
		c1.866-1.964,2.801-4.297,2.801-7.008c0-2.612-0.935-4.899-2.801-6.861c-1.867-1.968-4.579-2.939-8.122-2.939h-28.869V261.842z
		 M287.954,299.25h32.087c3.647,0,6.651-1.044,9.036-3.149c2.386-2.104,3.575-4.697,3.575-7.779c0-3.173-1.188-5.81-3.575-7.921
		c-2.384-2.099-5.388-3.15-9.036-3.15h-32.087V299.25z"/>
	<polygon fill="#FFFFFF" points="373.848,242.089 348.06,242.089 348.06,226.678 415.873,226.678 415.873,242.089 390.093,242.089 
		390.093,314.666 373.848,314.666 	"/>
	<path fill="#FFFFFF" d="M497.866,298.413c-4.955,6.167-10.7,10.714-17.241,13.66c-6.538,2.943-13.311,4.414-20.308,4.414
		c-6.64,0-12.804-1.172-18.497-3.5c-5.697-2.338-10.699-5.58-14.995-9.74c-4.3-4.161-7.661-9.019-10.084-14.576
		c-2.43-5.554-3.644-11.56-3.644-18.001c0-6.444,1.213-12.445,3.644-18.011c2.423-5.548,5.784-10.407,10.084-14.567
		c4.296-4.151,9.298-7.401,14.995-9.736c5.693-2.331,11.857-3.504,18.497-3.504c6.997,0,13.77,1.474,20.308,4.414
		c6.541,2.942,12.286,7.491,17.241,13.661l-13.45,10.09c-2.809-4.113-6.265-7.266-10.374-9.461
		c-4.106-2.189-8.688-3.293-13.725-3.293c-3.928,0-7.707,0.796-11.354,2.377c-3.641,1.599-6.865,3.745-9.663,6.45
		c-2.806,2.711-5.029,5.908-6.659,9.598c-1.634,3.691-2.453,7.687-2.453,11.982c0,4.3,0.819,8.295,2.453,11.977
		c1.63,3.692,3.853,6.917,6.659,9.67c2.798,2.752,6.022,4.906,9.663,6.449c3.648,1.537,7.426,2.304,11.354,2.304
		c5.038,0,9.666-1.069,13.863-3.215c4.206-2.154,7.708-5.145,10.513-8.975L497.866,298.413z"/>
	<polygon fill="#97C7EB" points="501.621,226.678 516.192,226.678 516.192,242.926 501.621,252.735 	"/>
	<polygon fill="#FFFFFF" points="533.144,250.628 521.37,258.614 521.37,241.662 549.394,224.851 549.394,314.666 533.144,314.666 	
		"/>
	<polygon fill="#FFFFFF" points="611.806,258.661 596.66,258.661 596.66,279.451 577.935,279.451 600.651,228.095 584.958,228.095 
		556.042,293.77 596.66,293.77 596.66,314.564 611.806,314.564 	"/>
	<polygon fill="#FFFFFF" points="204.351,260.066 204.351,314.717 188.494,314.717 188.494,226.625 193.641,226.625 
		244.163,280.392 244.163,226.625 260.555,226.625 260.555,314.717 254.853,314.717 	"/>
</g>
</svg>
