<?xml version="1.0" encoding="utf-8"?>
<!-- Generator: Adobe Illustrator 16.0.4, SVG Export Plug-In . SVG Version: 6.00 Build 0)  -->
<!DOCTYPE svg PUBLIC "-//W3C//DTD SVG 1.1//EN" "http://www.w3.org/Graphics/SVG/1.1/DTD/svg11.dtd">
<svg version="1.1" id="Layer_1" xmlns="http://www.w3.org/2000/svg" xmlns:xlink="http://www.w3.org/1999/xlink" x="0px" y="0px"
	 width="82.648px" height="82.648px" viewBox="0 0 82.648 82.648" enable-background="new 0 0 82.648 82.648" xml:space="preserve">
<path fill="#3688C8" d="M41.393,0.138c-22.783,0-41.256,18.471-41.256,41.254c0,22.786,18.473,41.257,41.256,41.257
	c22.785,0,41.256-18.471,41.256-41.257C82.648,18.608,64.178,0.138,41.393,0.138z M15.608,62.777c0-8.027,3.575-14.998,5.735-18.524
	c-2.241-1.16-3.772-3.5-3.772-6.196c0-3.854,3.124-6.979,6.979-6.979c3.853,0,6.978,3.125,6.978,6.979
	c0,2.696-1.533,5.036-3.772,6.196c2.157,3.526,5.733,10.497,5.733,18.524H15.608z M33.488,46.928c0-8.027,3.579-14.998,5.735-18.525
	c-2.239-1.161-3.771-3.498-3.771-6.196c0-3.854,3.124-6.978,6.978-6.978c3.854,0,6.979,3.124,6.979,6.978
	c0,2.698-1.531,5.035-3.771,6.196c2.157,3.527,5.735,10.498,5.735,18.525H33.488z M51.372,61.255c0-8.029,3.578-15,5.733-18.526
	c-2.238-1.161-3.77-3.497-3.77-6.195c0-3.854,3.125-6.979,6.978-6.979c3.854,0,6.978,3.125,6.978,6.979
	c0,2.698-1.532,5.034-3.772,6.195c2.157,3.526,5.736,10.497,5.736,18.526H51.372z"/>
</svg>
