<?xml version="1.0" encoding="utf-8"?>
<!-- Generator: Adobe Illustrator 16.0.0, SVG Export Plug-In . SVG Version: 6.00 Build 0)  -->
<!DOCTYPE svg PUBLIC "-//W3C//DTD SVG 1.1//EN" "http://www.w3.org/Graphics/SVG/1.1/DTD/svg11.dtd">
<svg version="1.1" id="Layer_1" xmlns="http://www.w3.org/2000/svg" xmlns:xlink="http://www.w3.org/1999/xlink" x="0px" y="0px"
	 width="85.918px" height="85.918px" viewBox="0 0 85.918 85.918" enable-background="new 0 0 85.918 85.918" xml:space="preserve">
<g>
	<g>
		<g>
			<g>
				<path fill="#FFFFFF" d="M42.959,0C19.233,0,0,19.233,0,42.959s19.233,42.959,42.959,42.959
					c23.727,0,42.959-19.233,42.959-42.959S66.686,0,42.959,0z M42.959,82.662c-21.893,0-39.704-17.81-39.704-39.703
					S21.066,3.256,42.959,3.256c21.892,0,39.703,17.81,39.703,39.703S64.851,82.662,42.959,82.662z"/>
			</g>
		</g>
	</g>
	<g>
		<g>
			<path fill="#FFFFFF" d="M32.685,39.483c0-4.012-3.254-7.267-7.267-7.267c-4.012,0-7.265,3.255-7.265,7.267
				c0,2.811,1.594,5.245,3.928,6.452c-2.247,3.673-5.972,10.932-5.972,19.29h18.619c0-8.358-3.725-15.617-5.971-19.29
				C31.091,44.729,32.685,42.294,32.685,39.483z"/>
		</g>
	</g>
	<g>
		<g>
			<path fill="#FFFFFF" d="M51.306,22.981c0-4.014-3.254-7.268-7.267-7.268s-7.265,3.254-7.265,7.268
				c0,2.808,1.594,5.241,3.927,6.452c-2.246,3.672-5.973,10.931-5.973,19.289H53.35c0-8.358-3.725-15.617-5.972-19.289
				C49.712,28.223,51.306,25.789,51.306,22.981z"/>
		</g>
	</g>
	<g>
		<g>
			<path fill="#FFFFFF" d="M69.926,37.897c0-4.014-3.253-7.265-7.267-7.265c-4.013,0-7.264,3.251-7.264,7.265
				c0,2.811,1.593,5.243,3.925,6.454c-2.244,3.67-5.971,10.93-5.971,19.288h18.621c0-8.358-3.726-15.618-5.972-19.288
				C68.331,43.141,69.926,40.708,69.926,37.897z"/>
		</g>
	</g>
</g>
</svg>
