<?xml version="1.0" encoding="utf-8"?>
<!-- Generator: Adobe Illustrator 16.0.4, SVG Export Plug-In . SVG Version: 6.00 Build 0)  -->
<!DOCTYPE svg PUBLIC "-//W3C//DTD SVG 1.1//EN" "http://www.w3.org/Graphics/SVG/1.1/DTD/svg11.dtd">
<svg version="1.1" id="Layer_1" xmlns="http://www.w3.org/2000/svg" xmlns:xlink="http://www.w3.org/1999/xlink" x="0px" y="0px"
	 width="612px" height="250.649px" viewBox="0 0 612 250.649" enable-background="new 0 0 612 250.649" xml:space="preserve">
<polygon fill="#FFFFFF" points="176.15,113.196 176.15,179.999 156.765,179.999 156.765,72.317 163.057,72.317 224.814,138.04 
	224.814,72.317 244.852,72.317 244.852,179.999 237.887,179.999 "/>
<path fill="#FFFFFF" d="M261.039,154.206c3.219,3.453,7.22,6.371,12.014,8.721c4.768,2.379,9.529,3.559,14.236,3.559
	c2.537,0,4.85-0.332,6.938-0.953c2.074-0.633,3.822-1.469,5.262-2.512c1.457-1.018,2.539-2.182,3.293-3.465
	c0.754-1.27,1.139-2.465,1.139-3.623c0-2.764-0.994-4.924-2.943-6.488c-1.98-1.545-4.617-2.611-7.967-3.191l-10.195-1.906
	c-5.885-1.045-10.756-2.305-14.6-3.799c-3.867-1.506-6.951-3.26-9.27-5.276c-2.291-2.008-3.916-4.227-4.83-6.663
	c-0.92-2.421-1.393-5.117-1.393-8.119c0-3.566,0.734-6.997,2.162-10.287c1.435-3.291,3.575-6.197,6.393-8.728
	c2.836-2.544,6.293-4.547,10.375-6.055c4.088-1.498,8.736-2.247,13.91-2.247c5.895,0,11.439,0.921,16.703,2.757
	c5.234,1.862,10.738,4.799,16.5,8.827l-10.199,12.624c-4.371-3.692-8.469-6.169-12.266-7.433c-3.799-1.269-7.197-1.898-10.207-1.898
	c-1.957,0-3.863,0.21-5.705,0.682c-1.85,0.456-3.473,1.145-4.924,2.072c-1.441,0.921-2.602,2.03-3.457,3.284
	c-0.871,1.283-1.305,2.771-1.305,4.495c0,2.544,0.949,4.488,2.855,5.879c1.906,1.39,4.592,2.362,8.041,2.952l18.152,3.45
	c7.488,1.377,13.068,3.894,16.693,7.523c3.611,3.627,5.424,8.549,5.424,14.781c0,3.104-0.652,6.311-1.98,9.592
	c-1.332,3.285-3.385,6.324-6.227,9.076c-2.818,2.77-6.471,5.055-10.988,6.842c-4.469,1.777-9.904,2.672-16.219,2.672
	c-7.162,0-13.782-1.227-19.893-3.738c-6.109-2.467-12.041-6.117-17.805-10.959L261.039,154.206z"/>
<path fill="#FFFFFF" d="M344.77,105.613h0.369c3.203-4.024,7.152-7.097,11.836-9.241c4.654-2.14,9.873-3.199,15.629-3.199
	c6.924,0,13.051,1.299,18.414,3.899c5.357,2.604,9.883,5.961,13.58,10.106c3.68,4.14,6.508,8.838,8.459,14.086
	c1.973,5.249,2.941,10.578,2.941,15.986c0,5.197-1.035,10.381-3.102,15.57c-2.096,5.178-5.018,9.904-8.836,14.176
	c-3.793,4.289-8.432,7.734-13.912,10.381c-5.465,2.648-11.605,3.973-18.398,3.973c-6.223,0-11.648-1.191-16.248-3.547
	c-4.631-2.371-8.074-5.33-10.363-8.9h-0.369v39.072h-17.967V95.42h17.967V105.613z M396.998,137.25c0-3.784-0.723-7.33-2.18-10.613
	c-1.43-3.3-3.365-6.148-5.787-8.583c-2.428-2.414-5.248-4.337-8.482-5.772c-3.201-1.442-6.609-2.167-10.184-2.167
	s-6.953,0.725-10.123,2.167c-3.156,1.436-5.949,3.358-8.371,5.772c-2.426,2.435-4.328,5.283-5.703,8.583
	c-1.398,3.283-2.09,6.829-2.09,10.613c0,3.818,0.691,7.355,2.09,10.648c1.375,3.279,3.277,6.127,5.703,8.561
	c2.422,2.416,5.215,4.334,8.371,5.773c3.17,1.449,6.549,2.166,10.123,2.166s6.982-0.717,10.184-2.166
	c3.234-1.439,6.055-3.357,8.482-5.773c2.422-2.434,4.357-5.281,5.787-8.561C396.275,144.606,396.998,141.069,396.998,137.25"/>
<rect x="420.885" y="95.42" fill="#FFFFFF" width="17.971" height="83.688"/>
<path fill="#FFFFFF" d="M446.805,95.42h16.936v9.157h0.346c1.5-3.444,3.691-6.221,6.568-8.279c2.889-2.094,6.156-3.125,9.855-3.125
	c3.918,0,7.203,0.87,9.844,2.595l-6.395,17.807c-0.92-0.689-2.045-1.27-3.342-1.726c-1.352-0.457-2.473-0.703-3.402-0.703
	c-3.326,0-6.246,1.159-8.734,3.471c-2.465,2.307-3.705,5.352-3.705,9.157v55.334h-17.971V95.42z"/>
<path fill="#FFFFFF" d="M566.303,160.942c-5.074,6.344-10.926,11.314-17.553,14.877c-6.625,3.555-13.756,5.406-21.355,5.531
	c-7.262,0-13.766-1.264-19.551-3.807c-5.748-2.531-10.592-5.852-14.506-9.949c-3.922-4.082-6.916-8.785-8.998-14.084
	c-2.072-5.299-3.107-10.717-3.107-16.26c0-5.532,1.035-10.941,3.107-16.233c2.082-5.319,5.076-10.003,8.998-14.106
	c3.914-4.088,8.758-7.395,14.506-9.947c5.785-2.514,12.289-3.791,19.551-3.791c4.379,0,9.105,0.906,14.18,2.757
	c5.064,1.862,9.764,4.681,14.088,8.481c4.324,3.798,7.924,8.677,10.822,14.606c2.863,5.944,4.305,13.006,4.305,21.182v3.293h-69.496
	c0.234,3.217,1.121,6.162,2.678,8.807c1.553,2.654,3.48,4.967,5.785,6.924c2.307,1.973,4.945,3.48,7.953,4.568
	c3.002,1.107,6.053,1.643,9.174,1.643c4.832,0,9.291-1.115,13.395-3.361c4.094-2.254,7.693-5.451,10.811-9.6L566.303,160.942z
	 M549.701,128.608c-1.951-6.451-5.139-11.324-9.52-14.6c-4.371-3.277-9.447-4.921-15.201-4.921c-5.777,0-10.785,1.688-15.045,5.094
	c-4.268,3.401-7.15,8.206-8.643,14.427H549.701z"/>
<g>
	<path fill="#FFFFFF" d="M371.733,207.814h-2.348v-16.788h2.348V207.814z"/>
	<path fill="#FFFFFF" d="M377.115,196.575c0.032,0.284,0.056,0.604,0.072,0.96c0.016,0.356,0.023,0.652,0.023,0.89h0.07
		c0.143-0.3,0.336-0.581,0.582-0.842c0.244-0.261,0.525-0.49,0.842-0.688c0.315-0.197,0.663-0.352,1.043-0.463
		c0.379-0.11,0.775-0.166,1.186-0.166c0.727,0,1.352,0.123,1.873,0.368s0.957,0.573,1.305,0.983c0.348,0.412,0.604,0.894,0.77,1.447
		c0.166,0.553,0.25,1.146,0.25,1.778v6.971h-2.229v-6.236c0-0.458-0.035-0.893-0.107-1.304c-0.07-0.411-0.201-0.774-0.391-1.091
		s-0.451-0.569-0.783-0.759s-0.758-0.284-1.279-0.284c-0.887,0-1.609,0.336-2.171,1.008s-0.842,1.568-0.842,2.69v5.976H375.1v-8.82
		c0-0.301-0.008-0.688-0.023-1.162s-0.039-0.893-0.07-1.257H377.115z"/>
	<path fill="#FFFFFF" d="M390.322,196.575c0.031,0.284,0.055,0.604,0.07,0.96c0.016,0.356,0.025,0.652,0.025,0.89h0.07
		c0.143-0.3,0.336-0.581,0.58-0.842c0.246-0.261,0.525-0.49,0.842-0.688s0.664-0.352,1.045-0.463
		c0.379-0.11,0.773-0.166,1.186-0.166c0.727,0,1.352,0.123,1.873,0.368s0.955,0.573,1.303,0.983
		c0.348,0.412,0.605,0.894,0.771,1.447c0.166,0.553,0.248,1.146,0.248,1.778v6.971h-2.229v-6.236c0-0.458-0.035-0.893-0.105-1.304
		c-0.072-0.411-0.203-0.774-0.393-1.091s-0.449-0.569-0.781-0.759s-0.76-0.284-1.281-0.284c-0.885,0-1.609,0.336-2.17,1.008
		s-0.842,1.568-0.842,2.69v5.976h-2.229v-8.82c0-0.301-0.008-0.688-0.023-1.162s-0.039-0.893-0.07-1.257H390.322z"/>
	<path fill="#FFFFFF" d="M412.42,202.17c0,0.87-0.154,1.668-0.461,2.396c-0.309,0.727-0.736,1.355-1.281,1.885
		s-1.189,0.94-1.932,1.232c-0.744,0.293-1.541,0.439-2.395,0.439c-0.855,0-1.652-0.146-2.396-0.439
		c-0.742-0.292-1.383-0.703-1.92-1.232s-0.961-1.158-1.27-1.885c-0.307-0.728-0.461-1.525-0.461-2.396
		c0-0.869,0.154-1.663,0.461-2.383c0.309-0.719,0.732-1.34,1.27-1.861s1.178-0.929,1.92-1.221c0.744-0.293,1.541-0.439,2.396-0.439
		c0.854,0,1.65,0.146,2.395,0.439c0.742,0.292,1.387,0.699,1.932,1.221s0.973,1.143,1.281,1.861
		C412.266,200.507,412.42,201.301,412.42,202.17z M410.098,202.182c0-0.535-0.084-1.048-0.25-1.536
		c-0.168-0.488-0.408-0.918-0.727-1.288c-0.316-0.371-0.709-0.666-1.176-0.887c-0.469-0.221-1.004-0.331-1.607-0.331
		c-0.602,0-1.137,0.11-1.605,0.331c-0.467,0.221-0.859,0.516-1.178,0.887c-0.316,0.37-0.559,0.8-0.725,1.288s-0.25,1.001-0.25,1.536
		c0,0.536,0.084,1.049,0.25,1.537s0.408,0.922,0.725,1.301c0.318,0.378,0.711,0.678,1.178,0.898c0.469,0.221,1.004,0.33,1.605,0.33
		c0.604,0,1.139-0.109,1.607-0.33c0.467-0.221,0.859-0.521,1.176-0.898c0.318-0.379,0.559-0.812,0.727-1.301
		C410.014,203.231,410.098,202.718,410.098,202.182z"/>
	<path fill="#FFFFFF" d="M419.723,207.814h-2.418l-4.576-11.239h2.467l3.295,8.845h0.047l3.32-8.845h2.371L419.723,207.814z"/>
	<path fill="#FFFFFF" d="M432.789,200.535c0-0.838-0.254-1.458-0.76-1.861s-1.178-0.604-2.014-0.604
		c-0.633,0-1.23,0.122-1.791,0.367s-1.031,0.558-1.41,0.937l-1.186-1.423c0.553-0.521,1.229-0.933,2.027-1.232
		c0.797-0.301,1.654-0.451,2.572-0.451c0.807,0,1.506,0.115,2.098,0.345c0.594,0.229,1.08,0.541,1.459,0.937
		c0.379,0.395,0.664,0.861,0.854,1.398c0.189,0.538,0.285,1.114,0.285,1.731v4.908c0,0.379,0.012,0.778,0.035,1.197
		s0.066,0.763,0.131,1.031h-2.016c-0.127-0.537-0.189-1.075-0.189-1.612h-0.072c-0.41,0.601-0.928,1.067-1.553,1.398
		c-0.625,0.332-1.363,0.498-2.217,0.498c-0.443,0-0.906-0.059-1.387-0.178c-0.482-0.118-0.922-0.312-1.316-0.581
		c-0.396-0.269-0.723-0.624-0.984-1.066s-0.391-0.988-0.391-1.637c0-0.854,0.229-1.529,0.688-2.027
		c0.457-0.497,1.059-0.877,1.801-1.138c0.744-0.261,1.582-0.431,2.514-0.51c0.934-0.079,1.873-0.118,2.822-0.118V200.535z
		 M432.244,202.456c-0.555,0-1.127,0.023-1.719,0.07c-0.594,0.048-1.131,0.143-1.613,0.285s-0.881,0.355-1.197,0.64
		c-0.316,0.285-0.475,0.664-0.475,1.139c0,0.332,0.066,0.608,0.201,0.83s0.312,0.402,0.535,0.545
		c0.221,0.143,0.465,0.241,0.734,0.297c0.268,0.056,0.545,0.083,0.83,0.083c1.043,0,1.846-0.312,2.406-0.937
		c0.561-0.625,0.842-1.411,0.842-2.359v-0.593H432.244z"/>
	<path fill="#FFFFFF" d="M443.553,198.401h-2.988v5.839c0,0.678,0.127,1.162,0.381,1.453c0.252,0.292,0.654,0.438,1.209,0.438
		c0.205,0,0.426-0.021,0.664-0.065c0.236-0.043,0.449-0.108,0.641-0.195l0.07,1.826c-0.27,0.095-0.564,0.169-0.889,0.225
		s-0.66,0.083-1.008,0.083c-1.061,0-1.869-0.292-2.432-0.877c-0.561-0.585-0.842-1.462-0.842-2.632v-6.094h-2.156v-1.826h2.156
		v-3.225h2.205v3.225h2.988V198.401z"/>
	<path fill="#FFFFFF" d="M447.869,192.52c0,0.411-0.145,0.751-0.436,1.02c-0.289,0.27-0.639,0.403-1.047,0.403
		c-0.406,0-0.752-0.139-1.035-0.415c-0.281-0.276-0.422-0.612-0.422-1.008c0-0.411,0.141-0.755,0.422-1.031
		c0.283-0.276,0.629-0.415,1.035-0.415c0.408,0,0.758,0.139,1.047,0.415C447.725,191.765,447.869,192.109,447.869,192.52z
		 M447.514,207.814h-2.229v-11.239h2.229V207.814z"/>
	<path fill="#FFFFFF" d="M462.189,202.17c0,0.87-0.154,1.668-0.461,2.396c-0.309,0.727-0.736,1.355-1.281,1.885
		s-1.189,0.94-1.932,1.232c-0.744,0.293-1.541,0.439-2.395,0.439c-0.855,0-1.652-0.146-2.396-0.439
		c-0.742-0.292-1.383-0.703-1.92-1.232s-0.961-1.158-1.27-1.885c-0.307-0.728-0.461-1.525-0.461-2.396
		c0-0.869,0.154-1.663,0.461-2.383c0.309-0.719,0.732-1.34,1.27-1.861s1.178-0.929,1.92-1.221c0.744-0.293,1.541-0.439,2.396-0.439
		c0.854,0,1.65,0.146,2.395,0.439c0.742,0.292,1.387,0.699,1.932,1.221s0.973,1.143,1.281,1.861
		C462.035,200.507,462.189,201.301,462.189,202.17z M459.867,202.182c0-0.535-0.084-1.048-0.25-1.536
		c-0.168-0.488-0.408-0.918-0.727-1.288c-0.316-0.371-0.709-0.666-1.176-0.887c-0.469-0.221-1.004-0.331-1.607-0.331
		c-0.602,0-1.137,0.11-1.605,0.331c-0.467,0.221-0.859,0.516-1.178,0.887c-0.316,0.37-0.559,0.8-0.725,1.288s-0.25,1.001-0.25,1.536
		c0,0.536,0.084,1.049,0.25,1.537s0.408,0.922,0.725,1.301c0.318,0.378,0.711,0.678,1.178,0.898c0.469,0.221,1.004,0.33,1.605,0.33
		c0.604,0,1.139-0.109,1.607-0.33c0.467-0.221,0.859-0.521,1.176-0.898c0.318-0.379,0.559-0.812,0.727-1.301
		C459.783,203.231,459.867,202.718,459.867,202.182z"/>
	<path fill="#FFFFFF" d="M466.695,196.575c0.031,0.284,0.055,0.604,0.07,0.96c0.016,0.356,0.025,0.652,0.025,0.89h0.07
		c0.143-0.3,0.336-0.581,0.58-0.842c0.246-0.261,0.525-0.49,0.842-0.688s0.664-0.352,1.045-0.463
		c0.379-0.11,0.773-0.166,1.186-0.166c0.727,0,1.352,0.123,1.873,0.368s0.955,0.573,1.303,0.983
		c0.348,0.412,0.605,0.894,0.771,1.447c0.166,0.553,0.248,1.146,0.248,1.778v6.971h-2.229v-6.236c0-0.458-0.035-0.893-0.105-1.304
		c-0.072-0.411-0.203-0.774-0.393-1.091s-0.449-0.569-0.781-0.759s-0.76-0.284-1.281-0.284c-0.885,0-1.609,0.336-2.17,1.008
		s-0.842,1.568-0.842,2.69v5.976h-2.229v-8.82c0-0.301-0.008-0.688-0.023-1.162s-0.039-0.893-0.07-1.257H466.695z"/>
	<path fill="#FFFFFF" d="M495.172,204.447h0.047v-13.421h2.348v16.788h-2.965l-8.867-13.705h-0.047v13.705h-2.348v-16.788h3.059
		L495.172,204.447z"/>
	<path fill="#FFFFFF" d="M510.963,202.099c0,0.127,0,0.254,0,0.38c0,0.127-0.008,0.253-0.023,0.379H502
		c0.016,0.472,0.123,0.915,0.32,1.331s0.463,0.777,0.795,1.083s0.715,0.546,1.15,0.718c0.434,0.173,0.896,0.259,1.387,0.259
		c0.758,0,1.414-0.165,1.967-0.497c0.555-0.332,0.988-0.735,1.305-1.21l1.564,1.257c-0.6,0.797-1.307,1.383-2.121,1.76
		c-0.814,0.376-1.719,0.564-2.715,0.564c-0.854,0-1.645-0.143-2.371-0.427c-0.729-0.285-1.352-0.684-1.873-1.198
		c-0.521-0.513-0.934-1.134-1.234-1.861c-0.299-0.727-0.449-1.532-0.449-2.418c0-0.869,0.146-1.672,0.439-2.407
		c0.293-0.734,0.701-1.363,1.223-1.885c0.523-0.521,1.141-0.929,1.854-1.221c0.713-0.293,1.48-0.439,2.305-0.439
		s1.572,0.135,2.246,0.403c0.674,0.27,1.244,0.656,1.711,1.162s0.828,1.118,1.082,1.838
		C510.836,200.388,510.963,201.199,510.963,202.099z M508.688,201.199c-0.016-0.442-0.092-0.857-0.227-1.245
		c-0.133-0.387-0.332-0.724-0.592-1.008c-0.262-0.284-0.586-0.51-0.973-0.676s-0.842-0.249-1.363-0.249
		c-0.475,0-0.92,0.083-1.34,0.249c-0.418,0.166-0.781,0.392-1.09,0.676s-0.562,0.621-0.76,1.008
		c-0.197,0.388-0.312,0.803-0.344,1.245H508.688z"/>
	<path fill="#FFFFFF" d="M518.955,198.401h-2.988v5.839c0,0.678,0.127,1.162,0.379,1.453c0.254,0.292,0.656,0.438,1.209,0.438
		c0.205,0,0.428-0.021,0.664-0.065c0.238-0.043,0.451-0.108,0.641-0.195l0.07,1.826c-0.268,0.095-0.564,0.169-0.889,0.225
		s-0.66,0.083-1.008,0.083c-1.059,0-1.869-0.292-2.43-0.877s-0.842-1.462-0.842-2.632v-6.094h-2.158v-1.826h2.158v-3.225h2.205
		v3.225h2.988V198.401z"/>
	<path fill="#FFFFFF" d="M522.439,196.575l2.537,8.584h0.047l2.68-8.584h2.348l2.727,8.584h0.047l2.537-8.584h2.348l-3.723,11.239
		h-2.322l-2.775-8.441h-0.047l-2.75,8.441h-2.324l-3.746-11.239H522.439z"/>
	<path fill="#FFFFFF" d="M550.727,202.17c0,0.87-0.154,1.668-0.461,2.396c-0.309,0.727-0.736,1.355-1.281,1.885
		s-1.189,0.94-1.932,1.232c-0.744,0.293-1.541,0.439-2.395,0.439c-0.855,0-1.652-0.146-2.396-0.439
		c-0.742-0.292-1.383-0.703-1.92-1.232s-0.961-1.158-1.27-1.885c-0.307-0.728-0.461-1.525-0.461-2.396
		c0-0.869,0.154-1.663,0.461-2.383c0.309-0.719,0.732-1.34,1.27-1.861s1.178-0.929,1.92-1.221c0.744-0.293,1.541-0.439,2.396-0.439
		c0.854,0,1.65,0.146,2.395,0.439c0.742,0.292,1.387,0.699,1.932,1.221s0.973,1.143,1.281,1.861
		C550.572,200.507,550.727,201.301,550.727,202.17z M548.404,202.182c0-0.535-0.084-1.048-0.25-1.536
		c-0.168-0.488-0.408-0.918-0.727-1.288c-0.316-0.371-0.709-0.666-1.176-0.887c-0.469-0.221-1.004-0.331-1.607-0.331
		c-0.602,0-1.137,0.11-1.605,0.331c-0.467,0.221-0.859,0.516-1.178,0.887c-0.316,0.37-0.559,0.8-0.725,1.288s-0.25,1.001-0.25,1.536
		c0,0.536,0.084,1.049,0.25,1.537s0.408,0.922,0.725,1.301c0.318,0.378,0.711,0.678,1.178,0.898c0.469,0.221,1.004,0.33,1.605,0.33
		c0.604,0,1.139-0.109,1.607-0.33c0.467-0.221,0.859-0.521,1.176-0.898c0.318-0.379,0.559-0.812,0.727-1.301
		C548.32,203.231,548.404,202.718,548.404,202.182z"/>
	<path fill="#FFFFFF" d="M552.719,197.832c-0.016-0.475-0.039-0.893-0.07-1.257h2.109c0.031,0.284,0.055,0.613,0.07,0.984
		s0.025,0.676,0.025,0.913h0.07c0.316-0.664,0.779-1.198,1.387-1.601c0.609-0.403,1.293-0.605,2.051-0.605
		c0.348,0,0.641,0.032,0.879,0.096l-0.096,2.062c-0.316-0.079-0.656-0.118-1.02-0.118c-0.537,0-1.004,0.099-1.398,0.296
		c-0.396,0.198-0.725,0.463-0.984,0.794c-0.262,0.332-0.455,0.716-0.582,1.15c-0.125,0.435-0.189,0.89-0.189,1.363v5.904h-2.229
		v-8.82C552.742,198.693,552.734,198.306,552.719,197.832z"/>
	<path fill="#FFFFFF" d="M563.01,201.459h0.07l4.719-4.885h2.988l-5.266,5.098l5.715,6.142h-3.082l-5.074-5.833h-0.07v5.833h-2.23
		v-17.926h2.23V201.459z"/>
</g>
<g>
	<path fill="#FFFFFF" d="M112.438,169.334c3.147-2.707,19.657-16.436,19.916-30.561c0.204-12.119-4.326-22.067-7.15-27.656
		c-3.79-7.502-9.542-19.289-9.542-19.289c0.758,4.612-2.158,16.406-6.037,15.455c-5.626-1.381-3.283-9.707-1.203-15.429
		c2.088-5.71,3.096-13.856,4.206-19.574c1.166-6.066,0.986-17.327-1.61-20.274c0,0-6.484,16.391-21.131,29.097
		c-7.839,6.807-16.167,10.14-21.994,20.815c-6.232,11.438-1.824,18.902-5.565,19.745c-3.73,0.855-5.519-3.735-4.913-9.523
		c0,0-6.699,4.149-6.689,23.036c0,16.636,10.578,26.113,20.276,30.445c7.65,3.414,14.086,13.598,14.086,13.598
		c0.782-4.102-0.928-13.986-2.143-17.701c-1.964-6.053-8.315-9.705-8.315-20.102c0-5.883,2.73-21.982,21.291-21.982
		c18.564,0,20.088,15.819,19.959,22.062c-0.166,8.66-6.466,13.959-8.37,20.014c-1.167,3.709-2.743,13.797-2.098,18.238
		C105.414,179.749,108.198,172.999,112.438,169.334"/>
	<path fill="#FFFFFF" d="M71.924,179.999l9.204,15.379c8.863,0,15.066,12.598,15.066,12.598s6.495-12.598,13.523-12.598
		l8.391-15.379H71.924z"/>
</g>
</svg>
