<?xml version="1.0" encoding="utf-8"?>
<!-- Generator: Adobe Illustrator 16.0.4, SVG Export Plug-In . SVG Version: 6.00 Build 0)  -->
<!DOCTYPE svg PUBLIC "-//W3C//DTD SVG 1.1//EN" "http://www.w3.org/Graphics/SVG/1.1/DTD/svg11.dtd">
<svg version="1.1" id="Layer_1" xmlns="http://www.w3.org/2000/svg" xmlns:xlink="http://www.w3.org/1999/xlink" x="0px" y="0px"
	 width="576px" height="288.001px" viewBox="0 0 576 288.001" enable-background="new 0 0 576 288.001" xml:space="preserve">
<g>
	<polygon fill="#FFFFFF" points="95.717,124.715 95.717,173.461 81.574,173.461 81.574,94.887 86.168,94.887 131.227,142.842 
		131.227,94.887 145.848,94.887 145.848,173.461 140.764,173.461 	"/>
	<path fill="#FFFFFF" d="M157.66,154.639c2.348,2.518,5.27,4.648,8.766,6.361c3.479,1.738,6.957,2.598,10.389,2.598
		c1.85,0,3.539-0.242,5.061-0.695c1.516-0.463,2.789-1.07,3.842-1.832c1.062-0.744,1.852-1.592,2.404-2.527
		c0.547-0.926,0.828-1.799,0.828-2.646c0-2.016-0.725-3.592-2.146-4.734c-1.445-1.125-3.371-1.904-5.814-2.328l-7.439-1.389
		c-4.293-0.764-7.848-1.684-10.65-2.773c-2.826-1.1-5.074-2.379-6.766-3.848c-1.674-1.469-2.857-3.088-3.523-4.863
		c-0.674-1.766-1.016-3.734-1.016-5.928c0-2.6,0.535-5.102,1.574-7.504c1.049-2.402,2.609-4.523,4.666-6.369
		c2.068-1.855,4.592-3.314,7.57-4.418c2.982-1.092,6.375-1.639,10.15-1.639c4.303,0,8.35,0.672,12.188,2.01
		c3.818,1.361,7.834,3.502,12.041,6.443l-7.443,9.209c-3.189-2.689-6.18-4.5-8.949-5.422c-2.773-0.922-5.254-1.385-7.447-1.385
		c-1.43,0-2.822,0.152-4.164,0.498c-1.35,0.332-2.535,0.834-3.592,1.51c-1.055,0.674-1.898,1.482-2.523,2.398
		c-0.637,0.936-0.953,2.023-0.953,3.277c0,1.857,0.693,3.277,2.084,4.291c1.393,1.016,3.352,1.725,5.867,2.152l13.246,2.521
		c5.465,1.002,9.533,2.838,12.182,5.49c2.635,2.645,3.957,6.236,3.957,10.783c0,2.266-0.477,4.604-1.445,7
		c-0.973,2.396-2.471,4.609-4.543,6.621c-2.057,2.021-4.725,3.689-8.02,4.994c-3.26,1.295-7.227,1.947-11.832,1.947
		c-5.227,0-10.055-0.895-14.518-2.727c-4.459-1.803-8.785-4.465-12.99-7.996L157.66,154.639z"/>
	<path fill="#FFFFFF" d="M218.754,119.182h0.273c2.336-2.936,5.219-5.18,8.635-6.746c3.396-1.559,7.207-2.332,11.404-2.332
		c5.053,0,9.523,0.947,13.438,2.848c3.908,1.898,7.209,4.348,9.906,7.371c2.689,3.021,4.752,6.449,6.174,10.279
		c1.441,3.828,2.148,7.719,2.148,11.662c0,3.795-0.756,7.578-2.266,11.365c-1.527,3.775-3.658,7.225-6.449,10.34
		c-2.766,3.133-6.15,5.645-10.15,7.578c-3.984,1.934-8.467,2.896-13.426,2.896c-4.537,0-8.498-0.867-11.854-2.588
		c-3.377-1.729-5.891-3.889-7.561-6.494h-0.273v28.512h-13.107v-82.131h13.107V119.182z M256.869,142.264
		c0-2.76-0.529-5.346-1.596-7.744c-1.041-2.406-2.453-4.486-4.221-6.262c-1.77-1.762-3.828-3.164-6.186-4.211
		c-2.34-1.053-4.828-1.578-7.434-1.578c-2.611,0-5.074,0.525-7.387,1.578c-2.307,1.047-4.342,2.449-6.107,4.211
		c-1.773,1.775-3.158,3.855-4.162,6.262c-1.023,2.398-1.523,4.984-1.523,7.744c0,2.791,0.5,5.371,1.523,7.773
		c1.004,2.389,2.389,4.469,4.162,6.246c1.766,1.762,3.801,3.164,6.107,4.211c2.312,1.057,4.775,1.582,7.387,1.582
		c2.605,0,5.094-0.525,7.434-1.582c2.357-1.047,4.416-2.449,6.186-4.211c1.768-1.777,3.18-3.857,4.221-6.246
		C256.34,147.635,256.869,145.055,256.869,142.264"/>
	<rect x="274.297" y="111.742" fill="#FFFFFF" width="13.113" height="61.066"/>
	<path fill="#FFFFFF" d="M293.211,111.742h12.355v6.682h0.256c1.092-2.51,2.691-4.537,4.791-6.039
		c2.105-1.529,4.494-2.281,7.191-2.281c2.857,0,5.256,0.635,7.182,1.895l-4.668,12.992c-0.67-0.502-1.49-0.926-2.436-1.258
		c-0.984-0.336-1.807-0.516-2.482-0.516c-2.428,0-4.561,0.848-6.373,2.535c-1.799,1.682-2.703,3.902-2.703,6.68v40.377h-13.113
		V111.742z"/>
	<path fill="#FFFFFF" d="M380.404,159.551c-3.701,4.631-7.969,8.258-12.805,10.855c-4.834,2.598-10.037,3.947-15.586,4.037
		c-5.301,0-10.045-0.92-14.264-2.777c-4.195-1.846-7.732-4.27-10.586-7.258c-2.861-2.979-5.047-6.41-6.562-10.277
		c-1.514-3.867-2.27-7.82-2.27-11.867c0-4.033,0.756-7.98,2.27-11.842c1.516-3.883,3.701-7.301,6.562-10.295
		c2.854-2.982,6.391-5.395,10.586-7.256c4.219-1.834,8.963-2.768,14.264-2.768c3.197,0,6.646,0.662,10.348,2.01
		c3.693,1.361,7.127,3.42,10.277,6.191c3.158,2.771,5.785,6.33,7.898,10.658c2.09,4.338,3.145,9.488,3.145,15.453v2.402h-50.715
		c0.176,2.352,0.82,4.498,1.959,6.43c1.131,1.934,2.535,3.621,4.221,5.051c1.682,1.438,3.607,2.539,5.803,3.332
		c2.188,0.809,4.416,1.201,6.693,1.201c3.527,0,6.777-0.814,9.771-2.455c2.99-1.645,5.613-3.977,7.889-7.002L380.404,159.551z
		 M368.293,135.961c-1.426-4.709-3.75-8.266-6.949-10.654c-3.189-2.391-6.889-3.592-11.09-3.592c-4.217,0-7.871,1.232-10.977,3.719
		c-3.115,2.48-5.221,5.988-6.311,10.527H368.293z"/>
	<g>
		<path fill="#3587C8" d="M384.061,124.113v-12.25h10.719V94.129h15.055v17.734h15.311v12.25h-15.311v28.451
			c0,2.725,0.488,4.977,1.467,6.764c0.979,1.785,3.168,2.68,6.572,2.68c1.02,0,2.125-0.107,3.316-0.32
			c1.191-0.211,2.254-0.529,3.189-0.957l0.512,11.994c-1.363,0.51-2.979,0.912-4.85,1.211s-3.658,0.447-5.357,0.447
			c-4.084,0-7.4-0.574-9.953-1.723c-2.551-1.148-4.572-2.721-6.061-4.721c-1.488-1.998-2.51-4.293-3.062-6.889
			c-0.553-2.594-0.828-5.379-0.828-8.357v-28.58H384.061z"/>
		<path fill="#3587C8" d="M428.973,111.863h16.715l16.076,44.658h0.254l16.205-44.658h16.203l-24.369,61.244h-16.332
			L428.973,111.863z"/>
	</g>
</g>
</svg>
