<?xml version="1.0" encoding="utf-8"?>
<!-- Generator: Adobe Illustrator 16.0.0, SVG Export Plug-In . SVG Version: 6.00 Build 0)  -->
<!DOCTYPE svg PUBLIC "-//W3C//DTD SVG 1.1//EN" "http://www.w3.org/Graphics/SVG/1.1/DTD/svg11.dtd">
<svg version="1.1" xmlns="http://www.w3.org/2000/svg" xmlns:xlink="http://www.w3.org/1999/xlink" x="0px" y="0px" width="100px"
	 height="100px" viewBox="0 0 100 100" enable-background="new 0 0 100 100" xml:space="preserve">
<g id="Layer_1">
	<path fill="#3488C9" d="M-42.016,68.479c0-8.031,3.582-15.009,5.739-18.536c-2.242-1.161-3.774-3.5-3.774-6.2
		c0-3.856,3.127-6.983,6.982-6.983c3.856,0,6.983,3.126,6.983,6.983c0,2.7-1.535,5.039-3.775,6.2
		c2.158,3.527,5.74,10.505,5.74,18.536H-42.016z M-59.909,54.144c0-8.032,3.58-15.007,5.74-18.535
		c-2.243-1.162-3.775-3.502-3.775-6.201c0-3.856,3.125-6.982,6.983-6.982c3.855,0,6.98,3.126,6.98,6.982
		c0,2.699-1.532,5.039-3.772,6.201c2.157,3.528,5.737,10.503,5.737,18.535H-59.909z M-77.802,70.002
		c0-8.03,3.578-15.007,5.739-18.534c-2.243-1.162-3.774-3.501-3.774-6.2c0-3.856,3.126-6.983,6.982-6.983s6.982,3.127,6.982,6.983
		c0,2.699-1.534,5.038-3.774,6.2c2.158,3.527,5.737,10.504,5.737,18.534H-77.802z M-52,7.325c-22.798,0-41.282,18.482-41.282,41.28
		c0,22.8,18.484,41.282,41.282,41.282c22.799,0,41.28-18.482,41.28-41.282C-10.72,25.807-29.201,7.325-52,7.325 M45.053,62.319h3.44
		v-3.45h-3.44V62.319z M45.053,55.706h3.44v-3.45h-3.44V55.706z M45.053,68.935h3.44v-3.451h-3.44V68.935z M45.053,49.094h3.44
		v-3.451h-3.44V49.094z M37.58,62.319h3.441v-3.45H37.58V62.319z M37.58,68.935h3.441v-3.451H37.58V68.935z M52.522,68.935h3.442
		v-3.451h-3.442V68.935z M37.58,49.094h3.441v-3.451H37.58V49.094z M37.58,55.706h3.441v-3.45H37.58V55.706z M59.994,62.319h3.442
		v-3.45h-3.442V62.319z M59.994,55.706h3.442v-3.45h-3.442V55.706z M59.994,49.094h3.442v-3.451h-3.442V49.094z M52.522,62.319
		h3.442v-3.45h-3.442V62.319z M70.486,70.421c0,1.453-1.184,2.639-2.638,2.639H32.487c-1.456,0-2.641-1.186-2.641-2.639V35.057
		c0-1.456,1.185-2.64,2.641-2.64h6.389v-2.354h4.211v2.354h13.838v-2.354h4.212v2.354h6.712c1.454,0,2.638,1.184,2.638,2.64V70.421z
		 M9.053,51.562c0,22.707,18.407,41.113,41.115,41.113c22.707,0,41.115-18.406,41.115-41.113S72.875,10.446,50.168,10.446
		 M50.168,10.446c-22.708,0-41.115,18.408-41.115,41.115 M66.403,36.024h-5.268v1.991h-4.212v-1.991H43.087v1.991h-4.211v-1.991
		h-4.945c-0.258,0-0.475,0.22-0.475,0.477v5.698c3.381-0.698,9.898-1.829,16.573-1.829c6.585,0,13.478,1.215,16.851,1.9v-5.769
		C66.88,36.244,66.661,36.024,66.403,36.024 M59.994,68.935h3.442v-3.451h-3.442V68.935z M52.522,55.706h3.442v-3.45h-3.442V55.706z
		 M52.522,49.094h3.442v-3.451h-3.442V49.094z"/>
</g>
<g id="Layer_2" display="none">
	<path display="inline" fill="#3488C9" d="M-195.938-216.073c-1.098,4.823-3.321,9.135-6.038,13.225
		c-1.869,2.81-4.063,5.354-6.373,7.81c-1.05,1.115-2.033,2.295-3.047,3.448h-0.091c-1.574-1.856-3.158-3.701-4.723-5.566
		c-4.324-5.152-7.935-10.729-10.104-17.148c-0.826-2.444-1.299-4.953-1.122-7.556c0.246-3.559,1.502-6.711,3.809-9.422
		c2.67-3.139,6.072-5.025,10.159-5.536c8.137-1.024,15.329,4.093,17.469,11.604C-195.131-222.172-195.245-219.121-195.938-216.073
		 M-211.424-254.333c-22.127,0-40.067,17.938-40.067,40.064c0,22.125,17.939,40.065,40.067,40.065
		c22.126,0,40.063-17.941,40.063-40.065C-171.361-236.396-189.298-254.333-211.424-254.333"/>
	<path display="inline" fill="#3488C9" d="M-211.429-228.135c-4.001,0.004-7.232,3.25-7.234,7.273
		c-0.003,4.045,3.235,7.306,7.251,7.306c3.985-0.001,7.212-3.271,7.206-7.301C-204.21-224.894-207.432-228.135-211.429-228.135"/>
</g>
</svg>
