<?xml version="1.0" encoding="utf-8"?>
<!-- Generator: Adobe Illustrator 16.0.4, SVG Export Plug-In . SVG Version: 6.00 Build 0)  -->
<!DOCTYPE svg PUBLIC "-//W3C//DTD SVG 1.1//EN" "http://www.w3.org/Graphics/SVG/1.1/DTD/svg11.dtd">
<svg version="1.1" id="Layer_1" xmlns="http://www.w3.org/2000/svg" xmlns:xlink="http://www.w3.org/1999/xlink" x="0px" y="0px"
	 width="82.648px" height="82.648px" viewBox="0 0 82.648 82.648" enable-background="new 0 0 82.648 82.648" xml:space="preserve">
<g>
	<path fill-rule="evenodd" clip-rule="evenodd" fill="#3688C8" d="M63.685,34.489c-2.095-0.414-4.248-0.263-6.374-0.517
		c-0.008,0.096-0.017-0.092-0.022,0.005c-1.144,0-2.298-0.092-3.433,0.021c-1.491,0.15-2.991,0.359-4.44,0.73
		c-1.498,0.381-2.502,1.454-2.682,3.008c-0.17,1.466-0.233,2.969-0.108,4.436c0.296,3.463,2.433,5.846,5.831,6.563
		c3.146,0.665,6.284,0.473,9.333-0.539c2.468-0.82,4.146-2.506,4.572-5.117c0.26-1.576,0.24-3.202,0.262-4.808
		C66.651,36.1,65.82,34.911,63.685,34.489z"/>
	<path fill-rule="evenodd" clip-rule="evenodd" fill="#3688C8" d="M41.182,0.287C18.438,0.287,0,18.725,0,41.469
		c0,22.742,18.438,41.18,41.182,41.18c22.744,0,41.181-18.438,41.181-41.18C82.362,18.725,63.926,0.287,41.182,0.287z
		 M70.701,37.118c-0.94,0.566-0.949,1.604-1.041,2.568c-0.147,1.556-0.151,3.141-0.467,4.662c-0.683,3.289-2.817,5.37-5.921,6.501
		c-2.684,0.979-5.485,1.159-8.311,1.135c-1.799-0.017-3.568-0.215-5.275-0.808c-3.45-1.198-5.35-3.699-5.937-7.234
		c-0.235-1.422-0.306-2.87-0.52-4.297c-0.082-0.565-0.275-1.142-0.545-1.644c-0.679-1.269-2.42-1.304-2.985,0.008
		c-0.451,1.045-0.7,2.223-0.801,3.36c-0.155,1.792-0.325,3.562-1.065,5.22c-1.123,2.495-3.094,4-5.674,4.75
		c-2.971,0.862-6.002,0.76-9.031,0.431c-2.108-0.229-4.146-0.742-5.99-1.852c-2.448-1.469-3.771-3.688-4.168-6.449
		c-0.221-1.525-0.235-3.081-0.373-4.619c-0.078-0.897-0.525-1.535-1.319-2.024c-0.432-0.265-0.671-0.839-0.997-1.273
		c0-0.483,0-0.966,0-1.449c0.514-1.412,1.729-1.796,3.025-2.027c4.06-0.729,8.157-1.125,12.282-1.15
		c2.886-0.019,5.721,0.426,8.549,0.955c1.913,0.359,3.821,0.746,5.751,0.995c2.182,0.283,4.314-0.228,6.447-0.63
		c3.234-0.609,6.464-1.321,9.776-1.29c2.347,0.021,4.7,0.117,7.039,0.332c2.174,0.199,4.335,0.57,6.491,0.925
		c1.12,0.186,2.024,0.747,2.438,1.891c0,0.483,0,0.966,0,1.449C71.813,36.246,71.352,36.725,70.701,37.118z"/>
	<path fill-rule="evenodd" clip-rule="evenodd" fill="#3688C8" d="M32.148,34.489c-2.305-0.403-4.675-0.362-7.009-0.606
		c-0.543,0-1.086-0.022-1.627,0.003c-1.745,0.085-3.495,0.136-5.185,0.669c-1.503,0.475-2.493,1.403-2.535,3.053
		c-0.038,1.524-0.07,3.061,0.058,4.576c0.243,2.861,1.724,4.916,4.438,5.903c3.228,1.172,6.57,1.357,9.908,0.58
		c2.901-0.677,4.701-2.564,5.382-5.483c0.344-1.485,0.365-2.984,0.224-4.495C35.575,36.249,34.553,34.91,32.148,34.489z"/>
</g>
</svg>
