<?xml version="1.0" encoding="utf-8"?>
<!-- Generator: Adobe Illustrator 16.0.4, SVG Export Plug-In . SVG Version: 6.00 Build 0)  -->
<!DOCTYPE svg PUBLIC "-//W3C//DTD SVG 1.1//EN" "http://www.w3.org/Graphics/SVG/1.1/DTD/svg11.dtd">
<svg version="1.1" id="Layer_1" xmlns="http://www.w3.org/2000/svg" xmlns:xlink="http://www.w3.org/1999/xlink" x="0px" y="0px"
	 width="83.214px" height="82.705px" viewBox="0 0 83.214 82.705" enable-background="new 0 0 83.214 82.705" xml:space="preserve">
<path fill-rule="evenodd" clip-rule="evenodd" fill="#FFFFFF" d="M41.863,0C19.025,0,0.512,18.515,0.512,41.352
	c0,22.838,18.514,41.353,41.352,41.353S83.214,64.19,83.214,41.352C83.214,18.515,64.701,0,41.863,0z M33.48,38.049v-2.69v-3.258
	v-2.69v-2.459h0.002c0.049-4.124,3.782-7.455,8.381-7.455c4.6,0,8.331,3.332,8.377,7.455h0.005v17.014h-0.024
	c-0.323,3.897-3.939,6.968-8.357,6.968s-8.035-3.071-8.355-6.968H33.48V38.049z M51.334,63.208H32.287v-3.159h8.174v-3.02h2.803
	v3.02h8.07V63.208z M54.67,44.346h-0.02h-0.021c-0.268,9.373-7.104,11.049-12.748,11.049h-0.037
	c-5.644,0-12.478-1.676-12.746-11.049h-0.021h-0.021V30.855h0.007c0.03-0.53,0.467-0.952,1.009-0.952
	c0.539,0,0.978,0.422,1.004,0.952h0.011v8.042l0.018,3.308h0.016c0,6.887,2.912,10.853,10.725,10.853h0.037
	c7.816,0,10.727-3.966,10.727-10.853h0.018l0.016-3.308v-7.918c-0.002-0.021-0.009-0.042-0.009-0.063
	c0-0.559,0.454-1.013,1.015-1.013c0.539,0,0.978,0.422,1.008,0.952h0.016V44.346z"/>
</svg>
