<?xml version="1.0" encoding="utf-8"?>
<!-- Generator: Adobe Illustrator 16.0.4, SVG Export Plug-In . SVG Version: 6.00 Build 0)  -->
<!DOCTYPE svg PUBLIC "-//W3C//DTD SVG 1.1//EN" "http://www.w3.org/Graphics/SVG/1.1/DTD/svg11.dtd">
<svg version="1.1" id="Layer_1" xmlns="http://www.w3.org/2000/svg" xmlns:xlink="http://www.w3.org/1999/xlink" x="0px" y="0px"
	 width="82.648px" height="82.648px" viewBox="0 0 82.648 82.648" enable-background="new 0 0 82.648 82.648" xml:space="preserve">
<path fill-rule="evenodd" clip-rule="evenodd" fill="#FFFFFF" d="M41.323,0C18.501,0,0,18.502,0,41.324s18.501,41.324,41.323,41.324
	c22.824,0,41.325-18.502,41.325-41.324S64.147,0,41.323,0z M57.906,62.758c-2.339,0-4.625,0-6.913,0
	c-6.552,0-13.108,0.049-19.658-0.018c-4.675-0.049-7.287-2.701-7.301-7.32c-0.021-9.982-0.016-19.963,0-29.941
	c0.006-3.836,1.225-5.068,5.041-5.078c7.854-0.02,15.71-0.006,23.794-0.006c0,10.377,0,20.584,0,31.193
	c-5.081,0-10.099-0.002-15.118,0.004c-2.316,0-4.639-0.084-6.951,0.043c-2.998,0.16-4.37,1.604-4.329,4.289
	c0.042,2.686,1.641,4.324,4.669,4.383c5.241,0.102,10.482,0.035,15.729,0.035c3.005,0,6.012,0,9.402,0
	c0-10.715-0.015-20.99,0.028-31.264c0.002-0.904,0.391-1.809,0.601-2.713c0.338,0.07,0.672,0.139,1.007,0.207
	C57.906,38.514,57.906,50.455,57.906,62.758z"/>
</svg>
