<?xml version="1.0" encoding="utf-8"?>
<!-- Generator: Adobe Illustrator 16.0.4, SVG Export Plug-In . SVG Version: 6.00 Build 0)  -->
<!DOCTYPE svg PUBLIC "-//W3C//DTD SVG 1.1//EN" "http://www.w3.org/Graphics/SVG/1.1/DTD/svg11.dtd">
<svg version="1.1" id="Layer_1" xmlns="http://www.w3.org/2000/svg" xmlns:xlink="http://www.w3.org/1999/xlink" x="0px" y="0px"
	 width="82.229px" height="82.23px" viewBox="0 0 82.229 82.23" enable-background="new 0 0 82.229 82.23" xml:space="preserve">
<path fill="#656665" d="M41.115,0.001C18.408,0.001,0,18.408,0,41.115S18.408,82.23,41.115,82.23
	c22.705,0,41.113-18.408,41.113-41.115S63.82,0.001,41.115,0.001z M62.4,31.196c-0.693,0.601-0.943,1.111-0.922,1.941
	c0.129,4.605-1.032,8.932-3.033,13.025c-2.766,5.658-6.914,10.067-12.562,12.897c-3.341,1.676-6.927,2.523-10.703,2.881
	c-4.19,0.394-8.177-0.203-12.08-1.492c-2.122-0.702-4.111-1.812-6.12-2.944c5.335,0.355,10.059-1.099,14.554-4.099
	c-4.781-0.582-8.312-4.014-8.954-7.293c1.143,0,2.265,0,3.385,0c-2.036-1.097-3.889-2.242-5.174-4.188
	c-1.234-1.869-1.955-3.835-1.805-6.151c1.205,0.44,2.288,0.835,3.369,1.229c-2.231-2.616-3.58-5.461-3.343-8.812
	c0.113-1.602,0.768-3.166,1.177-4.748c5.872,6.389,12.612,9.956,21.02,10.676c-0.794-3.473,0.203-6.337,2.217-8.919
	c1.467-1.881,3.504-2.838,5.763-3.342c3.454-0.772,6.401,0.344,9.12,2.445c0.407,0.312,1.258,0.313,1.797,0.138
	c1.66-0.546,3.27-1.251,4.996-1.933c-0.283,2.141-1.731,3.541-3.1,5.25c1.467-0.416,2.934-0.832,4.401-1.247
	c0.097,0.081,0.193,0.162,0.29,0.243C65.275,28.251,63.948,29.852,62.4,31.196z"/>
</svg>
