<?xml version="1.0" encoding="utf-8"?>
<!-- Generator: Adobe Illustrator 16.0.4, SVG Export Plug-In . SVG Version: 6.00 Build 0)  -->
<!DOCTYPE svg PUBLIC "-//W3C//DTD SVG 1.1//EN" "http://www.w3.org/Graphics/SVG/1.1/DTD/svg11.dtd">
<svg version="1.1" id="Layer_1" xmlns="http://www.w3.org/2000/svg" xmlns:xlink="http://www.w3.org/1999/xlink" x="0px" y="0px"
	 width="82.344px" height="82.344px" viewBox="0 0 82.344 82.344" enable-background="new 0 0 82.344 82.344" xml:space="preserve">
<g>
	<path fill-rule="evenodd" clip-rule="evenodd" fill="#FFFFFF" d="M41.173,27.135c-7.782,0-14.093,6.31-14.093,14.092
		s6.311,14.09,14.093,14.09s14.091-6.308,14.091-14.09S48.955,27.135,41.173,27.135z M41.173,47.578
		c-3.508,0-6.353-2.845-6.353-6.352c0-3.509,2.845-6.354,6.353-6.354c3.506,0,6.351,2.845,6.351,6.354
		C47.523,44.733,44.679,47.578,41.173,47.578z"/>
	<path fill-rule="evenodd" clip-rule="evenodd" fill="#FFFFFF" d="M41.173,0C18.432,0,0,18.433,0,41.173
		C0,63.91,18.432,82.344,41.173,82.344c22.737,0,41.171-18.434,41.171-41.171C82.344,18.433,63.91,0,41.173,0z M41.173,57.715
		c-19.478-0.084-28.142-16.488-28.142-16.488s8.244-16.321,28.352-16.49c20.105-0.167,27.931,16.49,27.931,16.49
		S60.647,57.8,41.173,57.715z"/>
</g>
</svg>
