<svg xmlns="http://www.w3.org/2000/svg" width="429.685" height="167.632" viewBox="0 0 429.685 167.632"><g fill="#fff"><path d="M2.925 1.96h23.078l32.765 53.556h.218V1.96h16.98v77.068H53.762L20.126 24.166h-.218V79.03H2.925V1.96zM86.198 1.96h28.738c3.337 0 6.695.235 10.07.707 3.374.473 6.403 1.415 9.088 2.83 2.684 1.415 4.86 3.394 6.53 5.933 1.67 2.54 2.504 5.916 2.504 10.124 0 4.354-1.216 7.965-3.646 10.83-2.432 2.87-5.644 4.918-9.634 6.15v.22c2.54.363 4.844 1.07 6.913 2.122 2.07 1.053 3.847 2.395 5.335 4.028 1.486 1.633 2.63 3.538 3.43 5.715.797 2.176 1.196 4.5 1.196 6.966 0 4.065-.87 7.456-2.61 10.178s-3.993 4.917-6.75 6.586c-2.76 1.67-5.86 2.867-9.307 3.592-3.448.727-6.876 1.09-10.287 1.09H86.198V1.958zm16.98 30.806h12.302c1.306 0 2.594-.145 3.864-.436 1.27-.29 2.412-.762 3.43-1.415 1.014-.653 1.83-1.524 2.448-2.613.616-1.088.925-2.395.925-3.918 0-1.596-.346-2.92-1.034-3.974-.69-1.05-1.58-1.867-2.667-2.45-1.09-.58-2.324-.996-3.7-1.25-1.38-.253-2.722-.38-4.03-.38H103.18v16.436zm0 31.894h15.24c1.307 0 2.63-.145 3.974-.436 1.342-.29 2.558-.797 3.647-1.523 1.087-.724 1.975-1.667 2.666-2.83.69-1.16 1.034-2.575 1.034-4.245 0-1.813-.454-3.283-1.36-4.41-.908-1.123-2.05-1.976-3.43-2.557-1.378-.58-2.867-.98-4.462-1.197-1.597-.217-3.085-.326-4.463-.326H103.18V64.66zM174.37 16.98h-21.988V1.96h60.958v15.02h-21.99V79.03h-16.98V16.98zM275.06 21.99c-1.67-2.032-3.72-3.593-6.15-4.682-2.432-1.09-5.244-1.633-8.436-1.633-3.194 0-6.15.617-8.872 1.85-2.722 1.236-5.08 2.96-7.076 5.17-1.997 2.215-3.557 4.845-4.68 7.893-1.127 3.048-1.69 6.35-1.69 9.906 0 3.63.563 6.95 1.69 9.96 1.123 3.012 2.666 5.625 4.625 7.837 1.96 2.215 4.263 3.94 6.913 5.17 2.648 1.236 5.497 1.852 8.545 1.852 3.483 0 6.567-.725 9.253-2.177 2.685-1.45 4.9-3.483 6.64-6.096l14.152 10.558c-3.266 4.572-7.402 7.946-12.41 10.123-5.006 2.18-10.16 3.267-15.457 3.267-6.024 0-11.576-.943-16.655-2.83-5.08-1.886-9.47-4.59-13.17-8.11-3.702-3.52-6.587-7.782-8.655-12.79-2.068-5.007-3.102-10.595-3.102-16.764 0-6.167 1.034-11.756 3.102-16.764 2.068-5.008 4.953-9.27 8.654-12.792 3.7-3.52 8.09-6.222 13.17-8.11C250.53.944 256.082 0 262.106 0c2.177 0 4.444.2 6.803.6 2.356.4 4.68 1.033 6.966 1.904 2.286.87 4.48 2.032 6.586 3.483 2.104 1.452 3.99 3.23 5.66 5.333L275.06 21.99z"/></g><g fill="#3486C7"><path d="M13.754 135.226v17.378H8.466v-17.378H2.282v-4.516H19.94v4.516h-6.186zM21.577 152.604V130.71h14.72v4.453h-9.618v4.144h9.09v4.237h-9.09v4.545h10.173v4.514H21.577zM55.25 152.217c-1.42.65-3.06.974-4.916.974-1.69 0-3.252-.276-4.685-.833-1.434-.557-2.676-1.346-3.727-2.365-1.05-1.02-1.876-2.242-2.474-3.665-.6-1.423-.898-2.99-.898-4.7 0-1.752.304-3.34.912-4.762.608-1.423 1.448-2.633 2.52-3.634 1.072-.998 2.33-1.766 3.773-2.303 1.443-.535 3-.804 4.67-.804 1.545 0 3.065.273 4.56.82 1.494.546 2.706 1.345 3.633 2.395l-3.587 3.587c-.495-.68-1.145-1.185-1.948-1.515-.804-.33-1.63-.495-2.474-.495-.927 0-1.777.17-2.55.51-.773.34-1.438.81-1.995 1.407s-.99 1.305-1.3 2.118c-.308.815-.463 1.706-.463 2.675 0 .99.155 1.896.464 2.72.31.826.737 1.532 1.283 2.12.545.587 1.2 1.046 1.963 1.375.762.33 1.597.496 2.505.496 1.05 0 1.968-.207 2.752-.62.783-.41 1.412-.946 1.886-1.606l3.68 3.463c-.967 1.114-2.162 1.995-3.585 2.644zM74.145 152.604v-9.153H65.61v9.154h-5.288V130.71h5.288v8.287h8.535v-8.287h5.288v21.894h-5.288zM97.09 152.604l-8.814-14.317h-.093l.124 14.317h-5.133V130.71h6.03l8.782 14.287h.093l-.125-14.287h5.133v21.894h-6zM129.65 141.565c0 1.73-.3 3.313-.897 4.747-.598 1.432-1.428 2.658-2.49 3.68-1.06 1.02-2.323 1.81-3.787 2.365-1.464.557-3.05.834-4.762.834-1.71 0-3.293-.276-4.747-.833-1.454-.557-2.71-1.346-3.772-2.365-1.062-1.02-1.892-2.248-2.49-3.68-.597-1.434-.896-3.016-.896-4.747 0-1.752.298-3.335.896-4.747.598-1.412 1.427-2.613 2.49-3.602 1.06-.99 2.318-1.752 3.77-2.29 1.454-.534 3.036-.803 4.748-.803 1.71 0 3.298.27 4.762.804 1.463.537 2.726 1.3 3.788 2.29 1.062.987 1.89 2.188 2.49 3.6.597 1.413.896 2.996.896 4.748zm-5.658 0c0-.948-.155-1.835-.464-2.66-.31-.823-.737-1.53-1.283-2.118-.547-.587-1.206-1.05-1.98-1.39-.772-.34-1.623-.512-2.55-.512s-1.773.17-2.536.51c-.764.34-1.423.805-1.98 1.392-.557.588-.985 1.295-1.283 2.12-.3.823-.45 1.71-.45 2.658 0 .99.156 1.9.465 2.736.31.836.737 1.553 1.283 2.15s1.2 1.066 1.964 1.406c.76.34 1.607.51 2.535.51s1.772-.17 2.536-.51c.763-.34 1.423-.81 1.98-1.406s.99-1.314 1.3-2.15c.307-.834.462-1.746.462-2.735zM132.37 152.604V130.71h5.32v17.286h8.473v4.607H132.37zM170.684 141.565c0 1.73-.3 3.313-.897 4.747-.598 1.432-1.428 2.658-2.49 3.68-1.06 1.02-2.323 1.81-3.787 2.365-1.464.557-3.05.834-4.762.834-1.71 0-3.293-.276-4.747-.833-1.453-.557-2.71-1.346-3.77-2.365-1.063-1.02-1.893-2.248-2.49-3.68-.598-1.434-.897-3.016-.897-4.747 0-1.752.3-3.335.897-4.747.598-1.412 1.427-2.613 2.49-3.602 1.06-.99 2.318-1.752 3.77-2.29 1.454-.534 3.036-.803 4.748-.803 1.71 0 3.298.27 4.762.804 1.463.537 2.726 1.3 3.788 2.29 1.062.987 1.89 2.188 2.49 3.6.596 1.413.896 2.996.896 4.748zm-5.66 0c0-.948-.154-1.835-.463-2.66-.31-.823-.736-1.53-1.282-2.118-.547-.587-1.206-1.05-1.98-1.39-.772-.34-1.623-.512-2.55-.512s-1.773.17-2.536.51c-.763.34-1.422.805-1.98 1.392-.556.588-.984 1.295-1.282 2.12-.3.823-.45 1.71-.45 2.658 0 .99.156 1.9.465 2.736.31.836.737 1.553 1.283 2.15s1.2 1.066 1.964 1.406c.762.34 1.608.51 2.536.51s1.772-.17 2.536-.51c.762-.34 1.422-.81 1.98-1.406s.988-1.314 1.298-2.15c.308-.834.463-1.746.463-2.735zM189.098 152.634c-1.433.352-2.995.526-4.685.526-1.752 0-3.366-.278-4.84-.835-1.473-.557-2.74-1.34-3.802-2.35-1.06-1.01-1.89-2.222-2.488-3.634-.598-1.41-.897-2.982-.897-4.715 0-1.752.304-3.34.912-4.762.608-1.423 1.448-2.633 2.52-3.634 1.072-1 2.33-1.768 3.773-2.305 1.443-.535 3-.804 4.67-.804 1.73 0 3.338.264 4.823.79s2.69 1.23 3.618 2.118l-3.338 3.803c-.516-.597-1.196-1.086-2.04-1.468-.847-.38-1.805-.572-2.876-.572-.928 0-1.784.17-2.567.51-.785.34-1.465.815-2.042 1.424-.577.607-1.025 1.33-1.345 2.164-.32.834-.48 1.747-.48 2.736 0 1.01.145 1.938.434 2.783.288.846.716 1.572 1.283 2.18.567.608 1.268 1.082 2.103 1.423.835.34 1.788.51 2.86.51.62 0 1.206-.046 1.763-.14s1.072-.24 1.546-.447v-3.99h-4.174v-4.267h9.03v11.597c-1.075.56-2.328 1.012-3.76 1.36zM207.048 143.328v9.276h-5.288v-9.276l-8.226-12.617h6.4l4.67 8.103 4.67-8.102h6.184l-8.41 12.618zM238.96 152.217c-1.422.65-3.062.974-4.917.974-1.69 0-3.252-.276-4.685-.833-1.433-.557-2.675-1.346-3.726-2.365-1.05-1.02-1.876-2.242-2.474-3.665-.598-1.423-.897-2.99-.897-4.7 0-1.752.305-3.34.913-4.762.608-1.423 1.448-2.633 2.52-3.634 1.072-.998 2.33-1.766 3.773-2.303 1.443-.535 3-.804 4.67-.804 1.545 0 3.065.273 4.56.82 1.494.546 2.706 1.345 3.633 2.395l-3.588 3.587c-.495-.68-1.145-1.185-1.948-1.515-.804-.33-1.63-.495-2.474-.495-.928 0-1.778.17-2.55.51-.774.34-1.44.81-1.996 1.407s-.99 1.305-1.3 2.118c-.308.815-.463 1.706-.463 2.675 0 .99.156 1.896.465 2.72.31.826.737 1.532 1.283 2.12.546.587 1.2 1.046 1.964 1.375.762.33 1.597.496 2.505.496 1.05 0 1.968-.207 2.752-.62.782-.41 1.41-.946 1.885-1.606l3.68 3.463c-.967 1.114-2.163 1.995-3.585 2.644zM266.852 141.565c0 1.73-.3 3.313-.897 4.747-.598 1.432-1.428 2.658-2.49 3.68-1.06 1.02-2.323 1.81-3.787 2.365-1.464.557-3.05.834-4.762.834-1.71 0-3.293-.276-4.747-.833-1.455-.557-2.712-1.346-3.773-2.365-1.062-1.02-1.892-2.248-2.49-3.68-.597-1.434-.896-3.016-.896-4.747 0-1.752.3-3.335.898-4.747.598-1.412 1.427-2.613 2.49-3.602 1.06-.99 2.318-1.752 3.77-2.29 1.454-.534 3.036-.803 4.748-.803 1.71 0 3.298.27 4.762.804 1.463.537 2.726 1.3 3.788 2.29 1.062.987 1.89 2.188 2.49 3.6.597 1.413.896 2.996.896 4.748zm-5.66 0c0-.948-.154-1.835-.463-2.66-.31-.823-.738-1.53-1.284-2.118-.547-.587-1.206-1.05-1.98-1.39-.772-.34-1.623-.512-2.55-.512s-1.773.17-2.536.51c-.763.34-1.422.805-1.98 1.392-.556.588-.984 1.295-1.282 2.12-.3.823-.45 1.71-.45 2.658 0 .99.156 1.9.465 2.736.31.836.737 1.553 1.283 2.15s1.2 1.066 1.964 1.406c.762.34 1.608.51 2.536.51s1.772-.17 2.536-.51c.762-.34 1.422-.81 1.98-1.406s.988-1.314 1.298-2.15c.31-.834.463-1.746.463-2.735zM283.488 152.604l-8.813-14.317h-.093l.124 14.317h-5.133V130.71h6.03l8.782 14.287h.093l-.124-14.287h5.133v21.894h-6zM298.455 135.226v4.514h8.473v4.36h-8.473v8.504h-5.226V130.71h14.41v4.516h-9.185zM310.266 152.604V130.71h14.72v4.453h-9.618v4.144h9.09v4.237h-9.09v4.545h10.174v4.514h-15.276zM339.982 152.604l-4.753-8.688h-1.803v8.688h-5.164V130.71h8.35c1.05 0 2.076.11 3.076.325 1 .216 1.895.583 2.69 1.098.792.516 1.426 1.196 1.9 2.04.474.847.71 1.898.71 3.154 0 1.484-.4 2.732-1.205 3.742-.804 1.01-1.917 1.73-3.34 2.163l5.722 9.37h-6.185zm-.216-15.183c0-.515-.11-.932-.326-1.25-.218-.32-.498-.568-.84-.743-.34-.176-.725-.295-1.15-.356-.424-.06-.833-.092-1.227-.092h-2.827v5.103h2.517c.435 0 .88-.035 1.336-.107.455-.072.87-.2 1.242-.387s.678-.453.917-.804.356-.804.356-1.36zM347.99 152.604V130.71h14.72v4.453h-9.617v4.144h9.09v4.237h-9.09v4.545h10.174v4.514H347.99zM379.903 152.604l-8.813-14.317h-.093l.124 14.317h-5.132V130.71h6.03l8.782 14.287h.093l-.124-14.287h5.132v21.894h-6zM405.32 152.217c-1.42.65-3.06.974-4.916.974-1.69 0-3.252-.276-4.685-.833-1.434-.557-2.676-1.346-3.727-2.365-1.05-1.02-1.876-2.242-2.474-3.665-.6-1.423-.898-2.99-.898-4.7 0-1.752.304-3.34.912-4.762.608-1.423 1.448-2.633 2.52-3.634 1.072-.998 2.33-1.766 3.773-2.303 1.443-.535 3-.804 4.67-.804 1.545 0 3.065.273 4.56.82 1.494.546 2.706 1.345 3.633 2.395l-3.587 3.587c-.495-.68-1.145-1.185-1.948-1.515-.804-.33-1.63-.495-2.474-.495-.927 0-1.777.17-2.55.51-.773.34-1.438.81-1.995 1.407s-.99 1.305-1.3 2.118c-.308.815-.463 1.706-.463 2.675 0 .99.155 1.896.464 2.72.31.826.737 1.532 1.283 2.12.545.587 1.2 1.046 1.963 1.375.762.33 1.597.496 2.505.496 1.05 0 1.968-.207 2.752-.62.783-.41 1.412-.946 1.886-1.606l3.68 3.463c-.968 1.114-2.163 1.995-3.585 2.644zM410.392 152.604V130.71h14.72v4.453h-9.618v4.144h9.09v4.237h-9.09v4.545h10.174v4.514h-15.276z"/></g><g fill="#3486C7"><path d="M17.263 118.945l-9.407-15.282h-.1l.133 15.282H2.41v-23.37h6.437l9.374 15.25h.1l-.132-15.25h5.48v23.37h-6.405zM44.33 118.945l-1.816-4.588H33.47l-1.716 4.588h-6.14l9.804-23.37h5.48l9.703 23.37h-6.27zm-6.273-17.13l-2.97 8.02h5.875l-2.905-8.02zM61.228 100.394v18.55h-5.644v-18.55h-6.602v-4.818H67.83v4.818h-6.602zM71.064 118.945v-23.37h5.677v23.37h-5.676zM105.26 107.162c0 1.848-.32 3.537-.957 5.066-.64 1.53-1.524 2.838-2.657 3.928-1.134 1.09-2.48 1.93-4.043 2.525-1.562.595-3.257.892-5.083.892-1.827 0-3.516-.297-5.067-.89-1.55-.596-2.894-1.437-4.027-2.526-1.134-1.09-2.02-2.398-2.657-3.928s-.958-3.22-.958-5.066c0-1.87.32-3.56.957-5.066.637-1.508 1.522-2.79 2.656-3.846 1.133-1.057 2.476-1.87 4.027-2.443 1.55-.57 3.24-.857 5.067-.857 1.826 0 3.52.286 5.083.857 1.562.572 2.91 1.387 4.043 2.443 1.133 1.057 2.02 2.338 2.657 3.846.637 1.506.957 3.195.957 5.066zm-6.04 0c0-1.012-.166-1.96-.496-2.84s-.787-1.633-1.37-2.26c-.583-.627-1.287-1.123-2.112-1.486s-1.733-.544-2.723-.544-1.894.18-2.708.544c-.814.363-1.52.86-2.113 1.486s-1.052 1.38-1.37 2.26c-.32.88-.48 1.828-.48 2.84 0 1.056.165 2.03.495 2.92s.786 1.656 1.37 2.295c.583.64 1.282 1.14 2.096 1.502.814.362 1.717.544 2.708.544s1.892-.182 2.707-.545c.814-.364 1.518-.864 2.112-1.503s1.056-1.402 1.386-2.294.496-1.866.496-2.92zM123.842 118.945l-9.407-15.282h-.1l.133 15.282h-5.48v-23.37h6.438l9.374 15.25h.1l-.133-15.25h5.48v23.37h-6.405zM150.908 118.945l-1.815-4.588h-9.044l-1.717 4.588h-6.14l9.804-23.37h5.48l9.703 23.37h-6.272zm-6.27-17.13l-2.97 8.02h5.874l-2.905-8.02zM159.127 118.945v-23.37h5.677v18.452h9.044v4.918h-14.72zM204.28 112.146c0 1.275-.253 2.35-.76 3.217-.506.87-1.177 1.568-2.013 2.097-.836.528-1.788.907-2.855 1.14-1.068.23-2.162.346-3.284.346h-9.308v-23.37h9.308c.902 0 1.826.094 2.772.28.946.188 1.804.507 2.575.958.77.45 1.397 1.062 1.88 1.832.485.77.727 1.748.727 2.938 0 1.298-.352 2.37-1.056 3.218-.705.847-1.63 1.458-2.772 1.832v.065c.66.11 1.28.313 1.865.61.582.297 1.088.676 1.517 1.14.43.46.77 1 1.023 1.616.254.616.38 1.31.38 2.08zm-6.403-9.804c0-.792-.303-1.37-.908-1.733-.606-.364-1.503-.546-2.69-.546h-2.773v4.82h3.037c1.056 0 1.875-.215 2.46-.645.58-.43.873-1.06.873-1.898zm.76 9.275c0-.968-.364-1.64-1.09-2.014-.726-.373-1.695-.56-2.904-.56h-3.136v5.347h3.168c.44 0 .896-.04 1.37-.115.473-.078.902-.215 1.288-.413.385-.198.698-.48.94-.842s.363-.83.363-1.403zM227.105 113.977c-.474 1.155-1.15 2.146-2.03 2.97-.88.826-1.942 1.47-3.185 1.932-1.243.462-2.624.692-4.143.692-1.54 0-2.927-.23-4.16-.693-1.23-.463-2.276-1.106-3.135-1.932s-1.518-1.815-1.98-2.97c-.462-1.156-.693-2.438-.693-3.846V95.576h5.61v14.094c0 .64.083 1.244.248 1.816s.418 1.084.76 1.534c.34.45.79.81 1.353 1.073.562.264 1.24.396 2.03.396s1.47-.133 2.03-.397c.563-.265 1.02-.622 1.37-1.073.353-.45.606-.962.76-1.534.153-.572.23-1.178.23-1.816V95.576h5.645v14.557c0 1.408-.237 2.69-.71 3.844zM244.714 101.65c-.484-.617-1.117-1.107-1.898-1.47-.78-.363-1.535-.544-2.26-.544-.376 0-.755.032-1.14.098-.385.066-.732.193-1.04.38-.31.188-.567.43-.776.727-.21.298-.313.678-.313 1.14 0 .396.083.726.248.99s.407.495.726.693c.32.198.7.38 1.14.544.44.166.935.336 1.485.512.792.264 1.618.556 2.476.874.86.32 1.64.742 2.345 1.27.704.528 1.287 1.184 1.75 1.964.462.78.693 1.756.693 2.922 0 1.342-.248 2.503-.743 3.482-.495.98-1.16 1.787-1.997 2.426s-1.793 1.11-2.872 1.42-2.19.46-3.333.46c-1.673 0-3.29-.29-4.852-.874-1.562-.582-2.86-1.413-3.894-2.49l3.697-3.764c.572.704 1.326 1.293 2.26 1.766.936.474 1.866.71 2.79.71.417 0 .825-.044 1.22-.132s.744-.23 1.04-.43c.298-.197.534-.462.71-.792.177-.33.265-.726.265-1.188 0-.44-.11-.814-.33-1.122-.22-.308-.534-.59-.94-.842-.408-.253-.914-.483-1.52-.693-.604-.208-1.292-.435-2.062-.677-.748-.242-1.48-.527-2.195-.857-.714-.33-1.353-.754-1.914-1.27-.56-.518-1.012-1.145-1.353-1.882-.34-.736-.512-1.634-.512-2.69 0-1.297.265-2.408.793-3.332.528-.925 1.222-1.684 2.08-2.278.858-.595 1.826-1.028 2.905-1.304 1.078-.275 2.167-.412 3.268-.412 1.32 0 2.668.242 4.043.726 1.374.484 2.58 1.2 3.613 2.146l-3.6 3.793zM251.876 118.945v-23.37h5.677v23.37h-5.677zM277.226 118.945l-9.407-15.282h-.1l.132 15.282h-5.48v-23.37h6.438l9.374 15.25h.1l-.133-15.25h5.48v23.37h-6.404zM288.448 118.945v-23.37h15.71v4.754h-10.264v4.422h9.704v4.52h-9.704v4.855h10.86v4.818h-16.306zM320.828 101.65c-.484-.617-1.117-1.107-1.898-1.47-.78-.363-1.535-.544-2.26-.544-.376 0-.755.032-1.14.098-.385.066-.732.193-1.04.38-.31.188-.567.43-.776.727-.21.298-.313.678-.313 1.14 0 .396.084.726.25.99s.406.495.725.693c.32.198.698.38 1.14.544.44.166.934.336 1.484.512.79.264 1.617.556 2.475.874.858.32 1.64.742 2.344 1.27.703.528 1.286 1.184 1.75 1.964.46.78.692 1.756.692 2.922 0 1.342-.248 2.503-.743 3.482-.496.98-1.162 1.787-1.998 2.426s-1.793 1.11-2.872 1.42-2.19.46-3.333.46c-1.673 0-3.29-.29-4.852-.874-1.563-.582-2.86-1.413-3.895-2.49l3.697-3.764c.572.704 1.326 1.293 2.26 1.766.936.474 1.866.71 2.79.71.417 0 .825-.044 1.22-.132s.744-.23 1.04-.43c.298-.197.534-.462.71-.792.177-.33.265-.726.265-1.188 0-.44-.11-.814-.33-1.122-.22-.308-.534-.59-.94-.842-.408-.253-.914-.483-1.52-.693-.604-.208-1.292-.435-2.062-.677-.748-.242-1.48-.527-2.195-.857-.715-.33-1.354-.754-1.915-1.27-.56-.518-1.012-1.145-1.353-1.882-.34-.736-.512-1.634-.512-2.69 0-1.297.264-2.408.792-3.332.528-.925 1.222-1.684 2.08-2.278.858-.595 1.826-1.028 2.905-1.304 1.078-.275 2.167-.412 3.268-.412 1.32 0 2.668.242 4.043.726s2.58 1.2 3.614 2.146l-3.6 3.793zM340.335 101.65c-.484-.617-1.117-1.107-1.898-1.47-.78-.363-1.535-.544-2.26-.544-.376 0-.755.032-1.14.098-.385.066-.732.193-1.04.38-.31.188-.567.43-.776.727-.208.298-.312.678-.312 1.14 0 .396.083.726.248.99s.407.495.726.693c.32.198.698.38 1.14.544.44.166.934.336 1.484.512.792.264 1.618.556 2.476.874.858.32 1.64.742 2.344 1.27s1.287 1.184 1.75 1.964c.462.78.693 1.756.693 2.922 0 1.342-.25 2.503-.744 3.482-.495.98-1.16 1.787-1.997 2.426s-1.794 1.11-2.873 1.42-2.19.46-3.333.46c-1.673 0-3.29-.29-4.852-.874-1.563-.582-2.86-1.413-3.895-2.49l3.697-3.764c.572.704 1.326 1.293 2.26 1.766.936.474 1.866.71 2.79.71.417 0 .825-.044 1.22-.132s.744-.23 1.04-.43c.298-.197.534-.462.71-.792.177-.33.265-.726.265-1.188 0-.44-.11-.814-.33-1.122-.22-.308-.535-.59-.94-.842-.41-.253-.915-.483-1.52-.693-.605-.208-1.293-.435-2.063-.677-.748-.242-1.48-.527-2.195-.857-.715-.33-1.354-.754-1.915-1.27-.56-.518-1.012-1.145-1.353-1.882-.34-.736-.512-1.634-.512-2.69 0-1.297.264-2.408.792-3.332.528-.925 1.222-1.684 2.08-2.278.858-.595 1.826-1.028 2.905-1.304 1.077-.275 2.166-.412 3.267-.412 1.32 0 2.668.242 4.043.726s2.58 1.2 3.614 2.146l-3.6 3.793zM371.592 118.945l-1.815-4.588h-9.044l-1.716 4.588h-6.14l9.804-23.37h5.48l9.704 23.37h-6.272zm-6.27-17.13l-2.97 8.02h5.874l-2.905-8.02zM394.664 118.945l-9.407-15.282h-.1l.133 15.282h-5.48v-23.37h6.438l9.374 15.25h.1l-.133-15.25h5.478v23.37h-6.404zM427.705 107.195c0 2.046-.38 3.812-1.14 5.297-.758 1.485-1.76 2.707-3.003 3.664-1.244.957-2.646 1.662-4.208 2.112-1.562.45-3.147.677-4.753.677h-8.713v-23.37h8.45c1.65 0 3.28.194 4.885.58 1.606.384 3.037 1.02 4.29 1.913 1.255.89 2.267 2.085 3.038 3.58.77 1.498 1.155 3.346 1.155 5.547zm-5.876 0c0-1.32-.215-2.416-.645-3.285s-1-1.562-1.716-2.08c-.716-.516-1.53-.885-2.444-1.105-.913-.22-1.854-.33-2.822-.33h-2.806v13.666h2.673c1.013 0 1.987-.114 2.922-.346.935-.23 1.76-.61 2.476-1.14.715-.527 1.287-1.23 1.716-2.11.43-.882.645-1.97.645-3.27z"/></g><path fill="#3486C7" d="M296.49 2.068h14.57v16.248l-14.57 9.81z"/><g fill="#fff"><path d="M343.967 20.247L328.51 33.854l-9.253-10.668L344.403 1.96h15.24v77.068h-15.675v-58.78zM425.172 16.328h-30.588l-.327 11.865c1.668-.58 3.955-.87 6.858-.87 3.918 0 7.51.58 10.776 1.74 3.267 1.163 6.078 2.85 8.438 5.063 2.357 2.215 4.19 4.898 5.497 8.055 1.306 3.158 1.96 6.696 1.96 10.615 0 4.354-.746 8.237-2.232 11.647-1.488 3.412-3.538 6.296-6.15 8.654-2.613 2.36-5.715 4.155-9.307 5.39-3.592 1.23-7.494 1.85-11.702 1.85-6.677 0-12.265-1.633-16.764-4.898-4.5-3.266-7.584-8.2-9.252-14.805l17.09-3.92c.435 2.76 1.595 4.99 3.483 6.696 1.887 1.705 4.246 2.557 7.076 2.557 3.483 0 6.26-1.09 8.328-3.266 2.068-2.176 3.103-4.934 3.103-8.272 0-2.54-.527-4.626-1.58-6.26-1.052-1.632-2.43-2.938-4.135-3.918-1.706-.98-3.61-1.65-5.715-2.014-2.105-.362-4.21-.544-6.313-.544-2.686 0-5.388.255-8.11.762-2.72.508-5.352 1.197-7.89 2.068l.87-42.562h46.59v14.368z"/></g></svg>